<svg width="16" height="16" viewBox="0 0 16 16" fill="none" xmlns="http://www.w3.org/2000/svg">
<path d="M12 0V4H16L12 0ZM7.73123 7.57188C7.38123 7.21563 7.32186 7.17188 7.24061 6.9C7.21248 6.80938 7.18436 6.69375 7.14061 6.53125C7.11873 6.45 7.09061 6.375 7.04998 6.30625C6.93123 6.09688 6.73436 5.94063 6.49686 5.875C6.09686 5.76562 5.97811 5.74375 5.83123 5.625C5.77498 5.57812 5.71248 5.51562 5.59686 5.42812C5.58123 5.38438 5.50311 5.33125 5.47186 5.275C5.39373 5.19375 5.30311 5.1375 5.20623 5.06563C5.18123 5.08125 5.15936 5.07188 5.13436 5.0625C5.03748 5.025 4.93123 5 4.82498 5C4.82443 5 4.82553 5 4.82498 5C4.82492 5 4.82504 5 4.82498 5C4.82492 5 4.82504 5 4.82498 5C4.74686 5 4.66873 5.00938 4.59061 5.03125C4.59823 5.02917 4.60563 5.03003 4.61326 5.02832C4.60623 5.00313 4.59686 5.02812 4.59061 5.03125C4.27186 5.11875 4.13436 5.15938 3.97186 5.15938C3.83564 5.15938 3.70007 5.11641 3.38373 5.03047C3.33436 5.00938 3.25311 5 3.17498 5C3.17443 5 3.17553 5 3.17498 5C3.06811 5 2.96436 5.025 2.86498 5.0625C2.84029 5.07188 2.81748 5.08125 2.79373 5.06563C2.69717 5.1375 2.60529 5.19375 2.52779 5.275C2.05904 5.74688 2.13717 5.7 1.50436 5.875C1.18811 5.9625 0.940606 6.2125 0.858731 6.53125C0.794356 6.775 0.761856 6.91563 0.720294 7.01875C0.651231 7.19688 0.559356 7.275 0.268919 7.57188C0.210325 7.62813 0.162106 7.69375 0.122044 7.76562C0.00193415 7.975 -0.0324565 8.22813 0.031981 8.47188C0.203856 9.11625 0.19995 9.02656 0.031981 9.67125C-0.0324565 9.9115 0.00193102 10.165 0.122044 10.3756C0.162075 10.4458 0.210325 10.5112 0.268919 10.5698C0.614544 10.9242 0.677981 10.9689 0.760169 11.2411C0.787512 11.3318 0.815794 11.4477 0.858762 11.6089C0.940794 11.9333 1.18814 12.1833 1.5047 12.2689C1.72932 12.3295 1.81907 12.3529 1.8697 12.369C1.92032 12.3851 1.93229 12.3939 2.00057 12.4252V16L4.00026 15L5.99995 16V12.425C6.13276 12.3625 6.04686 12.3898 6.49589 12.2688C6.73314 12.2043 6.93057 12.0476 7.04932 11.8363C7.08889 11.7659 7.11986 11.6895 7.14036 11.6085C7.18332 11.4463 7.21232 11.3299 7.23939 11.2391C7.32045 10.9664 7.38154 10.9238 7.73001 10.5694C7.96439 10.335 8.05439 9.99128 7.96829 9.67097C7.80032 9.02659 7.79642 9.11628 7.96829 8.47159C8.05311 8.15 7.96561 7.80625 7.73123 7.57188ZM3.99998 11C3.86179 11 3.72682 10.9861 3.59654 10.9595C3.33604 10.9062 3.09404 10.8024 2.88123 10.6587C2.66851 10.5149 2.48498 10.3315 2.34123 10.1187C2.12623 9.8 2.00061 9.41562 2.00061 9C2.00061 8.58438 2.12626 8.20062 2.34186 7.88125C2.48548 7.66847 2.66904 7.485 2.88186 7.34125C3.09464 7.19756 3.33654 7.09369 3.59717 7.04047C3.72811 7.0125 3.86248 7 3.99998 7C5.10529 7 5.99967 7.89437 5.99967 9C5.99967 10.1056 5.10623 11 3.99998 11Z" fill="white"/>
<path opacity="0.4" d="M12 4V0H5.5C4.67188 0 4 0.671562 4 1.5L4.00002 4.15438C4.05415 4.14229 4.1189 4.12275 4.20874 4.09834L4.32733 4.06612C4.4894 4.02219 4.65671 3.99984 4.82421 3.99984C5.3314 3.99984 5.82733 4.20847 6.18515 4.57234L6.27083 4.65963C6.33865 4.72897 6.38608 4.78047 6.42793 4.81906C6.48077 4.8364 6.54696 4.85238 6.6374 4.87703L6.75771 4.91C7.41708 5.09066 7.93115 5.61063 8.10583 6.27156L8.14096 6.40444C8.16568 6.49844 8.18137 6.56631 8.1989 6.62038C8.23765 6.66444 8.29015 6.71425 8.36168 6.78675L8.43705 6.86316C8.9233 7.35597 9.11268 8.06566 8.9333 8.73441L8.90668 8.83362C8.87878 8.93762 8.8568 9.01003 8.84468 9.06984C8.85625 9.125 8.875 9.19063 8.9 9.28438L8.93388 9.41328C9.11234 10.0786 8.92191 10.793 8.44263 11.272L8.35278 11.3631C8.28547 11.4312 8.23547 11.4788 8.19812 11.5208C8.18061 11.5754 8.16481 11.644 8.13997 11.7388L8.10927 11.8553C7.96089 12.4419 7.54614 12.9197 6.99927 13.1512L6.97188 16H14.5C15.3284 16 16 15.3284 16 14.5V4H12Z" fill="white"/>
</svg>
