<svg width="16" height="16" viewBox="0 0 16 16" fill="none" xmlns="http://www.w3.org/2000/svg">
<path d="M1.75011 8.00008C1.75011 8.19899 1.82913 8.38976 1.96978 8.53041C2.11043 8.67106 2.3012 8.75008 2.50011 8.75008H11.6876L8.46886 11.9688C8.39894 12.0385 8.34346 12.1213 8.30561 12.2125C8.26776 12.3036 8.24827 12.4014 8.24827 12.5001C8.24827 12.5988 8.26776 12.6965 8.30561 12.7877C8.34346 12.8789 8.39894 12.9617 8.46886 13.0313C8.61039 13.171 8.80125 13.2494 9.00011 13.2494C9.19897 13.2494 9.38983 13.171 9.53136 13.0313L14.0314 8.53133C14.1013 8.46165 14.1568 8.37886 14.1946 8.28769C14.2325 8.19653 14.252 8.09879 14.252 8.00008C14.252 7.90137 14.2325 7.80363 14.1946 7.71247C14.1568 7.6213 14.1013 7.53851 14.0314 7.46883L9.53136 2.96883C9.39047 2.82793 9.19937 2.74878 9.00011 2.74878C8.90145 2.74878 8.80375 2.76821 8.7126 2.80597C8.62145 2.84373 8.53863 2.89907 8.46886 2.96883C8.3991 3.0386 8.34376 3.12142 8.306 3.21257C8.26824 3.30372 8.24881 3.40142 8.24881 3.50008C8.24881 3.59874 8.26824 3.69644 8.306 3.78759C8.34376 3.87874 8.3991 3.96157 8.46886 4.03133L11.6876 7.25008H2.50011C2.3012 7.25008 2.11043 7.3291 1.96978 7.46975C1.82913 7.6104 1.75011 7.80117 1.75011 8.00008Z" fill="#2E50A3"/>
</svg>
