<svg width="16" height="16" viewBox="0 0 16 16" fill="none" xmlns="http://www.w3.org/2000/svg">
<g clip-path="url(#clip0_296_1221)">
<path fill-rule="evenodd" clip-rule="evenodd" d="M3.30461 7.42188H11.7525V4.86198H9.06112C8.77856 4.86198 8.38533 4.70964 8.19914 4.52344C8.01294 4.33724 7.89966 4.0013 7.89966 3.72005V0.994792H1.06112C1.03768 0.994792 1.01945 1.00651 1.00773 1.01823C0.9882 1.03125 0.982992 1.04818 0.982992 1.07292V14.9336C0.982992 14.9518 0.99471 14.9753 1.00643 14.987C1.01815 15.0052 1.04289 15.0104 1.05981 15.0104C4.02596 15.0104 8.62362 15.0104 11.6731 15.0104C11.6965 15.0104 11.6952 14.9987 11.7083 14.987C11.7265 14.9753 11.7512 14.9505 11.7512 14.9336V13.4805H3.30461C2.76554 13.4805 2.32023 13.0378 2.32023 12.4961V8.40495C2.32023 7.86458 2.76294 7.42188 3.30461 7.42188ZM5.97388 10.7227L6.79289 10.9701C6.7382 11.1992 6.65096 11.3919 6.53247 11.5456C6.41398 11.6992 6.26815 11.8164 6.09237 11.8945C5.91659 11.9727 5.69393 12.0117 5.4231 12.0117C5.09367 12.0117 4.82544 11.9635 4.61711 11.8685C4.40877 11.7721 4.22908 11.6042 4.07804 11.3646C3.927 11.125 3.85018 10.8164 3.85018 10.4414C3.85018 9.94141 3.98299 9.55729 4.24862 9.28906C4.51554 9.02083 4.89185 8.88672 5.37883 8.88672C5.75903 8.88672 6.05981 8.96354 6.27726 9.11719C6.49471 9.27083 6.65747 9.50781 6.76294 9.82682L5.94002 10.0091C5.91138 9.91797 5.88143 9.85026 5.84888 9.80859C5.79549 9.73698 5.73169 9.68229 5.65617 9.64453C5.58065 9.60547 5.49601 9.58724 5.40226 9.58724C5.19002 9.58724 5.02726 9.67188 4.91398 9.84245C4.82935 9.96875 4.78638 10.1667 4.78638 10.4362C4.78638 10.7708 4.83716 11 4.93872 11.125C5.04028 11.2487 5.18351 11.3112 5.36841 11.3112C5.54679 11.3112 5.68221 11.2617 5.77336 11.1602C5.86711 11.0586 5.93221 10.9141 5.97388 10.7227ZM7.09237 10.9596L7.97908 10.9036C7.99862 11.0469 8.03768 11.1576 8.09627 11.2318C8.19263 11.3542 8.32934 11.4154 8.50903 11.4154C8.64184 11.4154 8.74471 11.3841 8.81632 11.3216C8.88924 11.2591 8.9244 11.1862 8.9244 11.1042C8.9244 11.026 8.89054 10.9557 8.82283 10.8932C8.75513 10.8307 8.59497 10.7734 8.34627 10.7174C7.93612 10.6263 7.64575 10.5039 7.47127 10.3503C7.29549 10.1979 7.20695 10.0039 7.20695 9.76693C7.20695 9.61198 7.25252 9.46615 7.34237 9.32813C7.43221 9.1901 7.56763 9.08073 7.74862 9.0026C7.92961 8.92318 8.177 8.88412 8.49211 8.88412C8.87882 8.88412 9.17309 8.95573 9.37492 9.10026C9.57804 9.24349 9.69783 9.47266 9.7369 9.78646L8.85799 9.83854C8.83455 9.70182 8.78507 9.60156 8.71086 9.53906C8.63533 9.47656 8.53247 9.44531 8.40096 9.44531C8.29289 9.44531 8.21086 9.46875 8.15487 9.51432C8.10018 9.5599 8.07283 9.61589 8.07283 9.68229C8.07283 9.73047 8.09497 9.77344 8.13924 9.8112C8.18221 9.85156 8.28638 9.88802 8.45044 9.92188C8.85929 10.0104 9.15096 10.099 9.32674 10.1888C9.50382 10.2786 9.63273 10.3906 9.71216 10.5234C9.79289 10.6563 9.83195 10.806 9.83195 10.9714C9.83195 11.1654 9.77856 11.3438 9.67179 11.5078C9.56372 11.6706 9.41528 11.7956 9.22257 11.8802C9.02987 11.9648 8.78768 12.0065 8.49601 12.0065C7.98169 12.0065 7.62622 11.9076 7.4283 11.7096C7.23039 11.5156 7.11841 11.2643 7.09237 10.9596ZM10.0142 8.9362H10.9908L11.6718 11.112L12.3437 8.9362H13.2916L12.1692 11.9596H11.1575L10.0142 8.9362ZM12.733 7.42188H14.026C14.5676 7.42188 15.0103 7.86589 15.0103 8.40625V12.4974C15.0103 13.0378 14.5663 13.4818 14.026 13.4818H12.733V15.2461C12.733 15.4557 12.6484 15.6419 12.5116 15.7799C12.3736 15.918 12.1874 16.0013 11.9778 16.0013C8.14445 16.0013 4.60929 16.0013 0.756429 16.0013C0.546794 16.0013 0.360596 15.918 0.222575 15.7799C0.084554 15.6419 0.0012207 15.4557 0.0012207 15.2461V0.761719C0.0012207 0.552083 0.0858561 0.365885 0.222575 0.227865C0.360596 0.0898438 0.552002 0.00651042 0.756429 0.00651042H8.40226C8.41919 0 8.43742 0 8.45565 0C8.53898 0 8.62362 0.0364583 8.68351 0.0898438H8.69523C8.70695 0.0963542 8.71346 0.101563 8.72518 0.113281L12.6301 4.06641C12.6965 4.13281 12.7447 4.22266 12.7447 4.32422C12.7447 4.35417 12.7382 4.3776 12.733 4.40885V7.42188ZM8.79158 3.64193V1.16406L11.5819 3.98958H9.13924C9.04289 3.98958 8.95955 3.94792 8.89315 3.88802C8.83325 3.82813 8.79158 3.73828 8.79158 3.64193Z" fill="#21A366"/>
</g>
<defs>
<clipPath id="clip0_296_1221">
<rect width="15.0104" height="16" fill="white"/>
</clipPath>
</defs>
</svg>
