<svg width="12" height="16" viewBox="0 0 12 16" fill="none" xmlns="http://www.w3.org/2000/svg">
<path d="M7.99988 0V4H11.9999L7.99988 0ZM6.50301 7.21875C6.21004 6.92578 5.73551 6.92578 5.44238 7.21875L2.94238 9.71875C2.64941 10.0117 2.64941 10.4862 2.94238 10.7794C3.23535 11.0725 3.70988 11.0723 4.00301 10.7794L5.24988 9.55937V13.25C5.24988 13.6656 5.58738 14 5.99988 14C6.41238 14 6.74988 13.6641 6.74988 13.25V9.55937L7.96957 10.7791C8.11551 10.9281 8.30613 11 8.49988 11C8.69363 11 8.88363 10.9268 9.0302 10.7803C9.32316 10.4873 9.32316 10.0128 9.0302 9.71966L6.50301 7.21875Z" fill="white"/>
<path opacity="0.4" d="M8 4V0H1.5C0.671562 0 0 0.671562 0 1.5V14.5C0 15.3281 0.671562 16 1.5 16H10.5C11.3284 16 12 15.3284 12 14.5V4H8ZM9.00313 10.7531C8.88438 10.9281 8.69375 11 8.5 11C8.30625 11 8.11625 10.9268 7.96969 10.7803L6.75 9.55937V13.25C6.75 13.6641 6.41406 14 6 14C5.58594 14 5.25 13.6641 5.25 13.25V9.55937L4.03031 10.7791C3.73734 11.072 3.26281 11.072 2.96969 10.7791C2.67656 10.4861 2.67672 10.0116 2.96969 9.71844L5.46969 7.21844C5.76266 6.92547 6.23719 6.92547 6.53031 7.21844L9.03031 9.71844C9.32187 10.0125 9.32188 10.4875 9.00313 10.7531Z" fill="white"/>
</svg>
