<svg width="140" height="235" viewBox="0 0 140 235" fill="none" xmlns="http://www.w3.org/2000/svg">
<g opacity="0.42" clip-path="url(#clip0_559_17009)">
<path d="M92.7498 0V49.3698L65.7402 64.9192V16.9022L92.7498 0Z" fill="#2B519E" fill-opacity="0.1"/>
<path d="M120.435 15.5574L92.75 0V49.3698L120.435 64.9192V15.5574Z" fill="#1AA8DF" fill-opacity="0.1"/>
<path d="M187.025 212.344L144.322 236.997L117.375 221.32L158.911 197.352L187.025 212.344Z" fill="#2B519E" fill-opacity="0.1"/>
<path d="M120.101 211.333V161.964L147.111 146.406V194.423L120.101 211.333Z" fill="#2B519E" fill-opacity="0.1"/>
<path d="M92.416 195.776L120.101 211.333V161.964L92.416 146.406V195.776Z" fill="#1AA8DF" fill-opacity="0.1"/>
<path d="M88.7764 125.27L131.488 100.617L158.434 116.286L116.891 140.263L88.7764 125.27Z" fill="#2B519E" fill-opacity="0.1"/>
<path d="M88.4111 93.4792L88.7767 125.27L131.488 100.617L131.123 68.8262L88.4111 93.4792Z" fill="#1AA8DF" fill-opacity="0.1"/>
<path d="M70.0152 135.599L27.2401 111.058L27.1924 79.8555L68.7915 103.729L70.0152 135.599Z" fill="#2B519E" fill-opacity="0.1"/>
<path d="M42.7672 151.93L70.0152 135.6L27.24 111.059L0 127.38L42.7672 151.93Z" fill="#1AA8DF" fill-opacity="0.1"/>
<path d="M131.536 61.1079L159.229 76.6653V27.2955L131.536 11.7461V61.1079Z" fill="#1AA8DF" fill-opacity="0.1"/>
<path d="M44.5786 220.025V170.663L71.5882 155.105V203.122L44.5786 220.025Z" fill="#2B519E" fill-opacity="0.1"/>
<path d="M16.8936 204.475L44.5786 220.025V170.663L16.8936 155.105V204.475Z" fill="#1AA8DF" fill-opacity="0.1"/>
<path d="M44.2925 288.126V238.764L71.3021 223.207V271.224L44.2925 288.126Z" fill="#2B519E" fill-opacity="0.1"/>
<path d="M16.5996 272.577L44.2926 288.126V238.764L16.5996 223.207V272.577Z" fill="#1AA8DF" fill-opacity="0.1"/>
</g>
<defs>
<clipPath id="clip0_559_17009">
<rect width="340" height="354" fill="white"/>
</clipPath>
</defs>
</svg>
