<svg width="18" height="16" viewBox="0 0 18 16" fill="none" xmlns="http://www.w3.org/2000/svg">
<g clip-path="url(#clip0_887_14886)">
<path d="M9 11.5C9 9.01562 11.0156 7 13.5 7C15.9844 7 18 9.01562 18 11.5C18 13.9844 15.9844 16 13.5 16C11.0156 16 9 13.9844 9 11.5ZM15.6031 10.8531C15.8 10.6594 15.8 10.3406 15.6031 10.1469C15.4094 9.95 15.0906 9.95 14.8969 10.1469L13 12.0437L12.1031 11.1469C11.9094 10.95 11.5906 10.95 11.3969 11.1469C11.2 11.3406 11.2 11.6594 11.3969 11.8531L12.6469 13.1031C12.8406 13.3 13.1594 13.3 13.3531 13.1031L15.6031 10.8531Z" fill="#797979"/>
<path opacity="0.4" d="M3.5 1.5C3.5 0.671562 4.17187 0 5 0C5.82812 0 6.5 0.671562 6.5 1.5C6.5 2.32844 5.82812 3 5 3C4.17187 3 3.5 2.32844 3.5 1.5ZM3.75 16C3.19687 16 2.75 15.5531 2.75 15V8.02812L1.85719 9.51562C1.57281 9.9875 0.958437 10.1406 0.484999 9.85625C0.0115491 9.57187 -0.141595 8.95938 0.142905 8.48438L1.96406 5.45625C2.50625 4.55313 3.48125 4 4.53437 4H5.46562C6.51875 4 7.49375 4.55313 8.0375 5.45625L9.44062 7.79063C8.90937 8.34062 8.54375 8.99062 8.29687 9.7125C8.2375 9.65312 8.15937 9.5875 8.14375 9.51562L7.25 8.02812V15C7.25 15.5531 6.80312 16 6.25 16C5.69687 16 5.25 15.5531 5.25 15V11H4.75V15C4.75 15.5531 4.30312 16 3.75 16Z" fill="#797979"/>
</g>
<defs>
<clipPath id="clip0_887_14886">
<rect width="18" height="16" fill="white"/>
</clipPath>
</defs>
</svg>
