<svg width="18" height="16" viewBox="0 0 18 16" fill="none" xmlns="http://www.w3.org/2000/svg">
<g clip-path="url(#clip0_296_1209)">
<path d="M10.8 7.6L4 6.4V15.2668C4 15.6717 4.32826 16 4.7332 16H16.4668C16.8717 16 17.2 15.6717 17.2 15.2668V12L10.8 7.6Z" fill="#185C37"/>
<path d="M10.8 0H4.7332C4.32826 0 4 0.328263 4 0.733198V4L10.8 8L14.4 9.2L17.2 8V4L10.8 0Z" fill="#21A366"/>
<path d="M4 4H10.8V8H4V4Z" fill="#107C41"/>
<path opacity="0.1" d="M8.8668 3.2H4V13.2H8.8668C9.27119 13.1987 9.59869 12.8712 9.6 12.4668V3.9332C9.59869 3.52881 9.27119 3.20131 8.8668 3.2Z" fill="black"/>
<path opacity="0.2" d="M8.4668 3.6H4V13.6H8.4668C8.87119 13.5987 9.19869 13.2712 9.2 12.8668V4.3332C9.19869 3.92881 8.87119 3.60131 8.4668 3.6Z" fill="black"/>
<path opacity="0.2" d="M8.4668 3.6H4V12.8H8.4668C8.87119 12.7987 9.19869 12.4712 9.2 12.0668V4.3332C9.19869 3.92881 8.87119 3.60131 8.4668 3.6Z" fill="black"/>
<path opacity="0.2" d="M8.0668 3.6H4V12.8H8.0668C8.47119 12.7987 8.79869 12.4712 8.8 12.0668V4.3332C8.79869 3.92881 8.47119 3.60131 8.0668 3.6Z" fill="black"/>
<path d="M0.733198 3.6H8.06679C8.47173 3.6 8.79999 3.92826 8.79999 4.3332V11.6668C8.79999 12.0717 8.47173 12.4 8.06679 12.4H0.733198C0.328263 12.4 0 12.0717 0 11.6668V4.3332C0 3.92826 0.328263 3.6 0.733198 3.6Z" fill="url(#paint0_linear_296_1209)"/>
<path d="M2.27075 10.3832L3.81315 7.9932L2.39995 5.61639H3.53675L4.30795 7.13639C4.37915 7.28079 4.42795 7.38799 4.45435 7.45879H4.46435C4.51502 7.34359 4.56835 7.23173 4.62435 7.12319L5.44875 5.6172H6.49235L5.04315 7.98L6.52916 10.3832H5.41876L4.52795 8.7148C4.48599 8.64381 4.45039 8.56925 4.42156 8.492H4.40836C4.38226 8.56768 4.34764 8.64015 4.30516 8.708L3.38796 10.3832H2.27075Z" fill="white"/>
<path d="M16.4669 0H10.8V4H17.2V0.733198C17.2 0.328263 16.8718 0 16.4669 0Z" fill="#33C481"/>
<path d="M10.8 8H17.2V12H10.8V8Z" fill="#107C41"/>
</g>
<defs>
<linearGradient id="paint0_linear_296_1209" x1="1.52874" y1="3.02709" x2="7.27126" y2="12.9729" gradientUnits="userSpaceOnUse">
<stop stop-color="#18884F"/>
<stop offset="0.5" stop-color="#117E43"/>
<stop offset="1" stop-color="#0B6631"/>
</linearGradient>
<clipPath id="clip0_296_1209">
<rect width="17.2" height="16" fill="white"/>
</clipPath>
</defs>
</svg>
