<svg width="111" height="354" viewBox="0 0 111 354" fill="none" xmlns="http://www.w3.org/2000/svg">
<g opacity="0.42" clip-path="url(#clip0_4596_26819)">
<path d="M92.7497 0V49.3698L65.7401 64.9192V16.9022L92.7497 0Z" fill="#2B519E" fill-opacity="0.1"/>
<path d="M120.435 15.5574L92.7498 0V49.3698L120.435 64.9192V15.5574Z" fill="#1AA8DF" fill-opacity="0.1"/>
<path d="M92.416 195.776L120.101 211.333V161.964L92.416 146.406V195.776Z" fill="#1AA8DF" fill-opacity="0.1"/>
<path d="M88.7754 125.27L131.487 100.617L158.433 116.286L116.89 140.263L88.7754 125.27Z" fill="#2B519E" fill-opacity="0.1"/>
<path d="M88.4102 93.4792L88.7757 125.27L131.487 100.617L131.122 68.8262L88.4102 93.4792Z" fill="#1AA8DF" fill-opacity="0.1"/>
<path d="M70.0142 135.599L27.2391 111.058L27.1914 79.8555L68.7905 103.729L70.0142 135.599Z" fill="#2B519E" fill-opacity="0.1"/>
<path d="M42.7672 151.93L70.0152 135.6L27.24 111.059L0 127.38L42.7672 151.93Z" fill="#1AA8DF" fill-opacity="0.1"/>
<path d="M44.5801 220.025V170.663L71.5897 155.105V203.122L44.5801 220.025Z" fill="#2B519E" fill-opacity="0.1"/>
<path d="M16.8945 204.475L44.5796 220.025V170.663L16.8945 155.105V204.475Z" fill="#1AA8DF" fill-opacity="0.1"/>
<path d="M147.134 354L174.374 337.678L131.607 313.137L104.367 329.458L147.134 354Z" fill="#1AA8DF" fill-opacity="0.1"/>
<path d="M44.293 288.126V238.764L71.3026 223.207V271.224L44.293 288.126Z" fill="#2B519E" fill-opacity="0.1"/>
<path d="M16.5996 272.577L44.2926 288.126V238.764L16.5996 223.207V272.577Z" fill="#1AA8DF" fill-opacity="0.1"/>
<path d="M123.422 301.646L80.6471 277.097L80.6074 245.895L122.206 269.768L123.422 301.646Z" fill="#2B519E" fill-opacity="0.1"/>
<path d="M96.1814 317.969L123.421 301.647L80.6463 277.098L53.4062 293.427L96.1814 317.969Z" fill="#1AA8DF" fill-opacity="0.1"/>
</g>
<defs>
<clipPath id="clip0_4596_26819">
<rect width="340" height="354" fill="white"/>
</clipPath>
</defs>
</svg>
