<svg width="20" height="20" viewBox="0 0 20 20" fill="none" xmlns="http://www.w3.org/2000/svg">
<path d="M5.625 10C5.625 9.48047 6.04297 9.0625 6.5625 9.0625H13.4375C13.957 9.0625 14.375 9.48047 14.375 10C14.375 10.5195 13.957 10.9375 13.4375 10.9375H6.5625C6.04297 10.9375 5.625 10.5195 5.625 10Z" fill="#EF525B"/>
<path opacity="0.4" d="M0 10C0 4.47656 4.47656 0 10 0C15.5234 0 20 4.47656 20 10C20 15.5234 15.5234 20 10 20C4.47656 20 0 15.5234 0 10ZM6.5625 9.0625C6.04297 9.0625 5.625 9.48047 5.625 10C5.625 10.5195 6.04297 10.9375 6.5625 10.9375H13.4375C13.957 10.9375 14.375 10.5195 14.375 10C14.375 9.48047 13.957 9.0625 13.4375 9.0625H6.5625Z" fill="#EF525B"/>
</svg>
