<svg width="16" height="16" viewBox="0 0 16 16" fill="none" xmlns="http://www.w3.org/2000/svg">
<g clip-path="url(#clip0_248_1306)">
<path d="M12 8.70625C11.2762 7.9825 10.2009 7.84469 9.33156 8.27188L5.97188 4.9375V2.99969L2 0L0 1.97187L3 5.94375L4.93875 5.94399L8.27312 9.27524C7.84594 10.1446 7.98403 11.2199 8.70781 11.9437L12.3641 15.6031C12.8209 16.0562 13.5581 16.0562 14.0112 15.603L15.6597 13.9546C16.1128 13.5014 16.1128 12.7646 15.6596 12.3074L12 8.70625Z" fill="#D644B1"/>
<path opacity="0.4" d="M7.1219 9.59372L5.2719 7.74685L0.618779 12.4C-0.205283 13.224 -0.205283 14.5587 0.618779 15.3828C1.03003 15.7937 1.56909 16 2.1094 16C2.64972 16 3.18878 15.794 3.60065 15.3818L7.32253 11.66C7.0469 11.0093 6.95628 10.2937 7.1219 9.59372ZM2.00003 14.75C1.58597 14.75 1.25003 14.414 1.25003 14C1.25003 13.5856 1.58597 13.25 2.00003 13.25C2.41409 13.25 2.75003 13.5843 2.75003 14C2.75003 14.4156 2.41409 14.75 2.00003 14.75ZM15.8657 3.4156C15.8144 3.21466 15.6099 3.09341 15.4091 3.14466C15.3437 3.16138 15.2839 3.19538 15.2362 3.24316L12.9096 5.57128L10.7859 5.21753L10.4321 3.09222L12.7587 0.765658C12.9055 0.619158 12.9058 0.381596 12.7593 0.234721C12.7104 0.185721 12.649 0.151158 12.5816 0.134939C11.0475 -0.246936 9.45348 0.203408 8.30973 1.32181C7.06878 2.5606 6.72503 4.35935 7.24378 5.92497L7.11565 6.0531L9.33284 8.27091C10.2235 7.82903 11.2966 8.00372 12.0013 8.70528L12.2362 8.93885C13.1624 8.79138 14.0183 8.35541 14.6805 7.69103C15.8 6.57185 16.2219 4.94997 15.8657 3.4156Z" fill="#D644B1"/>
</g>
<defs>
<clipPath id="clip0_248_1306">
<rect width="16" height="16" fill="white"/>
</clipPath>
</defs>
</svg>
