<svg width="12" height="16" viewBox="0 0 12 16" fill="none" xmlns="http://www.w3.org/2000/svg">
<path d="M6.5 10H2.5C2.22375 10 2 10.225 2 10.5C2 10.775 2.22375 11 2.5 11H6.5C6.77619 11 7 10.7761 7 10.5C7 10.2239 6.775 10 6.5 10ZM9.5 7H2.5C2.22375 7 2 7.225 2 7.5C2 7.775 2.22375 8 2.5 8H9.5C9.775 8 10 7.775 10 7.5C10 7.225 9.775 7 9.5 7ZM9.5 4H2.5C2.22375 4 2 4.225 2 4.5C2 4.775 2.22375 5 2.5 5H9.5C9.775 5 10 4.775 10 4.5C10 4.225 9.775 4 9.5 4Z" fill="#D55891"/>
<path opacity="0.4" d="M10 0H2C0.895313 0 0 0.895313 0 2V14C0 15.1047 0.895313 16 2 16H10C11.1047 16 12 15.1047 12 14V2C12 0.895313 11.1031 0 10 0ZM6.5 11H2.5C2.22375 11 2 10.775 2 10.5C2 10.225 2.22375 10 2.5 10H6.5C6.77619 10 7 10.2239 7 10.5C7 10.7761 6.775 11 6.5 11ZM9.5 8H2.5C2.22375 8 2 7.775 2 7.5C2 7.225 2.22375 7 2.5 7H9.5C9.775 7 10 7.225 10 7.5C10 7.775 9.775 8 9.5 8ZM9.5 5H2.5C2.22375 5 2 4.775 2 4.5C2 4.225 2.22375 4 2.5 4H9.5C9.775 4 10 4.225 10 4.5C10 4.775 9.775 5 9.5 5Z" fill="#D55891"/>
</svg>
