<svg width="19" height="18" viewBox="0 0 19 18" fill="none" xmlns="http://www.w3.org/2000/svg">
<g clip-path="url(#clip0_511_9629)">
<path d="M12.9271 10.7936L9.41378 14.2348L5.90052 10.7936C3.51987 11.5372 1.78809 13.7013 1.78809 16.2788C1.78809 16.9191 2.31678 17.4359 2.96837 17.4359H15.8606C16.5118 17.4359 17.0395 16.9191 17.0395 16.2788C17.0395 13.7013 15.3067 11.5372 12.9271 10.7936ZM2.2521 3.02254L2.46895 3.07256V5.02324C2.23065 5.16162 2.06043 5.40838 2.06043 5.69848C2.06043 5.97774 2.21788 6.21132 2.43899 6.35704L1.90724 8.43277C1.84766 8.66284 1.97975 8.89959 2.16699 8.89959H3.5883C3.77553 8.89959 3.90745 8.66201 3.84788 8.46278L3.31595 6.35871C3.53723 6.21199 3.69451 5.97857 3.69451 5.69848C3.69451 5.40671 3.52429 5.16096 3.28599 5.02324V3.26863L5.05624 3.68544L5.05628 5.69848H13.7407L13.7713 3.68511L16.5714 3.02254C17.1927 2.87666 17.1927 2.12223 16.5714 1.97218L10.0895 0.438307C9.64698 0.338273 9.18331 0.338273 8.74041 0.438307L2.25176 1.97218C1.63489 2.11823 1.63489 2.87683 2.2521 3.02254Z" fill="url(#paint0_linear_511_9629)"/>
<path opacity="0.4" d="M13.7707 5.66895C13.7707 8.0281 11.8218 9.9371 9.44384 9.9371C7.06592 9.9371 5.05566 8.05645 5.05566 5.66895H13.7707Z" fill="url(#paint1_linear_511_9629)"/>
</g>
<defs>
<linearGradient id="paint0_linear_511_9629" x1="9.41378" y1="0.363281" x2="9.41378" y2="17.4359" gradientUnits="userSpaceOnUse">
<stop stop-color="#F8C37B"/>
<stop offset="1" stop-color="#F6CC93"/>
</linearGradient>
<linearGradient id="paint1_linear_511_9629" x1="9.41321" y1="5.66895" x2="9.41321" y2="9.9371" gradientUnits="userSpaceOnUse">
<stop stop-color="#F8C37B"/>
<stop offset="1" stop-color="#F6CC93"/>
</linearGradient>
<clipPath id="clip0_511_9629">
<rect width="17.4302" height="17.0726" fill="white" transform="translate(0.698242 0.363281)"/>
</clipPath>
</defs>
</svg>
