<svg width="16" height="16" viewBox="0 0 16 16" fill="none" xmlns="http://www.w3.org/2000/svg">
<g clip-path="url(#clip0_248_2482)">
<path d="M8 7C8.82906 7 9.5 6.32906 9.5 5.5C9.5 4.67094 8.82812 4 8 4C7.17188 4 6.5 4.67188 6.5 5.5C6.5 6.32812 7.17188 7 8 7ZM9 8H7C6.17188 8 5.5 8.67188 5.5 9.5V11C5.5 11.5522 5.94781 12 6.5 12V15C6.5 15.5522 6.94781 16 7.5 16H8.5C9.05219 16 9.5 15.5522 9.5 15V12C10.0522 12 10.5 11.5522 10.5 11V9.5C10.5 8.67188 9.82812 8 9 8Z" fill="#2A7ABF"/>
<path opacity="0.4" d="M12 4C13.1056 4 14 3.10563 14 2C14 0.894375 13.1056 0 12 0C10.8944 0 10 0.894375 10 2C10 3.10563 10.8938 4 12 4ZM4 4C5.10563 4 6 3.10563 6 2C6 0.894375 5.10625 0 4 0C2.89375 0 2 0.894375 2 2C2 3.10563 2.89469 4 4 4ZM15.9812 11.3625L14.4744 6.0875C14.2906 5.44375 13.7 5 13.0031 5H10.9409C10.7624 5 10.5919 5.03572 10.4309 5.09419C10.4812 5.22813 10.5 5.3625 10.5 5.5C10.5 6.13469 10.2622 6.715 9.87094 7.15656C10.8219 7.50937 11.5 8.42813 11.5 9.5V11C11.5 11.7388 11.0975 12.3853 10.5 12.7316V15C10.5 15.2644 10.4458 15.5156 10.3521 15.7469C10.5281 15.9 10.7219 16 11 16H13C13.5522 16 14 15.5522 14 15V12H15.4997C15.8312 12 16.0719 11.6813 15.9812 11.3625ZM6.12813 7.15625C5.7375 6.71562 5.5 6.13438 5.5 5.5C5.5 5.35747 5.51908 5.21984 5.54209 5.08375C5.36875 5.03437 5.19063 5 5 5H3C1.89531 5 1 5.89687 1 7V10C1 10.5522 1.44781 11 2 11V15C2 15.5522 2.44781 16 3 16H5C5.25044 16 5.4725 15.8991 5.64781 15.747C5.55312 15.5156 5.5 15.2656 5.5 15V12.7316C4.90313 12.3844 4.5 11.7375 4.5 11V9.5C4.5 8.42813 5.17813 7.50938 6.12813 7.15625Z" fill="#2A7ABF"/>
</g>
<defs>
<clipPath id="clip0_248_2482">
<rect width="16" height="16" fill="white"/>
</clipPath>
</defs>
</svg>
