<svg width="18" height="20" viewBox="0 0 18 20" fill="none" xmlns="http://www.w3.org/2000/svg">
<g clip-path="url(#clip0_5_836)">
<path d="M3.75 1.25C3.75 0.559766 4.30859 0 5 0C5.69141 0 6.25 0.559766 6.25 1.25V2.5H11.25V1.25C11.25 0.559766 11.8086 0 12.5 0C13.1914 0 13.75 0.559766 13.75 1.25V2.5H15.625C16.6602 2.5 17.5 3.33945 17.5 4.375V7.5H0V4.375C0 3.33945 0.839453 2.5 1.875 2.5H3.75V1.25ZM3.75 11.5625C3.75 11.043 4.16797 10.625 4.6875 10.625H12.8125C13.332 10.625 13.75 11.043 13.75 11.5625C13.75 12.082 13.332 12.5 12.8125 12.5H4.6875C4.16797 12.5 3.75 12.082 3.75 11.5625ZM9.0625 14.375C9.58203 14.375 10 14.793 10 15.3125C10 15.832 9.58203 16.25 9.0625 16.25H4.6875C4.16797 16.25 3.75 15.832 3.75 15.3125C3.75 14.793 4.16797 14.375 4.6875 14.375H9.0625Z" fill="#3052A1"/>
<path opacity="0.4" d="M0 7.5H17.5V18.125C17.5 19.1602 16.6602 20 15.625 20H1.875C0.839453 20 0 19.1602 0 18.125V7.5ZM4.6875 12.5H12.8125C13.332 12.5 13.75 12.082 13.75 11.5625C13.75 11.043 13.332 10.625 12.8125 10.625H4.6875C4.16797 10.625 3.75 11.043 3.75 11.5625C3.75 12.082 4.16797 12.5 4.6875 12.5ZM4.6875 14.375C4.16797 14.375 3.75 14.793 3.75 15.3125C3.75 15.832 4.16797 16.25 4.6875 16.25H9.0625C9.58203 16.25 10 15.832 10 15.3125C10 14.793 9.58203 14.375 9.0625 14.375H4.6875Z" fill="#3052A1"/>
</g>
<defs>
<clipPath id="clip0_5_836">
<rect width="17.5" height="20" fill="white"/>
</clipPath>
</defs>
</svg>
