<svg width="46" height="62" viewBox="0 0 46 62" fill="none" xmlns="http://www.w3.org/2000/svg">
<path d="M14.5569 0.648438H23.3194C28.9679 0.648438 33.1602 1.33851 35.9063 2.71865C38.6524 4.09879 40.9098 6.34276 42.6885 9.4456C44.4622 12.5534 45.349 16.1775 45.349 20.3229C45.349 23.2718 44.8552 25.9825 43.8575 28.4548C42.8649 30.9272 41.4943 32.9775 39.7408 34.6108C37.9873 36.2442 36.0927 37.3711 34.052 37.9967C32.0113 38.6222 28.4741 38.935 23.4403 38.935H14.5569V0.648438Z" fill="#92BE33"/>
<path d="M14.8341 36.1814L0.871529 27.9204L0.680054 3.15234L14.6375 11.041L14.8341 36.1814Z" fill="#1EB8D5"/>
<path d="M14.8492 36.1793L28.6858 27.6949L28.4893 2.92188L14.6527 11.0389L14.8492 36.1793Z" fill="white"/>
<path d="M10.6015 50.1414C10.6015 50.5385 10.541 50.8761 10.4151 51.1542C10.2891 51.4322 10.1228 51.6655 9.90614 51.8442C9.68947 52.0229 9.43249 52.157 9.1352 52.2414C8.83791 52.3258 8.52047 52.3705 8.18287 52.3705C7.85031 52.3705 7.5379 52.3258 7.24061 52.2414C6.94332 52.157 6.68634 52.0229 6.4596 51.8442C6.23789 51.6655 6.06153 51.4322 5.93052 51.1442C5.79951 50.8563 5.73401 50.5187 5.73401 50.1215C5.73401 49.8088 5.77936 49.4861 5.87509 49.1634C5.96579 48.8407 6.0968 48.5378 6.26308 48.2549C6.28828 48.2151 6.33363 48.2052 6.40417 48.2251L7.43712 48.5527C7.46736 48.5676 7.48751 48.5825 7.49255 48.6024C7.49759 48.6222 7.49255 48.6471 7.47743 48.6719C7.38674 48.8456 7.30612 49.0442 7.23053 49.2676C7.15495 49.4861 7.11464 49.7343 7.11464 50.0123C7.11464 50.2307 7.14487 50.4194 7.21038 50.5683C7.27588 50.7173 7.3565 50.8414 7.46232 50.9357C7.56813 51.03 7.68402 51.0995 7.81503 51.1393C7.94604 51.179 8.07705 51.1988 8.2131 51.1988C8.54062 51.1988 8.79256 51.1095 8.979 50.9258C9.16544 50.7421 9.25613 50.4591 9.25613 50.0768V44.0201C9.25613 43.9605 9.28637 43.9258 9.35187 43.9258H10.5007C10.5612 43.9258 10.5965 43.9556 10.5965 44.0201V48.6917C10.6065 48.8506 10.6771 48.9747 10.803 49.0641C10.929 49.1534 11.1003 49.1981 11.3271 49.1981H11.5488C11.6748 49.1981 11.7705 49.2428 11.836 49.3322C11.9015 49.4215 11.9317 49.5655 11.9317 49.7641C11.9317 50.1463 11.8058 50.34 11.5488 50.34C11.3472 50.34 11.1658 50.3201 11.0147 50.2854C10.8635 50.2506 10.7224 50.1712 10.6015 50.0471V50.1414Z" fill="black"/>
<path d="M11.5588 50.3499C11.4328 50.3499 11.3421 50.3152 11.2867 50.2407C11.2313 50.1663 11.2061 50.0272 11.2061 49.8187C11.2061 49.6003 11.2312 49.4414 11.2816 49.3471C11.332 49.2528 11.4227 49.2031 11.5588 49.2031H12.7933C12.9192 49.2031 13.015 49.2478 13.0805 49.3421C13.146 49.4315 13.1762 49.5804 13.1762 49.7889C13.1762 50.0223 13.146 50.1712 13.0855 50.2407C13.0251 50.3102 12.9293 50.345 12.7933 50.345H11.5588V50.3499Z" fill="black"/>
<path d="M12.7934 50.3499C12.6674 50.3499 12.5767 50.3152 12.5213 50.2407C12.4659 50.1663 12.4407 50.0272 12.4407 49.8187C12.4407 49.6003 12.4659 49.4414 12.5163 49.3471C12.5666 49.2528 12.6573 49.2031 12.7934 49.2031H14.0279C14.1539 49.2031 14.2496 49.2478 14.3151 49.3421C14.3806 49.4315 14.4108 49.5804 14.4108 49.7889C14.4108 50.0223 14.3806 50.1712 14.3201 50.2407C14.2597 50.3102 14.1639 50.345 14.0279 50.345H12.7934V50.3499Z" fill="black"/>
<path d="M14.0279 50.3499C13.9019 50.3499 13.8112 50.3152 13.7558 50.2407C13.7004 50.1663 13.6752 50.0272 13.6752 49.8187C13.6752 49.6003 13.7004 49.4414 13.7508 49.3471C13.8011 49.2528 13.8918 49.2031 14.0279 49.2031H15.2624C15.3884 49.2031 15.4841 49.2478 15.5496 49.3421C15.6151 49.4315 15.6453 49.5804 15.6453 49.7889C15.6453 50.0223 15.6151 50.1712 15.5546 50.2407C15.4942 50.3102 15.3984 50.345 15.2624 50.345H14.0279V50.3499Z" fill="black"/>
<path d="M15.2624 50.3499C15.1364 50.3499 15.0457 50.3152 14.9903 50.2407C14.9349 50.1663 14.9097 50.0272 14.9097 49.8187C14.9097 49.6003 14.9349 49.4414 14.9853 49.3471C15.0356 49.2528 15.1263 49.2031 15.2624 49.2031H16.4969C16.6229 49.2031 16.7186 49.2478 16.7841 49.3421C16.8446 49.4315 16.8798 49.5804 16.8798 49.7889C16.8798 50.0223 16.8496 50.1712 16.7891 50.2407C16.7287 50.3102 16.6329 50.345 16.4969 50.345H15.2624V50.3499Z" fill="black"/>
<path d="M16.4969 50.3499C16.3709 50.3499 16.2802 50.3152 16.2248 50.2407C16.1694 50.1663 16.1442 50.0272 16.1442 49.8187C16.1442 49.6003 16.1694 49.4414 16.2197 49.3471C16.2701 49.2528 16.3608 49.2031 16.4969 49.2031H17.7314C17.8574 49.2031 17.9531 49.2478 18.0186 49.3421C18.0791 49.4315 18.1143 49.5804 18.1143 49.7889C18.1143 50.0223 18.0841 50.1712 18.0236 50.2407C17.9632 50.3102 17.8674 50.345 17.7314 50.345H16.4969V50.3499Z" fill="black"/>
<path d="M17.7314 50.3499C17.6054 50.3499 17.5147 50.3152 17.4593 50.2407C17.4039 50.1663 17.3787 50.0272 17.3787 49.8187C17.3787 49.6003 17.4039 49.4414 17.4542 49.3471C17.5046 49.2528 17.5953 49.2031 17.7314 49.2031H18.9659C19.0919 49.2031 19.1876 49.2478 19.2531 49.3421C19.3186 49.4315 19.3488 49.5804 19.3488 49.7889C19.3488 50.0223 19.3186 50.1712 19.2581 50.2407C19.1977 50.3102 19.1019 50.345 18.9659 50.345H17.7314V50.3499Z" fill="black"/>
<path d="M18.9659 50.3499C18.8399 50.3499 18.7492 50.3152 18.6938 50.2407C18.6384 50.1663 18.6132 50.0272 18.6132 49.8187C18.6132 49.6003 18.6384 49.4414 18.6887 49.3471C18.7391 49.2528 18.8298 49.2031 18.9659 49.2031H20.2004C20.3264 49.2031 20.4221 49.2478 20.4876 49.3421C20.5531 49.4315 20.5833 49.5804 20.5833 49.7889C20.5833 50.0223 20.5531 50.1712 20.4926 50.2407C20.4322 50.3102 20.3364 50.345 20.2004 50.345H18.9659V50.3499Z" fill="black"/>
<path d="M20.2004 50.3499C20.0744 50.3499 19.9837 50.3152 19.9283 50.2407C19.8728 50.1663 19.8477 50.0272 19.8477 49.8187C19.8477 49.6003 19.8729 49.4414 19.9232 49.3471C19.9736 49.2528 20.0643 49.2031 20.2004 49.2031H21.4349C21.5609 49.2031 21.6566 49.2478 21.7221 49.3421C21.7876 49.4315 21.8178 49.5804 21.8178 49.7889C21.8178 50.0223 21.7876 50.1712 21.7271 50.2407C21.6667 50.3102 21.5709 50.345 21.4349 50.345H20.2004V50.3499Z" fill="black"/>
<path d="M21.4349 50.3499C21.3089 50.3499 21.2182 50.3152 21.1628 50.2407C21.1073 50.1663 21.0822 50.0272 21.0822 49.8187C21.0822 49.6003 21.1073 49.4414 21.1577 49.3471C21.2081 49.2528 21.2988 49.2031 21.4349 49.2031H22.6694C22.7953 49.2031 22.8911 49.2478 22.9566 49.3421C23.0221 49.4315 23.0523 49.5804 23.0523 49.7889C23.0523 50.0223 23.0221 50.1712 22.9616 50.2407C22.9012 50.3102 22.8054 50.345 22.6694 50.345H21.4349V50.3499Z" fill="black"/>
<path d="M22.6694 50.3499C22.5434 50.3499 22.4527 50.3152 22.3973 50.2407C22.3418 50.1663 22.3167 50.0272 22.3167 49.8187C22.3167 49.6003 22.3418 49.4414 22.3922 49.3471C22.4426 49.2528 22.5333 49.2031 22.6694 49.2031H23.9039C24.0298 49.2031 24.1256 49.2478 24.1911 49.3421C24.2566 49.4315 24.2868 49.5804 24.2868 49.7889C24.2868 50.0223 24.2566 50.1712 24.1961 50.2407C24.1357 50.3102 24.0399 50.345 23.9039 50.345H22.6694V50.3499Z" fill="black"/>
<path d="M23.909 50.3499C23.783 50.3499 23.6923 50.3152 23.6369 50.2407C23.5815 50.1663 23.5563 50.0272 23.5563 49.8187C23.5563 49.6003 23.5815 49.4414 23.6319 49.3471C23.6822 49.2528 23.7729 49.2031 23.909 49.2031H25.1435C25.2695 49.2031 25.3652 49.2478 25.4307 49.3421C25.4962 49.4315 25.5264 49.5804 25.5264 49.7889C25.5264 50.0223 25.4962 50.1712 25.4357 50.2407C25.3753 50.3102 25.2795 50.345 25.1435 50.345H23.909V50.3499Z" fill="black"/>
<path d="M25.1435 50.3499C25.0175 50.3499 24.9268 50.3152 24.8714 50.2407C24.816 50.1663 24.7908 50.0272 24.7908 49.8187C24.7908 49.6003 24.816 49.4414 24.8664 49.3471C24.9167 49.2528 25.0074 49.2031 25.1435 49.2031H26.378C26.504 49.2031 26.5997 49.2478 26.6652 49.3421C26.7307 49.4315 26.7609 49.5804 26.7609 49.7889C26.7609 50.0223 26.7307 50.1712 26.6702 50.2407C26.6098 50.3102 26.514 50.345 26.378 50.345H25.1435V50.3499Z" fill="black"/>
<path d="M27.4563 46.4693C27.4563 46.4048 27.4865 46.375 27.552 46.375H28.7009C28.7664 46.375 28.7966 46.4048 28.7966 46.4693V48.6934C28.8067 48.8523 28.8772 48.9764 29.0032 49.0658C29.1292 49.1551 29.3005 49.2048 29.5272 49.2048H29.7489C29.8749 49.2048 29.9707 49.2495 30.0362 49.3339C30.1017 49.4232 30.1319 49.5672 30.1319 49.7658C30.1319 50.148 30.0059 50.3417 29.7489 50.3417C29.5071 50.3417 29.2955 50.3119 29.1191 50.2573C28.9377 50.1977 28.7916 50.0736 28.6706 49.87C28.5699 50.0736 28.4187 50.1977 28.2171 50.2573C28.0156 50.3119 27.7435 50.3417 27.3958 50.3417H26.4082C26.2822 50.3417 26.1865 50.302 26.121 50.2225C26.0555 50.1431 26.0253 49.9991 26.0253 49.7856C26.0253 49.5722 26.0555 49.4232 26.116 49.3339C26.1764 49.2445 26.2722 49.2048 26.4082 49.2048H27.0028C27.2094 49.2048 27.3354 49.1452 27.3857 49.031C27.4361 48.9168 27.4613 48.7133 27.4613 48.4303V46.4693H27.4563ZM26.8567 52.2778C26.7912 52.2778 26.7609 52.2481 26.7609 52.1835V51.2601C26.7609 51.1956 26.7912 51.1658 26.8567 51.1658H27.814C27.8795 51.1658 27.9098 51.1956 27.9098 51.2601V52.1835C27.9098 52.2481 27.8795 52.2778 27.814 52.2778H26.8567ZM28.328 52.2778C28.2625 52.2778 28.2323 52.2481 28.2323 52.1835V51.2601C28.2323 51.1956 28.2625 51.1658 28.328 51.1658H29.2955C29.361 51.1658 29.3912 51.1956 29.3912 51.2601V52.1835C29.3912 52.2481 29.361 52.2778 29.2955 52.2778H28.328Z" fill="black"/>
<path d="M29.759 50.3499C29.633 50.3499 29.5423 50.3152 29.4869 50.2407C29.4314 50.1663 29.4062 50.0272 29.4062 49.8187C29.4062 49.6003 29.4314 49.4414 29.4818 49.3471C29.5322 49.2528 29.6229 49.2031 29.759 49.2031H30.9935C31.1194 49.2031 31.2152 49.2478 31.2807 49.3421C31.3411 49.4315 31.3764 49.5804 31.3764 49.7889C31.3764 50.0223 31.3462 50.1712 31.2857 50.2407C31.2253 50.3102 31.1295 50.345 30.9935 50.345H29.759V50.3499Z" fill="black"/>
<path d="M30.9935 50.3499C30.8675 50.3499 30.7768 50.3152 30.7214 50.2407C30.6659 50.1663 30.6407 50.0272 30.6407 49.8187C30.6407 49.6003 30.6659 49.4414 30.7163 49.3471C30.7667 49.2528 30.8574 49.2031 30.9935 49.2031H32.228C32.3539 49.2031 32.4497 49.2478 32.5152 49.3421C32.5756 49.4315 32.6109 49.5804 32.6109 49.7889C32.6109 50.0223 32.5807 50.1712 32.5202 50.2407C32.4598 50.3102 32.364 50.345 32.228 50.345H30.9935V50.3499Z" fill="black"/>
<path d="M32.228 50.3499C32.102 50.3499 32.0113 50.3152 31.9559 50.2407C31.9004 50.1663 31.8752 50.0272 31.8752 49.8187C31.8752 49.6003 31.9004 49.4414 31.9508 49.3471C32.0012 49.2528 32.0919 49.2031 32.228 49.2031H33.4625C33.5884 49.2031 33.6842 49.2478 33.7497 49.3421C33.8152 49.4315 33.8454 49.5804 33.8454 49.7889C33.8454 50.0223 33.8152 50.1712 33.7547 50.2407C33.6943 50.3102 33.5985 50.345 33.4625 50.345H32.228V50.3499Z" fill="black"/>
<path d="M33.4625 50.3467C33.3366 50.3467 33.2408 50.3269 33.1753 50.2822C33.1098 50.2375 33.0796 50.1481 33.0796 50.0191C33.0796 49.9446 33.0897 49.8602 33.1048 49.7659C33.1199 49.6715 33.1451 49.5822 33.1703 49.5027C33.2005 49.4233 33.2358 49.3538 33.2862 49.2942C33.3366 49.2396 33.392 49.2098 33.4625 49.2098H33.7951C33.9563 49.2098 34.0722 49.1751 34.1428 49.1006C34.2184 49.0261 34.2536 48.8971 34.2536 48.7084V44.0318C34.2536 43.9673 34.2839 43.9375 34.3494 43.9375H35.5184C35.5839 43.9375 35.6141 43.9673 35.6141 44.0318V49.1652C35.6141 49.5723 35.5284 49.8751 35.3571 50.0687C35.1858 50.2623 34.8986 50.3566 34.4955 50.3566H33.4625V50.3467Z" fill="black"/>
<path d="M40.4614 48.7368C40.4614 49.0446 40.4311 49.3028 40.3707 49.5113C40.3102 49.7198 40.2195 49.8836 40.1036 50.0078C39.9827 50.1319 39.8366 50.2163 39.6552 50.2709C39.4738 50.3255 39.2621 50.3503 39.0203 50.3503H36.7024C36.6369 50.3503 36.6067 50.3205 36.6067 50.256V49.3028C36.6067 49.2383 36.6369 49.2085 36.7024 49.2085H38.3501C38.5114 49.2085 38.6373 49.1985 38.7331 49.1737C38.8288 49.1539 38.8993 49.1141 38.9497 49.0645C39.0001 49.0148 39.0304 48.9503 39.0455 48.8659C39.0606 48.7865 39.0707 48.6822 39.0707 48.5631V48.0517C39.0707 47.8085 39.0001 47.6297 38.854 47.5205C38.7079 47.4113 38.4962 47.3567 38.209 47.3567H37.1055C37.04 47.3567 37.0098 47.3269 37.0098 47.2624V46.3092C37.0098 46.2446 37.04 46.2148 37.1055 46.2148H38.7734C39.3176 46.2148 39.7358 46.3489 40.028 46.6269C40.3203 46.9 40.4664 47.3269 40.4664 47.9127V48.7368H40.4614Z" fill="black"/>
<path d="M12.496 57.7167C12.496 60.0202 10.9692 61.4152 8.49518 61.4152H6.14709V53.9883H8.49518C10.9692 53.9883 12.496 55.4131 12.496 57.7167ZM8.49014 60.6159C10.4603 60.6159 11.4882 59.5287 11.4882 57.7167C11.4882 55.9046 10.4603 54.7776 8.49014 54.7776H7.12462V60.6159H8.49014Z" fill="black"/>
<path d="M18.2504 59.7614H14.96L14.3554 61.4146H13.3174L16.0434 54.0273H17.1771L19.893 61.4146H18.855L18.2504 59.7614ZM16.6077 55.2238L15.2422 58.977H17.9682L16.6077 55.2238Z" fill="black"/>
<path d="M22.0647 53.9883V60.6259H24.7051V61.4152H21.0822V53.9883H22.0647Z" fill="black"/>
<path d="M29.8144 54.7759H26.7408V57.2581H29.4869V58.0574H26.7408V60.6141H29.8144V61.4134H25.7532V53.9766H29.8144V54.7759Z" fill="black"/>
<path d="M35.3621 54.7759H32.2885V57.2581H35.0346V58.0574H32.2885V60.6141H35.3621V61.4134H31.3059V53.9766H35.3621V54.7759Z" fill="black"/>
<path d="M37.8362 53.9883V60.6259H40.4765V61.4152H36.8536V53.9883H37.8362Z" fill="black"/>
</svg>
