<svg width="18" height="19" viewBox="0 0 18 19" fill="none" xmlns="http://www.w3.org/2000/svg">
<path d="M4.71948 1.77783C6.08055 0.962568 7.63726 0.531745 9.22381 0.53125C10.5438 0.530472 11.847 0.827646 13.0362 1.40062C14.2254 1.97359 15.2699 2.80759 16.0919 3.84044C16.9139 4.87329 17.4921 6.07835 17.7836 7.3658C18.075 8.65324 18.0721 9.98986 17.775 11.276C17.478 12.5622 16.8945 13.7647 16.068 14.794C15.2415 15.8232 14.1933 16.6527 13.0017 17.2204C11.81 17.7882 10.5056 18.0797 9.18555 18.0732C8.08384 18.0677 6.99502 17.8548 5.97549 17.4475L0.82046 18.3059C0.448489 18.3678 0.14444 18.0114 0.264236 17.6539L1.60689 13.6464C0.923757 12.4482 0.531383 11.1031 0.46547 9.7197C0.38996 8.13495 0.745715 6.55938 1.49484 5.16083C2.24397 3.76227 3.35842 2.5931 4.71948 1.77783Z" fill="url(#paint0_linear_1977_14423)"/>
<path d="M5.8501 7.32812H12.8701" stroke="white" stroke-linecap="round" stroke-linejoin="round"/>
<path d="M5.8501 11.6484H11.1601" stroke="white" stroke-linecap="round" stroke-linejoin="round"/>
<defs>
<linearGradient id="paint0_linear_1977_14423" x1="9" y1="0.53125" x2="9" y2="18.4425" gradientUnits="userSpaceOnUse">
<stop stop-color="#3052A1"/>
<stop offset="1" stop-color="#5C79BC"/>
</linearGradient>
</defs>
</svg>
