<svg width="25" height="20" viewBox="0 0 25 20" fill="none" xmlns="http://www.w3.org/2000/svg">
<path d="M12.293 4.30859C12.4375 4.64844 12.3242 5.00391 12.0508 5.28516L11.1836 6.05859C11.2265 6.32422 11.25 6.59766 11.25 6.83984C11.25 7.15234 11.2265 7.42578 11.1836 7.69141L12.0508 8.46484C12.3242 8.71094 12.4375 9.06641 12.293 9.44141C12.2031 9.61328 12.1055 9.85156 11.9961 10.0469L11.875 10.2578C11.7226 10.4531 11.6289 10.6406 11.4922 10.8242C11.2695 11.1211 10.8789 11.2188 10.5273 11.1016L9.42186 10.7383C9.00389 11.0859 8.52733 11.3633 8.0078 11.5586L7.73827 12.6914C7.6953 13.0547 7.41405 13.3437 7.04686 13.3906C6.78514 13.4219 6.51952 13.4375 6.24998 13.4375C5.98045 13.4375 5.71483 13.4219 5.45311 13.3906C5.08592 13.3437 4.76952 13.0547 4.72655 12.6914L4.45702 11.5586C3.97264 11.3633 3.49608 11.0859 3.07616 10.7383L1.97381 11.1016C1.62264 11.2188 1.23124 11.1211 1.00858 10.8242C0.870297 10.6406 0.741391 10.4492 0.622641 10.2539L0.504673 10.0469C0.395688 9.85156 0.296548 9.64844 0.207954 9.44141C0.0632663 9.06641 0.174126 8.71094 0.449985 8.46484L1.31639 7.69141C1.27264 7.42578 1.21483 7.15234 1.21483 6.83984C1.21483 6.59766 1.27264 6.32422 1.31639 6.05859L0.449985 5.28516C0.174126 5.00391 0.0632663 4.64844 0.207954 4.30859C0.296548 4.06641 0.395688 3.89805 0.504282 3.70156L0.623032 3.49648C0.741391 3.29922 0.870297 3.10859 1.00858 2.92539C1.23124 2.63047 1.62264 2.53242 1.97381 2.64805L3.07616 3.01133C3.49608 2.66602 3.97264 2.38789 4.45702 2.19336L4.72655 1.05781C4.76952 0.695312 5.08592 0.405078 5.45311 0.360586C5.71483 0.328828 5.98045 0.3125 6.24998 0.3125C6.51952 0.3125 6.78514 0.328828 7.04686 0.360547C7.41405 0.405078 7.6953 0.695312 7.73827 1.05781L8.0078 2.19336C8.52733 2.38789 9.00389 2.66602 9.42186 3.01133L10.5273 2.64805C10.8789 2.53242 11.2695 2.63047 11.4922 2.92539C11.6289 3.10781 11.7226 3.29766 11.875 3.49375L11.9961 3.7043C12.1055 3.9 12.2031 4.10156 12.293 4.30859ZM6.24998 8.71484C7.28514 8.71484 8.12498 7.91016 8.12498 6.83984C8.12498 5.83984 7.28514 4.96484 6.24998 4.96484C5.21483 4.96484 4.37499 5.83984 4.37499 6.83984C4.37499 7.91016 5.21483 8.71484 6.24998 8.71484Z" fill="#FD7D71"/>
<path opacity="0.4" d="M20.6914 19.793C20.3164 19.9375 19.9609 19.8242 19.7148 19.5508L18.9414 18.6836C18.6758 18.7266 18.4023 18.75 18.125 18.75C17.8477 18.75 17.5742 18.7266 17.3086 18.6836L16.5352 19.5508C16.2539 19.8242 15.8984 19.9375 15.5586 19.793C15.3516 19.7031 15.1484 19.6055 14.9531 19.4961L14.7422 19.375C14.5469 19.2227 14.3594 19.1289 14.1758 18.9922C13.8789 18.7695 13.7812 18.3789 13.8984 18.0273L14.2617 16.9219C13.9141 16.5039 13.6367 16.0273 13.4414 15.5078L12.3086 15.2383C11.9453 15.1953 11.6563 14.9141 11.6094 14.5469C11.5781 14.2852 11.5625 14.0195 11.5625 13.75C11.5625 13.4805 11.5781 13.2148 11.6094 12.9531C11.6563 12.5859 11.9453 12.2695 12.3086 12.2266L13.4414 11.957C13.6367 11.4727 13.9141 10.9961 14.2617 10.5781L13.8984 9.47266C13.7812 9.12109 13.8789 8.73047 14.1758 8.50781C14.3594 8.3711 14.5508 8.20703 14.7461 8.12109L14.9531 8.00391C15.1484 7.89453 15.3164 7.79688 15.5586 7.70703C15.8984 7.5625 16.2539 7.67578 16.5352 7.94922L17.3086 8.81641C17.5742 8.77344 17.8477 8.75 18.125 8.75C18.4023 8.75 18.6758 8.77344 18.9414 8.81641L19.7148 7.94922C19.9609 7.67578 20.3164 7.5625 20.6914 7.70703C20.8984 7.79688 21.1016 7.89453 21.2969 8.00391L21.5039 8.12109C21.6992 8.20703 21.8906 8.3711 22.0742 8.50781C22.3711 8.73047 22.4688 9.12109 22.3516 9.47266L21.9883 10.5781C22.3359 10.9961 22.6133 11.4727 22.8086 11.957L23.9414 12.2266C24.3047 12.2695 24.5937 12.5859 24.6406 12.9531C24.6719 13.2148 24.6875 13.4805 24.6875 13.75C24.6875 14.0195 24.6719 14.2852 24.6406 14.5469C24.5937 14.9141 24.3047 15.1953 23.9414 15.2383L22.8086 15.5078C22.6133 16.0273 22.3359 16.5039 21.9883 16.9219L22.3516 18.0273C22.4688 18.3789 22.3711 18.7695 22.0742 18.9922C21.8906 19.1289 21.7031 19.2227 21.5078 19.375L21.2969 19.4961C21.1016 19.6055 20.8633 19.7031 20.6914 19.793ZM16.25 13.75C16.25 14.7852 17.0898 15.625 18.125 15.625C19.1602 15.625 20 14.7852 20 13.75C20 12.7148 19.1602 11.875 18.125 11.875C17.0898 11.875 16.25 12.7148 16.25 13.75Z" fill="#FD7D71"/>
</svg>
