<svg width="27" height="24" viewBox="0 0 27 24" fill="none" xmlns="http://www.w3.org/2000/svg">
<g clip-path="url(#clip0_256_2960)">
<path d="M12.5111 0.371145C13.0361 -0.123715 13.922 -0.123715 14.4892 0.371145L26.4892 10.8703C27.1126 11.4187 27.1736 12.3656 26.6298 12.9891C26.0814 13.6125 25.1345 13.6734 24.5111 13.1297L13.5001 3.49311L2.48777 13.1297C1.86433 13.6734 0.916991 13.6125 0.371272 12.9891C-0.174259 12.3656 -0.111071 11.4187 0.51246 10.8703L12.5111 0.371145Z" fill="#2E50A3"/>
<path opacity="0.4" d="M13.5 3.49219L24.0047 12.6834L24.0234 22.1194C24.0281 23.1553 23.1891 23.9991 22.1484 23.9991H18.375C17.3391 23.9991 16.5 23.16 16.5 22.1241V17.985C16.5 17.1553 15.8297 16.485 15 16.485H12C11.1703 16.485 10.5 17.1553 10.5 17.985V22.1241C10.5 23.16 9.66095 23.9991 8.62501 23.9991H4.8797C3.80157 23.9991 3.00423 23.16 3.00376 22.1241L3.00095 12.6788L13.5 3.49219Z" fill="#2E50A3"/>
</g>
<defs>
<clipPath id="clip0_256_2960">
<rect width="27" height="24" fill="white"/>
</clipPath>
</defs>
</svg>
