<svg width="24" height="24" viewBox="0 0 24 24" fill="none" xmlns="http://www.w3.org/2000/svg">
<path d="M20.25 4.5H3.74996C3.35213 4.5 2.9706 4.65804 2.6893 4.93934C2.40799 5.22064 2.24996 5.60218 2.24996 6V20.8875C2.24697 21.1744 2.32791 21.4559 2.48281 21.6974C2.63771 21.939 2.85983 22.1299 3.12183 22.2469C3.37969 22.3672 3.66646 22.4117 3.94866 22.3752C4.23086 22.3387 4.49685 22.2226 4.71558 22.0406L7.68746 19.5375L20.25 19.5C20.6478 19.5 21.0293 19.342 21.3106 19.0607C21.5919 18.7794 21.75 18.3978 21.75 18V6C21.75 5.60218 21.5919 5.22064 21.3106 4.93934C21.0293 4.65804 20.6478 4.5 20.25 4.5ZM15 14.25H8.99996C8.80104 14.25 8.61028 14.171 8.46963 14.0303C8.32898 13.8897 8.24996 13.6989 8.24996 13.5C8.24996 13.3011 8.32898 13.1103 8.46963 12.9697C8.61028 12.829 8.80104 12.75 8.99996 12.75H15C15.1989 12.75 15.3896 12.829 15.5303 12.9697C15.6709 13.1103 15.75 13.3011 15.75 13.5C15.75 13.6989 15.6709 13.8897 15.5303 14.0303C15.3896 14.171 15.1989 14.25 15 14.25ZM15 11.25H8.99996C8.80104 11.25 8.61028 11.171 8.46963 11.0303C8.32898 10.8897 8.24996 10.6989 8.24996 10.5C8.24996 10.3011 8.32898 10.1103 8.46963 9.96967C8.61028 9.82902 8.80104 9.75 8.99996 9.75H15C15.1989 9.75 15.3896 9.82902 15.5303 9.96967C15.6709 10.1103 15.75 10.3011 15.75 10.5C15.75 10.6989 15.6709 10.8897 15.5303 11.0303C15.3896 11.171 15.1989 11.25 15 11.25Z" fill="black"/>
</svg>
