<svg width="30" height="24" viewBox="0 0 30 24" fill="none" xmlns="http://www.w3.org/2000/svg">
<g opacity="0.4">
<path d="M30 8.95781V17.9156C30 19.568 28.6523 20.8734 27 20.8734H25.5V23.4159C25.5 23.7908 25.0723 24.0075 24.7734 23.785L20.8945 20.8731L14.9578 20.9578C13.3453 20.9578 12 19.65 12 17.9578V16.4587L16.5 16.4587C18.9788 16.4587 21 14.4374 21 11.9591V6H27C28.6547 6 30 7.34531 30 8.95781Z" fill="#2E50A3"/>
<path opacity="0.4" d="M16.5 0H3C1.34766 0 0 1.34766 0 2.95781V12C0 13.65 1.34766 15 3 15L4.5 15.0005V17.5434C4.5 17.9183 4.92773 18.135 5.22656 17.9126L9.10547 15.0007L16.5 14.9953C18.1523 15.0012 19.5 13.6509 19.5 11.9991V2.95781C19.5 1.34766 18.1547 0 16.5 0Z" fill="#2E50A3"/>
</g>
</svg>
