<svg width="18" height="19" viewBox="0 0 18 19" fill="none" xmlns="http://www.w3.org/2000/svg">
<path d="M4.71948 1.77393C6.08055 0.958662 7.63726 0.527839 9.22381 0.527344C10.5438 0.526566 11.847 0.82374 13.0362 1.39671C14.2254 1.96969 15.2699 2.80368 16.0919 3.83653C16.9139 4.86938 17.4921 6.07444 17.7836 7.36189C18.075 8.64933 18.0721 9.98596 17.775 11.2721C17.478 12.5583 16.8945 13.7608 16.068 14.7901C15.2415 15.8193 14.1933 16.6487 13.0017 17.2165C11.81 17.7843 10.5056 18.0758 9.18555 18.0693C8.08384 18.0638 6.99502 17.8509 5.97549 17.4436L0.82046 18.302C0.448489 18.3639 0.14444 18.0075 0.264236 17.6499L1.60689 13.6425C0.923757 12.4443 0.531383 11.0992 0.46547 9.7158C0.38996 8.13104 0.745715 6.55548 1.49484 5.15692C2.24397 3.75837 3.35842 2.58919 4.71948 1.77393Z" fill="url(#paint0_linear_1_245)"/>
<path d="M5.84998 7.32208H12.87" stroke="white" stroke-linecap="round" stroke-linejoin="round"/>
<path d="M5.84998 11.6421H11.16" stroke="white" stroke-linecap="round" stroke-linejoin="round"/>
<defs>
<linearGradient id="paint0_linear_1_245" x1="9" y1="0.527344" x2="9" y2="18.4386" gradientUnits="userSpaceOnUse">
<stop stop-color="#3052A1"/>
<stop offset="1" stop-color="#5BCEDD"/>
</linearGradient>
</defs>
</svg>
