<svg width="18" height="21" viewBox="0 0 18 21" fill="none" xmlns="http://www.w3.org/2000/svg">
<path d="M17.7 14.4906C17.1469 13.5344 16.4813 11.7156 16.4813 8.5V7.83438C16.4813 3.68125 13.1532 0.278125 9.0563 0.25H9.00005C8.01637 0.25123 7.04256 0.4462 6.13422 0.823776C5.22589 1.20135 4.40082 1.75414 3.70612 2.45058C3.01142 3.14702 2.4607 3.97347 2.0854 4.88275C1.7101 5.79202 1.51757 6.76632 1.5188 7.75V8.5C1.5188 11.7156 0.853173 13.5344 0.300048 14.4906C0.166277 14.7185 0.0950755 14.9777 0.0936498 15.2419C0.092224 15.5061 0.160624 15.7661 0.291929 15.9954C0.423233 16.2247 0.612781 16.4152 0.841391 16.5477C1.07 16.6803 1.32956 16.75 1.5938 16.75H5.25005C5.25005 17.7446 5.64514 18.6984 6.3484 19.4017C7.05166 20.1049 8.00549 20.5 9.00005 20.5C9.99461 20.5 10.9484 20.1049 11.6517 19.4017C12.355 18.6984 12.75 17.7446 12.75 16.75H16.4063C16.6705 16.7517 16.9304 16.6831 17.1594 16.5513C17.3883 16.4196 17.5782 16.2293 17.7094 16C17.8396 15.7694 17.9072 15.5088 17.9055 15.2441C17.9039 14.9793 17.833 14.7196 17.7 14.4906V14.4906ZM9.00005 19C8.40407 18.9975 7.83321 18.7597 7.41178 18.3383C6.99036 17.9168 6.75252 17.346 6.75005 16.75H11.25C11.2476 17.346 11.0097 17.9168 10.5883 18.3383C10.1669 18.7597 9.59603 18.9975 9.00005 19Z" fill="black"/>
</svg>
