<svg width="17" height="18" viewBox="0 0 17 18" fill="none" xmlns="http://www.w3.org/2000/svg">
<path d="M4.67802 1.58754C5.69167 0.571055 7.06648 0 8.5 0C9.93352 0 11.3083 0.571055 12.322 1.58754C13.3356 2.60403 13.9051 3.98268 13.9051 5.42021C13.9051 6.90047 14.2168 8.00263 14.6459 8.8159C14.8954 9.28865 15.4275 9.4918 15.9238 9.69035C17.3577 10.264 17.2269 12.1567 16.3028 12.8419C16.3028 12.8419 14.9689 14 8.5 14C2.03113 14 0.697187 12.8419 0.697187 12.8419C-0.226908 12.1567 -0.357652 10.264 1.07621 9.69035C1.57249 9.4918 2.10464 9.28865 2.3541 8.8159C2.78325 8.00263 3.0949 6.90047 3.0949 5.42021C3.0949 3.98268 3.66437 2.60403 4.67802 1.58754Z" fill="url(#paint0_linear_348_3538)"/>
<path d="M6 16C6.47788 16.5952 7.41818 17 8.5 17C9.58182 17 10.5221 16.5952 11 16" stroke="#3052A1" stroke-width="2" stroke-linecap="round" stroke-linejoin="round"/>
<defs>
<linearGradient id="paint0_linear_348_3538" x1="8.5" y1="0" x2="8.5" y2="14" gradientUnits="userSpaceOnUse">
<stop stop-color="#3052A1"/>
<stop offset="1" stop-color="#6681C1"/>
</linearGradient>
</defs>
</svg>
