<svg width="18" height="21" viewBox="0 0 18 21" fill="none" xmlns="http://www.w3.org/2000/svg">
<path d="M17.6064 14.4906C17.0533 13.5344 16.3877 11.7156 16.3877 8.5V7.83438C16.3877 3.68125 13.0595 0.278125 8.96267 0.25H8.90642C7.92274 0.25123 6.94893 0.4462 6.0406 0.823776C5.13226 1.20135 4.30719 1.75414 3.61249 2.45058C2.91779 3.14702 2.36707 3.97347 1.99177 4.88275C1.61647 5.79202 1.42394 6.76632 1.42517 7.75V8.5C1.42517 11.7156 0.759545 13.5344 0.20642 14.4906C0.0726489 14.7185 0.0014476 14.9777 2.18413e-05 15.2419C-0.00140391 15.5061 0.0669966 15.7661 0.198301 15.9954C0.329605 16.2247 0.519153 16.4152 0.747763 16.5477C0.976373 16.6803 1.23593 16.75 1.50017 16.75H5.15642C5.15642 17.7446 5.55151 18.6984 6.25477 19.4016C6.95803 20.1049 7.91186 20.5 8.90642 20.5C9.90098 20.5 10.8548 20.1049 11.5581 19.4016C12.2613 18.6984 12.6564 17.7446 12.6564 16.75H16.3127C16.5769 16.7517 16.8367 16.6831 17.0657 16.5513C17.2947 16.4196 17.4845 16.2293 17.6158 16C17.7459 15.7694 17.8135 15.5088 17.8119 15.2441C17.8102 14.9793 17.7394 14.7196 17.6064 14.4906ZM8.90642 19C8.31044 18.9975 7.73958 18.7597 7.31816 18.3383C6.89673 17.9168 6.65889 17.346 6.65642 16.75H11.1564C11.154 17.346 10.9161 17.9168 10.4947 18.3383C10.0733 18.7597 9.5024 18.9975 8.90642 19Z" fill="#3052A1"/>
</svg>
