<svg width="21" height="24" viewBox="0 0 21 24" fill="none" xmlns="http://www.w3.org/2000/svg">
<g clip-path="url(#clip0_256_2975)">
<path d="M13.5 21C13.5 21.7547 13.1859 22.5609 12.6234 23.1234C12.0609 23.6859 11.2547 24 10.5 24C9.70312 24 8.93906 23.6859 8.37656 23.1234C7.81406 22.5609 7.5 21.7547 7.5 21H13.5Z" fill="#2E50A3"/>
<path opacity="0.4" d="M12.0002 1.5V2.4C15.4221 3.09516 18.0002 6.12187 18.0002 9.75V10.6313C18.0002 12.8391 18.8112 14.9625 20.2737 16.6125L20.6205 17.0016C21.0143 17.4469 21.1127 18.075 20.869 18.6141C20.6252 19.1531 20.0909 19.5 19.5002 19.5H1.50023C0.909608 19.5 0.373874 19.1531 0.131905 18.6141C-0.110064 18.075 -0.0132812 17.4469 0.37917 17.0016L0.726795 16.6125C2.19117 14.9625 3.00023 12.8391 3.00023 10.6313V9.75C3.00023 6.12187 5.53617 3.09516 9.00023 2.4V1.5C9.00023 0.671719 9.67055 0 10.5002 0C11.3299 0 12.0002 0.671719 12.0002 1.5Z" fill="#2E50A3"/>
</g>
<defs>
<clipPath id="clip0_256_2975">
<rect width="21" height="24" fill="white"/>
</clipPath>
</defs>
</svg>
