<svg width="18" height="24" viewBox="0 0 18 24" fill="none" xmlns="http://www.w3.org/2000/svg">
<path d="M12 3C12 1.34297 10.657 0 9 0C7.34297 0 6 1.34297 6 3C4.34297 3 3 4.34297 3 6V6.75C3 7.1625 3.33562 7.5 3.75 7.5H14.25C14.6625 7.5 15 7.1625 15 6.75V6C15 4.34297 13.6547 3 12 3ZM9 4.125C8.37656 4.125 7.875 3.62109 7.875 3C7.875 2.37844 8.37891 1.875 9 1.875C9.62109 1.875 10.125 2.37844 10.125 3C10.125 3.62109 9.62344 4.125 9 4.125ZM4.5 17.625C3.87891 17.625 3.375 18.1289 3.375 18.75C3.375 19.3711 3.87891 19.875 4.5 19.875C5.12109 19.875 5.625 19.3711 5.625 18.75C5.625 18.1289 5.12344 17.625 4.5 17.625ZM7.72031 10.7203L5.25 13.1906L4.28016 12.2203C3.98719 11.9273 3.51234 11.9273 3.21984 12.2203C2.92734 12.5133 2.92688 12.9881 3.21984 13.2806L4.71984 14.7806C4.86563 14.925 5.05781 15 5.25 15C5.44219 15 5.63381 14.9268 5.78016 14.7803L8.78016 11.7802C9.07312 11.4873 9.07312 11.0124 8.78016 10.7199C8.48719 10.4274 8.01094 10.425 7.72031 10.7203Z" fill="#2E50A3"/>
<path opacity="0.4" d="M15.75 3H12C13.657 3 15 4.34297 15 6V6.75C15 7.1625 14.6625 7.5 14.25 7.5H3.75C3.33562 7.5 3 7.1625 3 6.75V6C3 4.34297 4.34297 3 6 3H2.25C1.00734 3 0 4.00734 0 5.25V21.75C0 22.9922 1.00734 24 2.25 24H15.75C16.9927 24 18 22.9927 18 21.75V5.25C18 4.00734 16.9922 3 15.75 3ZM4.5 19.875C3.87891 19.875 3.375 19.3711 3.375 18.75C3.375 18.1289 3.87891 17.625 4.5 17.625C5.12109 17.625 5.625 18.1289 5.625 18.75C5.625 19.3711 5.12344 19.875 4.5 19.875ZM5.25 15C5.05809 15 4.86619 14.9268 4.71984 14.7803L3.21984 13.2803C2.92688 12.9873 2.92688 12.5124 3.21984 12.2199C3.51281 11.9274 3.98766 11.927 4.28016 12.2199L5.25 13.1906L7.71984 10.7208C8.01281 10.4278 8.48766 10.4278 8.78016 10.7208C9.07266 11.0138 9.07312 11.4886 8.78016 11.7811L5.78016 14.7811C5.63438 14.925 5.44219 15 5.25 15ZM14.25 19.5H8.25C7.8375 19.5 7.5 19.1625 7.5 18.75C7.5 18.3375 7.8375 18 8.25 18H14.25C14.6625 18 15 18.3375 15 18.75C15 19.1625 14.6625 19.5 14.25 19.5ZM14.25 15H9.75C9.3375 15 9 14.6625 9 14.25C9 13.8375 9.3375 13.5 9.75 13.5H14.25C14.6625 13.5 15 13.8375 15 14.25C15 14.6625 14.6625 15 14.25 15Z" fill="#2E50A3"/>
</svg>
