<svg width="20" height="20" viewBox="0 0 20 20" fill="none" xmlns="http://www.w3.org/2000/svg">
<path d="M1.25 0C0.556641 0 0 0.556641 0 1.25V19.375C0 19.7188 0.283203 20 0.625 20H1.875C2.2168 20 2.5 19.7188 2.5 19.375V1.25C2.5 0.556641 1.94336 0 1.25 0Z" fill="#5CCFDD"/>
<path opacity="0.4" d="M20 1.20039V12.9738C20 13.4523 19.6896 13.9016 19.1941 14.0969C17.4773 14.7656 16.0672 14.9988 14.8543 14.9988C11.9781 14.9988 9.97538 13.7574 7.09648 13.7574C5.80859 13.7574 4.32656 14.0331 2.53398 14.7539V1.25C2.53398 1.14473 2.49873 1.05133 2.47456 0.953672C4.36284 0.281406 6.09917 0.011875 7.26753 0.011875C9.96558 0.0121797 11.3261 1.2568 13.6699 1.2568C14.7746 1.2568 16.0972 0.980078 17.8808 0.165391C18.0976 0.0527344 18.3555 0 18.6055 0C19.3476 0 20 0.433594 20 1.20039Z" fill="#5CCFDD"/>
</svg>
