<svg width="14" height="16" viewBox="0 0 14 16" fill="none" xmlns="http://www.w3.org/2000/svg">
<path d="M3.5 11H2.5C2.22656 11 2 11.2281 2 11.5V12.5C2 12.775 2.22656 13 2.5 13H3.5C3.775 13 4 12.775 4 12.5V11.5C4 11.2281 3.775 11 3.5 11ZM3.5 7H2.5C2.22656 7 2 7.22813 2 7.5V8.5C2 8.775 2.22656 9 2.5 9H3.5C3.775 9 4 8.775 4 8.5V7.5C4 7.22813 3.775 7 3.5 7ZM3.5 3H2.5C2.22656 3 2 3.22813 2 3.5V4.5C2 4.775 2.22656 5 2.5 5H3.5C3.775 5 4 4.775 4 4.5V3.5C4 3.22813 3.775 3 3.5 3Z" fill="#5CCFDD"/>
<path opacity="0.4" d="M12 0H2C0.895313 0 0 0.895313 0 2V14C0 15.1047 0.895313 16 2 16H12C13.1047 16 14 15.1047 14 14V2C14 0.895313 13.1031 0 12 0ZM4 12.5C4 12.775 3.775 13 3.5 13H2.5C2.22656 13 2 12.775 2 12.5V11.5C2 11.2281 2.22656 11 2.5 11H3.5C3.775 11 4 11.2281 4 11.5V12.5ZM4 8.5C4 8.775 3.775 9 3.5 9H2.5C2.22656 9 2 8.775 2 8.5V7.5C2 7.22813 2.22656 7 2.5 7H3.5C3.775 7 4 7.22813 4 7.5V8.5ZM4 4.5C4 4.775 3.775 5 3.5 5H2.5C2.22656 5 2 4.775 2 4.5V3.5C2 3.22813 2.22656 3 2.5 3H3.5C3.775 3 4 3.22813 4 3.5V4.5ZM11.5 12.5H6.5C6.225 12.5 6 12.275 6 12C6 11.725 6.22388 11.5 6.5 11.5H11.5C11.7762 11.5 12 11.7239 12 12C12 12.2761 11.775 12.5 11.5 12.5ZM11.5 8.5H6.5C6.225 8.5 6 8.275 6 8C6 7.725 6.22388 7.5 6.5 7.5H11.5C11.775 7.5 12 7.725 12 8C12 8.275 11.775 8.5 11.5 8.5ZM11.5 4.5H6.5C6.225 4.5 6 4.275 6 4C6 3.725 6.22388 3.5 6.5 3.5H11.5C11.775 3.5 12 3.725 12 4C12 4.275 11.775 4.5 11.5 4.5Z" fill="#5CCFDD"/>
</svg>
