<svg width="12" height="16" viewBox="0 0 12 16" fill="none" xmlns="http://www.w3.org/2000/svg">
<path d="M8 0V4H12L8 0ZM9.5 7H2.5C2.22281 7 2 7.22188 2 7.5V10.5C2 10.7781 2.22281 11 2.5 11H9.5C9.77734 11 10 10.7773 10 10.5V7.5C10 7.22188 9.77812 7 9.5 7ZM9 10H3V8H9V10ZM9.75 13H7.25C7.1125 13 7 13.1125 7 13.25V13.75C7 13.8867 7.11328 14 7.25 14H9.75C9.88672 14 10 13.8867 10 13.75V13.25C10 13.1125 9.8875 13 9.75 13Z" fill="#5CCFDD"/>
<path opacity="0.4" d="M8 4V0H1.5C0.671562 0 0 0.671562 0 1.5V14.5C0 15.3281 0.671562 16 1.5 16H10.5C11.3284 16 12 15.3284 12 14.5V4H8ZM2 2.25C2 2.11344 2.11344 2 2.25 2H4.75C4.8875 2 5 2.11344 5 2.25V2.75C5 2.88687 4.8875 3 4.75 3H2.25C2.11344 3 2 2.88687 2 2.75V2.25ZM2 4.25C2 4.1125 2.11344 4 2.25 4H4.75C4.8875 4 5 4.1125 5 4.25V4.75C5 4.8875 4.8875 5 4.75 5H2.25C2.11344 5 2 4.8875 2 4.75V4.25ZM10 13.75C10 13.8867 9.88672 14 9.75 14H7.25C7.1125 14 7 13.8875 7 13.75V13.25C7 13.1133 7.11328 13 7.25 13H9.75C9.88672 13 10 13.1133 10 13.25V13.75ZM10 10.5C10 10.7773 9.77734 11 9.5 11H2.5C2.22281 11 2 10.7781 2 10.5V7.5C2 7.22188 2.22281 7 2.5 7H9.5C9.77812 7 10 7.22188 10 7.5V10.5Z" fill="#5CCFDD"/>
</svg>
