<svg width="14" height="16" viewBox="0 0 14 16" fill="none" xmlns="http://www.w3.org/2000/svg">
<path d="M11 0V3H14L11 0ZM10.25 16H3.75C1.68219 16 0 14.3188 0 12.25V3.75C0 3.3375 0.335938 3 0.75 3C1.16406 3 1.5 3.3375 1.5 3.75V12.25C1.5 13.4906 2.50938 14.5 3.75 14.5H10.25C10.6641 14.5 11 14.8359 11 15.25C11 15.6641 10.6656 16 10.25 16Z" fill="#5CCFDD"/>
<path opacity="0.4" d="M3 11.5V1.5C3 0.671562 3.67188 0 4.5 0H11V3H14V11.5C14 12.3284 13.3284 13 12.5 13H4.5C3.67188 13 3 12.3281 3 11.5Z" fill="#5CCFDD"/>
</svg>
