<svg width="12" height="16" viewBox="0 0 12 16" fill="none" xmlns="http://www.w3.org/2000/svg">
<path d="M8 0V4H12L8 0ZM6 10C7.10469 10 8 9.10437 8 8C8 6.89563 7.10469 6 6 6C4.89687 6 4 6.89687 4 8C4 9.10312 4.89687 10 6 10ZM7 11H5C3.61937 11 2.5 12.1191 2.5 13.5C2.5 13.775 2.72375 14 3 14H9C9.27612 14 9.5 13.7761 9.5 13.5C9.5 12.1187 8.38125 11 7 11Z" fill="#5CCFDD"/>
<path opacity="0.4" d="M8 4V0H1.5C0.671562 0 0 0.671562 0 1.5V14.5C0 15.3281 0.671562 16 1.5 16H10.5C11.3284 16 12 15.3284 12 14.5V4H8ZM6 6C7.10469 6 8 6.89562 8 8C8 9.10438 7.10469 10 6 10C4.89562 10 4 9.10438 4 8C4 6.89562 4.89688 6 6 6ZM9 14H3C2.72387 14 2.5 13.7761 2.5 13.5C2.5 12.1187 3.61875 11 5 11H7C8.38063 11 9.5 12.1191 9.5 13.5C9.5 13.775 9.275 14 9 14Z" fill="#5CCFDD"/>
</svg>
