<svg width="118" height="118" viewBox="0 0 118 118" fill="none" xmlns="http://www.w3.org/2000/svg">
<circle cx="59" cy="59" r="59" fill="#F5F8FF"/>
<path d="M81.0449 27.8259H36.7291C35.3649 27.8259 34.2589 28.9319 34.2589 30.2961C34.2589 31.6603 35.3649 32.7663 36.7291 32.7663H81.0449C82.4092 32.7663 83.5151 31.6603 83.5151 30.2961C83.5151 28.9319 82.4092 27.8259 81.0449 27.8259Z" fill="#5B78BB"/>
<path d="M83.2563 30.8365C83.2563 31.4909 82.9967 32.1185 82.5344 32.5816C82.0721 33.0448 81.445 33.3055 80.7906 33.3067H72.4554C72.7996 33.3427 73.1475 33.306 73.4766 33.1989C73.8057 33.0919 74.1086 32.9168 74.3657 32.6852C74.6229 32.4536 74.8284 32.1705 74.9691 31.8544C75.1099 31.5382 75.1826 31.196 75.1826 30.8499C75.1826 30.5039 75.1099 30.1617 74.9691 29.8455C74.8284 29.5294 74.6229 29.2463 74.3657 29.0147C74.1086 28.783 73.8057 28.608 73.4766 28.501C73.1475 28.3939 72.7996 28.3572 72.4554 28.3932H80.7906C81.4407 28.3931 82.0645 28.6498 82.5263 29.1074C82.9881 29.565 83.2504 30.1865 83.2563 30.8365Z" fill="#4D69AA"/>
<path d="M87.1515 40.9006C87.1518 42.2199 86.7959 43.5147 86.1214 44.6485C85.4468 45.7822 84.4785 46.7128 83.3189 47.3418L41.2499 47.7885C39.8181 47.0126 38.6859 45.7813 38.0323 44.2896C37.3788 42.7979 37.2413 41.1309 37.6416 39.5523C38.0419 37.9736 38.9571 36.5736 40.2425 35.5735C41.5279 34.5734 43.11 34.0305 44.7386 34.0306H77.3467C78.1376 33.7381 78.9737 33.5869 79.8169 33.5839C80.7792 33.5815 81.7326 33.7691 82.6224 34.1357C83.5121 34.5023 84.3208 35.0409 85.0022 35.7206C85.6835 36.4002 86.224 37.2076 86.5928 38.0965C86.9616 38.9854 87.1515 39.9383 87.1515 40.9006Z" fill="white"/>
<path d="M44.2023 48.2574L41.3703 48.2842C39.9385 47.5082 38.8063 46.277 38.1527 44.7853C37.4992 43.2936 37.3617 41.6266 37.762 40.0479C38.1623 38.4693 39.0775 37.0692 40.3629 36.0692C41.6483 35.0691 43.2304 34.5262 44.859 34.5262H47.749C46.1252 34.5261 44.5474 35.0659 43.2639 36.0605C41.9804 37.0552 41.064 38.4484 40.6589 40.0208C40.2537 41.5933 40.3829 43.2558 41.026 44.7469C41.669 46.2379 42.7896 47.4728 44.2113 48.2574H44.2023Z" fill="white"/>
<path d="M87.9999 40.7307C88.0012 42.0496 87.6462 43.3444 86.9723 44.4782C86.2985 45.612 85.3309 46.5427 84.1718 47.172L67.5015 47.3417C66.1661 46.4903 65.1429 45.2289 64.5852 43.7467C64.0275 42.2645 63.9654 40.6414 64.4083 39.121C64.8512 37.6005 65.7752 36.2646 67.0416 35.3138C68.3081 34.363 69.8487 33.8484 71.4323 33.8473H83.1578C84.5749 34.3573 85.8003 35.2919 86.6668 36.5237C87.5333 37.7556 87.9989 39.2247 87.9999 40.7307Z" fill="#B4DAFF"/>
<path d="M60.3188 92.8502H80.1383C80.2182 92.8496 80.295 92.8197 80.3543 92.7661C80.4136 92.7126 80.4512 92.6392 80.4599 92.5598L84.8375 48.4004L86.0971 48.0475H37.4083L40.0303 48.4004L44.4123 92.5598C44.4211 92.6392 44.4586 92.7126 44.5179 92.7661C44.5772 92.8197 44.6541 92.8496 44.7339 92.8502H64.5534" fill="#5B78BB"/>
<path d="M47.356 93.5739H44.7339C44.6552 93.5733 44.5795 93.5438 44.5211 93.4911C44.4626 93.4385 44.4255 93.3662 44.4168 93.288L40.0303 49.1285L37.4083 48.7756H40.0303L42.6524 49.1285L47.0299 93.288C47.0398 93.3673 47.0784 93.4403 47.1385 93.493C47.1986 93.5457 47.276 93.5745 47.356 93.5739Z" fill="#94A5AF"/>
<path d="M85.3021 48.6685L84.0469 49.0213L79.6604 93.1808C79.6537 93.2602 79.6173 93.3341 79.5586 93.3879C79.4998 93.4417 79.4229 93.4714 79.3433 93.4711H65.9382C74.6709 80.6825 77.2349 57.4861 77.9139 48.6685H85.3021Z" fill="#4D69AA"/>
<path d="M78.7529 57.6102C79.6704 57.1905 80.0175 55.9827 79.528 54.9126C79.0385 53.8425 77.8979 53.3152 76.9803 53.7349C76.0627 54.1546 75.7157 55.3624 76.2052 56.4325C76.6947 57.5026 77.8353 58.0299 78.7529 57.6102Z" fill="#4D69AA"/>
<path d="M74.8186 54.5926C75.2269 54.4058 75.3807 53.8671 75.1621 53.3892C74.9435 52.9114 74.4354 52.6754 74.027 52.8622C73.6187 53.0489 73.4649 53.5877 73.6835 54.0655C73.9021 54.5434 74.4103 54.7794 74.8186 54.5926Z" fill="#4D69AA"/>
<path d="M74.6038 31.4306C74.9837 31.4306 75.2917 31.1226 75.2917 30.7427C75.2917 30.3628 74.9837 30.0548 74.6038 30.0548C74.2239 30.0548 73.9159 30.3628 73.9159 30.7427C73.9159 31.1226 74.2239 31.4306 74.6038 31.4306Z" fill="#4D69AA"/>
<path d="M73.3801 30.4747C73.5503 30.4747 73.6883 30.3367 73.6883 30.1665C73.6883 29.9963 73.5503 29.8583 73.3801 29.8583C73.2098 29.8583 73.0718 29.9963 73.0718 30.1665C73.0718 30.3367 73.2098 30.4747 73.3801 30.4747Z" fill="#4D69AA"/>
<path d="M63.4322 42.6559C65.0728 42.6559 66.4027 41.326 66.4027 39.6854C66.4027 38.0449 65.0728 36.715 63.4322 36.715C61.7917 36.715 60.4618 38.0449 60.4618 39.6854C60.4618 41.326 61.7917 42.6559 63.4322 42.6559Z" fill="#B4DAFF"/>
<path d="M57.8665 42.8078C58.5968 42.8078 59.1887 42.2159 59.1887 41.4856C59.1887 40.7554 58.5968 40.1635 57.8665 40.1635C57.1363 40.1635 56.5443 40.7554 56.5443 41.4856C56.5443 42.2159 57.1363 42.8078 57.8665 42.8078Z" fill="#B4DAFF"/>
<path d="M57.0758 88.2225C56.8197 88.2206 56.5733 88.1243 56.3838 87.952C56.1942 87.7798 56.0748 87.5437 56.0485 87.2889L52.8502 55.0516C52.8368 54.7862 52.9259 54.5259 53.0989 54.3244C53.272 54.1228 53.5158 53.9954 53.7801 53.9685C54.0444 53.9415 54.3089 54.0171 54.5191 54.1796C54.7292 54.3421 54.869 54.5791 54.9094 54.8416L58.1077 87.079C58.1213 87.2143 58.1079 87.3509 58.0685 87.481C58.0291 87.6111 57.9644 87.7322 57.878 87.8372C57.7917 87.9422 57.6855 88.0291 57.5654 88.093C57.4454 88.1568 57.3139 88.1963 57.1786 88.2091L57.0758 88.2225Z" fill="#4D69AA"/>
<path opacity="0.3" d="M50.6704 55.2393L53.8687 87.4766" stroke="#94A5AF" stroke-width="3" stroke-miterlimit="10" stroke-linecap="round"/>
<path d="M72.3033 54.9491L69.105 87.1865" stroke="#3052A1" stroke-width="3" stroke-miterlimit="10" stroke-linecap="round"/>
<path d="M39.8965 48.463L41.1204 60.8184L41.8172 67.6705L44.0998 90.657C44.1597 91.2755 44.4477 91.8496 44.9076 92.2674C45.3675 92.6852 45.9665 92.9169 46.5878 92.9173H64.4106" stroke="#3052A1" stroke-width="3" stroke-miterlimit="10" stroke-linecap="round"/>
<path d="M84.6989 48.463L80.509 90.657C80.4491 91.2755 80.1611 91.8496 79.7012 92.2674C79.2413 92.6852 78.6423 92.9169 78.021 92.9173H60.1803" stroke="#3052A1" stroke-width="3" stroke-miterlimit="10" stroke-linecap="round"/>
<path d="M80.786 28.1969H36.4702C35.1059 28.1969 34 29.3028 34 30.6671C34 32.0313 35.1059 33.1373 36.4702 33.1373H80.786C82.1502 33.1373 83.2562 32.0313 83.2562 30.6671C83.2562 29.3028 82.1502 28.1969 80.786 28.1969Z" stroke="#3052A1" stroke-width="3" stroke-miterlimit="10" stroke-linecap="round"/>
<path d="M51.0679 27.317V24.0204C51.0679 22.9542 51.4915 21.9317 52.2454 21.1777C52.9993 20.4238 54.0219 20.0002 55.0881 20.0002H60.895C61.4229 20.0002 61.9457 20.1042 62.4335 20.3063C62.9212 20.5083 63.3644 20.8044 63.7377 21.1777C64.111 21.551 64.4071 21.9942 64.6092 22.482C64.8112 22.9697 64.9152 23.4925 64.9152 24.0204V24.208" stroke="#3052A1" stroke-width="3" stroke-miterlimit="10" stroke-linecap="round"/>
<path d="M62.2975 54.5066V86.3866" stroke="#3052A1" stroke-width="3" stroke-miterlimit="10" stroke-linecap="round"/>
<path d="M41.5893 48.1147C40.4516 47.499 39.4973 46.593 38.8236 45.4886C38.1498 44.3843 37.7808 43.1212 37.7539 41.8279C37.727 40.5345 38.0433 39.2571 38.6705 38.1258C39.2978 36.9944 40.2136 36.0494 41.3247 35.3871C42.4359 34.7247 43.7027 34.3685 44.9963 34.3549C46.2898 34.3413 47.5639 34.6706 48.6888 35.3094C49.8137 35.9482 50.7492 36.8736 51.4002 37.9915C52.0511 39.1094 52.3943 40.3798 52.3947 41.6735" stroke="#3052A1" stroke-width="3" stroke-miterlimit="10" stroke-linecap="round"/>
<path d="M83.658 47.6946C84.7952 47.0793 85.7492 46.1737 86.4228 45.07C87.0965 43.9663 87.4659 42.7039 87.4933 41.4111C87.5208 40.1184 87.2054 38.8414 86.5792 37.7101C85.953 36.5788 85.0383 35.6336 83.9283 34.9704C82.8182 34.3073 81.5523 33.9501 80.2594 33.9349C78.9664 33.9198 77.6925 34.2474 76.5672 34.8844C75.442 35.5214 74.5055 36.445 73.853 37.5614C73.2005 38.6777 72.8554 39.947 72.8526 41.24" stroke="#3052A1" stroke-width="3" stroke-miterlimit="10" stroke-linecap="round"/>
<path d="M52.3455 54.9491L55.5437 87.1865" stroke="#3052A1" stroke-width="3" stroke-miterlimit="10" stroke-linecap="round"/>
<path d="M44.3184 38.368C43.7699 38.6464 43.3136 39.0775 43.0046 39.6093C42.6955 40.1411 42.5467 40.7509 42.5763 41.3653C42.5519 41.948 42.6851 42.5264 42.9618 43.0397C43.2385 43.5531 43.6485 43.9823 44.1487 44.2822" stroke="#3052A1" stroke-width="3" stroke-miterlimit="10" stroke-linecap="round"/>
<path d="M47.8829 49.2715H79.2582V51.3843H49.7054C49.2221 51.3843 48.7585 51.1923 48.4167 50.8505C48.0749 50.5087 47.8829 50.0452 47.8829 49.5618V49.276V49.2715Z" fill="#4D69AA"/>
<path d="M37.2697 48.1145H85.9541" stroke="#3052A1" stroke-width="3" stroke-miterlimit="10" stroke-linecap="round"/>
</svg>
