<svg width="163" height="192" viewBox="0 0 163 192" fill="none" xmlns="http://www.w3.org/2000/svg">
<path d="M81.7341 179.697C126.484 179.697 162.761 143.42 162.761 98.6702C162.761 53.9201 126.484 17.6431 81.7341 17.6431C36.9841 17.6431 0.707031 53.9201 0.707031 98.6702C0.707031 143.42 36.9841 179.697 81.7341 179.697Z" fill="#F5F8FF"/>
<g filter="url(#filter0_d_1429_40582)">
<path d="M128.19 64.0986H35.2788C32.2954 64.0986 29.877 66.5171 29.877 69.5004V182.938C29.877 185.922 32.2954 188.34 35.2788 188.34H128.19C131.173 188.34 133.592 185.922 133.592 182.938V69.5004C133.592 66.5171 131.173 64.0986 128.19 64.0986Z" fill="white"/>
</g>
<path d="M70.9281 80.304H42.8387C41.0487 80.304 39.5977 81.755 39.5977 83.545C39.5977 85.335 41.0487 86.7861 42.8387 86.7861H70.9281C72.7181 86.7861 74.1692 85.335 74.1692 83.545C74.1692 81.755 72.7181 80.304 70.9281 80.304Z" fill="#B4DAFF"/>
<path d="M90.3747 94.3489H42.8387C41.0487 94.3489 39.5977 95.8 39.5977 97.59C39.5977 99.38 41.0487 100.831 42.8387 100.831H90.3747C92.1647 100.831 93.6157 99.38 93.6157 97.59C93.6157 95.8 92.1647 94.3489 90.3747 94.3489Z" fill="#DFEAFB"/>
<path d="M70.9281 109.474H42.8387C41.0487 109.474 39.5977 110.925 39.5977 112.715C39.5977 114.505 41.0487 115.956 42.8387 115.956H70.9281C72.7181 115.956 74.1692 114.505 74.1692 112.715C74.1692 110.925 72.7181 109.474 70.9281 109.474Z" fill="#B4DAFF"/>
<path d="M90.3747 123.519H42.8387C41.0487 123.519 39.5977 124.97 39.5977 126.76C39.5977 128.55 41.0487 130.001 42.8387 130.001H90.3747C92.1647 130.001 93.6157 128.55 93.6157 126.76C93.6157 124.97 92.1647 123.519 90.3747 123.519Z" fill="#DFEAFB"/>
<path d="M70.9281 138.644H42.8387C41.0487 138.644 39.5977 140.095 39.5977 141.885C39.5977 143.675 41.0487 145.126 42.8387 145.126H70.9281C72.7181 145.126 74.1692 143.675 74.1692 141.885C74.1692 140.095 72.7181 138.644 70.9281 138.644Z" fill="#B4DAFF"/>
<path d="M90.3747 152.688H42.8387C41.0487 152.688 39.5977 154.139 39.5977 155.929C39.5977 157.719 41.0487 159.17 42.8387 159.17H90.3747C92.1647 159.17 93.6157 157.719 93.6157 155.929C93.6157 154.139 92.1647 152.688 90.3747 152.688Z" fill="#DFEAFB"/>
<g filter="url(#filter1_d_1429_40582)">
<path d="M128.19 9H35.2788C32.2954 9 29.877 11.4185 29.877 14.4018V46.8127C29.877 49.796 32.2954 52.2145 35.2788 52.2145H128.19C131.173 52.2145 133.592 49.796 133.592 46.8127V14.4018C133.592 11.4185 131.173 9 128.19 9Z" fill="#3052A1"/>
</g>
<path d="M70.9301 20.8838H42.8407C41.0507 20.8838 39.5996 22.3349 39.5996 24.1249C39.5996 25.9149 41.0507 27.366 42.8407 27.366H70.9301C72.7201 27.366 74.1712 25.9149 74.1712 24.1249C74.1712 22.3349 72.7201 20.8838 70.9301 20.8838Z" fill="#B4DAFF"/>
<path d="M90.3766 34.9287H42.8407C41.0507 34.9287 39.5996 36.3798 39.5996 38.1698C39.5996 39.9598 41.0507 41.4109 42.8407 41.4109H90.3766C92.1666 41.4109 93.6177 39.9598 93.6177 38.1698C93.6177 36.3798 92.1666 34.9287 90.3766 34.9287Z" fill="white"/>
<defs>
<filter id="filter0_d_1429_40582" x="23.877" y="55.0986" width="115.715" height="136.242" filterUnits="userSpaceOnUse" color-interpolation-filters="sRGB">
<feFlood flood-opacity="0" result="BackgroundImageFix"/>
<feColorMatrix in="SourceAlpha" type="matrix" values="0 0 0 0 0 0 0 0 0 0 0 0 0 0 0 0 0 0 127 0" result="hardAlpha"/>
<feOffset dy="-3"/>
<feGaussianBlur stdDeviation="3"/>
<feColorMatrix type="matrix" values="0 0 0 0 0.788235 0 0 0 0 0.803922 0 0 0 0 0.85098 0 0 0 0.349 0"/>
<feBlend mode="normal" in2="BackgroundImageFix" result="effect1_dropShadow_1429_40582"/>
<feBlend mode="normal" in="SourceGraphic" in2="effect1_dropShadow_1429_40582" result="shape"/>
</filter>
<filter id="filter1_d_1429_40582" x="23.877" y="0" width="115.715" height="55.2144" filterUnits="userSpaceOnUse" color-interpolation-filters="sRGB">
<feFlood flood-opacity="0" result="BackgroundImageFix"/>
<feColorMatrix in="SourceAlpha" type="matrix" values="0 0 0 0 0 0 0 0 0 0 0 0 0 0 0 0 0 0 127 0" result="hardAlpha"/>
<feOffset dy="-3"/>
<feGaussianBlur stdDeviation="3"/>
<feColorMatrix type="matrix" values="0 0 0 0 0.788235 0 0 0 0 0.803922 0 0 0 0 0.85098 0 0 0 0.349 0"/>
<feBlend mode="normal" in2="BackgroundImageFix" result="effect1_dropShadow_1429_40582"/>
<feBlend mode="normal" in="SourceGraphic" in2="effect1_dropShadow_1429_40582" result="shape"/>
</filter>
</defs>
</svg>
