<svg width="182" height="188" viewBox="0 0 182 188" fill="none" xmlns="http://www.w3.org/2000/svg">
<path d="M19.2589 82.3452C19.2589 82.3452 51.1065 81.0699 57.9888 28.7193C64.1004 -17.773 117.804 3.38863 133.327 21.9216C153.437 45.9294 142.717 87.228 168.731 92.4452C194.745 97.6624 177.758 155.669 138.27 150.116C89.1481 143.21 101.033 171.914 86.2867 184.063C75.7038 192.782 32.3101 184.389 30.8638 152.736C29.6468 126.101 18.4115 126.185 10.4479 123.165C-1.03752 118.809 -8.27458 87.2638 19.2589 82.3452Z" fill="#EEEEEE"/>
<path d="M127.523 140.483L96.2334 109.565L90.0377 115.836L121.327 146.754L127.523 140.483Z" fill="#DEDEDE"/>
<path d="M139.475 148.791L115.132 124.737C114.996 124.603 114.778 124.604 114.644 124.74L105.43 134.064C105.296 134.199 105.298 134.418 105.433 134.552L129.776 158.606C129.912 158.74 130.13 158.739 130.264 158.603L139.478 149.279C139.612 149.143 139.611 148.925 139.475 148.791Z" fill="#B0B0B0"/>
<path d="M68.5016 125.115C90.0277 125.115 107.478 107.665 107.478 86.1385C107.478 64.6124 90.0277 47.1621 68.5016 47.1621C46.9756 47.1621 29.5253 64.6124 29.5253 86.1385C29.5253 107.665 46.9756 125.115 68.5016 125.115Z" fill="#B0B0B0"/>
<path d="M68.5017 118.756C86.5153 118.756 101.118 104.153 101.118 86.1391C101.118 68.1254 86.5153 53.5225 68.5017 53.5225C50.488 53.5225 35.885 68.1254 35.885 86.1391C35.885 104.153 50.488 118.756 68.5017 118.756Z" fill="#DEDEDE"/>
<path d="M134.396 50.9038C125.253 47.9404 115.373 52.9524 112.398 62.1325C109.434 71.275 114.446 81.1552 123.626 84.1306C132.807 87.106 142.661 82.0449 145.625 72.9019C148.589 63.759 143.539 53.8671 134.396 50.9038ZM131.637 59.4149C132.66 59.7467 133.562 60.3748 134.228 61.2198C134.894 62.0647 135.294 63.0884 135.377 64.1609C135.46 65.2335 135.223 66.3066 134.696 67.2441C134.168 68.1817 133.374 68.9414 132.414 69.427C131.454 69.9126 130.372 70.1022 129.304 69.9717C128.236 69.8412 127.231 69.3965 126.416 68.6941C125.601 67.9916 125.014 67.063 124.728 66.026C124.441 64.989 124.47 63.8904 124.809 62.8694C125.724 60.0448 128.812 58.4994 131.637 59.4149ZM124.735 80.7113C121.697 79.7318 119.095 77.7268 117.373 75.0396C120.595 73.209 123.964 72.6991 127.011 73.6869C130.059 74.6748 132.537 77.0386 134.024 80.4364C131.053 81.6027 127.769 81.6999 124.735 80.7113Z" fill="#CACACA"/>
<path d="M58.2998 134.216C56.7118 135.026 55.3998 136.289 54.5298 137.846C53.6597 139.402 53.2707 141.181 53.4119 142.959C53.553 144.736 54.2181 146.431 55.3229 147.831C56.4277 149.23 57.9227 150.27 59.6187 150.82C61.3148 151.37 63.1358 151.404 64.8514 150.919C66.567 150.434 68.1003 149.451 69.2572 148.094C70.4141 146.738 71.1428 145.068 71.3511 143.298C71.5593 141.527 71.2378 139.734 70.4272 138.146C69.3384 136.019 67.45 134.41 65.1764 133.673C62.9028 132.936 60.4297 133.131 58.2998 134.216ZM60.3995 138.329C60.8941 138.076 61.4525 137.977 62.004 138.042C62.5554 138.107 63.0751 138.335 63.4969 138.696C63.9188 139.057 64.2239 139.535 64.3736 140.07C64.5232 140.605 64.5107 141.172 64.3376 141.7C64.1644 142.227 63.8384 142.692 63.401 143.034C62.9636 143.376 62.4344 143.58 61.8806 143.621C61.3268 143.662 60.7733 143.538 60.2904 143.264C59.8074 142.989 59.4168 142.578 59.1679 142.082C58.8382 141.42 58.7825 140.655 59.0131 139.952C59.2436 139.25 59.7417 138.666 60.3995 138.329V138.329ZM65.653 148.621C64.1869 149.373 62.5052 149.591 60.896 149.238C61.4038 147.394 62.4473 145.978 63.9205 145.227C65.3938 144.475 67.1608 144.433 68.9434 145.131C68.2847 146.64 67.1215 147.874 65.653 148.621V148.621Z" fill="#CACACA"/>
</svg>
