<svg width="18" height="16" viewBox="0 0 18 16" fill="none" xmlns="http://www.w3.org/2000/svg">
<path d="M9 11.5C9 9.01562 11.0156 7 13.5 7C15.9844 7 18 9.01562 18 11.5C18 13.9844 15.9844 16 13.5 16C11.0156 16 9 13.9844 9 11.5ZM13.5 15C14.4437 15 15.2969 14.6281 15.9281 14.0219C15.7344 13.4281 15.175 13 14.5188 13H12.4812C11.825 13 11.2656 13.4281 11.0719 14.0219C11.7031 14.6281 12.5563 15 13.5 15ZM13.5 12C14.3281 12 15 11.3281 15 10.5C15 9.67188 14.3281 9 13.5 9C12.6719 9 12 9.67188 12 10.5C12 11.3281 12.6719 12 13.5 12Z" fill="#F8C073"/>
<path opacity="0.4" d="M3 1C3 0.447812 3.44688 0 4 0C4.55312 0 5 0.447812 5 1V2H9V1C9 0.447812 9.44687 0 10 0C10.5531 0 11 0.447812 11 1V2H12.5C13.3281 2 14 2.67156 14 3.5V5H0V3.5C0 2.67156 0.671562 2 1.5 2H3V1ZM13 6.02187C10.1969 6.275 8 8.63125 8 11.5C8 13.3594 8.925 15.0031 10.3375 16H1.5C0.671562 16 0 15.3281 0 14.5V6H13V6.02187Z" fill="#F8C073"/>
</svg>
