<svg width="16" height="16" viewBox="0 0 16 16" fill="none" xmlns="http://www.w3.org/2000/svg">
<path d="M5 10H5.375V10.5C5.375 10.7773 5.59766 11 5.875 11H7.125C7.40234 11 7.625 10.7773 7.625 10.5V10H8C8.55062 10 9 9.55062 9 9V2C9 1.44937 8.55062 1 8 1H5C4.45 1 4 1.44937 4 2V9C4 9.55 4.45 10 5 10ZM14.5 14H14.4609C15.4156 12.9375 16 11.5406 16 10C16 6.69063 13.3084 4 10 4V6C12.2072 6 14 7.79313 14 10C14 12.2069 12.2069 14 10 14H1.5C0.671875 14 0 14.6719 0 15.5C0 15.7781 0.222656 16 0.5 16H15.5C15.7773 16 16 15.7773 16 15.5C16 14.6719 15.3281 14 14.5 14Z" fill="#F8C073"/>
<path opacity="0.4" d="M9.75 12H3.25C3.11344 12 3 12.1125 3 12.25V12.75C3 12.8875 3.11344 13 3.25 13H9.75C9.88672 13 10 12.8867 10 12.75V12.25C10 12.1125 9.8875 12 9.75 12ZM8 0.5C8 0.223875 7.775 0 7.5 0H5.5C5.225 0 5 0.223875 5 0.5V1H8V0.5Z" fill="#F8C073"/>
</svg>
