<svg width="12" height="16" viewBox="0 0 12 16" fill="none" xmlns="http://www.w3.org/2000/svg">
<path d="M8 2C8 0.895313 7.10469 0 6 0C4.89531 0 4 0.895313 4 2C2.89531 2 2 2.89531 2 4V4.5C2 4.775 2.22375 5 2.5 5H9.5C9.775 5 10 4.775 10 4.5V4C10 2.89531 9.10313 2 8 2ZM6 2.75C5.58437 2.75 5.25 2.41406 5.25 2C5.25 1.58562 5.58594 1.25 6 1.25C6.41406 1.25 6.75 1.58562 6.75 2C6.75 2.41406 6.41563 2.75 6 2.75ZM3 11.75C2.58594 11.75 2.25 12.0859 2.25 12.5C2.25 12.9141 2.58594 13.25 3 13.25C3.41406 13.25 3.75 12.9141 3.75 12.5C3.75 12.0859 3.41562 11.75 3 11.75ZM5.14687 7.14687L3.5 8.79375L2.85344 8.14688C2.65812 7.95156 2.34156 7.95156 2.14656 8.14688C1.95156 8.34219 1.95125 8.65875 2.14656 8.85375L3.14656 9.85375C3.24375 9.95 3.37188 10 3.5 10C3.62812 10 3.75587 9.95119 3.85344 9.8535L5.85344 7.8535C6.04875 7.65819 6.04875 7.34163 5.85344 7.14663C5.65812 6.95162 5.34062 6.95 5.14687 7.14687Z" fill="#F8C073"/>
<path opacity="0.4" d="M10.5 2H8C9.10469 2 10 2.89531 10 4V4.5C10 4.775 9.775 5 9.5 5H2.5C2.22375 5 2 4.775 2 4.5V4C2 2.89531 2.89531 2 4 2H1.5C0.671562 2 0 2.67156 0 3.5V14.5C0 15.3281 0.671562 16 1.5 16H10.5C11.3284 16 12 15.3284 12 14.5V3.5C12 2.67156 11.3281 2 10.5 2ZM3 13.25C2.58594 13.25 2.25 12.9141 2.25 12.5C2.25 12.0859 2.58594 11.75 3 11.75C3.41406 11.75 3.75 12.0859 3.75 12.5C3.75 12.9141 3.41563 13.25 3 13.25ZM3.5 10C3.37206 10 3.24413 9.95119 3.14656 9.8535L2.14656 8.8535C1.95125 8.65819 1.95125 8.34162 2.14656 8.14662C2.34188 7.95162 2.65844 7.95131 2.85344 8.14662L3.5 8.79375L5.14656 7.14719C5.34188 6.95188 5.65844 6.95188 5.85344 7.14719C6.04844 7.3425 6.04875 7.65906 5.85344 7.85406L3.85344 9.85406C3.75625 9.95 3.62812 10 3.5 10ZM9.5 13H5.5C5.225 13 5 12.775 5 12.5C5 12.225 5.225 12 5.5 12H9.5C9.77503 12 10 12.225 10 12.5C10 12.775 9.775 13 9.5 13ZM9.5 10H6.5C6.225 10 6 9.775 6 9.5C6 9.225 6.225 9 6.5 9H9.5C9.775 9 10 9.225 10 9.5C10 9.775 9.775 10 9.5 10Z" fill="#F8C073"/>
</svg>
