<svg width="12" height="16" viewBox="0 0 12 16" fill="none" xmlns="http://www.w3.org/2000/svg">
<path d="M6 5C7.10469 5 8 5.89531 8 7C8 8.10469 7.10469 9 6 9C4.89531 9 4 8.10313 4 7C4 5.89688 4.89687 5 6 5ZM9 13H3C2.72387 13 2.5 12.7761 2.5 12.5C2.5 11.1188 3.61875 10 5 10H7C8.38062 10 9.5 11.1194 9.5 12.5C9.5 12.775 9.275 13 9 13Z" fill="#5BCEDD"/>
<path opacity="0.4" d="M10.5 0H1.5C0.671562 0 0 0.671562 0 1.5V14.5C0 15.3281 0.671562 16 1.5 16H10.5C11.3284 16 12 15.3284 12 14.5V1.5C12 0.671562 11.3281 0 10.5 0ZM4.5 2H7.5C7.775 2 8 2.22375 8 2.5C8 2.77625 7.775 3 7.5 3H4.5C4.225 3 4 2.77625 4 2.5C4 2.22375 4.225 2 4.5 2ZM6 5C7.10469 5 8 5.89563 8 7C8 8.10437 7.10469 9 6 9C4.89531 9 4 8.10312 4 7C4 5.89687 4.89687 5 6 5ZM9 13H3C2.72388 13 2.5 12.7761 2.5 12.5C2.5 11.1187 3.61875 10 5 10H7C8.38062 10 9.5 11.1194 9.5 12.5C9.5 12.775 9.275 13 9 13Z" fill="#5BCEDD"/>
</svg>
