<svg width="14" height="16" viewBox="0 0 14 16" fill="none" xmlns="http://www.w3.org/2000/svg">
<path d="M3 1C3 0.447812 3.44688 0 4 0C4.55312 0 5 0.447812 5 1V2H9V1C9 0.447812 9.44687 0 10 0C10.5531 0 11 0.447812 11 1V2H12.5C13.3281 2 14 2.67156 14 3.5V6H0V3.5C0 2.67156 0.671562 2 1.5 2H3V1ZM3 9.25C3 8.83438 3.33437 8.5 3.75 8.5H10.25C10.6656 8.5 11 8.83438 11 9.25C11 9.66562 10.6656 10 10.25 10H3.75C3.33437 10 3 9.66562 3 9.25ZM7.25 11.5C7.66563 11.5 8 11.8344 8 12.25C8 12.6656 7.66563 13 7.25 13H3.75C3.33437 13 3 12.6656 3 12.25C3 11.8344 3.33437 11.5 3.75 11.5H7.25Z" fill="#FD7D71"/>
<path opacity="0.4" d="M0 6H14V14.5C14 15.3281 13.3281 16 12.5 16H1.5C0.671562 16 0 15.3281 0 14.5V6ZM3.75 10H10.25C10.6656 10 11 9.66563 11 9.25C11 8.83437 10.6656 8.5 10.25 8.5H3.75C3.33437 8.5 3 8.83437 3 9.25C3 9.66563 3.33437 10 3.75 10ZM3.75 11.5C3.33437 11.5 3 11.8344 3 12.25C3 12.6656 3.33437 13 3.75 13H7.25C7.66563 13 8 12.6656 8 12.25C8 11.8344 7.66563 11.5 7.25 11.5H3.75Z" fill="#FD7D71"/>
</svg>
