<svg width="75" height="22" viewBox="0 0 75 22" fill="none" xmlns="http://www.w3.org/2000/svg">
<path d="M3.82617 15C2.86523 15 2.11719 14.7578 1.58203 14.2734C1.04688 13.7852 0.779297 13.1035 0.779297 12.2285C0.779297 11.2832 1.07617 10.5391 1.66992 9.99609C2.26367 9.45312 3.0625 9.18164 4.06641 9.18164H4.85742V8.42578H5.88281V14.0625H7.24805C7.28711 14.0625 7.30664 14.0781 7.30664 14.1094V14.9414C7.30664 14.9805 7.28711 15 7.24805 15H3.82617ZM4.85742 14.0625V10.1133H4.10156C3.38281 10.1133 2.82617 10.2988 2.43164 10.6699C2.04102 11.0371 1.8457 11.5527 1.8457 12.2168C1.8457 12.8145 2.01562 13.2715 2.35547 13.5879C2.69531 13.9043 3.17773 14.0625 3.80273 14.0625H4.85742ZM3.20508 7.31836C3.01758 7.31836 2.85742 7.26172 2.72461 7.14844C2.5957 7.03516 2.53125 6.85156 2.53125 6.59766C2.53125 6.34375 2.5957 6.16016 2.72461 6.04688C2.85742 5.93359 3.01758 5.87695 3.20508 5.87695C3.4082 5.87695 3.57031 5.93945 3.69141 6.06445C3.8125 6.18555 3.87305 6.36328 3.87305 6.59766C3.87305 6.82812 3.8125 7.00586 3.69141 7.13086C3.57422 7.25586 3.41211 7.31836 3.20508 7.31836ZM5.2793 7.31836C5.07227 7.31836 4.9082 7.25586 4.78711 7.13086C4.66602 7.00586 4.60547 6.82812 4.60547 6.59766C4.60547 6.36719 4.66406 6.18945 4.78125 6.06445C4.90234 5.93945 5.06836 5.87695 5.2793 5.87695C5.49414 5.87695 5.66016 5.94336 5.77734 6.07617C5.89453 6.20508 5.95312 6.37891 5.95312 6.59766C5.95312 6.81641 5.89453 6.99219 5.77734 7.125C5.66016 7.25391 5.49414 7.31836 5.2793 7.31836ZM7.13672 15C7.09766 15 7.07812 14.9805 7.07812 14.9414V14.1094C7.07812 14.0781 7.09766 14.0625 7.13672 14.0625H8.71875V5.88281H9.78516V14.0625H11.3496C11.3887 14.0625 11.4082 14.0781 11.4082 14.1094V14.9414C11.4082 14.9805 11.3887 15 11.3496 15H7.13672ZM17.0684 15C16.7324 15 16.3711 14.9512 15.9844 14.8535C15.5977 14.752 15.2188 14.6016 14.8477 14.4023C14.1445 14.8008 13.4004 15 12.6152 15H11.2266C11.1875 15 11.168 14.9805 11.168 14.9414V14.1094C11.168 14.0781 11.1875 14.0625 11.2266 14.0625H12.6035C13.1777 14.0625 13.6543 13.9824 14.0332 13.8223C13.7246 13.5996 13.4082 13.2793 13.084 12.8613C12.7637 12.4395 12.4902 11.9863 12.2637 11.502C12.041 11.0137 11.8945 10.5508 11.8242 10.1133C12.2617 9.70312 12.7539 9.38086 13.3008 9.14648C13.8516 8.91211 14.4121 8.79492 14.9824 8.79492C15.4863 8.79492 15.9941 8.875 16.5059 9.03516C17.0176 9.19531 17.4648 9.4082 17.8477 9.67383C17.8477 10.502 17.6562 11.2832 17.2734 12.0176C16.8906 12.752 16.3633 13.3496 15.6914 13.8105C16.1367 13.9785 16.5801 14.0625 17.0215 14.0625H18.4746C18.5137 14.0625 18.5332 14.0781 18.5332 14.1094V14.9414C18.5332 14.9805 18.5137 15 18.4746 15H17.0684ZM14.8594 13.2832C15.4766 12.8652 15.9355 12.4062 16.2363 11.9062C16.5371 11.4062 16.707 10.8301 16.7461 10.1777C16.1875 9.88086 15.6113 9.73242 15.0176 9.73242C14.3379 9.73242 13.6582 9.96484 12.9785 10.4297C13.0996 10.9766 13.3262 11.5 13.6582 12C13.9902 12.5 14.3906 12.9277 14.8594 13.2832ZM23.4023 14.0625V10.1133H22.8867C22.1719 10.1133 21.6172 10.3027 21.2227 10.6816C20.8281 11.0566 20.6309 11.5801 20.6309 12.252C20.6309 13.459 21.1777 14.0625 22.2715 14.0625H23.4023ZM18.3633 15C18.3242 15 18.3047 14.9805 18.3047 14.9414V14.1094C18.3047 14.0781 18.3242 14.0625 18.3633 14.0625H20.1855C19.9824 13.832 19.8281 13.5527 19.7227 13.2246C19.6172 12.8965 19.5645 12.5723 19.5645 12.252C19.5645 11.2988 19.8594 10.5488 20.4492 10.002C21.043 9.45508 21.8438 9.18164 22.8516 9.18164H24.4219V14.0625H25.6934C25.7168 14.0625 25.7344 14.0723 25.7461 14.0918L25.752 14.1211V14.9531C25.752 14.9844 25.7324 15 25.6934 15H18.3633ZM22.248 8.03906C22.041 8.03906 21.877 7.97656 21.7559 7.85156C21.6348 7.72656 21.5742 7.54883 21.5742 7.31836C21.5742 7.08789 21.6328 6.91016 21.75 6.78516C21.8711 6.66016 22.0371 6.59766 22.248 6.59766C22.4629 6.59766 22.6289 6.66406 22.7461 6.79688C22.8633 6.92578 22.9219 7.09961 22.9219 7.31836C22.9219 7.53711 22.8633 7.71289 22.7461 7.8457C22.6289 7.97461 22.4629 8.03906 22.248 8.03906ZM25.582 15C25.543 15 25.5234 14.9805 25.5234 14.9414V14.1094C25.5234 14.0781 25.543 14.0625 25.582 14.0625H27.0703C26.7734 13.2891 26.625 12.6055 26.625 12.0117C26.625 11.2969 26.7695 10.6602 27.0586 10.1016C27.3516 9.85547 27.6875 9.66016 28.0664 9.51562C28.4453 9.37109 28.8398 9.29883 29.25 9.29883C29.75 9.29883 30.1895 9.41016 30.5684 9.63281C30.9473 9.85156 31.2383 10.1641 31.4414 10.5703C31.6445 10.9766 31.7461 11.4375 31.7461 11.9531C31.7461 12.4648 31.6621 12.9355 31.4941 13.3652C31.666 13.627 31.8574 13.8086 32.0684 13.9102C32.2832 14.0117 32.5645 14.0625 32.9121 14.0625H32.9707C33.0137 14.0625 33.0352 14.0781 33.0352 14.1094V14.9414C33.0352 14.9805 33.0137 15 32.9707 15H32.9121C32.4863 15 32.123 14.9414 31.8223 14.8242C31.5215 14.707 31.2324 14.5059 30.9551 14.2207C30.7012 14.4863 30.4043 14.6836 30.0645 14.8125C29.7285 14.9375 29.377 15 29.0098 15H25.582ZM27.7031 11.8066C27.7031 12.1777 27.7363 12.543 27.8027 12.9023C27.8691 13.2578 27.9883 13.6445 28.1602 14.0625H29.0098C29.5449 14.0625 29.9551 13.8809 30.2402 13.5176C30.5254 13.1543 30.668 12.6289 30.668 11.9414C30.668 11.4375 30.5293 11.0254 30.252 10.7051C29.9785 10.3848 29.6445 10.2246 29.25 10.2246C28.9961 10.2246 28.7461 10.2695 28.5 10.3594C28.2578 10.4492 28.041 10.5684 27.8496 10.7168C27.7832 10.8848 27.7422 11.0566 27.7266 11.2324C27.7109 11.4043 27.7031 11.5957 27.7031 11.8066ZM32.8594 15C32.8203 15 32.8008 14.9805 32.8008 14.9414V14.1094C32.8008 14.0781 32.8203 14.0625 32.8594 14.0625H34.4414V5.88281H35.5078V15H32.8594ZM37.916 5.88281H38.9824V15H37.916V5.88281ZM47.1445 15V15.2871C47.1445 16.0957 46.9609 16.7305 46.5938 17.1914C46.2266 17.6523 45.6973 17.8828 45.0059 17.8828C44.623 17.8828 44.2148 17.7695 43.7812 17.543L44.0918 16.7402C44.2871 16.8262 44.4473 16.8809 44.5723 16.9043C44.6973 16.9316 44.834 16.9453 44.9824 16.9453C45.3418 16.9453 45.623 16.7988 45.8262 16.5059C46.0293 16.2129 46.1309 15.8262 46.1309 15.3457V9.18164H47.1445V14.0625H48.627C48.6699 14.0625 48.6914 14.0781 48.6914 14.1094V14.9414C48.6914 14.9805 48.6699 15 48.627 15H47.1445ZM48.5156 15C48.4766 15 48.457 14.9805 48.457 14.9414V14.1094C48.457 14.0781 48.4766 14.0625 48.5156 14.0625H50.4609V9.18164H51.5273V14.0625H53.3262C53.3652 14.0625 53.3848 14.0781 53.3848 14.1094V14.9414C53.3848 14.9805 53.3652 15 53.3262 15H48.5156ZM49.9922 17.4023C49.8047 17.4023 49.6445 17.3457 49.5117 17.2324C49.3828 17.1191 49.3184 16.9355 49.3184 16.6816C49.3184 16.4277 49.3828 16.2441 49.5117 16.1309C49.6445 16.0176 49.8047 15.9609 49.9922 15.9609C50.1953 15.9609 50.3574 16.0215 50.4785 16.1426C50.5996 16.2676 50.6602 16.4473 50.6602 16.6816C50.6602 16.9121 50.5996 17.0898 50.4785 17.2148C50.3613 17.3398 50.1992 17.4023 49.9922 17.4023ZM52.0664 17.4023C51.8594 17.4023 51.6953 17.3398 51.5742 17.2148C51.4531 17.0898 51.3926 16.9121 51.3926 16.6816C51.3926 16.4512 51.4512 16.2734 51.5684 16.1484C51.6895 16.0234 51.8555 15.9609 52.0664 15.9609C52.2812 15.9609 52.4473 16.0254 52.5645 16.1543C52.6816 16.2871 52.7402 16.4629 52.7402 16.6816C52.7402 16.9004 52.6816 17.0742 52.5645 17.2031C52.4473 17.3359 52.2812 17.4023 52.0664 17.4023ZM53.2148 15C53.1758 15 53.1562 14.9805 53.1562 14.9414V14.1094C53.1562 14.0781 53.1758 14.0625 53.2148 14.0625H55.0605C54.8066 13.8477 54.6016 13.5527 54.4453 13.1777C54.2891 12.8027 54.2109 12.3867 54.2109 11.9297C54.2109 11.0273 54.4688 10.3242 54.9844 9.82031C55.5039 9.3125 56.1973 9.05859 57.0645 9.05859C57.4082 9.05859 57.7246 9.09375 58.0137 9.16406C58.3066 9.23047 58.5469 9.3125 58.7344 9.41016L58.4121 10.3066C57.916 10.0996 57.4473 9.99609 57.0059 9.99609C55.8691 9.99609 55.3008 10.6562 55.3008 11.9766C55.3008 12.5977 55.4355 13.1016 55.7051 13.4883C55.9785 13.8711 56.3359 14.0625 56.7773 14.0625H58.916V15H53.2148ZM56.7422 8.03906C56.5352 8.03906 56.3711 7.97656 56.25 7.85156C56.1289 7.72656 56.0684 7.54883 56.0684 7.31836C56.0684 7.08789 56.127 6.91016 56.2441 6.78516C56.3652 6.66016 56.5312 6.59766 56.7422 6.59766C56.957 6.59766 57.123 6.66406 57.2402 6.79688C57.3574 6.92578 57.416 7.09961 57.416 7.31836C57.416 7.53711 57.3574 7.71289 57.2402 7.8457C57.123 7.97461 56.957 8.03906 56.7422 8.03906Z" fill="#AFAFAF"/>
<circle cx="72.5" cy="11.5" r="2.5" fill="#5BCEDD"/>
</svg>
