<svg width="14" height="14" viewBox="0 0 14 14" fill="none" xmlns="http://www.w3.org/2000/svg">
<path d="M9.89057 12.9742C9.87887 12.9743 9.8671 12.9744 9.85526 12.9744C9.81778 12.9744 9.78033 12.9743 9.74294 12.9742H9.89057Z" fill="white"/>
<path d="M9.93115 12.9735C8.09944 12.9289 7.33575 10.8435 8.03467 9.05437H4.40768C4.40739 9.05223 4.40709 9.05008 4.4068 9.04794C4.11823 8.0194 2.71439 1.89283 5.44569 1.02539H12.9999C10.9272 1.65618 11.2717 4.53642 11.6036 7.31085C11.9455 10.1695 12.2741 12.9158 9.93115 12.9735Z" fill="white"/>
<path d="M2.33477 9.05479L1.21054 9.05479C0.906732 10.2757 0.545676 12.9746 3.16137 12.9746L9.99121 12.9746C8.11626 12.9746 7.32826 10.8634 8.03476 9.05479L2.33477 9.05479Z" fill="white" stroke="#3052A1" stroke-linecap="round" stroke-linejoin="round"/>
<path d="M9.85526 12.9744C14.6105 12.9744 8.76877 2.31305 12.9999 1.02539H5.44569C2.71439 1.89283 4.11823 8.0194 4.4068 9.04794" stroke="#3052A1" stroke-linejoin="round"/>
<path d="M6.8457 3.89355L8.69328 3.89355" stroke="#3052A1" stroke-linecap="round" stroke-linejoin="round"/>
<path d="M6.8457 6.47656L8.69328 6.47656" stroke="#3052A1" stroke-linecap="round" stroke-linejoin="round"/>
</svg>
