<svg width="22" height="22" viewBox="0 0 22 22" fill="none" xmlns="http://www.w3.org/2000/svg">
<path d="M1 11C0.999999 5.47715 5.47715 1 11 1C16.5228 1 21 5.47715 21 11C21 16.5228 16.5228 21 11 21C5.47715 21 1 16.5228 1 11Z" stroke="#3052A1" stroke-width="1.5" stroke-linecap="round" stroke-linejoin="round"/>
<path d="M7 11.75C6.58579 11.75 6.25 11.4142 6.25 11C6.25 10.5858 6.58579 10.25 7 10.25L7 11.75ZM16 10.25C16.4142 10.25 16.75 10.5858 16.75 11C16.75 11.4142 16.4142 11.75 16 11.75L16 10.25ZM7 10.25L16 10.25L16 11.75L7 11.75L7 10.25Z" fill="#3052A1"/>
<path d="M11.5786 7.6204C11.2359 7.38765 11.1469 6.9212 11.3796 6.57857C11.6124 6.23593 12.0788 6.14685 12.4214 6.3796L11.5786 7.6204ZM15.711 10.2771L16.2733 9.78077L15.711 10.2771ZM12.4214 15.6204C12.0788 15.8531 11.6124 15.7641 11.3796 15.4214C11.1469 15.0788 11.2359 14.6124 11.5786 14.3796L12.4214 15.6204ZM15.711 11.7229L16.2733 12.2192L15.711 11.7229ZM12.4214 6.3796C14.2726 7.63713 15.1515 8.50988 16.2733 9.78077L15.1487 10.7734C14.0925 9.57679 13.306 8.79381 11.5786 7.6204L12.4214 6.3796ZM11.5786 14.3796C13.306 13.2062 14.0925 12.4232 15.1487 11.2266L16.2733 12.2192C15.1515 13.4901 14.2726 14.3629 12.4214 15.6204L11.5786 14.3796ZM16.2733 9.78077C16.9089 10.5009 16.9089 11.4991 16.2733 12.2192L15.1487 11.2266C15.2838 11.0736 15.2838 10.9264 15.1487 10.7734L16.2733 9.78077Z" fill="#3052A1"/>
</svg>
