<svg width="15" height="15" viewBox="0 0 15 15" fill="none" xmlns="http://www.w3.org/2000/svg">
<path d="M7.5 1C11.0899 1 14 3.91015 14 7.5C14 11.0899 11.0899 14 7.5 14C3.91015 14 1 11.0899 1 7.5C1 3.91015 3.91015 1 7.5 1Z" stroke="#3052A1" stroke-width="1.5" stroke-linecap="round" stroke-linejoin="round"/>
<path d="M6.75 4.57168C6.75 4.15747 7.08579 3.82168 7.5 3.82168C7.91421 3.82168 8.25 4.15747 8.25 4.57168L6.75 4.57168ZM8.25 10.4268C8.25 10.841 7.91421 11.1768 7.5 11.1768C7.08579 11.1768 6.75 10.841 6.75 10.4268L8.25 10.4268ZM8.25 4.57168L8.25 10.4268L6.75 10.4268L6.75 4.57168L8.25 4.57168Z" fill="#3052A1"/>
<path d="M9.36112 7.85877C9.61819 7.53397 10.0899 7.47906 10.4147 7.73612C10.7395 7.99319 10.7944 8.46487 10.5373 8.78967L9.36112 7.85877ZM7.94279 10.2743L8.39569 10.8721L7.94279 10.2743ZM4.46305 8.78967C4.20599 8.46487 4.2609 7.99318 4.58569 7.73612C4.91049 7.47906 5.38218 7.53397 5.63924 7.85877L4.46305 8.78967ZM7.05757 10.2743L6.60467 10.8721L7.05757 10.2743ZM10.5373 8.78967C9.74498 9.79078 9.18873 10.2713 8.39569 10.8721L7.48988 9.67652C8.2076 9.13278 8.66509 8.7382 9.36112 7.85877L10.5373 8.78967ZM5.63924 7.85877C6.33527 8.7382 6.79276 9.13278 7.51048 9.67652L6.60467 10.8721C5.81163 10.2713 5.25538 9.79078 4.46305 8.78967L5.63924 7.85877ZM8.39569 10.8721C7.86057 11.2776 7.1398 11.2776 6.60467 10.8721L7.51048 9.67652C7.51409 9.67926 7.5147 9.67891 7.51194 9.67797C7.50926 9.67706 7.50515 9.67621 7.50018 9.67621C7.49521 9.67621 7.4911 9.67706 7.48842 9.67797C7.48566 9.67891 7.48628 9.67926 7.48988 9.67652L8.39569 10.8721Z" fill="#3052A1"/>
</svg>
