<svg width="12" height="11" viewBox="0 0 12 11" fill="none" xmlns="http://www.w3.org/2000/svg">
<path d="M1.1413 8.16067C1.24418 9.12109 2.01654 9.89345 2.9765 10.0006C3.69493 10.0807 4.43266 10.1498 5.18487 10.1498C5.93707 10.1498 6.6748 10.0807 7.39323 10.0006C8.35319 9.89345 9.12555 9.12109 9.22843 8.16067C9.30496 7.44628 9.36973 6.71276 9.36973 5.96489C9.36973 5.21702 9.30496 4.48351 9.22843 3.76912C9.12555 2.8087 8.35319 2.03634 7.39323 1.92922C6.6748 1.84905 5.93707 1.78003 5.18487 1.78003C4.43266 1.78003 3.69493 1.84905 2.9765 1.92922C2.01654 2.03634 1.24418 2.8087 1.1413 3.76912C1.06477 4.48351 1 5.21702 1 5.96489C1 6.71276 1.06477 7.44628 1.1413 8.16067Z" fill="white"/>
<path d="M4.59181 2.29368C4.86767 2.28126 5.08123 2.04755 5.0688 1.77169C5.05638 1.49583 4.82267 1.28227 4.54681 1.2947L4.59181 2.29368ZM9.8498 6.72621C9.86364 6.45042 9.65128 6.21563 9.37548 6.20179C9.09969 6.18795 8.86489 6.40031 8.85106 6.67611L9.8498 6.72621ZM2.9765 10.0003L2.92105 10.4973L2.9765 10.0003ZM5.18487 9.64954C4.46142 9.64954 3.74617 9.58313 3.03195 9.50343L2.92105 10.4973C3.64369 10.5779 4.40389 10.6495 5.18487 10.6495V9.64954ZM7.33778 9.50343C6.62356 9.58313 5.90831 9.64954 5.18487 9.64954V10.6495C5.96584 10.6495 6.72604 10.5779 7.44868 10.4973L7.33778 9.50343ZM0.644141 3.71564C0.567111 4.43475 0.5 5.18953 0.5 5.96467H1.5C1.5 5.24408 1.56243 4.53182 1.63845 3.82215L0.644141 3.71564ZM0.5 5.96467C0.5 6.73982 0.567111 7.4946 0.644141 8.2137L1.63845 8.10719C1.56243 7.39752 1.5 6.68527 1.5 5.96467H0.5ZM3.03194 2.42592C3.54982 2.36813 4.0685 2.31725 4.59181 2.29368L4.54681 1.2947C3.99037 1.31976 3.44593 1.37351 2.92103 1.43208L3.03194 2.42592ZM9.72559 8.21371C9.77722 7.73177 9.82432 7.2341 9.8498 6.72621L8.85106 6.67611C8.82697 7.15632 8.78213 7.63247 8.73128 8.1072L9.72559 8.21371ZM1.63845 3.82215C1.71624 3.09601 2.30393 2.50715 3.03194 2.42592L2.92103 1.43208C1.72913 1.56509 0.772117 2.52095 0.644141 3.71564L1.63845 3.82215ZM7.44868 10.4973C8.64058 10.3643 9.59761 9.40841 9.72559 8.21371L8.73128 8.1072C8.6535 8.83333 8.06579 9.42219 7.33778 9.50343L7.44868 10.4973ZM3.03195 9.50343C2.30394 9.42219 1.71624 8.83333 1.63845 8.10719L0.644141 8.2137C0.772117 9.4084 1.72915 10.3643 2.92105 10.4973L3.03195 9.50343Z" fill="#3052A1"/>
<path d="M8.21098 0.939532L5.36676 4.16679L4.97711 5.99943C4.91441 6.2943 5.22179 6.57332 5.50965 6.48283L7.33339 5.90949L10.2712 2.81826C10.7591 2.30485 10.674 1.44613 10.0833 0.923726C9.50657 0.413561 8.66829 0.420639 8.21098 0.939532Z" fill="white"/>
<path d="M5.36676 4.16679L4.97273 3.81825C4.9237 3.87389 4.88991 3.94163 4.8741 4.01598L5.36676 4.16679ZM8.21098 0.939532L8.60501 1.28807L8.60501 1.28807L8.21098 0.939532ZM10.2712 2.81826L10.6544 3.17856L10.2712 2.81826ZM7.33339 5.90949L7.53077 6.38488C7.60252 6.36233 7.66616 6.32292 7.71666 6.26978L7.33339 5.90949ZM5.50965 6.48283L5.31227 6.00744H5.31227L5.50965 6.48283ZM4.97711 5.99943L4.48445 5.84862L4.97711 5.99943ZM10.0833 0.923726L10.3958 0.569226L10.3958 0.569226L10.0833 0.923726ZM5.76079 4.51532L8.60501 1.28807L7.81696 0.590995L4.97273 3.81825L5.76079 4.51532ZM9.8879 2.45797L6.95013 5.54919L7.71666 6.26978L10.6544 3.17856L9.8879 2.45797ZM7.13602 5.43409L5.31227 6.00744L5.70702 6.95822L7.53077 6.38488L7.13602 5.43409ZM5.46977 6.15023L5.85942 4.31759L4.8741 4.01598L4.48445 5.84862L5.46977 6.15023ZM5.31227 6.00744C5.39759 5.98061 5.48825 6.06331 5.46977 6.15023L4.48445 5.84862C4.34057 6.5253 5.04599 7.16604 5.70702 6.95822L5.31227 6.00744ZM10.6544 3.17856C11.3264 2.47144 11.2092 1.28872 10.3958 0.569226L9.77095 1.27823C10.1387 1.60353 10.1917 2.13826 9.8879 2.45797L10.6544 3.17856ZM8.60501 1.28807C8.88978 0.96495 9.41178 0.960543 9.77095 1.27823L10.3958 0.569226C9.60136 -0.13342 8.4468 -0.123672 7.81696 0.590995L8.60501 1.28807Z" fill="#3052A1"/>
</svg>
