<svg xmlns="http://www.w3.org/2000/svg" width="28.337" height="25.977" viewBox="0 0 28.337 25.977"><g transform="translate(0 -0.492)"><path d="M7.379,160.853A4.421,4.421,0,0,1,3.2,157.841l-.041-.136a4.31,4.31,0,0,1-.2-1.28v-8.05L.087,157.937a2.682,2.682,0,0,0,1.88,3.253l18.258,4.89a2.709,2.709,0,0,0,.68.087,2.633,2.633,0,0,0,2.552-1.931l1.064-3.383Zm0,0" transform="translate(0 -139.698)" fill="#D8D8D8"/><path d="M151.682,69.215a2.362,2.362,0,1,0-2.362-2.362A2.364,2.364,0,0,0,151.682,69.215Zm0,0" transform="translate(-141.056 -60.458)" fill="#D8D8D8"/><path d="M105.983.492H88.272A2.956,2.956,0,0,0,85.32,3.444V16.432a2.956,2.956,0,0,0,2.952,2.952h17.711a2.956,2.956,0,0,0,2.952-2.952V3.444A2.956,2.956,0,0,0,105.983.492ZM88.272,2.854h17.711a.591.591,0,0,1,.59.59v8.382l-3.73-4.352a2.115,2.115,0,0,0-1.583-.726,2.064,2.064,0,0,0-1.577.745L95.3,12.757l-1.429-1.425a2.073,2.073,0,0,0-2.928,0l-3.259,3.258V3.444A.59.59,0,0,1,88.272,2.854Zm0,0" transform="translate(-80.598)" fill="#D8D8D8"/></g></svg>