<svg width="20" height="20" viewBox="0 0 20 20" fill="none" xmlns="http://www.w3.org/2000/svg">
<path d="M9.04329 0.937478C9.65586 0.683743 10.3441 0.683743 10.9567 0.937478L15.7317 2.91533C16.3442 3.16907 16.8309 3.65575 17.0847 4.26832L19.0625 9.04329C19.3163 9.65586 19.3163 10.3441 19.0625 10.9567L17.0847 15.7317C16.8309 16.3442 16.3442 16.8309 15.7317 17.0847L10.9567 19.0625C10.3441 19.3163 9.65586 19.3163 9.04329 19.0625L4.26832 17.0847C3.65575 16.8309 3.16907 16.3442 2.91533 15.7317L0.937478 10.9567C0.683743 10.3441 0.683743 9.65586 0.937478 9.04329L2.91533 4.26832C3.16907 3.65575 3.65575 3.16907 4.26832 2.91533L9.04329 0.937478Z" fill="#FFDEDB" stroke="#FFD5D1"/>
<path d="M10 5C7.23722 5 5 7.23722 5 10C5 12.7628 7.23864 15 10 15C12.7614 15 15 12.7628 15 10C15 7.23722 12.7642 5 10 5ZM12.6278 9.46875L11.5517 10.5199L11.8038 12.0043C11.85 12.267 11.5695 12.473 11.3314 12.3452L9.99957 11.6457L8.66761 12.3437C8.42969 12.4716 8.14915 12.2656 8.19517 12.0028L8.4473 10.5185L7.37116 9.46733C7.17614 9.27841 7.28693 8.94886 7.55398 8.90909L9.04205 8.69247L9.70739 7.34375C9.7642 7.22301 9.88139 7.16264 9.99858 7.16264C10.1158 7.16264 10.233 7.22443 10.2898 7.34375L10.9574 8.69318L12.4455 8.9098C12.7159 8.94886 12.8239 9.27841 12.6278 9.46875Z" fill="url(#paint0_linear_593_4273)"/>
<defs>
<linearGradient id="paint0_linear_593_4273" x1="10" y1="5" x2="10" y2="15" gradientUnits="userSpaceOnUse">
<stop stop-color="#FD7D71"/>
<stop offset="1" stop-color="#CD6359"/>
</linearGradient>
</defs>
</svg>
