<svg width="34" height="39" viewBox="0 0 34 39" fill="none" xmlns="http://www.w3.org/2000/svg">
<path d="M1.77168 31.6289C2.04765 34.4711 4.2441 36.7661 7.02703 37.1386C10.2529 37.5704 13.5875 38 17 38C20.4125 38 23.7471 37.5704 26.973 37.1386C29.7559 36.7661 31.9523 34.4711 32.2283 31.6289C32.6084 27.7143 33 23.6573 33 19.5C33 17.0556 32.8646 14.6459 32.6758 12.2794C32.2215 6.58611 27.7502 1.82916 22.1624 1.27913C20.4647 1.11201 18.7425 1 17 1C13.5875 1 10.2529 1.42961 7.02704 1.86139C4.2441 2.23389 2.04765 4.52887 1.77168 7.37107C1.39158 11.2857 1 15.3427 1 19.5C1 23.6573 1.39158 27.7143 1.77168 31.6289Z" fill="white"/>
<path d="M32.6758 12.2794L33.4234 12.2198L32.6758 12.2794ZM22.1624 1.27913L22.2359 0.53274L22.1624 1.27913ZM26.973 37.1386L27.0725 37.882L26.973 37.1386ZM32.2283 31.6289L31.4818 31.5564L32.2283 31.6289ZM7.02704 1.86139L6.92753 1.11802L7.02704 1.86139ZM1.77168 7.37107L2.51817 7.44355V7.44355L1.77168 7.37107ZM7.02703 37.1386L7.12654 36.3952L7.02703 37.1386ZM1.77168 31.6289L1.02519 31.7014L1.77168 31.6289ZM17 37.25C13.6441 37.25 10.3562 36.8275 7.12654 36.3952L6.92753 37.882C10.1496 38.3133 13.5308 38.75 17 38.75V37.25ZM26.8735 36.3952C23.6438 36.8275 20.3559 37.25 17 37.25V38.75C20.4692 38.75 23.8504 38.3133 27.0725 37.882L26.8735 36.3952ZM32.9748 31.7014C33.3545 27.7915 33.75 23.6992 33.75 19.5H32.25C32.25 23.6154 31.8624 27.637 31.4818 31.5564L32.9748 31.7014ZM33.75 19.5C33.75 17.0286 33.6131 14.5975 33.4234 12.2198L31.9282 12.3391C32.1161 14.6944 32.25 17.0826 32.25 19.5H33.75ZM17 1.75C18.7109 1.75 20.4074 1.86 22.089 2.02553L22.2359 0.53274C20.522 0.364031 18.7741 0.25 17 0.25V1.75ZM7.12654 2.60476C10.3562 2.17248 13.6441 1.75 17 1.75V0.25C13.5308 0.25 10.1496 0.686749 6.92753 1.11802L7.12654 2.60476ZM1.02519 7.29859C0.645551 11.2085 0.25 15.3008 0.25 19.5H1.75C1.75 15.3846 2.1376 11.363 2.51817 7.44355L1.02519 7.29859ZM0.25 19.5C0.25 23.6992 0.645552 27.7915 1.02519 31.7014L2.51817 31.5564C2.1376 27.637 1.75 23.6154 1.75 19.5H0.25ZM33.4234 12.2198C32.942 6.18537 28.2054 1.12035 22.2359 0.53274L22.089 2.02553C27.295 2.53798 31.5011 6.98685 31.9282 12.3391L33.4234 12.2198ZM27.0725 37.882C30.207 37.4624 32.6658 34.884 32.9748 31.7014L31.4818 31.5564C31.2389 34.0583 29.3048 36.0698 26.8735 36.3952L27.0725 37.882ZM6.92753 1.11802C3.793 1.53758 1.33421 4.116 1.02519 7.29859L2.51817 7.44355C2.76109 4.94175 4.6952 2.9302 7.12654 2.60476L6.92753 1.11802ZM7.12654 36.3952C4.6952 36.0698 2.76109 34.0583 2.51817 31.5564L1.02519 31.7014C1.33421 34.884 3.793 37.4624 6.92753 37.882L7.12654 36.3952Z" fill="#3052A1"/>
<path d="M20.0426 6.91999V13.3853H27.1818C30.3571 13.3853 32.9383 15.9734 32.9989 19.1895C32.9881 16.8515 32.8563 14.5457 32.6755 12.2794C32.2212 6.58611 27.7498 1.82916 22.1621 1.27913C20.4643 1.11201 18.7421 1 16.9997 1C16.3192 1 15.6418 1.01708 14.9678 1.04786C17.83 1.41928 20.0426 3.90673 20.0426 6.91999Z" fill="#D7E0FF" stroke="#3052A1" stroke-width="1.5" stroke-linejoin="round"/>
<path d="M10.5215 22.959H8.34766V21.5879H10.5215C10.8574 21.5879 11.1309 21.5332 11.3418 21.4238C11.5527 21.3105 11.707 21.1543 11.8047 20.9551C11.9023 20.7559 11.9512 20.5312 11.9512 20.2812C11.9512 20.0273 11.9023 19.791 11.8047 19.5723C11.707 19.3535 11.5527 19.1777 11.3418 19.0449C11.1309 18.9121 10.8574 18.8457 10.5215 18.8457H8.95703V26H7.19922V17.4688H10.5215C11.1895 17.4688 11.7617 17.5898 12.2383 17.832C12.7188 18.0703 13.0859 18.4004 13.3398 18.8223C13.5938 19.2441 13.7207 19.7266 13.7207 20.2695C13.7207 20.8203 13.5938 21.2969 13.3398 21.6992C13.0859 22.1016 12.7188 22.4121 12.2383 22.6309C11.7617 22.8496 11.1895 22.959 10.5215 22.959ZM17.5527 26H15.6953L15.707 24.6289H17.5527C18.0137 24.6289 18.4023 24.5254 18.7188 24.3184C19.0352 24.1074 19.2734 23.8008 19.4336 23.3984C19.5977 22.9961 19.6797 22.5098 19.6797 21.9395V21.5234C19.6797 21.0859 19.6328 20.7012 19.5391 20.3691C19.4492 20.0371 19.3145 19.7578 19.1348 19.5312C18.9551 19.3047 18.7344 19.1348 18.4727 19.0215C18.2109 18.9043 17.9102 18.8457 17.5703 18.8457H15.6602V17.4688H17.5703C18.1406 17.4688 18.6621 17.5664 19.1348 17.7617C19.6113 17.9531 20.0234 18.2285 20.3711 18.5879C20.7188 18.9473 20.9863 19.377 21.1738 19.877C21.3652 20.373 21.4609 20.9258 21.4609 21.5352V21.9395C21.4609 22.5449 21.3652 23.0977 21.1738 23.5977C20.9863 24.0977 20.7188 24.5273 20.3711 24.8867C20.0273 25.2422 19.6152 25.5176 19.1348 25.7129C18.6582 25.9043 18.1309 26 17.5527 26ZM16.6914 17.4688V26H14.9336V17.4688H16.6914ZM24.4961 17.4688V26H22.7383V17.4688H24.4961ZM27.8945 21.1133V22.4844H24.0156V21.1133H27.8945ZM28.3047 17.4688V18.8457H24.0156V17.4688H28.3047Z" fill="#2E50A3"/>
</svg>
