<svg width="27" height="24" viewBox="0 0 27 24" fill="none" xmlns="http://www.w3.org/2000/svg">
<g clip-path="url(#clip0_437_1961)">
<path d="M27 17.25C27 20.9766 23.9766 24 20.25 24C16.5234 24 13.5 20.9766 13.5 17.25C13.5 13.5234 16.5234 10.5 20.25 10.5C23.9766 10.5 27 13.5234 27 17.25ZM21.9703 14.4703L20.25 16.1906L18.5297 14.4703C18.2391 14.175 17.7609 14.175 17.4703 14.4703C17.175 14.7609 17.175 15.2391 17.4703 15.5297L19.1906 17.25L17.4703 18.9703C17.175 19.2609 17.175 19.7391 17.4703 20.0297C17.7609 20.325 18.2391 20.325 18.5297 20.0297L20.25 18.3094L21.9703 20.0297C22.2609 20.325 22.7391 20.325 23.0297 20.0297C23.325 19.7391 23.325 19.2609 23.0297 18.9703L21.3094 17.25L23.0297 15.5297C23.325 15.2391 23.325 14.7609 23.0297 14.4703C22.7391 14.175 22.2609 14.175 21.9703 14.4703Z" fill="#FD7D71"/>
<path opacity="0.4" d="M5.25018 2.25C5.25018 1.00734 6.25799 0 7.50018 0C8.74237 0 9.75018 1.00734 9.75018 2.25C9.75018 3.49266 8.74237 4.5 7.50018 4.5C6.25799 4.5 5.25018 3.49266 5.25018 2.25ZM5.62518 24C4.79549 24 4.12518 23.3297 4.12518 22.5V12.0422L2.78596 14.2734C2.3594 14.9812 1.43784 15.2109 0.727682 14.7844C0.0175067 14.3578 -0.212209 13.4391 0.214541 12.7266L2.94628 8.18438C3.75956 6.82969 5.22206 6 6.80174 6H8.19862C9.77831 6 11.2408 6.82969 12.0564 8.18438L14.1611 11.6859C13.3642 12.5109 12.8158 13.4859 12.4455 14.5687C12.3564 14.4797 12.2392 14.3813 12.2158 14.2734L10.8752 12.0422V22.5C10.8752 23.3297 10.2049 24 9.37518 24C8.54549 24 7.87518 23.3297 7.87518 22.5V16.5H7.12518V22.5C7.12518 23.3297 6.45487 24 5.62518 24Z" fill="#FD7D71"/>
</g>
<defs>
<clipPath id="clip0_437_1961">
<rect width="27" height="24" fill="white"/>
</clipPath>
</defs>
</svg>
