<svg width="27" height="24" viewBox="0 0 27 24" fill="none" xmlns="http://www.w3.org/2000/svg">
<g clip-path="url(#clip0_437_1944)">
<path d="M13.5 17.25C13.5 13.5234 16.5234 10.5 20.25 10.5C23.9766 10.5 27 13.5234 27 17.25C27 20.9766 23.9766 24 20.25 24C16.5234 24 13.5 20.9766 13.5 17.25ZM23.4047 16.2797C23.7 15.9891 23.7 15.5109 23.4047 15.2203C23.1141 14.925 22.6359 14.925 22.3453 15.2203L19.5 18.0656L18.1547 16.7203C17.8641 16.425 17.3859 16.425 17.0953 16.7203C16.8 17.0109 16.8 17.4891 17.0953 17.7797L18.9703 19.6547C19.2609 19.95 19.7391 19.95 20.0297 19.6547L23.4047 16.2797Z" fill="#1EB8D5"/>
<path opacity="0.4" d="M5.25018 2.25C5.25018 1.00734 6.25799 0 7.50018 0C8.74237 0 9.75018 1.00734 9.75018 2.25C9.75018 3.49266 8.74237 4.5 7.50018 4.5C6.25799 4.5 5.25018 3.49266 5.25018 2.25ZM5.62518 24C4.79549 24 4.12518 23.3297 4.12518 22.5V12.0422L2.78596 14.2734C2.3594 14.9812 1.43784 15.2109 0.727682 14.7844C0.0175067 14.3578 -0.212209 13.4391 0.214541 12.7266L2.94628 8.18438C3.75956 6.82969 5.22206 6 6.80174 6H8.19862C9.77831 6 11.2408 6.82969 12.0564 8.18438L14.1611 11.6859C13.3642 12.5109 12.8158 13.4859 12.4455 14.5687C12.3564 14.4797 12.2392 14.3813 12.2158 14.2734L10.8752 12.0422V22.5C10.8752 23.3297 10.2049 24 9.37518 24C8.54549 24 7.87518 23.3297 7.87518 22.5V16.5H7.12518V22.5C7.12518 23.3297 6.45487 24 5.62518 24Z" fill="#1EB8D5"/>
</g>
<defs>
<clipPath id="clip0_437_1944">
<rect width="27" height="24" fill="white"/>
</clipPath>
</defs>
</svg>
