<svg width="15" height="15" viewBox="0 0 15 15" fill="none" xmlns="http://www.w3.org/2000/svg">
<path d="M7.49979 5.08943C8.87122 5.08943 9.64265 4.318 9.64265 2.94657C9.64265 1.57514 8.87122 0.803711 7.49979 0.803711C6.12836 0.803711 5.35693 1.57514 5.35693 2.94657C5.35693 4.318 6.12836 5.08943 7.49979 5.08943Z" fill="white"/>
<path d="M8.89265 2.94657C8.89265 3.49423 8.74094 3.81619 8.55517 4.00195C8.36941 4.18772 8.04745 4.33943 7.49979 4.33943V5.83943C8.32356 5.83943 9.07303 5.60542 9.61584 5.06261C10.1586 4.5198 10.3926 3.77033 10.3926 2.94657H8.89265ZM7.49979 4.33943C6.95213 4.33943 6.63017 4.18772 6.44441 4.00195C6.25864 3.81619 6.10693 3.49423 6.10693 2.94657H4.60693C4.60693 3.77033 4.84094 4.5198 5.38375 5.06261C5.92655 5.60542 6.67602 5.83943 7.49979 5.83943V4.33943ZM6.10693 2.94657C6.10693 2.39891 6.25864 2.07695 6.44441 1.89118C6.63017 1.70542 6.95213 1.55371 7.49979 1.55371V0.0537109C6.67602 0.0537109 5.92655 0.287716 5.38375 0.830524C4.84094 1.37333 4.60693 2.1228 4.60693 2.94657H6.10693ZM7.49979 1.55371C8.04745 1.55371 8.36941 1.70542 8.55517 1.89118C8.74094 2.07695 8.89265 2.39891 8.89265 2.94657H10.3926C10.3926 2.1228 10.1586 1.37333 9.61584 0.830524C9.07303 0.287716 8.32356 0.0537109 7.49979 0.0537109V1.55371Z" fill="#5BCEDD"/>
<path d="M2.41085 14.1962C3.43942 14.1962 4.018 13.6176 4.018 12.5891C4.018 11.5605 3.43942 10.9819 2.41085 10.9819C1.38228 10.9819 0.803711 11.5605 0.803711 12.5891C0.803711 13.6176 1.38228 14.1962 2.41085 14.1962Z" fill="white"/>
<path d="M3.268 12.5891C3.268 12.9653 3.1645 13.1533 3.06981 13.248C2.97512 13.3427 2.78709 13.4462 2.41085 13.4462V14.9462C3.06319 14.9462 3.67873 14.7604 4.13047 14.3087C4.58221 13.857 4.768 13.2414 4.768 12.5891H3.268ZM2.41085 13.4462C2.03462 13.4462 1.84659 13.3427 1.7519 13.248C1.65721 13.1533 1.55371 12.9653 1.55371 12.5891H0.0537109C0.0537109 13.2414 0.239502 13.857 0.691238 14.3087C1.14297 14.7604 1.75852 14.9462 2.41085 14.9462V13.4462ZM1.55371 12.5891C1.55371 12.2128 1.65721 12.0248 1.7519 11.9301C1.84659 11.8354 2.03462 11.7319 2.41085 11.7319V10.2319C1.75852 10.2319 1.14297 10.4177 0.691238 10.8695C0.239502 11.3212 0.0537109 11.9367 0.0537109 12.5891H1.55371ZM2.41085 11.7319C2.78709 11.7319 2.97512 11.8354 3.06981 11.9301C3.1645 12.0248 3.268 12.2128 3.268 12.5891H4.768C4.768 11.9367 4.58221 11.3212 4.13047 10.8695C3.67873 10.4177 3.06319 10.2319 2.41085 10.2319V11.7319Z" fill="#5BCEDD"/>
<path d="M7.50021 14.1962C8.52878 14.1962 9.10735 13.6176 9.10735 12.5891C9.10735 11.5605 8.52878 10.9819 7.50021 10.9819C6.47164 10.9819 5.89307 11.5605 5.89307 12.5891C5.89307 13.6176 6.47164 14.1962 7.50021 14.1962Z" fill="white"/>
<path d="M8.35735 12.5891C8.35735 12.9653 8.25386 13.1533 8.15916 13.248C8.06447 13.3427 7.87644 13.4462 7.50021 13.4462V14.9462C8.15255 14.9462 8.76809 14.7604 9.21983 14.3087C9.67156 13.857 9.85735 13.2414 9.85735 12.5891H8.35735ZM7.50021 13.4462C7.12398 13.4462 6.93595 13.3427 6.84125 13.248C6.74656 13.1533 6.64307 12.9653 6.64307 12.5891H5.14307C5.14307 13.2414 5.32886 13.857 5.78059 14.3087C6.23233 14.7604 6.84787 14.9462 7.50021 14.9462V13.4462ZM6.64307 12.5891C6.64307 12.2128 6.74656 12.0248 6.84125 11.9301C6.93595 11.8354 7.12398 11.7319 7.50021 11.7319V10.2319C6.84787 10.2319 6.23233 10.4177 5.78059 10.8695C5.32886 11.3212 5.14307 11.9367 5.14307 12.5891H6.64307ZM7.50021 11.7319C7.87644 11.7319 8.06447 11.8354 8.15916 11.9301C8.25386 12.0248 8.35735 12.2128 8.35735 12.5891H9.85735C9.85735 11.9367 9.67156 11.3212 9.21982 10.8695C8.76809 10.4177 8.15255 10.2319 7.50021 10.2319V11.7319Z" fill="#5BCEDD"/>
<path d="M12.5891 14.1962C13.6176 14.1962 14.1962 13.6176 14.1962 12.5891C14.1962 11.5605 13.6176 10.9819 12.5891 10.9819C11.5605 10.9819 10.9819 11.5605 10.9819 12.5891C10.9819 13.6176 11.5605 14.1962 12.5891 14.1962Z" fill="white"/>
<path d="M13.4462 12.5891C13.4462 12.9653 13.3427 13.1533 13.248 13.248C13.1533 13.3427 12.9653 13.4462 12.5891 13.4462V14.9462C13.2414 14.9462 13.857 14.7604 14.3087 14.3087C14.7604 13.857 14.9462 13.2414 14.9462 12.5891H13.4462ZM12.5891 13.4462C12.2128 13.4462 12.0248 13.3427 11.9301 13.248C11.8354 13.1533 11.7319 12.9653 11.7319 12.5891H10.2319C10.2319 13.2414 10.4177 13.857 10.8695 14.3087C11.3212 14.7604 11.9367 14.9462 12.5891 14.9462V13.4462ZM11.7319 12.5891C11.7319 12.2128 11.8354 12.0248 11.9301 11.9301C12.0248 11.8354 12.2128 11.7319 12.5891 11.7319V10.2319C11.9367 10.2319 11.3212 10.4177 10.8695 10.8695C10.4177 11.3212 10.2319 11.9367 10.2319 12.5891H11.7319ZM12.5891 11.7319C12.9653 11.7319 13.1533 11.8354 13.248 11.9301C13.3427 12.0248 13.4462 12.2128 13.4462 12.5891H14.9462C14.9462 11.9367 14.7604 11.3212 14.3087 10.8695C13.857 10.4177 13.2414 10.2319 12.5891 10.2319V11.7319Z" fill="#5BCEDD"/>
<path d="M2.89307 10.4466V9.76807H1.39307V10.4466H2.89307ZM4.14307 8.51807H10.8574V7.01807H4.14307V8.51807ZM12.1074 9.76807V10.4466H13.6074V9.76807H12.1074ZM10.8574 8.51807C11.5477 8.51807 12.1074 9.07771 12.1074 9.76807H13.6074C13.6074 8.24928 12.3761 7.01807 10.8574 7.01807V8.51807ZM2.89307 9.76807C2.89307 9.07771 3.45271 8.51807 4.14307 8.51807V7.01807C2.62428 7.01807 1.39307 8.24928 1.39307 9.76807H2.89307Z" fill="#5BCEDD"/>
<path d="M7.5 5.08936V10.4465" stroke="#5BCEDD" stroke-width="1.5"/>
</svg>
