<svg width="26" height="26" viewBox="0 0 26 26" fill="none" xmlns="http://www.w3.org/2000/svg">
<path d="M18.9042 24.6458C17.68 24.6458 16.3909 24.3533 15.0584 23.79C13.7584 23.2375 12.4475 22.4792 11.1692 21.5583C9.90169 20.6267 8.67752 19.5867 7.51835 18.4492C6.37002 17.29 5.33002 16.0658 4.40919 14.8092C3.47752 13.5092 2.73002 12.2092 2.19919 10.9525C1.63585 9.60916 1.35419 8.30916 1.35419 7.08499C1.35419 6.23999 1.50585 5.43832 1.79835 4.69082C2.10169 3.92166 2.58919 3.20666 3.25002 2.58916C4.08419 1.76582 5.03752 1.35416 6.05585 1.35416C6.47835 1.35416 6.91169 1.45166 7.28002 1.62499C7.70252 1.81999 8.06002 2.11249 8.32002 2.50249L10.8334 6.04499C11.0609 6.35916 11.2342 6.66249 11.3534 6.96582C11.4942 7.29082 11.57 7.61582 11.57 7.92999C11.57 8.34166 11.4509 8.74249 11.2234 9.12166C11.0609 9.41416 10.8117 9.72832 10.4975 10.0425L9.76085 10.8117C9.77169 10.8442 9.78252 10.8658 9.79335 10.8875C9.92335 11.115 10.1834 11.505 10.6817 12.09C11.2125 12.6967 11.7109 13.2492 12.2092 13.7583C12.8484 14.3867 13.3792 14.885 13.8775 15.2967C14.495 15.8167 14.8959 16.0767 15.1342 16.1958L15.1125 16.25L15.9034 15.47C16.2392 15.1342 16.5642 14.885 16.8784 14.7225C17.4742 14.3542 18.2325 14.2892 18.9909 14.6033C19.2725 14.7225 19.5759 14.885 19.9009 15.1125L23.4975 17.6692C23.8984 17.94 24.1909 18.2867 24.3642 18.6983C24.5267 19.11 24.6025 19.4892 24.6025 19.8683C24.6025 20.3883 24.4834 20.9083 24.2559 21.3958C24.0284 21.8833 23.7467 22.3058 23.3892 22.6958C22.7717 23.3783 22.1 23.8658 21.32 24.18C20.5725 24.4833 19.76 24.6458 18.9042 24.6458ZM6.05585 2.97916C5.46002 2.97916 4.90752 3.23916 4.37669 3.75916C3.87835 4.22499 3.53169 4.73416 3.31502 5.28666C3.08752 5.84999 2.97919 6.44582 2.97919 7.08499C2.97919 8.09249 3.21752 9.18666 3.69419 10.3133C4.18169 11.4617 4.86419 12.6533 5.73085 13.845C6.59752 15.0367 7.58335 16.1958 8.66669 17.29C9.75002 18.3625 10.92 19.3592 12.1225 20.2367C13.2925 21.0925 14.495 21.7858 15.6867 22.2842C17.5392 23.075 19.2725 23.2592 20.7025 22.6633C21.255 22.4358 21.7425 22.0892 22.1867 21.5908C22.4359 21.32 22.6309 21.0275 22.7934 20.6808C22.9234 20.41 22.9884 20.1283 22.9884 19.8467C22.9884 19.6733 22.9559 19.5 22.8692 19.305C22.8367 19.24 22.7717 19.1208 22.5659 18.98L18.9692 16.4233C18.7525 16.2717 18.5575 16.1633 18.3734 16.0875C18.135 15.99 18.0375 15.8925 17.6692 16.12C17.4525 16.2283 17.2575 16.3908 17.0409 16.6075L16.2175 17.42C15.795 17.8317 15.145 17.9292 14.6467 17.745L14.3542 17.615C13.91 17.3767 13.39 17.0083 12.8159 16.5208C12.2959 16.0767 11.7325 15.5567 11.05 14.885C10.5192 14.3433 9.98835 13.7692 9.43585 13.13C8.92669 12.5342 8.55835 12.025 8.33085 11.6025L8.20085 11.2775C8.13585 11.0283 8.11419 10.8875 8.11419 10.7358C8.11419 10.3458 8.25502 9.99916 8.52585 9.72832L9.33835 8.88332C9.55502 8.66666 9.71752 8.46082 9.82585 8.27666C9.91252 8.13582 9.94502 8.01666 9.94502 7.90832C9.94502 7.82166 9.91252 7.69166 9.85835 7.56166C9.78252 7.38832 9.66335 7.19332 9.51169 6.98749L6.99835 3.43416C6.89002 3.28249 6.76002 3.17416 6.59752 3.09832C6.42419 3.02249 6.24002 2.97916 6.05585 2.97916ZM15.1125 16.2608L14.9392 16.9975L15.2317 16.2392C15.1775 16.2283 15.1342 16.2392 15.1125 16.2608Z" fill="black"/>
</svg>
