<svg width="15" height="14" viewBox="0 0 15 14" fill="none" xmlns="http://www.w3.org/2000/svg">
<path d="M1 6.80887C1 3.11232 2.5508 1.52808 3.06773 1H11.3386C11.8556 1.52808 13.4064 3.11232 13.4064 6.80887C13.4064 11.0335 9.33329 12.5917 7.26556 13.1198C5.19784 12.5917 1 11.0335 1 6.80887Z" fill="white"/>
<path d="M3.06773 1V0.25C2.86604 0.25 2.67286 0.33123 2.53177 0.475357L3.06773 1ZM7.26556 13.1198L7.07998 13.8464C7.20175 13.8775 7.32938 13.8775 7.45115 13.8464L7.26556 13.1198ZM11.3386 1L11.8746 0.475356C11.7335 0.33123 11.5403 0.25 11.3386 0.25V1ZM2.53177 0.475357C2.25438 0.758731 1.67139 1.35475 1.16637 2.38655C0.661788 3.41748 0.25 4.85101 0.25 6.80887H1.75C1.75 5.07017 2.11361 3.86331 2.51365 3.04597C2.91328 2.22949 3.36415 1.76935 3.60368 1.52464L2.53177 0.475357ZM0.25 6.80887C0.25 9.21429 1.46142 10.8631 2.9066 11.9499C4.32998 13.0204 6.00713 13.5724 7.07998 13.8464L7.45115 12.3931C6.45627 12.139 5.00064 11.6479 3.80817 10.7511C2.63749 9.87069 1.75 8.62807 1.75 6.80887H0.25ZM10.8027 1.52464C11.0422 1.76935 11.4931 2.22949 11.8927 3.04597C12.2928 3.86331 12.6564 5.07017 12.6564 6.80887H14.1564C14.1564 4.85101 13.7446 3.41748 13.24 2.38655C12.735 1.35475 12.152 0.758731 11.8746 0.475356L10.8027 1.52464ZM12.6564 6.80887C12.6564 8.6374 11.7907 9.88033 10.6536 10.7564C9.49365 11.6501 8.07145 12.1399 7.07998 12.3931L7.45115 13.8464C8.52741 13.5716 10.1756 13.0182 11.5691 11.9446C12.9855 10.8534 14.1564 9.20496 14.1564 6.80887H12.6564ZM3.06773 1.75H11.3386V0.25H3.06773V1.75Z" fill="#5BCEDD"/>
<path d="M7.2028 7.84212C8.35519 7.84212 9.28939 6.90792 9.28939 5.75553C9.28939 4.60314 8.35519 3.66895 7.2028 3.66895C6.05041 3.66895 5.11621 4.60314 5.11621 5.75553C5.11621 6.90792 6.05041 7.84212 7.2028 7.84212Z" fill="white" stroke="#5BCEDD" stroke-width="1.5" stroke-linecap="round" stroke-linejoin="round"/>
<path d="M10.6879 11.6542C9.50752 12.444 8.18721 12.8841 7.26542 13.1196C6.33077 12.8809 4.9609 12.4317 3.74023 11.6209C3.96686 11.284 4.24304 10.9795 4.56199 10.7188C5.30732 10.1096 6.24035 9.77686 7.20297 9.77686C8.1656 9.77686 9.09862 10.1096 9.84396 10.7188C10.1734 10.9881 10.4572 11.304 10.6879 11.6542Z" fill="white" stroke="#5BCEDD" stroke-width="1.5" stroke-linecap="round" stroke-linejoin="round"/>
</svg>
