<svg width="22" height="22" viewBox="0 0 22 22" fill="none" xmlns="http://www.w3.org/2000/svg">
<path d="M21 11C21 5.47715 16.5228 0.999999 11 1C5.47715 1 0.999999 5.47715 1 11C1 16.5228 5.47715 21 11 21C16.5228 21 21 16.5228 21 11Z" stroke="#3052A1" stroke-width="1.5" stroke-linecap="round" stroke-linejoin="round"/>
<path d="M16 11.75C16.4142 11.75 16.75 11.4142 16.75 11C16.75 10.5858 16.4142 10.25 16 10.25L16 11.75ZM6 10.25C5.58579 10.25 5.25 10.5858 5.25 11C5.25 11.4142 5.58579 11.75 6 11.75L6 10.25ZM16 10.25L6 10.25L6 11.75L16 11.75L16 10.25Z" fill="#3052A1"/>
<path d="M10.4214 7.6204C10.7641 7.38765 10.8531 6.9212 10.6204 6.57857C10.3876 6.23593 9.9212 6.14685 9.57857 6.3796L10.4214 7.6204ZM6.28901 10.2771L5.72672 9.78077L5.72672 9.78077L6.28901 10.2771ZM9.57857 15.6204C9.9212 15.8531 10.3876 15.7641 10.6204 15.4214C10.8532 15.0788 10.7641 14.6124 10.4214 14.3796L9.57857 15.6204ZM6.28901 11.7229L5.72672 12.2192L6.28901 11.7229ZM9.57857 6.3796C7.72736 7.63713 6.84853 8.50988 5.72672 9.78077L6.85129 10.7734C7.90754 9.5768 8.69404 8.79381 10.4214 7.6204L9.57857 6.3796ZM10.4214 14.3796C8.69404 13.2062 7.90754 12.4232 6.85129 11.2266L5.72672 12.2192C6.84853 13.4901 7.72736 14.3629 9.57857 15.6204L10.4214 14.3796ZM5.72672 9.78077C5.09109 10.5009 5.09109 11.4991 5.72672 12.2192L6.85129 11.2266C6.71624 11.0736 6.71624 10.9264 6.85129 10.7734L5.72672 9.78077Z" fill="#3052A1"/>
</svg>
