<svg width="30" height="24" viewBox="0 0 30 24" fill="none" xmlns="http://www.w3.org/2000/svg">
<path d="M10.4531 13.8795C10.0172 13.4811 10.0172 12.7686 10.4531 12.3279L14.2031 8.57793C14.6437 8.14199 15.3562 8.14199 15.7547 8.57793L19.5047 12.3279C19.9828 12.7686 19.9828 13.4811 19.5047 13.8795C19.1063 14.3576 18.3938 14.3576 17.9531 13.8795L16.125 12.0889V18.3748C16.125 18.9982 15.6234 19.4998 15 19.4998C14.3766 19.4998 13.875 18.9982 13.875 18.3748V12.0889L12.0047 13.8795C11.6062 14.3576 10.8937 14.3576 10.4531 13.8795Z" fill="#2E50A3"/>
<path opacity="0.4" d="M6.75 22.5C3.02203 22.5 0 19.4766 0 15.75C0 12.8062 1.88297 10.3031 4.50937 9.37969C4.50328 9.25313 4.5 9.12656 4.5 9C4.5 4.85625 7.85625 1.5 12 1.5C14.7797 1.5 17.2031 3.01172 18.5016 5.25937C19.2141 4.73906 20.0766 4.5 21 4.5C23.4844 4.5 25.5 6.47344 25.5 9C25.5 9.57187 25.3922 10.1156 25.2 10.6219C27.9375 11.175 30 13.5984 30 16.5C30 19.8141 27.3141 22.5 24 22.5H6.75ZM10.4531 12.3281C10.0172 12.7688 10.0172 13.4813 10.4531 13.8797C10.8938 14.3578 11.6063 14.3578 12.0047 13.8797L13.875 12.0891V18.375C13.875 18.9984 14.3766 19.5 15 19.5C15.6234 19.5 16.125 18.9984 16.125 18.375V12.0891L17.9531 13.8797C18.3937 14.3578 19.1063 14.3578 19.5047 13.8797C19.9828 13.4813 19.9828 12.7688 19.5047 12.3281L15.7547 8.57812C15.3563 8.14219 14.6438 8.14219 14.2031 8.57812L10.4531 12.3281Z" fill="#2E50A3"/>
</svg>
