<svg width="17" height="18" viewBox="0 0 17 18" fill="none" xmlns="http://www.w3.org/2000/svg">
<path d="M7.86258 16.6159H4.88758C2.118 16.6159 0.885498 15.3834 0.885498 12.6138V9.6388C0.885498 6.86922 2.118 5.63672 4.88758 5.63672H7.86258C10.6322 5.63672 11.8647 6.86922 11.8647 9.6388V12.6138C11.8647 15.3834 10.6322 16.6159 7.86258 16.6159ZM4.88758 6.69922C2.69175 6.69922 1.948 7.44297 1.948 9.6388V12.6138C1.948 14.8096 2.69175 15.5534 4.88758 15.5534H7.86258C10.0584 15.5534 10.8022 14.8096 10.8022 12.6138V9.6388C10.8022 7.44297 10.0584 6.69922 7.86258 6.69922H4.88758Z" fill="#3052A1"/>
<path d="M12.1126 12.3659H11.3334C11.043 12.3659 10.8022 12.1251 10.8022 11.8346V9.6388C10.8022 7.44297 10.0584 6.69922 7.86258 6.69922H5.66675C5.37633 6.69922 5.1355 6.45839 5.1355 6.16797V5.3888C5.1355 2.61922 6.368 1.38672 9.13758 1.38672H12.1126C14.8822 1.38672 16.1147 2.61922 16.1147 5.3888V8.3638C16.1147 11.1334 14.8822 12.3659 12.1126 12.3659ZM11.8647 11.3034H12.1126C14.3084 11.3034 15.0522 10.5596 15.0522 8.3638V5.3888C15.0522 3.19297 14.3084 2.44922 12.1126 2.44922H9.13758C6.94175 2.44922 6.198 3.19297 6.198 5.3888V5.63672H7.86258C10.6322 5.63672 11.8647 6.86922 11.8647 9.6388V11.3034Z" fill="#3052A1"/>
</svg>
