<svg width="16" height="16" viewBox="0 0 16 16" fill="none" xmlns="http://www.w3.org/2000/svg">
<g clip-path="url(#clip0_256_3296)">
<path fill-rule="evenodd" clip-rule="evenodd" d="M3.30436 7.42188H11.7523V4.86198H9.06087C8.77832 4.86198 8.38509 4.70964 8.19889 4.52344C8.0127 4.33724 7.89941 4.0013 7.89941 3.72005V0.994792H1.06087C1.03743 0.994792 1.01921 1.00651 1.00749 1.01823C0.987956 1.03125 0.982747 1.04818 0.982747 1.07292V14.9336C0.982747 14.9518 0.994466 14.9753 1.00618 14.987C1.0179 15.0052 1.04264 15.0104 1.05957 15.0104C4.02572 15.0104 8.62337 15.0104 11.6729 15.0104C11.6963 15.0104 11.695 14.9987 11.708 14.987C11.7262 14.9753 11.751 14.9505 11.751 14.9336V13.4805H3.30436C2.7653 13.4805 2.31999 13.0378 2.31999 12.4961V8.40495C2.31999 7.86458 2.7627 7.42188 3.30436 7.42188ZM5.97363 10.7227L6.79264 10.9701C6.73796 11.1992 6.65072 11.3919 6.53223 11.5456C6.41374 11.6992 6.2679 11.8164 6.09212 11.8945C5.91634 11.9727 5.69369 12.0117 5.42285 12.0117C5.09342 12.0117 4.8252 11.9635 4.61686 11.8685C4.40853 11.7721 4.22884 11.6042 4.0778 11.3646C3.92676 11.125 3.84993 10.8164 3.84993 10.4414C3.84993 9.94141 3.98275 9.55729 4.24837 9.28906C4.5153 9.02083 4.8916 8.88672 5.37858 8.88672C5.75879 8.88672 6.05957 8.96354 6.27702 9.11719C6.49447 9.27083 6.65723 9.50781 6.7627 9.82682L5.93978 10.0091C5.91113 9.91797 5.88118 9.85026 5.84863 9.80859C5.79525 9.73698 5.73145 9.68229 5.65592 9.64453C5.5804 9.60547 5.49577 9.58724 5.40202 9.58724C5.18978 9.58724 5.02702 9.67188 4.91374 9.84245C4.8291 9.96875 4.78613 10.1667 4.78613 10.4362C4.78613 10.7708 4.83691 11 4.93848 11.125C5.04004 11.2487 5.18327 11.3112 5.36816 11.3112C5.54655 11.3112 5.68197 11.2617 5.77311 11.1602C5.86686 11.0586 5.93197 10.9141 5.97363 10.7227ZM7.09212 10.9596L7.97884 10.9036C7.99837 11.0469 8.03743 11.1576 8.09603 11.2318C8.19238 11.3542 8.3291 11.4154 8.50879 11.4154C8.6416 11.4154 8.74447 11.3841 8.81608 11.3216C8.889 11.2591 8.92415 11.1862 8.92415 11.1042C8.92415 11.026 8.8903 10.9557 8.82259 10.8932C8.75488 10.8307 8.59473 10.7734 8.34603 10.7174C7.93587 10.6263 7.64551 10.5039 7.47103 10.3503C7.29525 10.1979 7.20671 10.0039 7.20671 9.76693C7.20671 9.61198 7.25228 9.46615 7.34212 9.32813C7.43197 9.1901 7.56738 9.08073 7.74837 9.0026C7.92936 8.92318 8.17676 8.88412 8.49186 8.88412C8.87858 8.88412 9.17285 8.95573 9.37467 9.10026C9.5778 9.24349 9.69759 9.47266 9.73665 9.78646L8.85775 9.83854C8.83431 9.70182 8.78483 9.60156 8.71061 9.53906C8.63509 9.47656 8.53223 9.44531 8.40071 9.44531C8.29264 9.44531 8.21061 9.46875 8.15462 9.51432C8.09993 9.5599 8.07259 9.61589 8.07259 9.68229C8.07259 9.73047 8.09473 9.77344 8.139 9.8112C8.18197 9.85156 8.28613 9.88802 8.4502 9.92188C8.85905 10.0104 9.15071 10.099 9.3265 10.1888C9.50358 10.2786 9.63249 10.3906 9.71191 10.5234C9.79264 10.6563 9.83171 10.806 9.83171 10.9714C9.83171 11.1654 9.77832 11.3438 9.67155 11.5078C9.56348 11.6706 9.41504 11.7956 9.22233 11.8802C9.02962 11.9648 8.78743 12.0065 8.49577 12.0065C7.98144 12.0065 7.62598 11.9076 7.42806 11.7096C7.23014 11.5156 7.11816 11.2643 7.09212 10.9596ZM10.014 8.9362H10.9906L11.6715 11.112L12.3434 8.9362H13.2913L12.1689 11.9596H11.1572L10.014 8.9362ZM12.7327 7.42188H14.0257C14.5674 7.42188 15.0101 7.86589 15.0101 8.40625V12.4974C15.0101 13.0378 14.5661 13.4818 14.0257 13.4818H12.7327V15.2461C12.7327 15.4557 12.6481 15.6419 12.5114 15.7799C12.3734 15.918 12.1872 16.0013 11.9775 16.0013C8.14421 16.0013 4.60905 16.0013 0.756185 16.0013C0.546549 16.0013 0.360352 15.918 0.222331 15.7799C0.0843099 15.6419 0.000976562 15.4557 0.000976562 15.2461V0.761719C0.000976562 0.552083 0.085612 0.365885 0.222331 0.227865C0.360352 0.0898438 0.551758 0.00651042 0.756185 0.00651042H8.40202C8.41894 0 8.43717 0 8.4554 0C8.53874 0 8.62337 0.0364583 8.68327 0.0898438H8.69499C8.70671 0.0963542 8.71322 0.101563 8.72493 0.113281L12.6299 4.06641C12.6963 4.13281 12.7445 4.22266 12.7445 4.32422C12.7445 4.35417 12.738 4.3776 12.7327 4.40885V7.42188ZM8.79134 3.64193V1.16406L11.5817 3.98958H9.139C9.04264 3.98958 8.95931 3.94792 8.8929 3.88802C8.83301 3.82813 8.79134 3.73828 8.79134 3.64193Z" fill="#21A366"/>
</g>
<defs>
<clipPath id="clip0_256_3296">
<rect width="15.0104" height="16" fill="white"/>
</clipPath>
</defs>
</svg>
