<svg width="41" height="40" viewBox="0 0 41 40" fill="none" xmlns="http://www.w3.org/2000/svg">
<rect x="0.785645" width="40" height="40" rx="15" fill="#FFECF4" fill-opacity="0.4"/>
<path fill-rule="evenodd" clip-rule="evenodd" d="M16.1732 14.3251C15.8803 14.0322 15.4054 14.0322 15.1125 14.3251C14.8196 14.618 14.8196 15.0929 15.1125 15.3858L19.725 19.9983L15.1125 24.6109C14.8196 24.9037 14.8196 25.3786 15.1125 25.6715C15.4054 25.9644 15.8803 25.9644 16.1732 25.6715L20.7857 21.059L25.3982 25.6715C25.6911 25.9644 26.166 25.9644 26.4589 25.6715C26.7518 25.3786 26.7518 24.9037 26.4589 24.6109L21.8463 19.9983L26.4589 15.3858C26.7518 15.0929 26.7518 14.618 26.4589 14.3251C26.166 14.0322 25.6911 14.0322 25.3982 14.3251L20.7857 18.9377L16.1732 14.3251Z" fill="#CD578A"/>
</svg>
