<svg width="68" height="68" viewBox="0 0 68 68" fill="none" xmlns="http://www.w3.org/2000/svg">
<g filter="url(#filter0_d_637_7368)">
<rect x="10" y="3" width="48" height="48" rx="24" fill="#2E50A3"/>
<path fill-rule="evenodd" clip-rule="evenodd" d="M32.1159 34.2432L41.4843 25.3733C43.0415 23.899 42.9212 21.289 41.2187 19.6155V19.6155C39.5564 17.9813 37.0211 17.869 35.5558 19.3646L26.4428 28.6663C26.4428 28.6663 28.4616 29.4694 29.8802 30.864C31.2989 32.2587 32.1159 34.2432 32.1159 34.2432Z" fill="#2E50A3"/>
<path d="M32.1159 34.2432L31.4264 34.4629C31.5259 34.7046 31.7358 34.8927 31.9847 34.9633C32.2336 35.0339 32.488 34.9774 32.6615 34.8132L32.1159 34.2432ZM26.4428 28.6663L25.8802 28.113C25.7106 28.2862 25.651 28.544 25.7224 28.7966C25.7937 29.0491 25.986 29.2614 26.2322 29.3593L26.4428 28.6663ZM35.5558 19.3646L34.9932 18.8114L35.5558 19.3646ZM27.0055 29.2195L36.1185 19.9179L34.9932 18.8114L25.8802 28.113L27.0055 29.2195ZM40.9387 24.8033L31.5703 33.6732L32.6615 34.8132L42.0299 25.9433L40.9387 24.8033ZM26.4428 28.6663C26.2322 29.3593 26.232 29.3593 26.2319 29.3592C26.2319 29.3592 26.2318 29.3592 26.2317 29.3592C26.2316 29.3591 26.2315 29.3591 26.2315 29.3591C26.2313 29.359 26.2314 29.359 26.2315 29.3591C26.2317 29.3592 26.2324 29.3595 26.2336 29.3599C26.236 29.3609 26.2403 29.3626 26.2463 29.3651C26.2584 29.3701 26.2776 29.378 26.3032 29.389C26.3546 29.4109 26.4319 29.4445 26.5299 29.4896C26.7263 29.5798 27.0043 29.7146 27.3242 29.8906C27.9721 30.2469 28.755 30.7518 29.3843 31.3704L30.3762 30.3577C29.5868 29.5817 28.651 28.9877 27.9349 28.5938C27.5728 28.3946 27.2574 28.2415 27.031 28.1375C26.9176 28.0855 26.826 28.0455 26.7615 28.018C26.7292 28.0043 26.7036 27.9936 26.6854 27.9861C26.6763 27.9824 26.6691 27.9794 26.6637 27.9773C26.661 27.9762 26.6589 27.9753 26.6572 27.9746C26.6563 27.9743 26.6556 27.974 26.655 27.9738C26.6547 27.9736 26.6544 27.9735 26.6541 27.9734C26.654 27.9734 26.6539 27.9733 26.6538 27.9733C26.6537 27.9732 26.6535 27.9732 26.4428 28.6663ZM29.3843 31.3704C30.0132 31.9886 30.5259 32.7572 30.8876 33.3927C31.0662 33.7065 31.2031 33.9792 31.2946 34.1717C31.3402 34.2678 31.3744 34.3435 31.3965 34.3937C31.4076 34.4189 31.4157 34.4376 31.4207 34.4493C31.4232 34.4552 31.4249 34.4593 31.4258 34.4616C31.4263 34.4628 31.4266 34.4634 31.4267 34.4637C31.4267 34.4638 31.4267 34.4638 31.4267 34.4636C31.4267 34.4636 31.4266 34.4635 31.4266 34.4634C31.4265 34.4633 31.4265 34.4632 31.4265 34.4631C31.4264 34.463 31.4264 34.4629 32.1159 34.2432C32.8055 34.0235 32.8054 34.0233 32.8053 34.0232C32.8053 34.0231 32.8053 34.023 32.8052 34.0228C32.8051 34.0226 32.805 34.0223 32.8049 34.022C32.8046 34.0214 32.8043 34.0207 32.804 34.0198C32.8033 34.0181 32.8023 34.0159 32.8012 34.0133C32.799 34.008 32.796 34.0008 32.7921 33.9918C32.7845 33.9738 32.7736 33.9485 32.7596 33.9166C32.7315 33.8529 32.6907 33.7627 32.6376 33.6509C32.5316 33.4278 32.3756 33.1172 32.1726 32.7605C31.7711 32.0551 31.166 31.1341 30.3762 30.3577L29.3843 31.3704ZM42.0299 25.9433C43.8782 24.1933 43.7353 21.0955 41.7147 19.1091L40.7228 20.1218C42.107 21.4825 42.2048 23.6046 40.9387 24.8033L42.0299 25.9433ZM36.1185 19.9179C37.3098 18.7018 39.3712 18.7931 40.7228 20.1218L41.7147 19.1091C39.7416 17.1695 36.7324 17.0362 34.9932 18.8114L36.1185 19.9179Z" fill="white"/>
<path d="M25.308 36.0015L32.1101 34.2506C32.1101 34.2506 31.2949 32.2654 29.8775 30.8694C28.4601 29.4735 26.4421 28.6685 26.4421 28.6685L24.652 35.3397C24.5508 35.7169 24.9294 36.0989 25.308 36.0015Z" fill="#2E50A3"/>
<path d="M32.1101 34.2506L32.3681 34.9784C32.5613 34.9287 32.7169 34.7991 32.7985 34.6201C32.8801 34.4411 32.8806 34.2283 32.7998 34.0315L32.1101 34.2506ZM25.308 36.0015L25.5661 36.7292L25.5661 36.7292L25.308 36.0015ZM24.652 35.3397L25.378 35.6046L24.652 35.3397ZM26.4421 28.6685L26.6534 27.9757C26.4586 27.8979 26.2489 27.8996 26.0723 27.9803C25.8956 28.061 25.7671 28.2137 25.7161 28.4037L26.4421 28.6685ZM29.8775 30.8694L30.3739 30.3636L30.3739 30.3636L29.8775 30.8694ZM31.852 33.5229L25.05 35.2737L25.5661 36.7292L32.3681 34.9784L31.852 33.5229ZM25.378 35.6046L27.1681 28.9334L25.7161 28.4037L23.926 35.0749L25.378 35.6046ZM26.4421 28.6685C26.2308 29.3614 26.2307 29.3614 26.2306 29.3613C26.2305 29.3613 26.2304 29.3613 26.2304 29.3613C26.2302 29.3612 26.2302 29.3612 26.2301 29.3612C26.23 29.3611 26.23 29.3611 26.2301 29.3612C26.2304 29.3613 26.2311 29.3616 26.2323 29.362C26.2347 29.363 26.2389 29.3647 26.2449 29.3672C26.257 29.3722 26.2762 29.3802 26.3019 29.3911C26.3532 29.4131 26.4304 29.4468 26.5284 29.4919C26.7248 29.5823 27.0026 29.7174 27.3223 29.8936C27.9699 30.2506 28.7524 30.7562 29.3811 31.3753L30.3739 30.3636C29.5852 29.5868 28.65 28.9919 27.9343 28.5974C27.5723 28.3979 27.2571 28.2445 27.0307 28.1404C26.9174 28.0882 26.8259 28.0481 26.7614 28.0206C26.7291 28.0068 26.7035 27.9961 26.6853 27.9886C26.6762 27.9849 26.669 27.9819 26.6636 27.9798C26.661 27.9787 26.6588 27.9778 26.6571 27.9771C26.6562 27.9768 26.6555 27.9765 26.6549 27.9762C26.6546 27.9761 26.6543 27.976 26.6541 27.9759C26.6539 27.9759 26.6538 27.9758 26.6537 27.9758C26.6536 27.9757 26.6534 27.9757 26.4421 28.6685ZM29.3811 31.3753C30.0094 31.9941 30.5214 32.7632 30.8825 33.399C31.0609 33.713 31.1975 33.9858 31.2888 34.1784C31.3344 34.2745 31.3684 34.3502 31.3905 34.4005C31.4016 34.4256 31.4096 34.4444 31.4146 34.4561C31.4171 34.462 31.4188 34.4661 31.4198 34.4684C31.4203 34.4696 31.4205 34.4702 31.4206 34.4705C31.4207 34.4706 31.4207 34.4706 31.4206 34.4704C31.4206 34.4704 31.4206 34.4703 31.4205 34.4702C31.4205 34.4701 31.4204 34.47 31.4204 34.4699C31.4204 34.4698 31.4203 34.4697 32.1101 34.2506C32.7998 34.0315 32.7998 34.0314 32.7997 34.0312C32.7997 34.0312 32.7996 34.031 32.7996 34.0309C32.7995 34.0307 32.7993 34.0304 32.7992 34.0301C32.799 34.0295 32.7987 34.0287 32.7983 34.0279C32.7976 34.0262 32.7967 34.024 32.7956 34.0213C32.7934 34.016 32.7903 34.0088 32.7865 33.9998C32.7789 33.9818 32.768 33.9565 32.754 33.9247C32.726 33.8609 32.6853 33.7706 32.6323 33.6588C32.5265 33.4356 32.3707 33.1248 32.1681 32.768C31.7672 32.0622 31.163 31.1407 30.3739 30.3636L29.3811 31.3753ZM25.05 35.2737C25.2393 35.225 25.4286 35.4159 25.378 35.6046L23.926 35.0749C23.673 36.018 24.6196 36.9728 25.5661 36.7292L25.05 35.2737Z" fill="white"/>
</g>
<defs>
<filter id="filter0_d_637_7368" x="0" y="0" width="68" height="68" filterUnits="userSpaceOnUse" color-interpolation-filters="sRGB">
<feFlood flood-opacity="0" result="BackgroundImageFix"/>
<feColorMatrix in="SourceAlpha" type="matrix" values="0 0 0 0 0 0 0 0 0 0 0 0 0 0 0 0 0 0 127 0" result="hardAlpha"/>
<feOffset dy="7"/>
<feGaussianBlur stdDeviation="5"/>
<feComposite in2="hardAlpha" operator="out"/>
<feColorMatrix type="matrix" values="0 0 0 0 0 0 0 0 0 0 0 0 0 0 0 0 0 0 0.07 0"/>
<feBlend mode="normal" in2="BackgroundImageFix" result="effect1_dropShadow_637_7368"/>
<feBlend mode="normal" in="SourceGraphic" in2="effect1_dropShadow_637_7368" result="shape"/>
</filter>
</defs>
</svg>
