<svg width="120" height="112" viewBox="0 0 120 112" fill="none" xmlns="http://www.w3.org/2000/svg">
<path d="M62.2109 108.025C90.4356 108.025 113.316 85.209 113.316 57.0635C113.316 28.918 90.4356 6.10156 62.2109 6.10156C33.9861 6.10156 11.1055 28.918 11.1055 57.0635C11.1055 85.209 33.9861 108.025 62.2109 108.025Z" fill="#EAEEF9"/>
<g filter="url(#filter0_d_6948_30752)">
<path d="M111.363 40.0422V88.5432C111.363 88.7483 111.363 88.8508 111.363 89.0559C111.26 91.8245 109.923 94.2854 107.969 95.926C106.221 97.4641 103.959 98.387 101.491 98.387H23.2393C21.4913 98.387 19.9489 97.9768 18.5093 97.1565C17.8923 96.8489 17.2753 96.4387 16.7612 95.926C15.6301 95.0032 14.7046 93.7727 14.1905 92.3372C13.7792 91.3118 13.4707 90.2864 13.4707 89.1584V40.0422C13.4707 40.0422 17.5838 36.5559 23.445 31.7366C29.5118 26.6096 37.5324 20.0471 44.5247 14.2024C48.535 10.8186 48.1237 11.2288 54.2933 5.99927C59.0234 2.00024 65.9129 2.00024 70.6429 5.99927C71.8769 7.02466 73.1108 8.15259 74.3447 9.17798C76.9154 11.2288 79.7946 13.6897 82.7766 16.1506C89.0491 21.3801 95.9386 27.1223 101.388 31.634C106.941 36.2483 110.951 39.6321 111.363 40.0422Z" fill="#526DFF"/>
</g>
<path d="M101.388 31.6338V49.0654L84.319 59.3193L79.1776 62.3955L68.3806 68.8555L63.2393 71.9316L61.0799 73.2646L59.0233 71.9316L54.1904 68.8555L43.9076 62.3955L39.0747 59.3193L23.2393 49.3731V31.7363C29.3061 26.6094 37.3267 20.0469 44.3189 14.2021L82.5709 16.1504C89.1519 21.3799 96.0413 27.1221 101.388 31.6338Z" fill="#465DD9"/>
<path d="M97.9947 17.791V48.3477L82.3649 57.6787L77.7376 60.4473L67.8662 66.292L63.2389 69.0605L61.2852 70.1885L59.4343 69.0605L55.0127 66.292L45.6554 60.4473L41.2338 57.6787L26.8379 48.6553V17.791C26.8379 14.6123 29.4086 11.9463 32.6991 11.9463H92.1335C95.3212 11.9463 97.9947 14.6123 97.9947 17.791Z" fill="white"/>
<path d="M85.2442 34.6074H41.3368C40.617 34.6074 40 33.9922 40 33.1719C40 32.3516 40.617 31.7363 41.3368 31.7363H85.2442C85.964 31.7363 86.581 32.3516 86.581 33.1719C86.581 33.9922 85.964 34.6074 85.2442 34.6074Z" fill="#E7EBF2"/>
<path d="M85.2442 43.2207H41.3368C40.617 43.2207 40 42.6055 40 41.7852C40 40.9648 40.617 40.3496 41.3368 40.3496H85.2442C85.964 40.3496 86.581 40.9648 86.581 41.7852C86.581 42.6055 85.964 43.2207 85.2442 43.2207Z" fill="#E7EBF2"/>
<path d="M85.2442 51.834H41.3368C40.617 51.834 40 51.2188 40 50.3984C40 49.5781 40.617 48.9629 41.3368 48.9629H85.2442C85.964 48.9629 86.581 49.5781 86.581 50.3984C86.581 51.2188 85.964 51.834 85.2442 51.834Z" fill="#E7EBF2"/>
<path d="M82.3645 57.6787L77.7373 60.4473H45.655L41.2334 57.6787H41.3362H82.3645Z" fill="#E7EBF2"/>
<path d="M67.8662 66.292L63.2389 69.1631H59.4343L55.0127 66.292H67.8662Z" fill="#E7EBF2"/>
<path d="M75.7836 24.7637H50.8993C50.1795 24.7637 49.5625 24.1484 49.5625 23.3281C49.5625 22.5078 50.1795 21.8926 50.8993 21.8926H75.7836C76.5034 21.8926 77.1203 22.5078 77.1203 23.3281C77.1203 24.1484 76.5034 24.7637 75.7836 24.7637Z" fill="url(#paint0_linear_6948_30752)"/>
<path opacity="0.67" d="M13.8818 39.8369L60.8741 42.9131L110.643 39.8369L108.792 48.7578C108.792 48.7578 62.0052 73.1621 62.3137 73.1621C62.6222 73.1621 13.9847 44.2461 13.9847 44.2461L13.8818 39.8369Z" fill="url(#paint1_linear_6948_30752)"/>
<path d="M111.363 40.042V89.0557C111.26 91.8242 109.923 94.2852 107.969 95.9258C106.221 97.4639 103.959 98.3867 101.491 98.3867H23.2393C21.4913 98.3867 19.9489 97.9766 18.5093 97.1563C17.8923 96.8486 17.2753 96.4385 16.7612 95.9258C15.6301 95.0029 14.7046 93.7725 14.1905 92.3369C13.7792 91.3115 13.4707 90.2861 13.4707 89.1582V89.0557V40.042L57.2753 67.4199L61.08 69.7783L62.4167 68.958L63.6507 68.2402L111.363 40.042Z" fill="#738DFF"/>
<path d="M108.072 95.9258C106.324 97.4639 104.062 98.3867 101.594 98.3867H23.2393C21.4913 98.3867 19.9489 97.9766 18.5093 97.1563C17.8923 96.8486 17.2753 96.4385 16.7612 95.9258C15.6301 95.0029 14.7046 93.7725 14.1905 92.3369C13.7792 91.3115 13.4707 90.2861 13.4707 89.1582V89.0557V40.042L18.6121 43.1182L62.4167 69.0606L63.6507 69.7783L63.7535 69.8809L103.034 93.0547L108.072 95.9258Z" fill="url(#paint2_linear_6948_30752)"/>
<path d="M63.6506 68.2402V71.624L18.5092 97.1562C17.8922 96.8486 17.2753 96.4385 16.7611 95.9258C15.63 95.0029 14.7046 93.7725 14.1904 92.3369L58.0979 66.3945L61.9025 68.7529L62.4167 68.958L63.6506 68.2402Z" fill="url(#paint3_linear_6948_30752)"/>
<path d="M13.4707 40.042L62.4167 69.0605" stroke="#A6BDFF" stroke-width="0.5" stroke-miterlimit="10"/>
<path d="M111.362 40.042V89.0557C111.259 91.8242 109.923 94.2852 107.969 95.9258C106.221 97.4639 103.959 98.3867 101.491 98.3867H23.2389C21.4908 98.3867 19.9484 97.9766 18.5088 97.1563C17.8918 96.8486 17.2749 96.4385 16.7607 95.9258L21.7993 92.9521L61.0795 69.7783L62.4163 68.958L63.6502 68.2402L106.221 43.0156L111.362 40.042Z" fill="url(#paint4_linear_6948_30752)"/>
<path d="M111.362 40.042L63.6502 68.2402L62.4163 68.958L61.0795 69.7783L16.7607 95.9258" stroke="#99B3FF" stroke-width="0.5" stroke-miterlimit="10"/>
<path d="M99.6407 74.29H73.6252C73.0083 74.29 72.4941 73.7773 72.4941 73.1621C72.4941 72.5469 73.0083 72.0342 73.6252 72.0342H99.6407C100.258 72.0342 100.772 72.5469 100.772 73.1621C100.772 73.7773 100.258 74.29 99.6407 74.29Z" fill="url(#paint5_linear_6948_30752)"/>
<path d="M99.6407 81.7754H73.6252C73.0083 81.7754 72.4941 81.2627 72.4941 80.6475C72.4941 80.0322 73.0083 79.5195 73.6252 79.5195H99.6407C100.258 79.5195 100.772 80.0322 100.772 80.6475C100.772 81.2627 100.258 81.7754 99.6407 81.7754Z" fill="url(#paint6_linear_6948_30752)"/>
<path d="M116.093 35.4277C118.251 35.4277 120 33.6832 120 31.5312C120 29.3793 118.251 27.6348 116.093 27.6348C113.935 27.6348 112.186 29.3793 112.186 31.5312C112.186 33.6832 113.935 35.4277 116.093 35.4277Z" fill="#EAEEF9"/>
<path d="M13.3676 21.1748C14.7873 21.1748 15.9383 20.0271 15.9383 18.6113C15.9383 17.1956 14.7873 16.0479 13.3676 16.0479C11.9478 16.0479 10.7969 17.1956 10.7969 18.6113C10.7969 20.0271 11.9478 21.1748 13.3676 21.1748Z" fill="#EAEEF9"/>
<path d="M1.74807 27.7373C2.71351 27.7373 3.49614 26.9569 3.49614 25.9941C3.49614 25.0314 2.71351 24.251 1.74807 24.251C0.782639 24.251 0 25.0314 0 25.9941C0 26.9569 0.782639 27.7373 1.74807 27.7373Z" fill="#EAEEF9"/>
<path d="M111.568 18.9189C112.477 18.9189 113.213 18.1844 113.213 17.2783C113.213 16.3722 112.477 15.6377 111.568 15.6377C110.659 15.6377 109.923 16.3722 109.923 17.2783C109.923 18.1844 110.659 18.9189 111.568 18.9189Z" fill="#EAEEF9"/>
<path d="M118.149 72.3418C119.058 72.3418 119.794 71.6073 119.794 70.7012C119.794 69.7951 119.058 69.0605 118.149 69.0605C117.241 69.0605 116.504 69.7951 116.504 70.7012C116.504 71.6073 117.241 72.3418 118.149 72.3418Z" fill="#EAEEF9"/>
<path opacity="0.3" d="M106.221 43.0156V48.1426L111.363 45.5791V40.042L106.221 43.0156ZM106.221 68.3428V76.6484L111.363 74.085V65.7793L106.221 68.3428ZM106.221 82.4932V88.8506C106.119 89.5684 105.913 90.3887 105.502 91.0039C105.399 91.1064 105.399 91.209 105.296 91.3115L111.363 88.2354V79.9297L106.221 82.4932ZM104.987 97.3613L103.445 98.1816C105.193 97.874 106.633 97.0537 107.969 96.0283C107.969 96.0283 107.969 96.0283 108.072 96.0283C108.175 96.0283 108.175 95.9258 108.278 95.8232L104.987 97.3613ZM13.4707 82.1855V89.0557V89.1582C13.4707 89.5684 13.5735 89.9785 13.6764 90.3887L18.6121 87.8252V79.5195L13.4707 82.1855ZM13.4707 53.6797V61.9854L18.6121 59.4219V51.1162L13.4707 53.6797ZM13.4707 40.042V47.835L18.6121 45.2715V43.1182L13.4707 40.042ZM13.4707 67.9326V76.2383L18.6121 73.6748V65.3691L13.4707 67.9326ZM23.2393 93.2598C22.7252 93.2598 22.2111 93.1572 21.7998 93.0547C21.4913 92.9522 21.2856 92.8496 20.9771 92.7471C20.9771 92.7471 20.9771 92.7471 20.8743 92.7471L15.9386 95.3105C16.2471 95.6182 16.4527 95.8232 16.7612 96.1309C17.2753 96.6436 17.8923 96.9512 18.5093 97.3613C18.9206 97.6689 19.4347 97.874 19.9489 97.9766L29.5118 93.3623H23.2393V93.2598ZM42.4681 93.2598L31.6712 98.3867H43.3936L54.1905 93.2598H42.4681ZM66.9411 93.2598L56.1442 98.3867H67.8666L78.6635 93.2598H66.9411ZM91.517 93.2598L80.7201 98.3867H90.1802L100.977 93.2598H91.517ZM106.221 54.0898V62.3955L111.363 59.832V51.5264L106.221 54.0898Z" fill="#526DFF"/>
<path d="M104.987 97.3613L108.175 95.7207C108.072 95.8232 108.072 95.8232 107.969 95.9258C107.969 95.9258 107.969 95.9258 107.866 95.9258L104.987 97.3613Z" fill="#526DFF"/>
<defs>
<filter id="filter0_d_6948_30752" x="5.4707" y="0" width="113.892" height="111.387" filterUnits="userSpaceOnUse" color-interpolation-filters="sRGB">
<feFlood flood-opacity="0" result="BackgroundImageFix"/>
<feColorMatrix in="SourceAlpha" type="matrix" values="0 0 0 0 0 0 0 0 0 0 0 0 0 0 0 0 0 0 127 0" result="hardAlpha"/>
<feOffset dy="5"/>
<feGaussianBlur stdDeviation="4"/>
<feColorMatrix type="matrix" values="0 0 0 0 0.1125 0 0 0 0 0.295916 0 0 0 0 1 0 0 0 0.22 0"/>
<feBlend mode="normal" in2="BackgroundImageFix" result="effect1_dropShadow_6948_30752"/>
<feBlend mode="normal" in="SourceGraphic" in2="effect1_dropShadow_6948_30752" result="shape"/>
</filter>
<linearGradient id="paint0_linear_6948_30752" x1="49.5837" y1="23.3487" x2="77.0523" y2="23.3487" gradientUnits="userSpaceOnUse">
<stop stop-color="#FF66A9"/>
<stop offset="1" stop-color="#F53689"/>
</linearGradient>
<linearGradient id="paint1_linear_6948_30752" x1="62.203" y1="83.657" x2="62.203" y2="42.0437" gradientUnits="userSpaceOnUse">
<stop stop-color="#4F6AFF"/>
<stop offset="1" stop-color="#657EFF" stop-opacity="0"/>
</linearGradient>
<linearGradient id="paint2_linear_6948_30752" x1="14.5703" y1="69.1875" x2="110.04" y2="69.1875" gradientUnits="userSpaceOnUse">
<stop stop-color="#83A6FF"/>
<stop offset="1" stop-color="#5A78FF"/>
</linearGradient>
<linearGradient id="paint3_linear_6948_30752" x1="41.7551" y1="84.6008" x2="37.9206" y2="78.9887" gradientUnits="userSpaceOnUse">
<stop stop-color="#4F6AFF"/>
<stop offset="1" stop-color="#657EFF" stop-opacity="0"/>
</linearGradient>
<linearGradient id="paint4_linear_6948_30752" x1="107.349" y1="69.1875" x2="13.6967" y2="69.1875" gradientUnits="userSpaceOnUse">
<stop stop-color="#83A6FF"/>
<stop offset="1" stop-color="#5A78FF"/>
</linearGradient>
<linearGradient id="paint5_linear_6948_30752" x1="72.4286" y1="73.1666" x2="100.77" y2="73.1666" gradientUnits="userSpaceOnUse">
<stop stop-color="#83A6FF"/>
<stop offset="1" stop-color="#5A78FF"/>
</linearGradient>
<linearGradient id="paint6_linear_6948_30752" x1="72.4286" y1="80.6057" x2="100.77" y2="80.6057" gradientUnits="userSpaceOnUse">
<stop stop-color="#83A6FF"/>
<stop offset="1" stop-color="#5A78FF"/>
</linearGradient>
</defs>
</svg>
