<svg width="18" height="16" viewBox="0 0 18 16" fill="none" xmlns="http://www.w3.org/2000/svg">
<g clip-path="url(#clip0_256_3284)">
<path d="M10.8 7.60002L4 6.40002V15.2668C4 15.6718 4.32826 16 4.7332 16H16.4668C16.8717 16 17.2 15.6718 17.2 15.2668V12L10.8 7.60002Z" fill="#185C37"/>
<path d="M10.8 0H4.7332C4.32826 0 4 0.328263 4 0.733198V4L10.8 8L14.4 9.2L17.2 8V4L10.8 0Z" fill="#21A366"/>
<path d="M4 4H10.8V8H4V4Z" fill="#107C41"/>
<path opacity="0.1" d="M8.8668 3.19995H4V13.2H8.8668C9.27119 13.1986 9.59869 12.8711 9.6 12.4668V3.93315C9.59869 3.52876 9.27119 3.20127 8.8668 3.19995Z" fill="black"/>
<path opacity="0.2" d="M8.4668 3.59998H4V13.6H8.4668C8.87119 13.5987 9.19869 13.2712 9.2 12.8668V4.33317C9.19869 3.92879 8.87119 3.60129 8.4668 3.59998Z" fill="black"/>
<path opacity="0.2" d="M8.4668 3.59998H4V12.8H8.4668C8.87119 12.7987 9.19869 12.4712 9.2 12.0668V4.33317C9.19869 3.92879 8.87119 3.60129 8.4668 3.59998Z" fill="black"/>
<path opacity="0.2" d="M8.0668 3.59998H4V12.8H8.0668C8.47119 12.7987 8.79869 12.4712 8.8 12.0668V4.33317C8.79869 3.92879 8.47119 3.60129 8.0668 3.59998Z" fill="black"/>
<path d="M0.733198 3.59998H8.06679C8.47173 3.59998 8.79999 3.92824 8.79999 4.33317V11.6668C8.79999 12.0717 8.47173 12.4 8.06679 12.4H0.733198C0.328263 12.4 0 12.0717 0 11.6668V4.33317C0 3.92824 0.328263 3.59998 0.733198 3.59998Z" fill="url(#paint0_linear_256_3284)"/>
<path d="M2.27051 10.3833L3.81291 7.99326L2.39971 5.61646H3.53651L4.30771 7.13646C4.37891 7.28085 4.42771 7.38805 4.45411 7.45885H4.46411C4.51477 7.34365 4.56811 7.23179 4.62411 7.12325L5.44851 5.61726H6.4921L5.0429 7.98006L6.52891 10.3833H5.41851L4.52771 8.71486C4.48575 8.64387 4.45014 8.56931 4.42131 8.49206H4.40812C4.38202 8.56774 4.3474 8.64021 4.30491 8.70806L3.38771 10.3833H2.27051Z" fill="white"/>
<path d="M16.4666 0H10.7998V4H17.1998V0.733198C17.1998 0.328263 16.8715 0 16.4666 0Z" fill="#33C481"/>
<path d="M10.7998 8H17.1998V12H10.7998V8Z" fill="#107C41"/>
</g>
<defs>
<linearGradient id="paint0_linear_256_3284" x1="1.52874" y1="3.02707" x2="7.27126" y2="12.9729" gradientUnits="userSpaceOnUse">
<stop stop-color="#18884F"/>
<stop offset="0.5" stop-color="#117E43"/>
<stop offset="1" stop-color="#0B6631"/>
</linearGradient>
<clipPath id="clip0_256_3284">
<rect width="17.2" height="16" fill="white"/>
</clipPath>
</defs>
</svg>
