<svg width="15" height="12" viewBox="0 0 15 12" fill="none" xmlns="http://www.w3.org/2000/svg">
<path d="M13.5 5.75C13.5 6.8001 10.7018 10.5 7.25 10.5C3.79822 10.5 1 6.8001 1 5.75C1 4.6999 3.79822 1 7.25 1C10.7018 1 13.5 4.6999 13.5 5.75Z" fill="white"/>
<path d="M12.75 5.75C12.75 5.73794 12.7478 5.80452 12.6798 5.9694C12.6174 6.12047 12.5175 6.31139 12.377 6.53112C12.0963 6.97013 11.6796 7.48311 11.1575 7.97064C10.0994 8.9588 8.71155 9.75 7.25 9.75V11.25C9.24023 11.25 10.9774 10.1912 12.1813 9.06693C12.7903 8.49822 13.2889 7.88934 13.6407 7.33927C13.8164 7.06447 13.9621 6.79405 14.0663 6.54179C14.1647 6.30333 14.25 6.02458 14.25 5.75H12.75ZM7.25 9.75C5.78845 9.75 4.40061 8.9588 3.34248 7.97064C2.82043 7.48311 2.40375 6.97013 2.123 6.53112C1.98247 6.31139 1.88259 6.12047 1.82022 5.9694C1.75216 5.80452 1.75 5.73794 1.75 5.75H0.25C0.25 6.02458 0.335285 6.30333 0.433731 6.54179C0.537874 6.79405 0.683571 7.06447 0.859316 7.33927C1.2111 7.88934 1.70971 8.49822 2.31869 9.06693C3.52261 10.1912 5.25977 11.25 7.25 11.25V9.75ZM1.75 5.75C1.75 5.76206 1.75216 5.69548 1.82022 5.5306C1.88259 5.37953 1.98247 5.18861 2.123 4.96888C2.40375 4.52987 2.82043 4.01689 3.34248 3.52936C4.40061 2.5412 5.78845 1.75 7.25 1.75V0.25C5.25977 0.25 3.52261 1.30875 2.31869 2.43307C1.70971 3.00178 1.2111 3.61066 0.859316 4.16073C0.683571 4.43553 0.537874 4.70595 0.433731 4.95821C0.335285 5.19667 0.25 5.47541 0.25 5.75H1.75ZM7.25 1.75C8.71155 1.75 10.0994 2.5412 11.1575 3.52936C11.6796 4.01689 12.0963 4.52987 12.377 4.96888C12.5175 5.18861 12.6174 5.37953 12.6798 5.5306C12.7478 5.69548 12.75 5.76206 12.75 5.75H14.25C14.25 5.47541 14.1647 5.19667 14.0663 4.95821C13.9621 4.70595 13.8164 4.43553 13.6407 4.16073C13.2889 3.61066 12.7903 3.00178 12.1813 2.43307C10.9774 1.30875 9.24023 0.25 7.25 0.25V1.75Z" fill="#5CD0DF"/>
<path d="M7.25 7.75C8.35457 7.75 9.25 6.85457 9.25 5.75C9.25 4.64543 8.35457 3.75 7.25 3.75C6.14543 3.75 5.25 4.64543 5.25 5.75C5.25 6.85457 6.14543 7.75 7.25 7.75Z" fill="white" stroke="#5CD0DF" stroke-width="1.5" stroke-linecap="round" stroke-linejoin="round"/>
</svg>
