<svg width="14" height="14" viewBox="0 0 14 14" fill="none" xmlns="http://www.w3.org/2000/svg">
<path d="M11.9033 10.1278C11.9668 9.11481 12 8.06921 12 7C12 6.57578 11.9948 6.15528 11.9845 5.73906C11.9742 5.32303 11.8304 4.92037 11.5684 4.59707C10.8114 3.66311 10.1864 3.06126 9.18618 2.35099C8.88047 2.13391 8.51456 2.01815 8.13969 2.01074C7.77882 2.00362 7.40208 2 7 2C5.82678 2 4.86929 2.03081 3.89252 2.08965C2.92885 2.14771 2.15706 2.90872 2.09669 3.87224C2.03322 4.88519 2 5.93079 2 7C2 8.06921 2.03322 9.11481 2.09669 10.1278C2.15706 11.0913 2.92885 11.8523 3.89252 11.9103C4.86929 11.9692 5.82678 12 7 12C8.17322 12 9.13071 11.9692 10.1075 11.9103C11.0711 11.8523 11.8429 11.0913 11.9033 10.1278Z" fill="white"/>
<path d="M11.9033 10.1278L12.4023 10.159L11.9033 10.1278ZM3.89252 2.08965L3.86245 1.59056L3.89252 2.08965ZM2.09669 3.87224L1.59767 3.84097L2.09669 3.87224ZM2.09669 10.1278L1.59767 10.159L2.09669 10.1278ZM3.89252 11.9103L3.86245 12.4094H3.86245L3.89252 11.9103ZM10.1075 11.9103L10.1376 12.4094L10.1075 11.9103ZM8.13969 2.01074L8.14956 1.51084L8.13969 2.01074ZM11.9845 5.73906L11.4846 5.75139V5.7514L11.9845 5.73906ZM9.18618 2.35099L8.8967 2.75866L9.18618 2.35099ZM11.5684 4.59707L11.1799 4.91188L11.1799 4.91188L11.5684 4.59707ZM11.5 7C11.5 8.05889 11.4671 9.09406 11.4043 10.0965L12.4023 10.159C12.4665 9.13555 12.5 8.07953 12.5 7H11.5ZM3.92258 2.58875C4.88904 2.53052 5.8365 2.5 7 2.5V1.5C5.81706 1.5 4.84953 1.53109 3.86245 1.59056L3.92258 2.58875ZM2.5 7C2.5 5.94111 2.5329 4.90594 2.59571 3.90351L1.59767 3.84097C1.53354 4.86445 1.5 5.92047 1.5 7H2.5ZM2.59571 10.0965C2.5329 9.09406 2.5 8.05889 2.5 7H1.5C1.5 8.07952 1.53354 9.13555 1.59767 10.159L2.59571 10.0965ZM7 11.5C5.8365 11.5 4.88904 11.4695 3.92258 11.4112L3.86245 12.4094C4.84953 12.4689 5.81706 12.5 7 12.5V11.5ZM10.0774 11.4113C9.11096 11.4695 8.1635 11.5 7 11.5V12.5C8.18294 12.5 9.15047 12.4689 10.1376 12.4094L10.0774 11.4113ZM7 2.5C7.39906 2.5 7.7725 2.50359 8.12982 2.51065L8.14956 1.51084C7.78514 1.50365 7.4051 1.5 7 1.5V2.5ZM11.4846 5.7514C11.4948 6.1635 11.5 6.57989 11.5 7H12.5C12.5 6.57167 12.4947 6.14706 12.4843 5.72672L11.4846 5.7514ZM8.8967 2.75866C9.8574 3.44085 10.4496 4.01078 11.1799 4.91188L11.9568 4.28225C11.1732 3.31544 10.5155 2.68166 9.47567 1.94332L8.8967 2.75866ZM8.12982 2.51065C8.40879 2.51616 8.67637 2.60221 8.8967 2.75866L9.47567 1.94332C9.08457 1.6656 8.62033 1.52014 8.14956 1.51084L8.12982 2.51065ZM1.59767 10.159C1.67402 11.3776 2.64989 12.3364 3.86245 12.4094L3.92258 11.4112C3.20782 11.3682 2.6401 10.8049 2.59571 10.0965L1.59767 10.159ZM12.4843 5.72672C12.4714 5.20394 12.2906 4.69408 11.9568 4.28225L11.1799 4.91188C11.3702 5.14666 11.477 5.44211 11.4846 5.75139L12.4843 5.72672ZM3.86245 1.59056C2.64989 1.66361 1.67402 2.62238 1.59767 3.84097L2.59571 3.90351C2.6401 3.19506 3.20782 2.63181 3.92258 2.58875L3.86245 1.59056ZM11.4043 10.0965C11.3599 10.8049 10.7922 11.3682 10.0774 11.4113L10.1376 12.4094C11.3501 12.3364 12.326 11.3776 12.4023 10.159L11.4043 10.0965Z" fill="#3052A1"/>
<path d="M5 6.5C4.72386 6.5 4.5 6.72386 4.5 7C4.5 7.27614 4.72386 7.5 5 7.5V6.5ZM9 7.5C9.27614 7.5 9.5 7.27614 9.5 7C9.5 6.72386 9.27614 6.5 9 6.5V7.5ZM5 7.5H9V6.5H5V7.5Z" fill="#3052A1"/>
<path d="M5 8.5C4.72386 8.5 4.5 8.72386 4.5 9C4.5 9.27614 4.72386 9.5 5 9.5V8.5ZM9 9.5C9.27614 9.5 9.5 9.27614 9.5 9C9.5 8.72386 9.27614 8.5 9 8.5V9.5ZM5 4.5C4.72386 4.5 4.5 4.72386 4.5 5C4.5 5.27614 4.72386 5.5 5 5.5V4.5ZM7.42132 5.5C7.69746 5.5 7.92132 5.27614 7.92132 5C7.92132 4.72386 7.69746 4.5 7.42132 4.5V5.5ZM5 9.5H9V8.5H5V9.5ZM5 5.5H7.42132V4.5H5V5.5Z" fill="#3052A1"/>
</svg>
