<svg width="16" height="16" viewBox="0 0 16 16" fill="none" xmlns="http://www.w3.org/2000/svg">
<g clip-path="url(#clip0_1267_3990)">
<path d="M15 2C15.5531 2 16 2.44781 16 3C16 3.55313 15.5531 4 15 4H13C12.4469 4 12 3.55313 12 3C12 2.44781 12.4469 2 13 2H15ZM10 8C10 7.44688 10.4469 7 11 7H15C15.5531 7 16 7.44688 16 8C16 8.55312 15.5531 9 15 9H11C10.4469 9 10 8.55312 10 8ZM10 13C10 12.4469 10.4469 12 11 12H15C15.5531 12 16 12.4469 16 13C16 13.5531 15.5531 14 15 14H11C10.4469 14 10 13.5531 10 13Z" fill="#2E50A3"/>
<path opacity="0.4" d="M0.108151 2.74156C0.308995 2.29063 0.756307 2 1.22193 2H9.75006C10.2438 2 10.6907 2.29063 10.8907 2.74156C11.0657 3.19375 11.0094 3.71875 10.6782 4.0875L7.50006 7.61875V13C7.50006 13.3781 7.28756 13.725 6.94693 13.8938C6.60943 14.0625 6.20318 14.0281 5.90006 13.8L3.90006 12.3C3.64693 12.1125 3.50006 11.8156 3.50006 11.5V7.61875L0.320995 4.0875C-0.00932404 3.71875 -0.0926928 3.19375 0.108151 2.74156Z" fill="#2E50A3"/>
</g>
<defs>
<clipPath id="clip0_1267_3990">
<rect width="16" height="16" fill="white"/>
</clipPath>
</defs>
</svg>
