<svg width="11" height="15" viewBox="0 0 11 15" fill="none" xmlns="http://www.w3.org/2000/svg">
<path d="M5.5 13.5017C6.09095 13.5017 6.67611 13.3853 7.22208 13.1592C7.76804 12.9331 8.26412 12.6016 8.68198 12.1837C9.09984 11.7659 9.43131 11.2698 9.65746 10.7238C9.8836 10.1779 10 9.5927 10 9.00175V5.99975C10 5.32517 9.84855 4.66499 9.56317 4.06543" stroke="#5BCEDD" stroke-width="1.5" stroke-linecap="round" stroke-linejoin="round"/>
<path d="M1 6.49902V9.00202C0.999699 9.88789 1.26087 10.7541 1.75078 11.4922C1.99354 11.8579 2.28713 12.1841 2.6209 12.462" stroke="#5BCEDD" stroke-width="1.5" stroke-linecap="round" stroke-linejoin="round"/>
<path d="M7.75003 1.60288C6.71647 1.00617 5.48821 0.84446 4.33543 1.15333C3.18265 1.4622 2.19978 2.21635 1.60303 3.24988" stroke="#5BCEDD" stroke-width="1.5" stroke-linecap="round" stroke-linejoin="round"/>
<path d="M5.02734 4.15971C5.26756 4.10984 5.51591 4.11453 5.75407 4.17342C5.99224 4.23231 6.21415 4.3439 6.40344 4.49997C6.59273 4.65605 6.74458 4.85262 6.84779 5.07519C6.951 5.29776 7.00293 5.54066 6.99976 5.78598V6.8375" stroke="#5BCEDD" stroke-width="1.5" stroke-linecap="round" stroke-linejoin="round"/>
<path d="M6.58169 10.2087C6.35947 10.4563 6.06695 10.63 5.74327 10.7067C5.41959 10.7834 5.08019 10.7595 4.77051 10.638C4.46083 10.5166 4.19563 10.3034 4.01041 10.0271C3.82519 9.75078 3.72879 9.42449 3.73409 9.09188V7.28564" stroke="#5BCEDD" stroke-width="1.5" stroke-linecap="round" stroke-linejoin="round"/>
</svg>
