<svg width="11" height="15" viewBox="0 0 11 15" fill="none" xmlns="http://www.w3.org/2000/svg">
<path d="M5.5 13.4988C6.09095 13.4988 6.67611 13.3824 7.22208 13.1563C7.76804 12.9301 8.26412 12.5987 8.68198 12.1808C9.09984 11.7629 9.43131 11.2669 9.65746 10.7209C9.8836 10.1749 10 9.58977 10 8.99882V5.99682C10 5.32224 9.84855 4.66206 9.56317 4.0625" stroke="#5BCEDD" stroke-width="1.5" stroke-linecap="round" stroke-linejoin="round"/>
<path d="M1 6.5V9.003C0.999699 9.88886 1.26087 10.7551 1.75078 11.4932C1.99354 11.8589 2.28713 12.1851 2.6209 12.463" stroke="#5BCEDD" stroke-width="1.5" stroke-linecap="round" stroke-linejoin="round"/>
<path d="M7.74954 1.60288C6.71598 1.00617 5.48772 0.84446 4.33494 1.15333C3.18217 1.4622 2.19929 2.21635 1.60254 3.24988" stroke="#5BCEDD" stroke-width="1.5" stroke-linecap="round" stroke-linejoin="round"/>
<path d="M5.02734 4.15922C5.26756 4.10935 5.51591 4.11404 5.75407 4.17293C5.99224 4.23182 6.21415 4.34341 6.40344 4.49949C6.59273 4.65556 6.74458 4.85213 6.84779 5.0747C6.951 5.29727 7.00293 5.54017 6.99976 5.78549V6.83701" stroke="#5BCEDD" stroke-width="1.5" stroke-linecap="round" stroke-linejoin="round"/>
<path d="M6.58218 10.2121C6.35996 10.4597 6.06744 10.6334 5.74375 10.7101C5.42007 10.7869 5.08068 10.7629 4.771 10.6414C4.46132 10.52 4.19612 10.3068 4.0109 10.0305C3.82568 9.7542 3.72927 9.42791 3.73458 9.0953V7.28906" stroke="#5BCEDD" stroke-width="1.5" stroke-linecap="round" stroke-linejoin="round"/>
</svg>
