<svg width="13" height="14" viewBox="0 0 13 14" fill="none" xmlns="http://www.w3.org/2000/svg">
<path fill-rule="evenodd" clip-rule="evenodd" d="M1.80778 2.62126C2.96528 1.46376 4.53519 0.813477 6.17215 0.813477C7.80911 0.813477 9.37902 1.46375 10.5365 2.62126C11.694 3.77876 12.3443 5.34867 12.3443 6.98563C12.3443 8.62258 11.694 10.1925 10.5365 11.35C9.37902 12.5075 7.80911 13.1578 6.17215 13.1578C4.53519 13.1578 2.96528 12.5075 1.80778 11.35C0.650278 10.1925 0 8.62258 0 6.98563C0 5.34867 0.650278 3.77876 1.80778 2.62126ZM6.17215 2.31348C4.93302 2.31348 3.74464 2.80572 2.86844 3.68192C1.99224 4.55812 1.5 5.7465 1.5 6.98563C1.5 8.22476 1.99224 9.41314 2.86844 10.2893C3.74464 11.1655 4.93302 11.6578 6.17215 11.6578C7.41128 11.6578 8.59966 11.1655 9.47586 10.2893C10.3521 9.41314 10.8443 8.22476 10.8443 6.98563C10.8443 5.7465 10.3521 4.55812 9.47586 3.68192C8.59966 2.80572 7.41128 2.31348 6.17215 2.31348ZM6.17216 6.23564C6.58637 6.23564 6.92216 6.57142 6.92216 6.98564V9.69671C6.92216 10.1109 6.58637 10.4467 6.17216 10.4467C5.75795 10.4467 5.42216 10.1109 5.42216 9.69671V6.98564C5.42216 6.57142 5.75795 6.23564 6.17216 6.23564ZM5.72264 3.89658C5.87806 3.79274 6.06078 3.73731 6.24769 3.73731C6.49834 3.73731 6.73872 3.83688 6.91596 4.01411C7.09319 4.19135 7.19276 4.43173 7.19276 4.68238C7.19276 4.86929 7.13734 5.05201 7.03349 5.20743C6.92964 5.36284 6.78204 5.48397 6.60936 5.5555C6.43667 5.62703 6.24664 5.64575 6.06332 5.60928C5.88 5.57282 5.71161 5.48281 5.57943 5.35064C5.44726 5.21847 5.35725 5.05007 5.32079 4.86675C5.28432 4.68343 5.30304 4.49341 5.37457 4.32072C5.44609 4.14803 5.56722 4.00043 5.72264 3.89658Z" fill="#41AEBC"/>
</svg>
