<svg width="18" height="18" viewBox="0 0 18 18" fill="none" xmlns="http://www.w3.org/2000/svg">
<path d="M9 1.40625C7.4981 1.40625 6.02993 1.85162 4.78114 2.68603C3.53236 3.52044 2.55905 4.70642 1.98429 6.094C1.40954 7.48157 1.25916 9.00842 1.55217 10.4815C1.84517 11.9545 2.56841 13.3076 3.63041 14.3696C4.69242 15.4316 6.04549 16.1548 7.51854 16.4478C8.99158 16.7408 10.5184 16.5905 11.906 16.0157C13.2936 15.441 14.4796 14.4676 15.314 13.2189C16.1484 11.9701 16.5938 10.5019 16.5938 9C16.5919 6.98658 15.7912 5.05617 14.3675 3.63246C12.9438 2.20876 11.0134 1.40811 9 1.40625ZM9 14.9062C7.83186 14.9062 6.68994 14.5599 5.71867 13.9109C4.74739 13.2619 3.99037 12.3394 3.54334 11.2602C3.09631 10.181 2.97935 8.99345 3.20724 7.84775C3.43513 6.70205 3.99765 5.64965 4.82365 4.82365C5.64966 3.99765 6.70205 3.43513 7.84775 3.20724C8.99345 2.97934 10.181 3.09631 11.2602 3.54334C12.3395 3.99037 13.2619 4.74739 13.9109 5.71866C14.5599 6.68994 14.9063 7.83185 14.9063 9C14.9044 10.5659 14.2815 12.0671 13.1743 13.1743C12.0671 14.2815 10.5659 14.9044 9 14.9062ZM10.4063 12.375C10.4063 12.5988 10.3174 12.8134 10.1591 12.9716C10.0009 13.1299 9.78628 13.2188 9.5625 13.2188H9C8.77623 13.2188 8.56162 13.1299 8.40338 12.9716C8.24515 12.8134 8.15625 12.5988 8.15625 12.375V9.51328C7.99133 9.45607 7.84843 9.34871 7.74756 9.20624C7.64669 9.06377 7.59291 8.89331 7.59375 8.71875C7.59375 8.49497 7.68265 8.28036 7.84088 8.12213C7.99912 7.96389 8.21373 7.875 8.4375 7.875H9C9.22378 7.875 9.43839 7.96389 9.59662 8.12213C9.75486 8.28036 9.84375 8.49497 9.84375 8.71875V11.5805C10.0087 11.6377 10.1516 11.745 10.2524 11.8875C10.3533 12.03 10.4071 12.2004 10.4063 12.375ZM7.73438 5.90625C7.73438 5.68375 7.80036 5.46624 7.92397 5.28123C8.04759 5.09623 8.22329 4.95203 8.42886 4.86689C8.63443 4.78174 8.86063 4.75946 9.07885 4.80287C9.29708 4.84627 9.49754 4.95342 9.65487 5.11075C9.81221 5.26809 9.91935 5.46854 9.96276 5.68677C10.0062 5.905 9.98389 6.1312 9.89874 6.33677C9.81359 6.54234 9.6694 6.71804 9.4844 6.84165C9.29939 6.96527 9.08188 7.03125 8.85938 7.03125C8.56101 7.03125 8.27486 6.91272 8.06388 6.70175C7.8529 6.49077 7.73438 6.20462 7.73438 5.90625Z" fill="#1EB8D5"/>
</svg>
