<svg width="11" height="13" viewBox="0 0 11 13" fill="none" xmlns="http://www.w3.org/2000/svg">
<path d="M1.13918 11.1176C1.17261 11.5991 1.55121 11.9843 2.03225 12.0241C4.4481 12.2236 6.66351 12.2236 9.07936 12.0241C9.5604 11.9843 9.939 11.5991 9.97243 11.1176C10.158 8.44477 10.158 5.91543 9.97243 3.24261C9.939 2.76109 9.56038 2.37697 9.08135 2.31766C7.95033 2.17763 6.76981 2.0022 5.5558 2.0022C4.3418 2.0022 3.16128 2.17763 2.03025 2.31766C1.55123 2.37697 1.17261 2.76109 1.13918 3.24261C0.953608 5.91543 0.953608 8.44477 1.13918 11.1176Z" fill="white"/>
<path d="M9.97243 3.24261L10.4712 3.20798L9.97243 3.24261ZM5.5558 2.5022C6.7307 2.5022 7.87158 2.6717 9.01992 2.81387L9.14279 1.82145C8.02907 1.68356 6.80891 1.5022 5.5558 1.5022V2.5022ZM2.09169 2.81387C3.24003 2.6717 4.3809 2.5022 5.5558 2.5022V1.5022C4.3027 1.5022 3.08253 1.68356 1.96882 1.82145L2.09169 2.81387ZM9.0382 11.5258C6.64974 11.7231 4.46187 11.7231 2.07341 11.5258L1.99109 12.5224C4.43433 12.7242 6.67728 12.7242 9.12052 12.5224L9.0382 11.5258ZM10.4712 11.1522C10.6584 8.45634 10.6584 5.90386 10.4712 3.20798L9.47363 3.27724C9.6576 5.927 9.6576 8.4332 9.47363 11.083L10.4712 11.1522ZM0.640376 3.20798C0.453208 5.90386 0.453208 8.45634 0.640377 11.1522L1.63798 11.083C1.45401 8.4332 1.45401 5.927 1.63797 3.27724L0.640376 3.20798ZM1.96882 1.82145C1.26242 1.90891 0.691072 2.47778 0.640376 3.20798L1.63797 3.27724C1.65414 3.04439 1.84004 2.84503 2.09169 2.81387L1.96882 1.82145ZM9.01992 2.81387C9.27157 2.84503 9.45747 3.04439 9.47363 3.27724L10.4712 3.20798C10.4205 2.47778 9.84919 1.90891 9.14279 1.82145L9.01992 2.81387ZM9.12052 12.5224C9.84879 12.4622 10.4208 11.879 10.4712 11.1522L9.47363 11.083C9.45723 11.3192 9.27201 11.5065 9.0382 11.5258L9.12052 12.5224ZM2.07341 11.5258C1.8396 11.5065 1.65438 11.3192 1.63798 11.083L0.640377 11.1522C0.690835 11.879 1.26282 12.4622 1.99109 12.5224L2.07341 11.5258Z" fill="#3052A1"/>
<path d="M4.09375 6.01562C3.81761 6.01562 3.59375 6.23948 3.59375 6.51562C3.59375 6.79177 3.81761 7.01562 4.09375 7.01562V6.01562ZM7.90625 7.01562C8.18239 7.01562 8.40625 6.79177 8.40625 6.51562C8.40625 6.23948 8.18239 6.01562 7.90625 6.01562V7.01562ZM4.09375 7.01562H7.90625V6.01562H4.09375V7.01562Z" fill="#3052A1"/>
<path d="M4.09375 8.92188C3.81761 8.92188 3.59375 9.14573 3.59375 9.42188C3.59375 9.69802 3.81761 9.92188 4.09375 9.92188V8.92188ZM6.3944 9.92188C6.67054 9.92188 6.8944 9.69802 6.8944 9.42188C6.8944 9.14573 6.67054 8.92188 6.3944 8.92188V9.92188ZM4.09375 9.92188H6.3944V8.92188H4.09375V9.92188Z" fill="#3052A1"/>
<rect x="3" y="0.75" width="5.65625" height="2.96875" rx="1.48438" fill="white" stroke="#3052A1" stroke-linejoin="round"/>
</svg>
