<svg width="12" height="14" viewBox="0 0 12 14" fill="none" xmlns="http://www.w3.org/2000/svg">
<path d="M6.37464 13.0262C7.64995 11.921 10.5941 9.0207 10.5941 5.79704C10.5941 3.14771 8.44636 1 5.79704 1C3.14771 1 1 3.14771 1 5.79704C1 9.0207 3.94412 11.921 5.21943 13.0262C5.55458 13.3166 6.03949 13.3166 6.37464 13.0262Z" fill="white" stroke="#5BCEDD" stroke-width="1.5" stroke-linecap="round" stroke-linejoin="round"/>
<path d="M5.79681 7.48034C6.88193 7.48034 7.76159 6.60068 7.76159 5.51556C7.76159 4.43044 6.88193 3.55078 5.79681 3.55078C4.71169 3.55078 3.83203 4.43044 3.83203 5.51556C3.83203 6.60068 4.71169 7.48034 5.79681 7.48034Z" fill="white" stroke="#5BCEDD" stroke-width="1.5" stroke-linecap="round" stroke-linejoin="round"/>
</svg>
