<svg width="20" height="20" viewBox="0 0 20 20" fill="none" xmlns="http://www.w3.org/2000/svg">
<path d="M0.367188 9.11699L5.36719 4.11699C5.85547 3.62871 6.64648 3.62871 7.13477 4.11699C7.62305 4.60527 7.62305 5.39629 7.13477 5.88457L4.26562 8.7498H12.5C13.1914 8.7498 13.75 9.3084 13.75 9.9998C13.75 10.6912 13.191 11.2498 12.5 11.2498H4.26562L7.13203 14.1162C7.62031 14.6045 7.62031 15.3955 7.13203 15.8838C6.64414 16.3717 5.85312 16.3725 5.36445 15.8838L0.364452 10.8838C-0.121095 10.3943 -0.121094 9.60527 0.367188 9.11699Z" fill="#EF525B"/>
<path opacity="0.4" d="M13.75 3.75H16.25C16.9402 3.75 17.5 4.30977 17.5 5V15C17.5 15.6902 16.9402 16.25 16.25 16.25H13.75C13.0598 16.25 12.5 16.8098 12.5 17.5C12.5 18.1902 13.0586 18.75 13.75 18.75H16.25C18.3211 18.75 20 17.0711 20 15V5C20 2.92891 18.3211 1.25 16.25 1.25H13.75C13.0598 1.25 12.5 1.80976 12.5 2.5C12.5 3.19023 13.0586 3.75 13.75 3.75Z" fill="#EF525B"/>
</svg>
