<svg width="15" height="14" viewBox="0 0 15 14" fill="none" xmlns="http://www.w3.org/2000/svg">
<path d="M1.28167 10.1736C1.40058 11.1314 2.17435 11.8881 3.13428 11.9884C4.46258 12.1273 5.83924 12.2739 7.25 12.2739C8.66076 12.2739 10.0374 12.1273 11.3657 11.9884C12.3256 11.8881 13.0994 11.1314 13.2183 10.1736C13.3603 9.03009 13.5 7.84747 13.5 6.63694C13.5 5.4264 13.3603 4.24379 13.2183 3.10026C13.0994 2.14245 12.3256 1.38581 11.3657 1.28547C10.0374 1.14662 8.66076 1 7.25 1C5.83924 1 4.46257 1.14662 3.13428 1.28547C2.17435 1.38581 1.40058 2.14245 1.28166 3.10026C1.13969 4.24379 1 5.4264 1 6.63694C1 7.84747 1.13969 9.03009 1.28167 10.1736Z" fill="white" stroke="#5BCEDD" stroke-width="1.5" stroke-linejoin="round"/>
<path d="M1.30957 2.84131L6.01169 6.54877C6.73793 7.12139 7.76207 7.12139 8.48831 6.54877L13.1904 2.84131" stroke="#5BCEDD" stroke-width="1.5" stroke-linejoin="round"/>
</svg>
