<svg width="20" height="20" viewBox="0 0 20 20" fill="none" xmlns="http://www.w3.org/2000/svg">
<path d="M10.9567 0.937478L15.7317 2.91533C16.3442 3.16907 16.8309 3.65575 17.0847 4.26832L19.0625 9.04329C19.3163 9.65586 19.3163 10.3441 19.0625 10.9567L17.0847 15.7317C16.8309 16.3442 16.3442 16.8309 15.7317 17.0847L10.9567 19.0625C10.3441 19.3163 9.65586 19.3163 9.04329 19.0625L4.26832 17.0847C3.65575 16.8309 3.16907 16.3442 2.91533 15.7317L0.937478 10.9567C0.683743 10.3441 0.683743 9.65586 0.937478 9.04329L2.91533 4.26832C3.16907 3.65575 3.65575 3.16907 4.26832 2.91533L9.04329 0.937478C9.65586 0.683743 10.3441 0.683743 10.9567 0.937478Z" fill="#FFDFED" stroke="#FFD0E4"/>
<circle cx="10" cy="10" r="5" fill="url(#paint0_linear_0_1)"/>
<g clip-path="url(#clip0_0_1)">
<path d="M9.26894 11.3918C9.28004 11.3829 9.28669 11.3787 9.29218 11.3732C9.54644 11.1194 9.85984 11.0037 10.2123 10.9764C10.5341 10.9515 10.8526 10.9921 11.1718 11.0219C11.4653 11.0493 11.7588 11.0754 12.0535 11.0365C12.41 10.9896 12.7116 10.8394 12.9437 10.5611C12.9694 10.5303 12.9835 10.4875 12.9953 10.4481C13.0087 10.4028 12.9924 10.3694 12.9458 10.3459C12.6283 10.1866 12.3396 9.98523 12.0752 9.7482C12.0359 9.71296 12.0248 9.67654 12.038 9.6272C12.1599 9.16945 12.2503 8.70544 12.316 8.23647C12.3246 8.17525 12.3328 8.1139 12.3363 8.0523C12.3373 8.03481 12.3245 8.00648 12.3109 8.00113C12.2971 7.99565 12.2741 8.01144 12.2559 8.0198C12.2492 8.02293 12.2446 8.03128 12.2394 8.03742C11.972 8.35407 11.6228 8.49843 11.2169 8.52532C10.877 8.5479 10.5409 8.50234 10.2039 8.47154C9.92798 8.44635 9.65204 8.42742 9.37584 8.46645C9.10017 8.50535 8.85438 8.60977 8.6428 8.79394C8.58367 8.84549 8.54295 8.89261 8.59255 8.97054C8.59333 8.97184 8.59359 8.97367 8.59398 8.9751C8.78703 9.66701 8.98008 10.3588 9.17313 11.0507C9.20446 11.163 9.23618 11.2751 9.26894 11.3916V11.3918Z" fill="white"/>
<path d="M9.17266 13C9.09813 12.9663 9.06628 12.9043 9.04514 12.8282C8.70368 11.6005 8.36052 10.3732 8.01749 9.14585C8.01318 9.1307 8.00587 9.11635 8 9.1016C8 9.07223 8 9.04299 8 9.01362C8.00444 9.00331 8.00901 8.99313 8.01318 8.98282C8.04934 8.89276 8.13275 8.84107 8.23391 8.84603C8.32201 8.85034 8.39472 8.90764 8.42056 8.99927C8.51532 9.3338 8.60878 9.66873 8.70237 10.0037C8.9552 10.9082 9.20777 11.8126 9.46035 12.7171C9.46648 12.7391 9.4734 12.7608 9.47653 12.7833C9.48867 12.8693 9.44338 12.9416 9.36127 12.9693C9.33099 12.9796 9.30071 12.9898 9.2703 13.0001H9.17253L9.17266 13Z" fill="#FFDFED"/>
<path d="M9.26894 11.3916C9.23618 11.2751 9.20446 11.163 9.17313 11.0507C8.98008 10.3589 8.78703 9.66701 8.59398 8.9751C8.59359 8.97354 8.59333 8.97184 8.59255 8.97054C8.54295 8.89261 8.58367 8.84549 8.6428 8.79394C8.85452 8.60977 9.1003 8.50535 9.37584 8.46645C9.65204 8.42742 9.92798 8.44648 10.2039 8.47154C10.5409 8.50221 10.877 8.5479 11.2169 8.52532C11.6228 8.4983 11.972 8.35394 12.2394 8.03742C12.2446 8.03115 12.2492 8.02293 12.2559 8.0198C12.2741 8.01144 12.2971 7.99565 12.3109 8.00113C12.3245 8.00648 12.3374 8.03481 12.3363 8.0523C12.333 8.1139 12.3246 8.17525 12.316 8.23647C12.2503 8.70544 12.1599 9.16945 12.038 9.6272C12.0248 9.67654 12.0359 9.71296 12.0752 9.7482C12.3396 9.98523 12.6282 10.1866 12.9458 10.3459C12.9925 10.3692 13.0087 10.4028 12.9953 10.4481C12.9835 10.4876 12.9694 10.5303 12.9437 10.5611C12.7116 10.8394 12.41 10.9896 12.0535 11.0365C11.7588 11.0752 11.4653 11.0493 11.1718 11.0219C10.8526 10.9921 10.5341 10.9515 10.2123 10.9764C9.85984 11.0037 9.54644 11.1192 9.29218 11.3732C9.28669 11.3787 9.28004 11.3829 9.26894 11.3918V11.3916Z" fill="#FFDFED"/>
</g>
<defs>
<linearGradient id="paint0_linear_0_1" x1="10" y1="5" x2="10" y2="15" gradientUnits="userSpaceOnUse">
<stop stop-color="#CD578A"/>
<stop offset="1" stop-color="#9B3B65"/>
</linearGradient>
<clipPath id="clip0_0_1">
<rect width="5" height="5" fill="white" transform="translate(8 8)"/>
</clipPath>
</defs>
</svg>
