<svg width="20" height="20" viewBox="0 0 20 20" fill="none" xmlns="http://www.w3.org/2000/svg">
<path d="M9.04329 0.937478C9.65586 0.683743 10.3441 0.683743 10.9567 0.937478L15.7317 2.91533C16.3442 3.16907 16.8309 3.65575 17.0847 4.26832L19.0625 9.04329C19.3163 9.65586 19.3163 10.3441 19.0625 10.9567L17.0847 15.7317C16.8309 16.3442 16.3442 16.8309 15.7317 17.0847L10.9567 19.0625C10.3441 19.3163 9.65586 19.3163 9.04329 19.0625L4.26832 17.0847C3.65575 16.8309 3.16907 16.3442 2.91533 15.7317L0.937478 10.9567C0.683743 10.3441 0.683743 9.65586 0.937478 9.04329L2.91533 4.26832C3.16907 3.65575 3.65575 3.16907 4.26832 2.91533L9.04329 0.937478Z" fill="#FFF2E0" stroke="#FFEBD0"/>
<circle cx="10" cy="10" r="5" fill="url(#paint0_linear_3866_22916)"/>
<g clip-path="url(#clip0_3866_22916)">
<path d="M11.7918 13H8.20675C8.20675 12.9943 8.20484 12.9878 8.20675 12.9828C8.2889 12.7452 8.3687 12.5067 8.45526 12.2707C8.48724 12.1835 8.55868 12.1288 8.65007 12.1093C8.69526 12.0996 8.74293 12.0992 8.78944 12.0989C8.99218 12.0978 9.19491 12.0984 9.39985 12.0984C9.46968 11.8886 9.53834 11.6818 9.6089 11.4699C9.58293 11.4627 9.56284 11.4571 9.54274 11.4515C9.02841 11.3086 8.64655 11.0005 8.39907 10.5276C8.26836 10.2778 8.20616 10.0096 8.20235 9.72823C8.20161 9.67904 8.18328 9.66508 8.13648 9.65568C7.61291 9.55039 7.25115 9.25152 7.07174 8.74427C7.03682 8.64616 7.02333 8.54057 7 8.4385C7 8.13758 7 7.83652 7 7.5356C7.08171 7.33631 7.14127 7.2971 7.36279 7.2971C7.61658 7.2971 7.87037 7.2971 8.12416 7.2971C8.14704 7.2971 8.16993 7.2971 8.2 7.2971V7H11.8021V7.29695C11.833 7.29695 11.8562 7.29695 11.8794 7.29695C12.1468 7.29695 12.4142 7.29548 12.6817 7.29754C12.8898 7.29916 12.9978 7.40989 12.9982 7.61858C12.9988 7.85884 13.0023 8.09925 12.9971 8.33952C12.9825 9.00524 12.5091 9.54906 11.853 9.6573C11.8125 9.66391 11.8012 9.67948 11.7965 9.72001C11.7781 9.87656 11.7715 10.0374 11.7293 10.1879C11.577 10.7303 11.2393 11.1209 10.7265 11.3553C10.6208 11.4036 10.5077 11.4353 10.392 11.4769C10.4603 11.6822 10.5296 11.8903 10.599 12.0984C10.8262 12.0984 11.0467 12.0977 11.2672 12.0987C11.411 12.0993 11.5107 12.1723 11.5582 12.3084C11.6134 12.4667 11.6689 12.6251 11.723 12.7838C11.7473 12.8553 11.7689 12.9279 11.7918 13ZM9.1 8.79802C9.22543 8.96544 9.33575 9.12434 9.45883 9.27252C9.53071 9.35917 9.55051 9.43818 9.51472 9.54701C9.46748 9.69005 9.43932 9.83955 9.40073 9.99567C9.42773 9.98157 9.44504 9.9729 9.46191 9.96365C9.62592 9.87348 9.79037 9.78419 9.9535 9.69225C9.98592 9.67404 10.0097 9.67199 10.0436 9.69123C10.2098 9.78551 10.3778 9.87656 10.5453 9.96835C10.5597 9.97614 10.5749 9.9823 10.5974 9.99288C10.551 9.80636 10.5079 9.62866 10.462 9.4517C10.4523 9.41425 10.4561 9.38649 10.4801 9.35491C10.6069 9.18896 10.7313 9.0211 10.8563 8.85382C10.8674 8.83884 10.8776 8.82298 10.8947 8.79802C10.8639 8.79802 10.8432 8.79802 10.8225 8.79802C10.6566 8.79802 10.4907 8.7967 10.3248 8.7989C10.2842 8.79949 10.2624 8.78788 10.2457 8.74926C10.1737 8.58287 10.0981 8.41794 10.0236 8.25258C10.0172 8.23818 10.0085 8.22482 9.99663 8.20323C9.92137 8.37006 9.84479 8.52412 9.78259 8.68361C9.74782 8.77305 9.70367 8.80712 9.60465 8.80081C9.44181 8.79038 9.27795 8.79802 9.09985 8.79802H9.1ZM11.8029 7.90011V9.06442C11.8337 9.05708 11.8607 9.05341 11.8857 9.04401C12.1189 8.95545 12.2807 8.79229 12.3531 8.55511C12.3871 8.44364 12.3899 8.3216 12.3981 8.20382C12.4051 8.10351 12.3996 8.00233 12.3996 7.89996H11.8029V7.90011ZM8.19457 9.06163V7.90202H7.59883C7.59883 8.02685 7.60044 8.14757 7.59853 8.26814C7.59457 8.50576 7.67775 8.70682 7.84983 8.86939C7.94709 8.96118 8.06005 9.02785 8.19457 9.06163Z" fill="#FFF2E0"/>
</g>
<defs>
<linearGradient id="paint0_linear_3866_22916" x1="10" y1="5" x2="10" y2="15" gradientUnits="userSpaceOnUse">
<stop stop-color="#F8C073"/>
<stop offset="1" stop-color="#E2AF6A"/>
</linearGradient>
<clipPath id="clip0_3866_22916">
<rect width="6" height="6" fill="white" transform="translate(7 7)"/>
</clipPath>
</defs>
</svg>
