<svg width="18" height="18" viewBox="0 0 18 18" fill="none" xmlns="http://www.w3.org/2000/svg">
<path d="M4.71948 1.24658C6.08055 0.431318 7.63726 0.000495421 9.22381 0C10.5438 -0.000777729 11.847 0.296396 13.0362 0.86937C14.2254 1.44234 15.2699 2.27634 16.0919 3.30919C16.9139 4.34204 17.4921 5.5471 17.7836 6.83455C18.075 8.12199 18.0721 9.45861 17.775 10.7448C17.478 12.0309 16.8945 13.2335 16.068 14.2627C15.2415 15.292 14.1933 16.1214 13.0017 16.6892C11.81 17.257 10.5056 17.5485 9.18555 17.5419C8.08384 17.5365 6.99502 17.3235 5.97549 16.9163L0.82046 17.7747C0.448489 17.8366 0.14444 17.4802 0.264236 17.1226L1.60689 13.1152C0.923757 11.917 0.531383 10.5718 0.46547 9.18845C0.38996 7.6037 0.745715 6.02813 1.49484 4.62958C2.24397 3.23102 3.35842 2.06185 4.71948 1.24658Z" fill="#D9D9D9"/>
<path d="M5.84998 6.79688H12.87" stroke="white" stroke-linecap="round" stroke-linejoin="round"/>
<path d="M5.84998 11.1172H11.16" stroke="white" stroke-linecap="round" stroke-linejoin="round"/>
</svg>
