<svg width="30" height="34" viewBox="0 0 30 34" fill="none" xmlns="http://www.w3.org/2000/svg">
<path d="M1.67522 27.4899C1.91669 29.948 3.83859 31.9328 6.27365 32.255C9.09626 32.6284 12.014 33 15 33C17.986 33 20.9037 32.6284 23.7263 32.255C26.1614 31.9328 28.0833 29.948 28.3248 27.4899C28.6574 24.1042 29 20.5955 29 17C29 14.8859 28.8815 12.8019 28.7163 10.7552C28.3188 5.83123 24.4064 1.71711 19.5171 1.24141C18.0316 1.09688 16.5247 1 15 1C12.014 1 9.09627 1.37156 6.27366 1.74499C3.83859 2.06715 1.91669 4.052 1.67522 6.51012C1.34263 9.89577 1 13.4045 1 17C1 20.5955 1.34263 24.1042 1.67522 27.4899Z" fill="white"/>
<path d="M28.7163 10.7552L29.4639 10.6948L28.7163 10.7552ZM19.5171 1.24141L19.5898 0.494937L19.5171 1.24141ZM23.7263 32.255L23.8247 32.9985L23.7263 32.255ZM28.3248 27.4899L27.5784 27.4166L28.3248 27.4899ZM6.27366 1.74499L6.17529 1.00147L6.27366 1.74499ZM1.67522 6.51012L2.42163 6.58344L1.67522 6.51012ZM6.27365 32.255L6.37202 31.5115L6.27365 32.255ZM1.67522 27.4899L0.928814 27.5632L1.67522 27.4899ZM15 32.25C12.0701 32.25 9.19836 31.8854 6.37202 31.5115L6.17529 32.9985C8.99417 33.3715 11.958 33.75 15 33.75V32.25ZM23.628 31.5115C20.8016 31.8854 17.9299 32.25 15 32.25V33.75C18.042 33.75 21.0058 33.3715 23.8247 32.9985L23.628 31.5115ZM29.0712 27.5632C29.4033 24.1824 29.75 20.6379 29.75 17H28.25C28.25 20.5531 27.9114 24.0261 27.5784 27.4166L29.0712 27.5632ZM29.75 17C29.75 14.8586 29.63 12.7529 29.4639 10.6948L27.9688 10.8155C28.1331 12.8509 28.25 14.9133 28.25 17H29.75ZM15 1.75C16.4934 1.75 17.9749 1.84491 19.4445 1.98789L19.5898 0.494937C18.0882 0.348848 16.556 0.25 15 0.25V1.75ZM6.37202 2.48851C9.19836 2.11459 12.0701 1.75 15 1.75V0.25C11.958 0.25 8.99417 0.62853 6.17529 1.00147L6.37202 2.48851ZM0.928813 6.43679C0.596698 9.8176 0.25 13.3621 0.25 17H1.75C1.75 13.4469 2.08856 9.97393 2.42163 6.58344L0.928813 6.43679ZM0.25 17C0.25 20.6379 0.596698 24.1824 0.928814 27.5632L2.42163 27.4166C2.08856 24.0261 1.75 20.5531 1.75 17H0.25ZM29.4639 10.6948C29.0384 5.42344 24.8547 1.00719 19.5898 0.494937L19.4445 1.98789C23.9581 2.42704 27.5993 6.23902 27.9688 10.8155L29.4639 10.6948ZM23.8247 32.9985C26.6059 32.6306 28.7957 30.3675 29.0712 27.5632L27.5784 27.4166C27.3709 29.5285 25.7169 31.2351 23.628 31.5115L23.8247 32.9985ZM6.17529 1.00147C3.3941 1.36942 1.2043 3.63248 0.928813 6.43679L2.42163 6.58344C2.62909 4.47152 4.28307 2.76488 6.37202 2.48851L6.17529 1.00147ZM6.37202 31.5115C4.28307 31.2351 2.62909 29.5285 2.42163 27.4166L0.928814 27.5632C1.2043 30.3675 3.3941 32.6306 6.17529 32.9985L6.37202 31.5115Z" fill="#3052A1"/>
<path d="M17.6621 6.11999V11.7116H23.909C26.6873 11.7116 28.9459 13.95 28.9989 16.7314C28.9895 14.7094 28.8741 12.7152 28.7159 10.7552C28.3184 5.83123 24.406 1.71711 19.5167 1.24141C18.0312 1.09688 16.5243 1 14.9996 1C14.4042 1 13.8115 1.01477 13.2217 1.04139C15.7261 1.36262 17.6621 3.51393 17.6621 6.11999Z" fill="#D7E0FF" stroke="#3052A1" stroke-width="1.5" stroke-linejoin="round"/>
<path d="M9.62207 19.5732H7.81055V18.4307H9.62207C9.90202 18.4307 10.1299 18.3851 10.3057 18.2939C10.4814 18.1995 10.61 18.0693 10.6914 17.9033C10.7728 17.7373 10.8135 17.5501 10.8135 17.3418C10.8135 17.1302 10.7728 16.9333 10.6914 16.751C10.61 16.5687 10.4814 16.4222 10.3057 16.3115C10.1299 16.2008 9.90202 16.1455 9.62207 16.1455H8.31836V22.1074H6.85352V14.998H9.62207C10.1787 14.998 10.6556 15.099 11.0527 15.3008C11.4531 15.4993 11.7591 15.7744 11.9707 16.126C12.1823 16.4775 12.2881 16.8796 12.2881 17.332C12.2881 17.791 12.1823 18.1882 11.9707 18.5234C11.7591 18.8587 11.4531 19.1175 11.0527 19.2998C10.6556 19.4821 10.1787 19.5732 9.62207 19.5732ZM15.4814 22.1074H13.9336L13.9434 20.9648H15.4814C15.8656 20.9648 16.1895 20.8786 16.4531 20.7061C16.7168 20.5303 16.9154 20.2747 17.0488 19.9395C17.1855 19.6042 17.2539 19.1989 17.2539 18.7236V18.377C17.2539 18.0124 17.2148 17.6917 17.1367 17.415C17.0618 17.1383 16.9495 16.9056 16.7998 16.7168C16.6501 16.528 16.4661 16.3864 16.248 16.292C16.0299 16.1943 15.7793 16.1455 15.4961 16.1455H13.9043V14.998H15.4961C15.9714 14.998 16.4059 15.0794 16.7998 15.2422C17.1969 15.4017 17.5404 15.6312 17.8301 15.9307C18.1198 16.2301 18.3428 16.5882 18.499 17.0049C18.6585 17.4183 18.7383 17.8789 18.7383 18.3867V18.7236C18.7383 19.2282 18.6585 19.6888 18.499 20.1055C18.3428 20.5221 18.1198 20.8802 17.8301 21.1797C17.5436 21.4759 17.2002 21.7054 16.7998 21.8682C16.4027 22.0277 15.9632 22.1074 15.4814 22.1074ZM14.7637 14.998V22.1074H13.2988V14.998H14.7637ZM21.2676 14.998V22.1074H19.8027V14.998H21.2676ZM24.0996 18.0352V19.1777H20.8672V18.0352H24.0996ZM24.4414 14.998V16.1455H20.8672V14.998H24.4414Z" fill="#2E50A3"/>
</svg>
