<svg width="22" height="21" viewBox="0 0 22 21" fill="none" xmlns="http://www.w3.org/2000/svg">
<path fill-rule="evenodd" clip-rule="evenodd" d="M9.11592 18.2432L18.4843 9.3733C20.0415 7.89895 19.9212 5.28904 18.2187 3.61546C16.5564 1.98129 14.0211 1.86899 12.5558 3.36463L3.44284 12.6663C3.44284 12.6663 5.46156 13.4694 6.88025 14.864C8.29893 16.2587 9.11592 18.2432 9.11592 18.2432Z" fill="#2E50A3"/>
<path d="M9.11592 18.2432L8.42638 18.4629C8.52587 18.7046 8.73575 18.8927 8.98467 18.9633C9.23358 19.0339 9.48804 18.9774 9.66152 18.8132L9.11592 18.2432ZM3.44284 12.6663L2.88019 12.113C2.71056 12.2862 2.65102 12.544 2.72235 12.7966C2.79368 13.0491 2.98598 13.2614 3.23217 13.3593L3.44284 12.6663ZM12.5558 3.36463L11.9932 2.81139L12.5558 3.36463ZM4.0055 13.2195L13.1185 3.91786L11.9932 2.81139L2.88019 12.113L4.0055 13.2195ZM17.9387 8.8033L8.57033 17.6732L9.66152 18.8132L19.0299 9.94331L17.9387 8.8033ZM3.44284 12.6663C3.23217 13.3593 3.23204 13.3593 3.23192 13.3592C3.23189 13.3592 3.23178 13.3592 3.23172 13.3592C3.23161 13.3591 3.23152 13.3591 3.23146 13.3591C3.23134 13.359 3.23135 13.359 3.23147 13.3591C3.23172 13.3592 3.23245 13.3595 3.23364 13.3599C3.23602 13.3609 3.24027 13.3626 3.2463 13.3651C3.25837 13.3701 3.27756 13.378 3.30324 13.389C3.35463 13.4109 3.43186 13.4445 3.52989 13.4896C3.72632 13.5798 4.00429 13.7146 4.32417 13.8906C4.97208 14.2469 5.75503 14.7518 6.3843 15.3704L7.37619 14.3577C6.58678 13.5817 5.65103 12.9877 4.93491 12.5938C4.57277 12.3946 4.2574 12.2415 4.03098 12.1375C3.91759 12.0855 3.82602 12.0455 3.76148 12.018C3.72919 12.0043 3.70362 11.9936 3.68542 11.9861C3.67632 11.9824 3.66906 11.9794 3.66372 11.9773C3.66105 11.9762 3.65885 11.9753 3.65715 11.9746C3.6563 11.9743 3.65557 11.974 3.65497 11.9738C3.65466 11.9736 3.65439 11.9735 3.65415 11.9734C3.65403 11.9734 3.65387 11.9733 3.65381 11.9733C3.65366 11.9732 3.65352 11.9732 3.44284 12.6663ZM6.3843 15.3704C7.01318 15.9886 7.52593 16.7572 7.8876 17.3927C8.06621 17.7065 8.20309 17.9792 8.29458 18.1717C8.34025 18.2678 8.37438 18.3435 8.39653 18.3937C8.4076 18.4189 8.41566 18.4376 8.42066 18.4493C8.42316 18.4552 8.42489 18.4593 8.42584 18.4616C8.42632 18.4628 8.4266 18.4634 8.42669 18.4637C8.42674 18.4638 8.42674 18.4638 8.42668 18.4636C8.42666 18.4636 8.42662 18.4635 8.42657 18.4634C8.42654 18.4633 8.42649 18.4632 8.42648 18.4631C8.42643 18.463 8.42638 18.4629 9.11592 18.2432C9.80547 18.0235 9.80541 18.0233 9.80535 18.0232C9.80532 18.0231 9.80526 18.023 9.80521 18.0228C9.80511 18.0226 9.80499 18.0223 9.80487 18.022C9.80462 18.0214 9.80431 18.0207 9.80396 18.0198C9.80325 18.0181 9.80234 18.0159 9.80123 18.0133C9.79901 18.008 9.79598 18.0008 9.79215 17.9918C9.78448 17.9738 9.77361 17.9485 9.75957 17.9166C9.7315 17.8529 9.69072 17.7627 9.63762 17.6509C9.5316 17.4278 9.37555 17.1172 9.17259 16.7605C8.77109 16.0551 8.166 15.1341 7.37619 14.3577L6.3843 15.3704ZM19.0299 9.94331C20.8782 8.19334 20.7353 5.09555 18.7147 3.10912L17.7228 4.12181C19.107 5.48254 19.2048 7.60456 17.9387 8.8033L19.0299 9.94331ZM13.1185 3.91786C14.3098 2.70182 16.3712 2.79312 17.7228 4.12181L18.7147 3.10912C16.7416 1.16946 13.7324 1.03617 11.9932 2.81139L13.1185 3.91786Z" fill="white"/>
<path d="M2.30801 20.0015L9.11007 18.2506C9.11007 18.2506 8.2949 16.2654 6.8775 14.8694C5.4601 13.4735 3.44212 12.6685 3.44212 12.6685L1.652 19.3397C1.55077 19.7169 1.92942 20.0989 2.30801 20.0015Z" fill="#2E50A3"/>
<path d="M9.11007 18.2506L9.36811 18.9784C9.56127 18.9287 9.71688 18.7991 9.7985 18.6201C9.88013 18.4411 9.8806 18.2283 9.79982 18.0315L9.11007 18.2506ZM2.30801 20.0015L2.56606 20.7292L2.56606 20.7292L2.30801 20.0015ZM1.652 19.3397L2.37798 19.6046L1.652 19.3397ZM3.44212 12.6685L3.65344 11.9757C3.45861 11.8979 3.24891 11.8996 3.07226 11.9803C2.89562 12.061 2.76712 12.2137 2.71614 12.4037L3.44212 12.6685ZM6.8775 14.8694L7.37392 14.3636L7.37392 14.3636L6.8775 14.8694ZM8.85202 17.5229L2.04997 19.2737L2.56606 20.7292L9.36811 18.9784L8.85202 17.5229ZM2.37798 19.6046L4.1681 12.9334L2.71614 12.4037L0.926016 19.0749L2.37798 19.6046ZM3.44212 12.6685C3.23081 13.3614 3.23068 13.3614 3.23056 13.3613C3.23053 13.3613 3.23042 13.3613 3.23036 13.3613C3.23025 13.3612 3.23016 13.3612 3.2301 13.3612C3.22999 13.3611 3.22999 13.3611 3.23011 13.3612C3.23036 13.3613 3.23109 13.3616 3.23228 13.362C3.23466 13.363 3.23891 13.3647 3.24493 13.3672C3.257 13.3722 3.27618 13.3802 3.30185 13.3911C3.35323 13.4131 3.43042 13.4468 3.52841 13.4919C3.72476 13.5823 4.0026 13.7174 4.32233 13.8936C4.9699 14.2506 5.75239 14.7562 6.38109 15.3753L7.37392 14.3636C6.58522 13.5868 5.65002 12.9919 4.93425 12.5974C4.5723 12.3979 4.25707 12.2445 4.03075 12.1404C3.91741 12.0882 3.82587 12.0481 3.76135 12.0206C3.72908 12.0068 3.70352 11.9961 3.68533 11.9886C3.67623 11.9849 3.66897 11.9819 3.66363 11.9798C3.66096 11.9787 3.65877 11.9778 3.65707 11.9771C3.65622 11.9768 3.65549 11.9765 3.65488 11.9762C3.65458 11.9761 3.65431 11.976 3.65407 11.9759C3.65395 11.9759 3.65379 11.9758 3.65373 11.9758C3.65358 11.9757 3.65344 11.9757 3.44212 12.6685ZM6.38109 15.3753C7.0094 15.9941 7.52144 16.7632 7.88252 17.399C8.06085 17.713 8.19747 17.9858 8.28879 18.1784C8.33437 18.2745 8.36843 18.3502 8.39053 18.4005C8.40158 18.4256 8.40962 18.4444 8.41461 18.4561C8.4171 18.462 8.41883 18.4661 8.41978 18.4684C8.42026 18.4696 8.42054 18.4702 8.42063 18.4705C8.42068 18.4706 8.42067 18.4706 8.42062 18.4704C8.42059 18.4704 8.42056 18.4703 8.42051 18.4702C8.42048 18.4701 8.42043 18.47 8.42042 18.4699C8.42037 18.4698 8.42032 18.4697 9.11007 18.2506C9.79982 18.0315 9.79976 18.0314 9.79969 18.0312C9.79967 18.0312 9.7996 18.031 9.79955 18.0309C9.79945 18.0307 9.79934 18.0304 9.79921 18.0301C9.79896 18.0295 9.79866 18.0287 9.79831 18.0279C9.7976 18.0262 9.79669 18.024 9.79559 18.0213C9.79337 18.016 9.79035 18.0088 9.78652 17.9998C9.77887 17.9818 9.76802 17.9565 9.75401 17.9247C9.726 17.8609 9.6853 17.7706 9.63231 17.6588C9.52649 17.4356 9.37073 17.1248 9.16809 16.768C8.76725 16.0622 8.16301 15.1407 7.37392 14.3636L6.38109 15.3753ZM2.04997 19.2737C2.23926 19.225 2.42859 19.4159 2.37798 19.6046L0.926016 19.0749C0.672952 20.018 1.61958 20.9728 2.56606 20.7292L2.04997 19.2737Z" fill="white"/>
</svg>
