<svg width="11" height="11" viewBox="0 0 11 11" fill="none" xmlns="http://www.w3.org/2000/svg">
<path fill-rule="evenodd" clip-rule="evenodd" d="M4.8644 9.65586L9.32548 5.43216C10.067 4.7301 10.0097 3.48731 9.199 2.69037C8.40742 1.91221 7.20017 1.85873 6.50242 2.57093L2.16298 7.00022C2.16298 7.00022 3.12426 7.38266 3.79981 8.04676C4.47536 8.71087 4.8644 9.65586 4.8644 9.65586Z" fill="#F0FBFC"/>
<path d="M4.8644 9.65586L4.40471 9.80233C4.47103 9.96344 4.61096 10.0888 4.7769 10.1359C4.94284 10.183 5.11248 10.1454 5.22814 10.0359L4.8644 9.65586ZM2.16298 7.00022L1.78787 6.63139C1.67478 6.74682 1.6351 6.9187 1.68265 7.08708C1.7302 7.25545 1.8584 7.39697 2.02252 7.46227L2.16298 7.00022ZM9.32548 5.43216L8.96175 5.05216L9.32548 5.43216ZM2.53808 7.36904L6.87752 2.93976L6.12731 2.20211L1.78787 6.63139L2.53808 7.36904ZM8.96175 5.05216L4.50067 9.27585L5.22814 10.0359L9.68921 5.81217L8.96175 5.05216ZM2.16298 7.00022C2.02252 7.46227 2.02244 7.46224 2.02236 7.4622C2.02233 7.4622 2.02226 7.46216 2.02221 7.46215C2.02212 7.46211 2.02204 7.46208 2.02198 7.46205C2.02186 7.46201 2.02179 7.46198 2.02178 7.46197C2.02176 7.46197 2.02197 7.46205 2.02239 7.46222C2.02325 7.46257 2.02498 7.46327 2.02756 7.46433C2.03272 7.46645 2.04125 7.47 2.05285 7.47494C2.07608 7.48483 2.11148 7.50026 2.1567 7.52102C2.24738 7.56266 2.37618 7.62514 2.52448 7.70671C2.82651 7.87282 3.18478 8.10475 3.46918 8.38433L4.13044 7.7092C3.73929 7.32467 3.27914 7.03333 2.93164 6.84219C2.75517 6.74514 2.60143 6.6705 2.49076 6.61968C2.4353 6.59421 2.39033 6.57457 2.35835 6.56095C2.34234 6.55414 2.32956 6.54882 2.32031 6.54501C2.31568 6.54311 2.31194 6.54159 2.30911 6.54044C2.3077 6.53987 2.30652 6.5394 2.30557 6.53902C2.30509 6.53883 2.30468 6.53866 2.30432 6.53852C2.30414 6.53845 2.30398 6.53838 2.30383 6.53832C2.30375 6.53829 2.30365 6.53825 2.30362 6.53824C2.30352 6.5382 2.30343 6.53816 2.16298 7.00022ZM3.46918 8.38433C3.75331 8.66364 3.98868 9.01512 4.15711 9.31105C4.23984 9.45642 4.3032 9.58264 4.34538 9.67142C4.36642 9.71569 4.38204 9.75032 4.39202 9.77298C4.39701 9.78431 4.40058 9.79261 4.40271 9.79761C4.40377 9.8001 4.40447 9.80177 4.4048 9.80257C4.40497 9.80297 4.40505 9.80315 4.40503 9.80311C4.40502 9.80309 4.40499 9.80302 4.40494 9.80289C4.40491 9.80282 4.40488 9.80274 4.40484 9.80265C4.40482 9.8026 4.40479 9.80252 4.40478 9.8025C4.40474 9.80241 4.40471 9.80233 4.8644 9.65586C5.3241 9.50939 5.32406 9.50929 5.32402 9.50919C5.324 9.50915 5.32396 9.50905 5.32393 9.50898C5.32387 9.50883 5.3238 9.50866 5.32373 9.50848C5.32358 9.50812 5.3234 9.5077 5.32321 9.50722C5.32281 9.50627 5.32232 9.50509 5.32173 9.50368C5.32055 9.50086 5.31898 9.49714 5.31703 9.49256C5.31313 9.48338 5.30768 9.47074 5.30071 9.45492C5.28678 9.42331 5.26673 9.37893 5.24074 9.32423C5.18887 9.21507 5.11274 9.06354 5.01377 8.88964C4.81879 8.54705 4.52186 8.09399 4.13044 7.7092L3.46918 8.38433ZM9.68921 5.81217C10.6248 4.92636 10.5525 3.35831 9.52963 2.35281L8.86837 3.02794C9.46688 3.6163 9.5092 4.53384 8.96175 5.05216L9.68921 5.81217ZM6.87752 2.93976C7.39266 2.41395 8.28396 2.45343 8.86837 3.02794L9.52963 2.35281C8.53088 1.37099 7.00768 1.30352 6.12731 2.20211L6.87752 2.93976Z" fill="#3052A1"/>
<path d="M2.0919 10.3724L4.86188 9.65941C4.86188 9.65941 4.47371 8.71407 3.79877 8.04935C3.12383 7.38464 2.1629 7.00132 2.1629 7.00132L1.43588 9.71066C1.33465 10.0879 1.71331 10.4698 2.0919 10.3724Z" fill="#F0FBFC"/>
<path d="M4.86188 9.65941L5.03391 10.1446C5.16269 10.1114 5.26642 10.0251 5.32084 9.90574C5.37525 9.78639 5.37557 9.64452 5.32171 9.51336L4.86188 9.65941ZM2.0919 10.3724L1.91987 9.88722L1.91987 9.88722L2.0919 10.3724ZM1.43588 9.71066L1.91987 9.88722L1.43588 9.71066ZM2.1629 7.00132L2.30378 6.53939C2.17389 6.48758 2.03409 6.48869 1.91632 6.54247C1.79856 6.59626 1.7129 6.69811 1.67891 6.82476L2.1629 7.00132ZM3.79877 8.04935L3.46783 8.38662L3.46783 8.38662L3.79877 8.04935ZM4.68985 9.17423L1.91987 9.88722L2.26393 10.8576L5.03391 10.1446L4.68985 9.17423ZM1.91987 9.88722L2.64689 7.17788L1.67891 6.82476L0.951894 9.5341L1.91987 9.88722ZM2.1629 7.00132C2.02202 7.46325 2.02194 7.46321 2.02185 7.46318C2.02183 7.46317 2.02175 7.46314 2.02171 7.46312C2.02162 7.46309 2.02154 7.46306 2.02148 7.46303C2.02136 7.46298 2.02129 7.46296 2.02128 7.46295C2.02126 7.46294 2.02147 7.46303 2.02189 7.4632C2.02274 7.46354 2.02448 7.46425 2.02706 7.46531C2.03222 7.46744 2.04074 7.47099 2.05234 7.47594C2.07555 7.48585 2.11095 7.50132 2.15615 7.52212C2.24679 7.56384 2.37553 7.62644 2.52376 7.70814C2.82563 7.87453 3.18369 8.10678 3.46783 8.38662L4.12971 7.71209C3.73891 7.32721 3.27904 7.03544 2.93171 6.844C2.75533 6.74678 2.60166 6.672 2.49103 6.62108C2.4356 6.59556 2.39065 6.57589 2.35867 6.56224C2.34268 6.55541 2.3299 6.55007 2.32065 6.54626C2.31603 6.54436 2.31229 6.54283 2.30946 6.54168C2.30805 6.54111 2.30686 6.54063 2.30592 6.54025C2.30544 6.54006 2.30503 6.53989 2.30467 6.53975C2.30449 6.53968 2.30433 6.53961 2.30418 6.53955C2.3041 6.53952 2.304 6.53948 2.30397 6.53947C2.30387 6.53943 2.30378 6.53939 2.1629 7.00132ZM3.46783 8.38662C3.7517 8.66619 3.98675 9.01788 4.1549 9.31397C4.23751 9.45941 4.30074 9.58569 4.34284 9.6745C4.36384 9.71879 4.37943 9.75344 4.38939 9.77611C4.39437 9.78744 4.39793 9.79575 4.40005 9.80074C4.40111 9.80324 4.40181 9.80491 4.40214 9.80571C4.40231 9.80611 4.40239 9.80629 4.40237 9.80625C4.40236 9.80623 4.40233 9.80616 4.40228 9.80603C4.40225 9.80596 4.40222 9.80588 4.40218 9.80579C4.40216 9.80574 4.40213 9.80566 4.40212 9.80564C4.40208 9.80555 4.40205 9.80546 4.86188 9.65941C5.32171 9.51336 5.32167 9.51326 5.32163 9.51316C5.32162 9.51313 5.32158 9.51302 5.32154 9.51295C5.32148 9.5128 5.32141 9.51263 5.32134 9.51245C5.32119 9.51209 5.32102 9.51167 5.32082 9.5112C5.32043 9.51024 5.31993 9.50906 5.31935 9.50765C5.31817 9.50483 5.31661 9.50111 5.31466 9.49652C5.31076 9.48735 5.30533 9.4747 5.29837 9.45887C5.28447 9.42725 5.26446 9.38285 5.23852 9.32813C5.18675 9.21892 5.11076 9.06732 5.01195 8.89333C4.81729 8.55057 4.52078 8.09723 4.12971 7.71209L3.46783 8.38662ZM1.91987 9.88722L1.91987 9.88722L0.951894 9.5341C0.749443 10.2886 1.50675 11.0525 2.26393 10.8576L1.91987 9.88722Z" fill="#3052A1"/>
</svg>
