<svg width="20" height="20" viewBox="0 0 20 20" fill="none" xmlns="http://www.w3.org/2000/svg">
<g clip-path="url(#clip0_1361_5113)">
<path d="M7.13671 17.9375C6.8789 18.1953 6.55858 18.3867 6.20702 18.4883L1.20194 19.9609C0.873038 20.0586 0.517179 19.9687 0.274601 19.6914C0.0320146 19.4844 -0.0586807 19.1289 0.0381161 18.7969L1.51054 13.793C1.61405 13.4414 1.80351 13.1211 2.06249 12.8633L11.8359 3.0871L16.8789 8.12889L7.13671 17.9375Z" fill="#2E50A3"/>
<path opacity="0.4" d="M14.168 0.754702C15.1445 -0.221782 16.7305 -0.221782 17.707 0.754702L19.2461 2.29494C20.2227 3.27111 20.2227 4.85548 19.2461 5.83205L16.8789 8.12892L11.8359 3.08712L14.168 0.754702Z" fill="#2E50A3"/>
</g>
<defs>
<clipPath id="clip0_1361_5113">
<rect width="20" height="20" fill="white"/>
</clipPath>
</defs>
</svg>
