<svg width="14" height="14" viewBox="0 0 14 14" fill="none" xmlns="http://www.w3.org/2000/svg">
<path d="M4.43777 1.20854C3.72763 0.613401 2.66957 0.698948 2.13077 1.45272C1.98685 1.65406 1.81631 1.8942 1.52175 2.26265C0.508463 3.53017 0.508467 5.36551 1.52735 6.62853C2.27951 7.56092 3.06815 8.50174 3.94974 9.38333C4.83133 10.2649 5.77215 11.0536 6.70454 11.8057C7.96756 12.8246 9.80289 12.8246 11.0704 11.8113C11.4635 11.497 11.7088 11.3258 11.917 11.1771C12.6451 10.6571 12.7471 9.63718 12.1786 8.94632C11.7293 8.40039 11.229 7.87956 10.7464 7.37116C10.362 6.96618 9.71992 6.93972 9.28359 7.28818C9.16623 7.3819 9.02052 7.50543 8.72507 7.78241C7.2752 6.92087 6.39649 6.03143 5.55066 4.608C5.831 4.30897 5.95464 4.16283 6.04918 4.04434C6.39703 3.60834 6.37121 2.96796 5.96382 2.587C5.46731 2.1227 4.962 1.64789 4.43777 1.20854Z" fill="white" stroke="#5BCEDD" stroke-width="1.5" stroke-linejoin="round"/>
</svg>
