<svg width="74" height="75" viewBox="0 0 74 75" fill="none" xmlns="http://www.w3.org/2000/svg">
<g clip-path="url(#clip0_430_3023)">
<path d="M52.8987 64.2531C53.1541 64.2667 53.4095 64.2914 53.6656 64.2928C54.4412 64.2983 55.2176 64.2948 55.9939 64.2948C56.1142 64.2948 56.2344 64.2948 56.3817 64.2948V67.7895C56.425 67.8251 56.4412 67.8504 56.4581 67.8504C57.5594 67.8566 58.6614 67.8607 59.7627 67.8621C59.8019 67.8621 59.8411 67.8278 59.8803 67.8093L59.8749 67.8025C59.8857 68.5085 59.8992 69.2153 59.9059 69.9213C59.9107 70.4109 59.9066 70.9013 59.9066 71.4416H66.9395V74.9944H56.4027V71.4758H52.8778V74.989H38.766V71.4786H35.2451V74.9992H28.2129V71.4649H31.6905V67.873H28.2115V60.7214C28.5588 60.7214 28.8933 60.7249 29.2277 60.7214C30.0703 60.7119 30.9128 60.6988 31.7554 60.6879C31.7425 61.5645 31.7283 62.4403 31.7175 63.3169C31.7135 63.6326 31.7175 63.9483 31.7175 64.2757H42.2578V60.7214H41.8409C38.5998 60.7214 35.358 60.7214 32.1168 60.7201C31.9945 60.7201 31.8722 60.7036 31.75 60.6947C31.7391 59.773 31.7283 58.8512 31.7182 57.9294C31.7155 57.6815 31.7182 57.4336 31.7182 57.1597H28.2055V46.4354H21.1246V42.836L21.1158 42.8456H24.6373V39.2757H21.1151L21.1252 39.2852C21.1273 38.4751 21.1334 37.665 21.13 36.8548C21.1279 36.4693 21.107 36.0837 21.0948 35.6982C22.2718 35.6982 23.4488 35.6982 24.6353 35.6982V32.1707H21.132C21.132 32.3754 21.1334 32.5555 21.132 32.7356C21.1232 33.7259 21.1144 34.7154 21.1056 35.7057H17.6037V39.2846L17.6132 39.275H7.06211V42.8456L7.07765 42.8333C5.86958 42.8258 4.66218 42.8189 3.4541 42.8114L3.46018 42.8175C3.47437 42.7073 3.5014 42.597 3.5014 42.4861C3.50342 39.162 3.50342 35.8372 3.5014 32.5131C3.5014 32.4028 3.47437 32.2926 3.46018 32.1816L3.4541 32.1878C3.72166 32.1741 3.98922 32.1494 4.25746 32.1474C5.16622 32.1426 6.07565 32.1453 7.0263 32.1453V28.5932H14.0883C14.0883 29.4403 14.0849 30.2696 14.0896 31.0982C14.0916 31.4612 14.1099 31.8241 14.1207 32.1871C13.9991 32.1727 13.8775 32.1481 13.7565 32.1474C12.9802 32.1439 12.2032 32.1453 11.4269 32.1453C11.1492 32.1453 10.8715 32.1453 10.5897 32.1453V35.6899H14.0883C14.0883 35.4256 14.0862 35.1866 14.0883 34.9483C14.0957 34.0258 14.1052 33.1027 14.1133 32.1802C14.8869 32.1686 15.6605 32.1549 16.4348 32.146C16.8139 32.1412 17.1936 32.1453 17.6084 32.1453V28.5671H18.0064C21.2793 28.5671 24.5515 28.5671 27.8244 28.5685C27.9575 28.5685 28.0906 28.5932 28.2237 28.6062L28.2095 28.5932V32.146H28.594C29.9784 32.146 31.3635 32.1439 32.7479 32.1467C33.5803 32.1487 34.4127 32.1583 35.2451 32.1645L35.2357 32.1542C35.239 34.5305 35.2424 36.9069 35.2458 39.2832C34.0803 39.2757 32.9155 39.2674 31.7493 39.2599C31.7378 38.7271 31.7222 38.1936 31.7175 37.6602C31.7121 37.0253 31.7162 36.3898 31.7162 35.7358H28.2095V39.2825C28.3386 39.2825 28.448 39.2832 28.5581 39.2825C29.625 39.2729 30.6912 39.2626 31.7581 39.2531C31.7445 39.353 31.7182 39.453 31.7182 39.5523C31.7162 41.7424 31.7162 43.9331 31.7175 46.1232C31.7175 46.2204 31.7317 46.3176 31.7405 46.4286C32.8878 46.4286 34.0012 46.4293 35.1147 46.4258C35.1654 46.4258 35.2161 46.3875 35.2667 46.3676C35.2573 47.3819 35.2472 48.3961 35.2384 49.4096C35.2363 49.5993 35.2384 49.7883 35.2384 50.0191H31.7445V53.5569H38.7349V46.4313H38.3491C37.4376 46.4313 36.5262 46.4334 35.6154 46.4286C35.4965 46.4286 35.3782 46.3937 35.2593 46.3759C35.2519 46.2519 35.2397 46.128 35.2397 46.0033C35.2377 43.7598 35.2377 41.5157 35.237 39.2722H38.7667V35.7228H42.2713L42.2612 35.7139V39.2729H45.7813V50.0027H42.3024V53.5733H49.3123V57.1481H45.8036V57.5863C45.8036 60.8611 45.8036 64.1366 45.8016 67.4114C45.8016 67.5436 45.7705 67.6765 45.7543 67.8093C45.6367 67.8285 45.5192 67.8627 45.4009 67.8634C44.4895 67.8682 43.5773 67.8655 42.6659 67.8668C42.5449 67.8668 42.4247 67.8771 42.303 67.8826V71.43H45.7658C45.78 71.3717 45.8002 71.3293 45.8002 71.2868C45.8023 70.1918 45.8029 69.0961 45.8002 68.0011C45.8002 67.9353 45.7671 67.8703 45.7496 67.8045C45.8469 67.8251 45.9442 67.8627 46.0421 67.8627C48.2427 67.8662 50.4434 67.8648 52.6433 67.8641C52.6987 67.8641 52.7534 67.8525 52.8487 67.8415C52.8541 67.7203 52.8636 67.6004 52.8642 67.4806C52.8656 66.5362 52.8636 65.5919 52.8669 64.6475C52.8669 64.5126 52.8919 64.3784 52.9048 64.2435L52.8987 64.2496V64.2531Z" fill="#7B7B7B"/>
<path d="M49.3604 0H73.9894V24.9664H49.3604V0ZM70.4746 3.57544H52.8839V21.3869H70.4746V3.57544Z" fill="#7B7B7B"/>
<path d="M0 0H24.627V24.9664H0V0ZM21.1177 3.57681H3.52423V21.3883H21.1177V3.57681Z" fill="#7B7B7B"/>
<path d="M0.00146484 50.0315H24.6265V74.9952H0.00146484V50.0315ZM21.1103 53.6097H3.52637V71.4321H21.1103V53.6097Z" fill="#7B7B7B"/>
<path d="M38.7714 10.7463V14.2683H42.2706V17.8458H45.7834V35.7168C44.5955 35.7168 43.428 35.7168 42.2612 35.7168L42.2713 35.7257V32.1558H35.2357L35.2451 32.166V28.5543H38.7558C38.7558 28.1188 38.7592 27.7209 38.7552 27.323C38.7471 26.5273 38.7356 25.7315 38.7261 24.9357C38.8457 24.9549 38.9653 24.9885 39.0849 24.9891C39.7369 24.9946 40.3896 24.9919 41.0416 24.9919C41.4429 24.9919 41.8436 24.9919 42.2564 24.9919V21.4404H38.7565C38.7565 21.6212 38.7579 21.7794 38.7565 21.9369C38.7491 22.9388 38.741 23.9407 38.7329 24.9426C38.67 24.959 38.6065 24.9891 38.5437 24.9898C37.4991 24.9926 36.4546 24.9919 35.41 24.9898C35.3586 24.9898 35.3073 24.97 35.2249 24.9522V21.4034H31.7243L31.7337 21.4117V17.8568H35.2201V14.2813H28.2129V10.7244C28.325 10.7189 28.4433 10.7086 28.5615 10.7086C31.8479 10.7079 35.135 10.7073 38.4214 10.71C38.5417 10.71 38.6613 10.7408 38.7808 10.7566C38.7808 10.7559 38.7727 10.7463 38.7727 10.7463H38.7714Z" fill="#7B7B7B"/>
<path d="M66.9076 64.2593C66.9245 64.1956 66.9555 64.1312 66.9555 64.0675C66.9583 63.0177 66.9576 61.9685 66.9555 60.9187C66.9555 60.8646 66.9393 60.8105 66.9251 60.7235H59.9084V53.6048H56.3923V57.1269H52.8877V50.0212H56.3856C56.3856 49.7671 56.3835 49.5548 56.3856 49.3425C56.395 48.3509 56.4052 47.3593 56.4153 46.3677L56.4099 46.3745C56.4829 46.3944 56.5552 46.43 56.6281 46.4307C57.6389 46.4341 58.6497 46.4341 59.6605 46.4307C59.7335 46.4307 59.8064 46.3944 59.8794 46.3752L59.874 46.3684C59.8848 47.0744 59.8983 47.7805 59.9051 48.4858C59.9098 48.9755 59.9057 49.4651 59.9057 49.9965H70.4636V64.2935H70.0994C69.1656 64.2935 68.2319 64.2955 67.2981 64.2914C67.165 64.2914 67.0319 64.264 66.8988 64.2504L66.9069 64.2579L66.9076 64.2593Z" fill="#7B7B7B"/>
<path d="M59.8799 46.3754C59.8887 46.2973 59.9056 46.2186 59.9056 46.1405C59.9069 42.752 59.9069 39.3635 59.9063 35.9757C59.9063 35.9079 59.9009 35.8401 59.8961 35.7299H56.3989L56.4104 35.7401V32.151H59.9076V28.5879H63.419V32.1222H66.9588V28.5899H73.9964V32.1311H70.5168V35.7134H73.9964V42.8451H70.5161L70.5249 42.8527C70.5141 42.2158 70.4992 41.5796 70.4931 40.9427C70.4877 40.4085 70.4918 39.8737 70.4918 39.3026H66.973V35.7415H63.4325V46.4343C62.9785 46.4343 62.5657 46.4343 62.1528 46.4343C61.5116 46.4343 60.8704 46.4377 60.2292 46.4315C60.1103 46.4302 59.9927 46.3918 59.8738 46.3699L59.8792 46.3761L59.8799 46.3754Z" fill="#7B7B7B"/>
<path d="M38.7227 7.20086C38.8524 7.17827 38.9814 7.13786 39.1112 7.13718C40.0341 7.1317 40.9577 7.13444 41.8807 7.13444C42.0016 7.13444 42.1232 7.13444 42.2786 7.13444V0.00341797H45.7731V10.7078H45.3819C43.2989 10.7078 41.2165 10.7078 39.1335 10.7092C39.0125 10.7092 38.8909 10.7325 38.7706 10.7455C38.7713 10.7462 38.7787 10.7558 38.7794 10.7564C38.772 9.70525 38.7652 8.65268 38.7551 7.6008C38.7537 7.46657 38.7355 7.33303 38.7254 7.19881L38.7227 7.20018V7.20086Z" fill="#7B7B7B"/>
<path d="M35.2712 3.49823C35.1401 3.51604 35.0091 3.54822 34.878 3.54891C33.8442 3.55302 32.8105 3.55096 31.7362 3.55096V7.10449H28.2153V0.00976562H35.2374V0.358338C35.2374 1.28216 35.2361 2.20598 35.2388 3.1298C35.2388 3.25375 35.257 3.37702 35.2665 3.50166L35.2699 3.49892L35.2712 3.49823Z" fill="#7B7B7B"/>
<path d="M17.5994 42.8347V46.4108H7.09561C7.07872 46.3882 7.05305 46.3711 7.05372 46.3533C7.06048 45.1809 7.06926 44.0078 7.07805 42.8354L7.06251 42.8477C10.5786 42.8477 14.0947 42.8477 17.6109 42.8477L17.5994 42.8354V42.8347Z" fill="#7B7B7B"/>
<path d="M28.2241 28.6076C28.2127 28.5179 28.1924 28.4281 28.1917 28.3384C28.1897 26.1183 28.1904 23.8974 28.1917 21.6772C28.1917 21.6094 28.2018 21.5423 28.212 21.4108C29.3876 21.4108 30.5606 21.4108 31.7335 21.4108L31.724 21.4026V28.5685C31.5295 28.5685 31.3855 28.5678 31.2423 28.5685C30.2315 28.5768 29.2207 28.5857 28.2106 28.5939L28.2248 28.6069L28.2241 28.6076Z" fill="#7B7B7B"/>
<path d="M59.8799 67.81C59.8887 66.7855 59.8975 65.761 59.9063 64.7365C59.9076 64.6023 59.9063 64.4687 59.9063 64.2941C60.0725 64.2941 60.2042 64.2941 60.336 64.2941C62.4055 64.2941 64.4751 64.2941 66.5446 64.2928C66.6662 64.2928 66.7872 64.2715 66.9081 64.2592C66.9081 64.2592 66.9 64.2517 66.8993 64.251C66.9189 64.3379 66.9554 64.4249 66.9554 64.5119C66.9595 65.5597 66.9581 66.6074 66.9568 67.6552C66.9568 67.71 66.9453 67.7648 66.9358 67.847C66.8176 67.8545 66.7095 67.8668 66.6014 67.8668C64.4778 67.8682 62.3535 67.8689 60.2299 67.8648C60.1117 67.8648 59.9934 67.8244 59.8745 67.8031L59.8799 67.8093V67.81Z" fill="#7B7B7B"/>
<path d="M56.4167 46.3678C56.3215 46.3897 56.2255 46.4301 56.1302 46.4308C53.9573 46.4342 51.7837 46.4335 49.6108 46.4328C49.5345 46.4328 49.4581 46.4212 49.3608 46.413V42.8745H56.41C56.41 44.0401 56.41 45.2077 56.41 46.3753L56.416 46.3678H56.4167Z" fill="#7B7B7B"/>
<path d="M38.7251 7.19861C38.6095 7.1767 38.494 7.13698 38.3785 7.13629C37.4684 7.13081 36.5576 7.13355 35.6475 7.13355C35.5258 7.13355 35.4042 7.13355 35.2387 7.13355C35.2387 6.89181 35.2367 6.67952 35.2387 6.46791C35.2488 5.47835 35.2596 4.48878 35.2711 3.49854C35.2711 3.49854 35.2677 3.50196 35.2677 3.50127C35.3867 3.51771 35.5056 3.54853 35.6245 3.54921C36.536 3.55332 37.4467 3.55127 38.3582 3.55127C38.4791 3.55127 38.5994 3.55127 38.7568 3.55127C38.7568 4.02927 38.7609 4.47098 38.7562 4.91269C38.7481 5.67557 38.7345 6.43778 38.7237 7.20067L38.7264 7.1993L38.7251 7.19861Z" fill="#7B7B7B"/>
<path d="M70.5171 67.8909H74.0001V71.4225H70.5171V67.8909Z" fill="#7B7B7B"/>
<path d="M70.5162 42.8442C70.5081 43.8934 70.5 44.9418 70.4919 45.991C70.4905 46.1245 70.4919 46.2587 70.4919 46.4128H66.9893V42.8518C68.171 42.8518 69.3473 42.8518 70.525 42.8518L70.5169 42.8442H70.5162Z" fill="#7B7B7B"/>
<path d="M3.45415 42.8129C3.47037 42.9122 3.50077 43.0122 3.50145 43.1115C3.50483 44.1271 3.50415 45.1427 3.5028 46.1583C3.5028 46.2357 3.49402 46.3131 3.48726 46.411H0.00830078V42.8547H0.360994C1.28462 42.8547 2.20757 42.8561 3.13119 42.8533C3.24132 42.8533 3.35145 42.8314 3.46091 42.8191L3.45415 42.8123V42.8129Z" fill="#7B7B7B"/>
<path d="M21.1232 42.8368C19.9489 42.8361 18.7739 42.8354 17.5996 42.8347L17.6111 42.8471C17.6111 41.6568 17.6111 40.4673 17.6111 39.2771L17.6016 39.2867C18.7759 39.2867 19.9502 39.2867 21.1238 39.2867L21.1137 39.2771C21.1137 40.4673 21.1137 41.6568 21.1144 42.8471L21.1232 42.8375V42.8368Z" fill="#7B7B7B"/>
<path d="M56.3984 35.7297V39.2647H52.8823V35.7386C54.0573 35.7386 55.2329 35.7386 56.4099 35.7386L56.3991 35.729L56.3984 35.7297Z" fill="#7B7B7B"/>
<path d="M52.9044 64.2462C52.795 64.2619 52.6855 64.2921 52.5754 64.2921C51.6072 64.2955 50.639 64.2948 49.6707 64.2934C49.5721 64.2934 49.4741 64.2825 49.3579 64.2756V60.7495H52.8646C52.8646 60.881 52.8632 61.0132 52.8646 61.1453C52.8747 62.1815 52.8862 63.2176 52.8977 64.2537L52.9044 64.2469V64.2462Z" fill="#7B7B7B"/>
<path d="M52.8447 32.129H49.3657V28.5933H52.8447V32.129Z" fill="#7B7B7B"/>
<path d="M3.45989 32.183C2.97815 32.1707 2.49708 32.1529 2.01534 32.1481C1.35319 32.1419 0.690374 32.1467 0.00390625 32.1467V28.5925H3.4626C3.47476 28.6473 3.50043 28.711 3.50111 28.774C3.50381 29.8355 3.50381 30.8963 3.50111 31.9577C3.50111 32.0344 3.47138 32.1111 3.45449 32.1885L3.45989 32.183Z" fill="#7B7B7B"/>
<path d="M28.2095 28.5946C29.2203 28.5857 30.231 28.5775 31.2411 28.5693C31.3851 28.5679 31.5283 28.5693 31.7229 28.5693V21.4033H35.2235V24.9521C35.3066 24.9692 35.3579 24.989 35.4086 24.9897C36.4532 24.9918 37.4977 24.9925 38.5423 24.9897C38.6051 24.9897 38.6686 24.9589 38.7315 24.9425L38.7254 24.9356C38.7355 25.7314 38.747 26.5271 38.7551 27.3229C38.7592 27.7208 38.7558 28.118 38.7558 28.5542H35.2451V32.1659C34.4127 32.1598 33.5803 32.1502 32.7479 32.1481C31.3634 32.1454 29.9783 32.1474 28.5939 32.1474H28.2095V28.5946Z" fill="white"/>
<path d="M35.2591 46.3779C35.3773 46.3964 35.4963 46.4306 35.6145 46.4313C36.526 46.4361 37.4374 46.434 38.3482 46.434H38.734V53.5596H31.7437V50.0218H35.2375C35.2375 49.791 35.2361 49.6013 35.2375 49.4123C35.2463 48.3981 35.2564 47.3839 35.2659 46.3704L35.2584 46.3786L35.2591 46.3779Z" fill="white"/>
<path d="M31.7483 60.6956C31.8706 60.7045 31.9929 60.7209 32.1152 60.7209C35.3563 60.7223 38.5981 60.7223 41.8392 60.7223H42.2561V64.2765H31.7159C31.7159 63.9491 31.7125 63.6334 31.7159 63.3177C31.7267 62.4419 31.7409 61.5653 31.7537 60.6887L31.7469 60.6963L31.7483 60.6956Z" fill="white"/>
<path d="M35.2363 32.1558H42.2719V35.7257H38.7673V39.2751H35.2377L35.2471 39.2847C35.2438 36.9084 35.2404 34.5321 35.237 32.1558H35.2363Z" fill="white"/>
<path d="M17.6104 39.277C17.6104 40.4673 17.6104 41.6568 17.6104 42.847C14.0943 42.847 10.5781 42.847 7.06201 42.847V39.2764H17.6104V39.277Z" fill="white"/>
<path d="M35.2371 39.275C35.2371 41.5185 35.2377 43.7626 35.2398 46.0061C35.2398 46.1307 35.2519 46.2547 35.2593 46.3786C35.2593 46.3786 35.2668 46.3704 35.2675 46.3697C35.2168 46.3896 35.1661 46.4272 35.1154 46.4279C34.0019 46.4313 32.8878 46.4307 31.7412 46.4307C31.7324 46.3197 31.7182 46.2225 31.7182 46.1252C31.7169 43.9352 31.7169 41.7444 31.7189 39.5544C31.7189 39.4544 31.7446 39.3544 31.7588 39.2551L31.7507 39.262C32.9162 39.2702 34.081 39.2777 35.2465 39.2859L35.2371 39.2764V39.275Z" fill="white"/>
<path d="M45.7502 67.8074C45.7678 67.8731 45.8002 67.9382 45.8009 68.0039C45.8036 69.0989 45.8029 70.1946 45.8009 71.2897C45.8009 71.3321 45.7813 71.3746 45.7665 71.4328H42.3037V67.8854C42.4253 67.88 42.5463 67.8697 42.6665 67.8697C43.578 67.8683 44.4901 67.8711 45.4016 67.8663C45.5198 67.8663 45.6374 67.8313 45.755 67.8122L45.7502 67.8074Z" fill="white"/>
<path d="M21.1149 42.8463C21.1149 41.6561 21.1149 40.4666 21.1143 39.2764H24.6365V42.8463H21.1149Z" fill="white"/>
<path d="M21.1238 39.2867C19.9495 39.2867 18.7752 39.2867 17.6016 39.2867V35.7079H21.1035L21.0927 35.699C21.1048 36.0845 21.1265 36.4701 21.1285 36.8556C21.1325 37.6658 21.1265 38.4759 21.1238 39.2861V39.2867Z" fill="white"/>
<path d="M21.1026 35.7079C21.1114 34.7176 21.1208 33.7281 21.129 32.7378C21.1303 32.5577 21.129 32.3776 21.129 32.1729H24.6322V35.7004C23.4458 35.7004 22.2695 35.7004 21.0918 35.7004L21.1019 35.7086L21.1026 35.7079Z" fill="white"/>
<path d="M14.1139 32.1824C14.1051 33.1049 14.0963 34.028 14.0889 34.9504C14.0869 35.1888 14.0889 35.4271 14.0889 35.6921H10.5903V32.1475C10.8721 32.1475 11.1498 32.1475 11.4275 32.1475C12.2038 32.1475 12.9808 32.1454 13.7571 32.1495C13.8788 32.1495 13.9997 32.1756 14.1213 32.1893L14.1139 32.1824Z" fill="white"/>
<path d="M31.7585 39.2545C30.6917 39.2648 29.6255 39.2744 28.5586 39.284C28.4491 39.2847 28.339 39.284 28.21 39.284V35.7373H31.7166C31.7166 36.3913 31.7126 37.0268 31.718 37.6616C31.7227 38.1951 31.7382 38.7286 31.7497 39.2614C31.7504 39.2614 31.7585 39.2545 31.7585 39.2545Z" fill="white"/>
<path d="M38.7319 24.9426C38.74 23.9407 38.7481 22.9388 38.7555 21.9369C38.7569 21.7787 38.7555 21.6212 38.7555 21.4404H42.2554V24.9919C41.8426 24.9919 41.4419 24.9919 41.0406 24.9919C40.3886 24.9919 39.7359 24.9946 39.0839 24.9892C38.9643 24.9885 38.8454 24.9542 38.7251 24.9357L38.7312 24.9419L38.7319 24.9426Z" fill="white"/>
<path d="M66.9271 17.8376H56.4146V7.15918H66.9271V17.8376Z" fill="#7B7B7B"/>
<path d="M7.0625 7.15479H17.5859V17.8318H7.0625V7.15479Z" fill="#7B7B7B"/>
<path d="M17.5839 67.8546H7.06396V57.1714H17.5839V67.8546Z" fill="#7B7B7B"/>
</g>
<defs>
<clipPath id="clip0_430_3023">
<rect width="74" height="75" rx="5" fill="white"/>
</clipPath>
</defs>
</svg>
