<svg width="26" height="26" viewBox="0 0 26 26" fill="none" xmlns="http://www.w3.org/2000/svg">
<rect width="25.7857" height="25.7857" rx="4" fill="#FFECF4" fill-opacity="0.4"/>
<path fill-rule="evenodd" clip-rule="evenodd" d="M8.28033 7.21967C7.98744 6.92678 7.51256 6.92678 7.21967 7.21967C6.92678 7.51256 6.92678 7.98744 7.21967 8.28033L11.8322 12.8929L7.21967 17.5054C6.92678 17.7983 6.92678 18.2732 7.21967 18.566C7.51256 18.8589 7.98744 18.8589 8.28033 18.566L12.8929 13.9535L17.5054 18.566C17.7983 18.8589 18.2732 18.8589 18.566 18.566C18.8589 18.2732 18.8589 17.7983 18.566 17.5054L13.9535 12.8929L18.566 8.28033C18.8589 7.98744 18.8589 7.51256 18.566 7.21967C18.2732 6.92678 17.7983 6.92678 17.5054 7.21967L12.8929 11.8322L8.28033 7.21967Z" fill="#CD578A"/>
</svg>
