<svg width="27" height="26" viewBox="0 0 27 26" fill="none" xmlns="http://www.w3.org/2000/svg">
<rect x="0.785645" width="26.0297" height="25.83" rx="4" fill="#E6EDFF" fill-opacity="0.4"/>
<path d="M12.4343 17.4503L11.7448 17.67C11.8443 17.9117 12.0542 18.0998 12.3031 18.1704C12.552 18.241 12.8064 18.1846 12.9799 18.0203L12.4343 17.4503ZM9.18458 14.2557L8.62193 13.7024C8.4523 13.8756 8.39276 14.1334 8.46409 14.386C8.53542 14.6385 8.72772 14.8508 8.97391 14.9488L9.18458 14.2557ZM9.74724 14.8089L14.9675 9.48061L13.8421 8.37414L8.62193 13.7024L9.74724 14.8089ZM17.2553 11.7994L11.8887 16.8803L12.9799 18.0203L18.3465 12.9394L17.2553 11.7994ZM9.18458 14.2557C8.97391 14.9488 8.97378 14.9487 8.97365 14.9487C8.97362 14.9486 8.9735 14.9486 8.97342 14.9486C8.97328 14.9485 8.97315 14.9485 8.97304 14.9484C8.97282 14.9483 8.97267 14.9483 8.97259 14.9482C8.97242 14.9482 8.97252 14.9482 8.97289 14.9483C8.97362 14.9486 8.97541 14.9494 8.97821 14.9505C8.98381 14.9528 8.99344 14.9568 9.00674 14.9625C9.03337 14.9738 9.07455 14.9918 9.12743 15.0161C9.23354 15.0648 9.38478 15.1381 9.559 15.234C9.91557 15.4301 10.3314 15.7002 10.6577 16.021L11.6496 15.0083C11.1632 14.5301 10.5945 14.1708 10.1697 13.9372C9.95326 13.8181 9.76462 13.7265 9.62851 13.664C9.56028 13.6327 9.50476 13.6085 9.46498 13.5915C9.44507 13.583 9.42907 13.5764 9.41733 13.5715C9.41146 13.5691 9.40666 13.5672 9.40297 13.5657C9.40112 13.5649 9.39955 13.5643 9.39826 13.5638C9.39762 13.5635 9.39705 13.5633 9.39655 13.5631C9.3963 13.563 9.39607 13.5629 9.39585 13.5628C9.39574 13.5628 9.3956 13.5627 9.39554 13.5627C9.3954 13.5626 9.39526 13.5626 9.18458 14.2557ZM10.6577 16.021C10.9836 16.3413 11.2576 16.7491 11.4562 17.0981C11.5534 17.2688 11.6277 17.4168 11.677 17.5206C11.7016 17.5723 11.7197 17.6125 11.7311 17.6385C11.7368 17.6514 11.7408 17.6608 11.7431 17.6662C11.7443 17.6688 11.745 17.6705 11.7453 17.6712C11.7454 17.6715 11.7454 17.6716 11.7453 17.6714C11.7453 17.6713 11.7452 17.6712 11.7451 17.6709C11.7451 17.6708 11.745 17.6707 11.745 17.6705C11.7449 17.6705 11.7449 17.6703 11.7449 17.6703C11.7448 17.6702 11.7448 17.67 12.4343 17.4503C13.1239 17.2306 13.1238 17.2305 13.1237 17.2303C13.1237 17.2303 13.1237 17.2301 13.1236 17.23C13.1235 17.2298 13.1234 17.2296 13.1233 17.2293C13.1231 17.2288 13.1229 17.2282 13.1226 17.2276C13.1221 17.2263 13.1214 17.2247 13.1206 17.2229C13.1191 17.2192 13.1171 17.2144 13.1146 17.2086C13.1097 17.1969 13.1028 17.1811 13.0941 17.1614C13.0768 17.122 13.052 17.0672 13.02 16.9998C12.9562 16.8655 12.8627 16.6794 12.7412 16.466C12.5027 16.047 12.1364 15.4868 11.6496 15.0083L10.6577 16.021ZM18.3465 12.9394C19.5296 11.8192 19.4381 9.83625 18.1447 8.56472L17.1528 9.57741C17.8097 10.2232 17.8562 11.2304 17.2553 11.7994L18.3465 12.9394ZM14.9675 9.48061C15.5329 8.90345 16.5113 8.94678 17.1528 9.57741L18.1447 8.56472C16.8817 7.32312 14.9554 7.2378 13.8421 8.37414L14.9675 9.48061Z" fill="#3052A1"/>
<path d="M12.4314 17.4562L12.6894 18.184C12.8826 18.1343 13.0382 18.0047 13.1198 17.8257C13.2014 17.6467 13.2019 17.4339 13.1211 17.2371L12.4314 17.4562ZM9.18458 14.2586L9.39589 13.5657C9.20106 13.488 8.99136 13.4897 8.81472 13.5703C8.63807 13.651 8.50957 13.8038 8.4586 13.9938L9.18458 14.2586ZM12.1733 16.7284L8.65937 17.6329L9.17547 19.0885L12.6894 18.184L12.1733 16.7284ZM8.98738 17.9638L9.91056 14.5234L8.4586 13.9938L7.53542 17.4341L8.98738 17.9638ZM9.18458 14.2586C8.97326 14.9515 8.97313 14.9514 8.97301 14.9514C8.97297 14.9514 8.97285 14.9513 8.97278 14.9513C8.97263 14.9512 8.97251 14.9512 8.9724 14.9512C8.97218 14.9511 8.97203 14.951 8.97194 14.951C8.97177 14.9509 8.97187 14.9509 8.97224 14.9511C8.97297 14.9514 8.97476 14.9521 8.97756 14.9533C8.98316 14.9556 8.99279 14.9596 9.00608 14.9653C9.0327 14.9766 9.07386 14.9946 9.12672 15.0189C9.23279 15.0678 9.38396 15.1412 9.55809 15.2372C9.91448 15.4337 10.3301 15.7042 10.6561 16.0253L11.6489 15.0135C11.1629 14.5349 10.5946 14.175 10.17 13.941C9.95366 13.8218 9.7651 13.73 9.62905 13.6674C9.56085 13.636 9.50535 13.6117 9.46558 13.5947C9.44569 13.5862 9.42969 13.5795 9.41796 13.5747C9.41209 13.5723 9.40729 13.5703 9.4036 13.5688C9.40175 13.5681 9.40018 13.5674 9.3989 13.5669C9.39825 13.5667 9.39768 13.5664 9.39718 13.5662C9.39693 13.5661 9.3967 13.566 9.39648 13.566C9.39638 13.5659 9.39623 13.5658 9.39617 13.5658C9.39603 13.5658 9.39589 13.5657 9.18458 14.2586ZM10.6561 16.0253C10.9816 16.3459 11.2553 16.7539 11.4536 17.1031C11.5506 17.2738 11.6248 17.422 11.674 17.5258C11.6985 17.5775 11.7166 17.6178 11.728 17.6437C11.7337 17.6567 11.7377 17.666 11.74 17.6714C11.7411 17.6741 11.7418 17.6758 11.7421 17.6765C11.7422 17.6768 11.7423 17.6769 11.7422 17.6767C11.7422 17.6766 11.7421 17.6764 11.742 17.6762C11.7419 17.6761 11.7419 17.6759 11.7418 17.6758C11.7418 17.6757 11.7417 17.6756 11.7417 17.6756C11.7417 17.6754 11.7416 17.6753 12.4314 17.4562C13.1211 17.2371 13.1211 17.237 13.121 17.2368C13.121 17.2368 13.1209 17.2366 13.1209 17.2365C13.1208 17.2363 13.1207 17.2361 13.1206 17.2358C13.1204 17.2353 13.1201 17.2347 13.1199 17.2341C13.1193 17.2328 13.1187 17.2312 13.1179 17.2294C13.1164 17.2257 13.1144 17.2209 13.1119 17.2151C13.1069 17.2034 13.1001 17.1876 13.0915 17.1679C13.0742 17.1285 13.0494 17.0736 13.0175 17.0062C12.9538 16.8718 12.8605 16.6857 12.7392 16.4722C12.5011 16.0529 12.1353 15.4925 11.6489 15.0135L10.6561 16.0253ZM8.65937 17.6329C8.84867 17.5842 9.038 17.7752 8.98738 17.9638L7.53542 17.4341C7.28236 18.3772 8.22899 19.3321 9.17547 19.0885L8.65937 17.6329Z" fill="#3052A1"/>
</svg>
