<svg width="12" height="12" viewBox="0 0 12 12" fill="none" xmlns="http://www.w3.org/2000/svg">
<path d="M10.711 7.17871C10.3621 8.16758 9.72817 9.03102 8.88926 9.66021C8.05035 10.2894 7.04396 10.6562 5.99693 10.7143C5.02906 10.7145 4.08459 10.4167 3.29181 9.86148C2.49903 9.30626 1.89636 8.52046 1.56567 7.61084" stroke="#3052A1" stroke-linecap="round" stroke-linejoin="round"/>
<path d="M1.28296 4.82171C1.94293 3.01464 3.97 1.28613 5.99706 1.28613C6.96965 1.28887 7.91758 1.59236 8.71091 2.155C9.50424 2.71765 10.1041 3.5119 10.4283 4.42887" stroke="#3052A1" stroke-linecap="round" stroke-linejoin="round"/>
<path d="M10.7718 9.01362C10.8289 9.28378 11.0943 9.45647 11.3644 9.39934C11.6346 9.3422 11.8073 9.07686 11.7502 8.8067L10.7718 9.01362ZM10.7122 7.18146L11.1705 6.98172C11.076 6.76489 10.8425 6.64393 10.6109 6.69182L10.7122 7.18146ZM8.7858 7.27102C8.53215 7.38018 8.41502 7.6743 8.52419 7.92795C8.63335 8.1816 8.92747 8.29873 9.18112 8.18956L8.7858 7.27102ZM11.7502 8.8067C11.593 8.06347 11.4627 7.65212 11.1705 6.98172L10.2538 7.3812C10.5177 7.98688 10.628 8.33346 10.7718 9.01362L11.7502 8.8067ZM9.18112 8.18956C9.81969 7.91474 10.1664 7.80487 10.8134 7.6711L10.6109 6.69182C9.89477 6.83988 9.48359 6.97071 8.7858 7.27102L9.18112 8.18956Z" fill="#3052A1"/>
<path d="M1.36537 2.99552C1.32838 2.72187 1.07655 2.53001 0.802894 2.56701C0.52924 2.604 0.337388 2.85583 0.37438 3.12948L1.36537 2.99552ZM1.28929 4.82707L0.817392 4.99235C0.895577 5.21557 1.11948 5.35348 1.35401 5.32286L1.28929 4.82707ZM3.21698 4.88029C3.47802 4.7902 3.61659 4.50556 3.52649 4.24452C3.4364 3.98349 3.15175 3.84492 2.89072 3.93502L3.21698 4.88029ZM0.37438 3.12948C0.476143 3.8823 0.575656 4.30216 0.817392 4.99235L1.76118 4.66179C1.54278 4.03824 1.45849 3.68446 1.36537 2.99552L0.37438 3.12948ZM2.89072 3.93502C2.23356 4.16184 1.87969 4.24575 1.22456 4.33127L1.35401 5.32286C2.07915 5.22819 2.49889 5.12815 3.21698 4.88029L2.89072 3.93502Z" fill="#3052A1"/>
</svg>
