<svg width="167" height="99" viewBox="0 0 167 99" fill="none" xmlns="http://www.w3.org/2000/svg">
<g clip-path="url(#clip0_559_16670)">
<path d="M1.29199 88.7502V98.7272H15.9462H32.1076V88.7502H1.29199Z" fill="#E9F0FE"/>
<path d="M0 85.9607V88.7503H33.1842V85.9607H15.9461H0Z" fill="#F5F8FF"/>
<path d="M16.592 98.7273H32.1075V88.7503H33.1841V85.9607H15.946V88.4921L16.592 98.7273Z" fill="#F5F8FF"/>
<path d="M11.8525 90.3584H5.60327V91.8592H11.8525V90.3584Z" fill="#F5F8FF"/>
<path d="M12.8216 93.7375H4.79834V96.9097H12.8216V93.7375Z" fill="white"/>
<path d="M6.03394 75.9956V85.9726H20.6857H36.8471V75.9956H6.03394Z" fill="#E9F0FE"/>
<path d="M4.7395 73.2061V75.9957H37.9261V73.2061H20.6856H4.7395Z" fill="#F5F8FF"/>
<path d="M21.334 85.9727H36.847V75.9957H37.9261V73.2061H20.6855V75.7375L21.334 85.9727Z" fill="#F5F8FF"/>
<path d="M16.592 77.6062H10.3428V79.107H16.592V77.6062Z" fill="#F5F8FF"/>
<path d="M17.5611 80.9854H9.53784V84.1575H17.5611V80.9854Z" fill="white"/>
<path d="M24.9822 0H2.16772V32.9277H24.9822V0Z" fill="#F5F8FF"/>
<path d="M23.8401 0H1.02563V32.9277H23.8401V0Z" fill="#E9F0FE"/>
<path d="M21.0037 3.56689H3.85864V29.3609H21.0037V3.56689Z" fill="white"/>
<path d="M21.0036 29.3608C21.0036 29.3608 21.0036 29.3169 21.0012 29.2341C21.0012 29.1488 21.0012 29.027 20.9987 28.8686C20.9987 28.5446 20.9938 28.0695 20.9914 27.4531C20.9889 26.2178 20.9816 24.4149 20.9767 22.1393C20.9694 17.5906 20.9596 11.1512 20.9498 3.56433L21.0061 3.62036C15.7674 3.62036 9.96342 3.6228 3.86342 3.62524L3.92459 3.56433C3.9197 13.2952 3.91481 22.266 3.91236 29.3583L3.86342 29.3096C9.085 29.3193 13.3645 29.3291 16.3424 29.3364C17.8325 29.3413 18.9947 29.3461 19.79 29.3486C20.1839 29.3486 20.4873 29.3534 20.6953 29.3534C20.9008 29.3534 21.0085 29.3583 21.0085 29.3583C21.0085 29.3583 20.9082 29.3608 20.7051 29.3632C20.4996 29.3632 20.201 29.3656 19.8095 29.3681C19.0168 29.3705 17.857 29.3754 16.3717 29.3802C13.3866 29.3876 9.09479 29.3949 3.86098 29.407H3.81204V29.3583C3.80959 22.266 3.8047 13.2952 3.7998 3.56433V3.50342H3.86098C9.96097 3.50342 15.7649 3.50585 21.0036 3.50829H21.0599V3.56433C21.0477 11.1634 21.0379 17.6174 21.033 22.1759C21.0256 24.4466 21.0207 26.2422 21.0183 27.4774C21.0158 28.089 21.0134 28.5592 21.011 28.8808C21.011 29.0367 21.0085 29.1561 21.0085 29.2414C21.0085 29.3218 21.0061 29.3608 21.0061 29.3608H21.0036Z" fill="#F5F8FF"/>
<path d="M23.9033 -0.000155068C23.9155 0.00959047 23.7614 0.236174 23.4971 0.587013C23.2328 0.940289 22.856 1.42026 22.4278 1.93921C21.9972 2.45816 21.5984 2.91863 21.2998 3.24511C21.0013 3.57158 20.8105 3.76649 20.7982 3.75431C20.786 3.74213 20.9548 3.52773 21.2338 3.18663C21.5396 2.8163 21.9164 2.36314 22.3324 1.85881C22.7484 1.35691 23.1252 0.901307 23.4286 0.530977C23.71 0.194756 23.8886 -0.0099006 23.9033 -0.000155068Z" fill="#F5F8FF"/>
<path d="M21.092 29.2783C21.9435 30.6256 22.9492 31.8779 24.0821 33.0011L21.092 29.2783Z" fill="white"/>
<path d="M24.0818 33.0009C24.0818 33.0009 23.8664 32.8353 23.5606 32.5283C23.2547 32.2213 22.8486 31.7779 22.4326 31.2614C22.0166 30.7448 21.6741 30.2527 21.4392 29.8872C21.2043 29.5218 21.077 29.2855 21.0917 29.2781C21.1064 29.2684 21.2606 29.4877 21.5126 29.8385C21.7646 30.1894 22.117 30.6718 22.5305 31.1858C22.944 31.6999 23.3355 32.1482 23.6267 32.4698C23.9154 32.7914 24.0965 32.9888 24.0842 33.0009H24.0818Z" fill="#F5F8FF"/>
<path d="M1.02026 32.9016C2.01613 31.6785 3.012 30.453 4.00787 29.23L1.02026 32.9016Z" fill="white"/>
<path d="M4.01063 29.2294C4.03755 29.2514 3.38913 30.0895 2.56454 31.103C1.73995 32.1166 1.04994 32.9206 1.02303 32.8986C0.99611 32.8767 1.64453 32.0386 2.46911 31.0251C3.2937 30.0115 3.98371 29.2075 4.01063 29.2294Z" fill="#F5F8FF"/>
<path d="M1.02528 -3.40826e-05C1.05219 -0.0219615 1.70061 0.752809 2.47626 1.72736C3.24947 2.70192 3.85629 3.50836 3.82937 3.53029C3.80245 3.55221 3.15404 2.77744 2.37839 1.80289C1.60274 0.828336 0.998364 0.0218934 1.02528 -3.40826e-05Z" fill="#F5F8FF"/>
<path d="M15.6622 8.80273H9.92188V25.0339H15.6622V8.80273Z" fill="#F5F8FF"/>
<path d="M148.073 95.2384C147.533 94.7779 146.331 93.3185 147.259 91.6204C147.599 90.9967 148.321 90.6897 148.976 90.4168C149.63 90.1415 150.317 89.9052 150.86 89.4447C151.881 88.5798 152.162 87.1423 152.84 85.9899C153.618 84.6645 155.069 83.6729 156.603 83.7435C158.36 83.8239 159.826 85.2517 160.489 86.8816C161.152 88.5115 161.176 90.3193 161.191 92.0784C161.198 93.0505 161.154 94.1469 160.437 94.8047C159.777 95.4114 158.781 95.4187 157.885 95.3895C154.685 95.292 151.484 95.1945 148.284 95.0947" fill="#E9F0FE"/>
<path d="M166.437 68.9521H141.188L145.737 95.9546C145.935 97.1338 146.791 98.0426 147.892 98.3593C147.922 98.369 147.951 98.3739 147.98 98.3837C148.056 98.4031 148.127 98.4275 148.206 98.4421C148.372 98.4762 148.543 98.4933 148.719 98.5006C148.719 98.5079 148.722 98.5177 148.724 98.5274L148.847 98.5079H160.1C160.313 98.5079 160.518 98.486 160.719 98.447C162.047 98.2423 163.112 97.1801 163.273 95.8084L165.466 77.2017L165.564 76.4611H165.551L166.42 69.0935L166.437 68.9546V68.9521ZM161.673 86.1774H159.082L159.344 78.3395H162.346L161.673 86.1774ZM162.598 78.3395H165.079L164.157 86.1774H161.927L162.6 78.3395H162.598ZM155.196 94.8631L155.04 88.0558H158.771L158.543 94.8631H155.196ZM151.161 88.0558H154.788L154.944 94.8631H151.692L151.161 88.0558ZM151.44 94.8631H148.401C148.113 93.026 147.736 90.636 147.33 88.0558H150.909L151.44 94.8631ZM151.015 86.1749L150.403 78.3371H154.562L154.744 86.1749H151.015ZM154.993 86.1749L154.812 78.3371H159.092L158.83 86.1749H154.993ZM154.768 76.4586L154.599 69.2007H159.395L159.153 76.4586H154.766H154.768ZM154.518 76.4586H150.256L149.691 69.2007H154.352L154.521 76.4586H154.518ZM150.004 76.4586H145.494C145.335 75.4573 145.184 74.5071 145.047 73.6544C144.577 70.721 144.398 69.6173 144.3 69.2007H149.436L150.004 76.4586ZM150.151 78.3371L150.763 86.1749H147.034C146.909 85.3807 146.781 84.5742 146.654 83.7702C146.363 81.921 146.069 80.0718 145.793 78.3371H150.151ZM146.779 86.1749H144.342L143.021 78.3371H145.536C145.92 80.7589 146.346 83.4535 146.777 86.1749H146.779ZM147.075 88.0534C147.447 90.4094 147.812 92.7312 148.147 94.8606H145.805L144.658 88.0534H147.075ZM158.791 94.8606L159.018 88.0534H161.512L160.927 94.8606H158.791ZM159.405 76.4562L159.647 69.1982H163.129L162.507 76.4562H159.407H159.405ZM144.061 69.1982C144.161 69.722 144.621 72.5799 145.24 76.4562H142.705L141.482 69.1982H144.061ZM163.129 94.8606H161.179L161.764 88.0534H163.934L163.131 94.8606H163.129ZM165.297 76.4562H162.757L163.378 69.1982H166.151L165.294 76.4562H165.297Z" fill="#F5F8FF"/>
<path d="M167 1.7666V23.8743H135.108L133.958 1.92009L167 1.7666Z" fill="#F5F8FF"/>
<path d="M133.958 1.91968V23.8276L165.85 23.8276V1.91968L133.958 1.91968Z" fill="white"/>
<path d="M166.002 23.9791H133.809V1.76904H166.002V23.9791ZM134.11 23.677H165.698V2.07115H134.11V23.677Z" fill="#F5F8FF"/>
<path d="M162.395 4.6416H137.413V21.1067H162.395V4.6416Z" fill="white"/>
<path d="M162.395 4.64147C162.395 4.64147 162.351 4.6439 162.273 4.64634C162.187 4.64634 162.07 4.64634 161.918 4.65121C161.602 4.65121 161.142 4.65608 160.545 4.66096C159.346 4.66583 157.599 4.67314 155.397 4.68045C150.99 4.69019 144.756 4.70238 137.413 4.71699L137.486 4.6439C137.486 9.67503 137.491 15.247 137.494 21.1065L137.415 21.031C146.84 21.0359 155.529 21.0432 162.398 21.0481L162.334 21.1114C162.349 16.1022 162.358 11.992 162.366 9.13172C162.373 7.70156 162.378 6.5857 162.383 5.81824C162.385 5.4406 162.388 5.15067 162.39 4.94845C162.39 4.7511 162.398 4.64634 162.398 4.64634C162.398 4.64634 162.402 4.74136 162.405 4.93627C162.405 5.13605 162.41 5.42111 162.412 5.79388C162.417 6.55646 162.422 7.66989 162.429 9.09274C162.437 11.9628 162.449 16.0852 162.461 21.1114V21.1748H162.398C155.527 21.1796 146.838 21.1845 137.415 21.1918H137.337V21.1139C137.337 15.2544 137.342 9.67991 137.344 4.64877V4.57568H137.418C144.78 4.5903 151.032 4.60248 155.448 4.61223C157.646 4.61954 159.385 4.62685 160.58 4.63172C161.169 4.63659 161.624 4.63903 161.938 4.64147C162.087 4.64147 162.202 4.6439 162.285 4.64634C162.363 4.64634 162.4 4.65121 162.4 4.65121L162.395 4.64147Z" fill="#F5F8FF"/>
<path d="M133.958 1.85934C133.97 1.84229 134.18 1.97872 134.506 2.21262C134.831 2.44651 135.277 2.78029 135.756 3.16281C136.236 3.54532 136.659 3.9059 136.955 4.17878C137.251 4.44922 137.425 4.62707 137.413 4.64413C137.383 4.67824 136.617 4.04721 135.658 3.28706C134.699 2.52691 133.931 1.89832 133.958 1.86178V1.85934Z" fill="#F5F8FF"/>
<path d="M165.85 1.91988C165.877 1.95399 165.126 2.58989 164.172 3.34273C163.217 4.09557 162.422 4.67543 162.395 4.64132C162.368 4.60721 163.119 3.97132 164.074 3.21847C165.028 2.46807 165.823 1.88577 165.85 1.91988Z" fill="#F5F8FF"/>
<path d="M165.826 23.8305L162.271 20.9604L165.826 23.8305Z" fill="white"/>
<path d="M162.27 20.9633C162.297 20.9292 163.117 21.5456 164.098 22.3374C165.079 23.1292 165.855 23.7992 165.825 23.8333C165.799 23.8674 164.979 23.251 163.998 22.4592C163.017 21.6674 162.243 20.9974 162.27 20.9633Z" fill="#F5F8FF"/>
<path d="M133.958 23.8279C133.931 23.7938 134.675 23.1628 135.619 22.4197C136.564 21.6766 137.352 21.1016 137.378 21.1357C137.405 21.1698 136.662 21.8009 135.717 22.5439C134.773 23.287 133.985 23.862 133.958 23.8279Z" fill="#F5F8FF"/>
<path d="M142.485 9.77015V15.2837L158.206 15.2837V9.77015H142.485Z" fill="#F5F8FF"/>
<path d="M166.437 98.7272C166.437 98.7613 129.656 98.7905 84.2941 98.7905C38.9319 98.7905 2.14355 98.7613 2.14355 98.7272C2.14355 98.6931 38.9173 98.6638 84.2941 98.6638C129.671 98.6638 166.437 98.6931 166.437 98.7272Z" fill="#263238"/>
<path d="M22.3497 13.5537H146.838C147.748 13.5537 148.487 14.2895 148.487 15.1958V94.3101C148.487 96.2689 146.889 97.8599 144.922 97.8599H24.0184C22.0512 97.8599 20.4534 96.2689 20.4534 94.3101V15.4443C20.4534 14.4016 21.3024 13.5561 22.3497 13.5561V13.5537Z" fill="#455A64"/>
<path d="M15.0996 91.6252H153.814V95.6575C153.814 97.5018 152.309 99.0002 150.457 99.0002H18.4567C16.6044 99.0002 15.0996 97.5018 15.0996 95.6575V91.6252Z" fill="#455A64"/>
<path d="M144.69 16.9038H23.8887V88.0974H144.69V16.9038Z" fill="#F5F8FF"/>
<path d="M71.8469 91.6252L73.5695 94.3516H97.7909L99.3887 91.6252H71.8469Z" fill="#263238"/>
<path d="M148.507 91.5984H20.4729V92.0053H148.507V91.5984Z" fill="#263238"/>
<path d="M58.0931 13.5535H44.792V8.89031C44.792 5.59875 47.4713 2.81396 50.777 2.81396L58.0931 2.93091V13.5535Z" fill="#9DB1DE"/>
<path d="M50.4932 2.80688C50.4932 2.80688 58.0637 2.12225 58.0637 11.9531V88.4214H117.473V9.16584C117.473 5.57217 114.544 2.66313 110.935 2.67288L50.4956 2.80931L50.4932 2.80688Z" fill="white"/>
<path d="M50.4932 2.80689C50.8455 2.80689 67.3031 2.75329 94.446 2.66558C97.8349 2.65584 101.388 2.64609 105.087 2.63391C106.937 2.62904 108.826 2.62417 110.749 2.61929C111.713 2.60711 112.707 2.76791 113.607 3.17966C114.51 3.58166 115.327 4.18832 115.978 4.95091C116.629 5.71594 117.094 6.64176 117.336 7.63093C117.412 7.87457 117.429 8.13039 117.473 8.38378C117.51 8.63716 117.505 8.89542 117.525 9.15124C117.525 9.66044 117.525 10.1721 117.525 10.6862C117.525 12.74 117.525 14.8256 117.525 16.9404C117.525 21.1724 117.525 25.5286 117.527 29.9969C117.527 47.8654 117.53 67.5099 117.532 88.129V88.4872H117.468C96.3276 88.4872 76.2194 88.4848 58.0589 88.4823H58.0001V88.4238C58.0099 61.9477 58.0173 39.4672 58.0222 23.6039C58.0246 19.6374 58.027 16.0876 58.0295 12.9885C58.0295 12.2138 58.0393 11.4682 57.9854 10.7544C57.9487 10.0381 57.8313 9.36076 57.7016 8.71756C57.5499 8.07923 57.3591 7.47988 57.1193 6.93169C56.8721 6.38838 56.5858 5.89623 56.2653 5.46499C55.6144 4.60982 54.8486 4.0129 54.1219 3.63283C53.3952 3.24544 52.7198 3.05784 52.1742 2.94577C51.6261 2.83857 51.2003 2.80933 50.9165 2.80446C50.6327 2.79715 50.4859 2.80689 50.4859 2.80689C50.4859 2.80689 50.6302 2.78984 50.9165 2.79471C51.2003 2.79715 51.6285 2.82395 52.1791 2.92871C52.7272 3.03835 53.4049 3.22352 54.1366 3.60846C54.8682 3.9861 55.6414 4.58302 56.2971 5.44306C56.6201 5.87674 56.9088 6.36889 57.1584 6.91464C57.3982 7.46526 57.594 8.06461 57.7457 8.70781C57.8778 9.35346 57.9977 10.0332 58.0344 10.7519C58.0882 11.4682 58.0809 12.2162 58.0809 12.9885C58.0809 16.0852 58.0858 19.6374 58.0882 23.6039C58.0931 39.4672 58.1029 61.9477 58.1102 88.4238L58.0515 88.3654C76.2096 88.3654 96.3203 88.3629 117.461 88.3605L117.397 88.4238V88.129C117.397 67.5099 117.4 47.8654 117.402 29.9969C117.402 25.5286 117.402 21.1748 117.405 16.9404C117.405 14.8231 117.405 12.7376 117.405 10.6862C117.39 9.66044 117.478 8.63229 117.219 7.66017C116.981 6.68805 116.524 5.77441 115.885 5.024C115.244 4.2736 114.439 3.67668 113.551 3.27955C112.665 2.87268 111.694 2.71675 110.737 2.72649C108.811 2.72893 106.92 2.7338 105.065 2.73624C101.358 2.74355 97.7982 2.74842 94.4019 2.75329C67.2786 2.7874 50.8309 2.80933 50.481 2.80933L50.4932 2.80689Z" fill="#263238"/>
<path d="M83.4915 26.0135C83.4915 26.0476 79.8799 26.0769 75.4242 26.0769C70.9685 26.0769 67.3545 26.0476 67.3545 26.0135C67.3545 25.9794 70.966 25.9502 75.4242 25.9502C79.8824 25.9502 83.4915 25.9794 83.4915 26.0135Z" fill="#263238"/>
<path d="M87.1079 27.9335C87.1079 27.9676 82.6865 27.9968 77.23 27.9968C71.7735 27.9968 67.3521 27.9676 67.3521 27.9335C67.3521 27.8994 71.7735 27.8701 77.23 27.8701C82.6865 27.8701 87.1079 27.8994 87.1079 27.9335Z" fill="#263238"/>
<path d="M88.4048 35.4984C88.4048 35.5325 83.8389 35.5618 78.2063 35.5618C72.5736 35.5618 68.0078 35.5325 68.0078 35.4984C68.0078 35.4643 72.5736 35.4351 78.2063 35.4351C83.8389 35.4351 88.4048 35.4643 88.4048 35.4984Z" fill="#263238"/>
<path d="M101.73 42.871C101.73 42.9051 94.096 42.9343 84.6805 42.9343C75.265 42.9343 67.6284 42.9051 67.6284 42.871C67.6284 42.8369 75.2601 42.8076 84.6805 42.8076C94.1009 42.8076 101.73 42.8369 101.73 42.871Z" fill="#263238"/>
<path d="M101.73 45.0685C101.73 45.1026 94.096 45.1318 84.6805 45.1318C75.265 45.1318 67.6284 45.1026 67.6284 45.0685C67.6284 45.0344 75.2601 45.0051 84.6805 45.0051C94.1009 45.0051 101.73 45.0344 101.73 45.0685Z" fill="#263238"/>
<path d="M101.73 47.2684C101.73 47.3025 94.096 47.3318 84.6805 47.3318C75.265 47.3318 67.6284 47.3025 67.6284 47.2684C67.6284 47.2343 75.2601 47.2051 84.6805 47.2051C94.1009 47.2051 101.73 47.2343 101.73 47.2684Z" fill="#263238"/>
<path d="M101.73 49.4686C101.73 49.5027 94.096 49.532 84.6805 49.532C75.265 49.532 67.6284 49.5027 67.6284 49.4686C67.6284 49.4345 75.2601 49.4053 84.6805 49.4053C94.1009 49.4053 101.73 49.4345 101.73 49.4686Z" fill="#263238"/>
<path d="M101.73 51.6686C101.73 51.7027 94.096 51.7319 84.6805 51.7319C75.265 51.7319 67.6284 51.7027 67.6284 51.6686C67.6284 51.6345 75.2601 51.6052 84.6805 51.6052C94.1009 51.6052 101.73 51.6345 101.73 51.6686Z" fill="#263238"/>
<path d="M80.56 53.8685C80.56 53.9026 77.6654 53.9319 74.0954 53.9319C70.5255 53.9319 67.6284 53.9026 67.6284 53.8685C67.6284 53.8344 70.523 53.8052 74.0954 53.8052C77.6678 53.8052 80.56 53.8344 80.56 53.8685Z" fill="#263238"/>
<path d="M107.825 42.5615L101.759 56.5975C101.632 56.8948 101.935 57.192 102.232 57.0629L106.907 55.0066C107.101 54.9213 107.323 55.0212 107.389 55.2185L108.968 59.9329C109.073 60.2497 109.521 60.2594 109.641 59.9451L115.342 44.8054L107.827 42.5591L107.825 42.5615Z" fill="#3052A1"/>
<path d="M115.731 44.898L118.638 59.9012C118.699 60.218 119.117 60.2959 119.291 60.0231L121.997 55.7058C122.107 55.5279 122.35 55.4841 122.516 55.6108L126.482 58.627C126.749 58.8292 127.123 58.5856 127.045 58.2616L123.213 42.5493L115.731 44.898Z" fill="#3052A1"/>
<g opacity="0.3">
<path d="M107.825 42.4409L101.759 56.4769C101.632 56.7742 101.935 57.0714 102.232 56.9423L106.907 54.886C107.101 54.8007 107.323 54.9006 107.389 55.0979L108.968 59.8123C109.073 60.1291 109.521 60.1388 109.641 59.8245L115.342 44.6848L107.827 42.4385L107.825 42.4409Z" fill="#9DB1DE"/>
</g>
<g opacity="0.3">
<path d="M115.731 44.7774L118.638 59.7806C118.699 60.0974 119.117 60.1753 119.291 59.9025L121.997 55.5852C122.107 55.4073 122.35 55.3635 122.516 55.4902L126.482 58.5064C126.749 58.7086 127.123 58.465 127.045 58.1409L123.213 42.4287L115.731 44.7774Z" fill="#9DB1DE"/>
</g>
<path d="M116.027 17.9589L118.016 16.502L119.582 18.4072L121.875 17.4887L122.915 19.7204L125.367 19.3988L125.814 21.8181L128.269 22.1129L128.1 24.5688L130.405 25.463L129.627 27.797L131.635 29.2345L130.299 31.3054L131.885 33.1912L130.074 34.8674L131.139 37.087L128.966 38.2613L129.443 40.6757L127.045 41.2751L126.903 43.731L124.432 43.7188L123.681 46.0626L121.29 45.4389L119.979 47.5244L117.818 46.3257L116.027 48.0214L114.233 46.3257L112.075 47.5244L110.761 45.4389L108.371 46.0626L107.62 43.7188L105.148 43.731L105.006 41.2751L102.611 40.6757L103.086 38.2613L100.913 37.087L101.98 34.8674L100.167 33.1912L101.755 31.3054L100.419 29.2345L102.425 27.797L101.649 25.463L103.952 24.5688L103.783 22.1129L106.237 21.8181L106.687 19.3988L109.137 19.7204L110.177 17.4887L112.469 18.4072L114.035 16.502L116.027 17.9589Z" fill="#3052A1"/>
<path d="M123.943 40.141C128.314 35.788 128.314 28.7305 123.943 24.3775C119.571 20.0246 112.483 20.0246 108.111 24.3775C103.74 28.7305 103.74 35.788 108.111 40.141C112.483 44.494 119.571 44.494 123.943 40.141Z" fill="white"/>
<path d="M118.469 29.6216L121.474 30.0602C121.968 30.1333 122.164 30.7375 121.806 31.0835L119.631 33.1909C119.489 33.3274 119.423 33.5272 119.457 33.7221L119.966 36.7018C120.05 37.1915 119.533 37.5643 119.093 37.3328L116.406 35.9221C116.23 35.8296 116.022 35.8296 115.846 35.9221L113.157 37.3255C112.714 37.5569 112.2 37.1817 112.283 36.692L112.8 33.7123C112.834 33.5174 112.768 33.3201 112.628 33.1812L110.456 31.0689C110.098 30.7229 110.296 30.1187 110.791 30.048L113.795 29.6168C113.991 29.5875 114.16 29.4657 114.248 29.2903L115.594 26.581C115.814 26.1352 116.453 26.1376 116.673 26.581L118.014 29.2927C118.102 29.4706 118.271 29.5924 118.467 29.6216H118.469Z" fill="#F8C073"/>
<path d="M106.724 63.1537C106.724 63.1878 103.338 63.217 99.1633 63.217C94.989 63.217 91.6025 63.1878 91.6025 63.1537C91.6025 63.1196 94.9865 63.0903 99.1633 63.0903C103.34 63.0903 106.724 63.1196 106.724 63.1537Z" fill="#263238"/>
<path d="M106.724 65.2782C106.724 65.3123 103.338 65.3415 99.1633 65.3415C94.989 65.3415 91.6025 65.3123 91.6025 65.2782C91.6025 65.2441 94.9865 65.2148 99.1633 65.2148C103.34 65.2148 106.724 65.2441 106.724 65.2782Z" fill="#263238"/>
<path d="M105.719 74.5096C105.719 74.5096 105.711 74.473 105.707 74.4048C105.702 74.3293 105.694 74.227 105.685 74.0954C105.68 74.0272 105.675 73.9516 105.67 73.8664C105.66 73.7835 105.643 73.6934 105.628 73.5935C105.596 73.3961 105.567 73.1696 105.491 72.921C105.374 72.4167 105.136 71.8222 104.762 71.1937C104.385 70.5675 103.842 69.9121 103.103 69.3566C102.367 68.806 101.437 68.3382 100.365 68.1482C99.3007 67.9654 98.0968 67.9996 96.9517 68.4332C96.6605 68.5258 96.3865 68.6696 96.1051 68.8036C95.8384 68.9644 95.557 69.113 95.3099 69.3128C95.0456 69.4931 94.8156 69.7196 94.5734 69.9365C94.3556 70.1777 94.1256 70.414 93.9372 70.6869C93.5506 71.2205 93.2129 71.8149 93.0098 72.4679C92.7994 73.116 92.6844 73.8055 92.6746 74.5071C92.6844 75.2088 92.7969 75.8983 93.0098 76.5488C93.2129 77.2018 93.5506 77.7963 93.9372 78.3298C94.1256 78.6027 94.3556 78.839 94.5734 79.0802C94.8156 79.2971 95.0456 79.5237 95.3099 79.7039C95.5594 79.9062 95.8384 80.0523 96.1051 80.2131C96.3865 80.3471 96.6605 80.4909 96.9517 80.5835C98.0968 81.0172 99.3007 81.0488 100.365 80.8685C101.437 80.6785 102.367 80.2107 103.106 79.6601C103.844 79.1046 104.388 78.4492 104.764 77.8231C105.139 77.192 105.376 76.5975 105.494 76.0957C105.57 75.8471 105.599 75.6206 105.631 75.4232C105.645 75.3258 105.665 75.2356 105.672 75.1503C105.677 75.0675 105.682 74.992 105.687 74.9213C105.697 74.7898 105.704 74.6874 105.709 74.6119C105.714 74.5412 105.719 74.5071 105.721 74.5071C105.724 74.5071 105.724 74.5437 105.721 74.6119C105.721 74.6874 105.716 74.7898 105.711 74.9238C105.709 74.992 105.707 75.0699 105.704 75.1528C105.697 75.238 105.68 75.3282 105.667 75.4281C105.64 75.6254 105.614 75.8569 105.54 76.1078C105.43 76.617 105.198 77.2188 104.826 77.8596C104.451 78.4979 103.906 79.1655 103.159 79.7332C102.416 80.296 101.473 80.776 100.385 80.9733C99.3031 81.1633 98.0797 81.1341 96.9101 80.6955C96.614 80.6005 96.3326 80.4568 96.0464 80.3203C95.7748 80.1571 95.4885 80.0061 95.234 79.8038C94.9649 79.6211 94.73 79.3897 94.4828 79.1704C94.2602 78.9267 94.0253 78.6855 93.8344 78.4078C93.4405 77.8645 93.0955 77.2578 92.8875 76.5927C92.6722 75.93 92.5547 75.2283 92.5449 74.512C92.5547 73.7981 92.6697 73.094 92.8875 72.4313C93.0955 71.7662 93.4405 71.1595 93.8344 70.6162C94.0277 70.3385 94.2602 70.0973 94.4828 69.8536C94.73 69.6319 94.9649 69.4029 95.234 69.2202C95.4885 69.0155 95.7748 68.8645 96.0464 68.7037C96.3326 68.5672 96.614 68.4211 96.9101 68.3285C98.0773 67.8899 99.3007 67.8607 100.382 68.0507C101.471 68.2481 102.413 68.728 103.157 69.2908C103.903 69.8585 104.449 70.5261 104.823 71.1644C105.195 71.8052 105.428 72.407 105.538 72.9162C105.611 73.1671 105.638 73.3961 105.665 73.5959C105.677 73.6958 105.694 73.786 105.702 73.8712C105.704 73.9541 105.707 74.032 105.709 74.1003C105.714 74.2318 105.716 74.3366 105.719 74.4121C105.719 74.4828 105.719 74.5169 105.719 74.5169V74.5096Z" fill="#5CD0DF"/>
<path d="M103.258 75.4729C103.797 73.2188 102.398 70.9567 100.134 70.4205C97.8703 69.8843 95.5985 71.277 95.06 73.5312C94.5215 75.7854 95.9202 78.0475 98.1841 78.5837C100.448 79.1198 102.72 77.7271 103.258 75.4729Z" fill="#5CD0DF"/>
<path d="M108.535 70.8965C108.535 70.8965 108.476 70.933 108.359 70.9964C108.236 71.0622 108.06 71.1523 107.833 71.2741C107.365 71.5178 106.683 71.871 105.809 72.3242C104.928 72.7774 103.854 73.3304 102.614 73.9688C102.298 74.1198 101.953 74.2611 101.571 74.3001C101.194 74.3488 100.774 74.2368 100.468 73.9663C100.316 73.8299 100.189 73.652 100.14 73.4425C100.088 73.2403 100.123 72.9893 100.279 72.8261C100.426 72.6604 100.644 72.5605 100.869 72.5435C101.092 72.5142 101.358 72.6312 101.446 72.8651V72.8724L101.449 72.8797C101.461 73.5521 101.214 74.2514 100.742 74.7996C100.282 75.3526 99.5672 75.7425 98.7916 75.7766C98.0233 75.8155 97.2109 75.5549 96.6163 74.9945C96.3227 74.7192 96.0682 74.3659 95.9899 73.9444C95.9532 73.7373 95.9704 73.5083 96.0731 73.3109C96.1734 73.116 96.3374 72.9504 96.5478 72.8675C96.7582 72.7798 97.0176 72.8188 97.2011 72.9552C97.3871 73.0917 97.4996 73.2963 97.5706 73.501C97.644 73.7081 97.6709 73.9298 97.6709 74.1466C97.6807 74.2563 97.6709 74.3659 97.6636 74.4731C97.6587 74.5827 97.6465 74.6924 97.622 74.7996C97.4654 75.6645 96.9687 76.4758 96.2591 77.0435C95.5544 77.6136 94.6001 77.9352 93.6654 77.7866C92.7332 77.6477 91.8743 77.1044 91.2944 76.3491C90.9641 75.9179 90.7145 75.4184 90.6118 74.8873C90.5139 74.361 90.5114 73.8007 90.7316 73.2988C90.8418 73.0527 91.0179 72.8261 91.2553 72.6848C91.4877 72.5435 91.774 72.4777 92.0456 72.5337C92.3245 72.5849 92.5472 72.7944 92.6744 73.0234C92.8066 73.2573 92.8726 73.5083 92.9314 73.7568C93.1614 74.7533 93.0978 75.7985 92.7503 76.7219C92.4151 77.6477 91.7691 78.442 90.9543 78.9244C90.1444 79.4116 89.1926 79.609 88.3019 79.4994C87.8566 79.4433 87.4284 79.3069 87.0467 79.0949C86.665 78.883 86.3371 78.5955 86.0728 78.2714C85.5419 77.6209 85.2531 76.8145 85.2629 76.0324C85.2654 75.6426 85.351 75.2625 85.4978 74.9165C85.6495 74.5803 85.8967 74.2563 86.2588 74.1393C86.435 74.0881 86.6234 74.076 86.7996 74.1247C86.9733 74.1783 87.1225 74.2782 87.2498 74.3951C87.4994 74.6363 87.656 74.936 87.7661 75.2381C87.8762 75.5402 87.9276 75.8521 87.93 76.1542C87.9324 76.3028 87.9373 76.4514 87.93 76.5976C87.9276 76.7438 87.9178 76.8851 87.9031 77.024C87.7954 78.1423 87.448 79.0657 87.0785 79.76C86.7066 80.4569 86.3102 80.9344 86.0313 81.2389C85.8918 81.3924 85.7768 81.5021 85.6985 81.5727C85.6202 81.6458 85.5786 81.6799 85.5786 81.6799C85.5786 81.6799 85.6153 81.6385 85.6887 81.563C85.7645 81.4874 85.8771 81.3778 86.0117 81.2219C86.2833 80.9125 86.6723 80.4349 87.0345 79.7381C87.3941 79.0462 87.7318 78.1277 87.8321 77.0191C87.8468 76.8802 87.8542 76.7389 87.8566 76.5952C87.8639 76.4514 87.859 76.3053 87.8566 76.1566C87.8517 75.8618 87.8003 75.5597 87.6927 75.2674C87.585 74.975 87.4308 74.6851 87.1935 74.4609C87.0736 74.3513 86.9366 74.2587 86.7775 74.2124C86.6185 74.1686 86.4497 74.1807 86.2882 74.2295C85.9652 74.3342 85.7303 74.6339 85.5859 74.9604C85.4489 75.2917 85.3657 75.6596 85.3633 76.0373C85.3559 76.7925 85.6397 77.577 86.156 78.2081C86.4154 78.5224 86.7335 78.8001 87.1005 79.0048C87.4676 79.2094 87.8835 79.3386 88.3166 79.3922C89.1803 79.4969 90.1077 79.3044 90.8931 78.8269C91.6859 78.3591 92.3099 77.5868 92.6377 76.6829C92.9754 75.7839 93.0366 74.7606 92.8115 73.7885C92.7527 73.5448 92.6867 73.3012 92.5668 73.0892C92.4493 72.8773 92.2609 72.7043 92.0211 72.6604C91.7862 72.6117 91.5293 72.6677 91.3213 72.7969C91.1085 72.9211 90.9494 73.1258 90.8491 73.3548C90.6436 73.8177 90.6436 74.361 90.7365 74.8654C90.8344 75.377 91.0742 75.857 91.3947 76.276C91.9575 77.0069 92.7895 77.5308 93.685 77.6648C94.583 77.8085 95.5006 77.5015 96.1808 76.9509C96.8683 76.4027 97.3504 75.6158 97.5021 74.7825C97.5266 74.6778 97.5388 74.573 97.5437 74.4682C97.5535 74.3635 97.5608 74.2587 97.551 74.1539C97.551 73.9444 97.5266 73.7373 97.458 73.5448C97.392 73.3524 97.2868 73.1721 97.1326 73.0576C96.9785 72.943 96.7705 72.9114 96.5943 72.9845C96.4157 73.0527 96.2689 73.1989 96.1808 73.3694C96.0902 73.54 96.0756 73.7397 96.1074 73.9298C96.1759 74.3123 96.4157 74.651 96.6971 74.9165C97.2647 75.455 98.0477 75.7083 98.7867 75.6718C99.5305 75.6401 100.216 75.2698 100.663 74.7387C101.121 74.2124 101.363 73.5375 101.353 72.8895V72.9065C101.285 72.7189 101.079 72.6214 100.879 72.6458C100.681 72.6604 100.482 72.7506 100.353 72.8968C100.216 73.0381 100.186 73.2452 100.23 73.4303C100.272 73.6179 100.387 73.7812 100.526 73.9079C100.815 74.1637 101.199 74.2709 101.564 74.2246C101.928 74.1905 102.266 74.054 102.579 73.9054C103.825 73.2744 104.901 72.7286 105.785 72.2828C106.666 71.8394 107.351 71.4934 107.82 71.2546C108.05 71.1401 108.229 71.0524 108.354 70.9891C108.474 70.9306 108.537 70.9038 108.537 70.9038L108.535 70.8965Z" fill="#263238"/>
<path d="M86.6135 10.7958C86.6135 10.8299 81.4384 10.8591 75.0545 10.8591C68.6707 10.8591 63.4932 10.8299 63.4932 10.7958C63.4932 10.7617 68.6683 10.7324 75.0545 10.7324C81.4408 10.7324 86.6135 10.7617 86.6135 10.7958Z" fill="#9DB1DE"/>
<path d="M90.4674 10.7958C90.4674 10.8299 90.1078 10.8591 89.6649 10.8591C89.222 10.8591 88.8623 10.8299 88.8623 10.7958C88.8623 10.7617 89.222 10.7324 89.6649 10.7324C90.1078 10.7324 90.4674 10.7617 90.4674 10.7958Z" fill="#9DB1DE"/>
<path d="M113.482 10.7958C113.482 10.8299 108.762 10.8591 102.939 10.8591C97.1155 10.8591 92.3955 10.8299 92.3955 10.7958C92.3955 10.7617 97.1155 10.7324 102.939 10.7324C108.762 10.7324 113.482 10.7617 113.482 10.7958Z" fill="#9DB1DE"/>
<path d="M86.6135 17.1986C86.6135 17.2327 81.4384 17.2619 75.0545 17.2619C68.6707 17.2619 63.4932 17.2327 63.4932 17.1986C63.4932 17.1645 68.6683 17.1353 75.0545 17.1353C81.4408 17.1353 86.6135 17.1645 86.6135 17.1986Z" fill="#9DB1DE"/>
<path d="M90.4674 17.1986C90.4674 17.2327 90.1078 17.2619 89.6649 17.2619C89.222 17.2619 88.8623 17.2327 88.8623 17.1986C88.8623 17.1645 89.222 17.1353 89.6649 17.1353C90.1078 17.1353 90.4674 17.1645 90.4674 17.1986Z" fill="#9DB1DE"/>
<path d="M113.482 17.1986C113.482 17.2327 108.762 17.2619 102.939 17.2619C97.1155 17.2619 92.3955 17.2327 92.3955 17.1986C92.3955 17.1645 97.1155 17.1353 102.939 17.1353C108.762 17.1353 113.482 17.1645 113.482 17.1986Z" fill="#9DB1DE"/>
<path d="M159.515 41.114C159.515 41.114 156.598 53.0108 143.54 50.2845C143.54 50.2845 147.325 38.2366 159.515 41.114Z" fill="#5CD0DF"/>
<path d="M153.207 59.1308C153.207 59.1308 147.212 68.031 137.31 61.8767C137.31 61.8767 144.063 53.113 153.207 59.1308Z" fill="#5CD0DF"/>
<path d="M143.655 72.7089C143.655 72.7089 134.91 80.1155 126.534 70.9376C126.534 70.9376 136.018 63.8892 143.655 72.7089Z" fill="#5CD0DF"/>
<path d="M134.393 43.9229C134.393 43.9229 144.093 48.5642 139.385 59.2014C139.385 59.2014 129.713 53.7951 134.393 43.9229Z" fill="#5CD0DF"/>
<path d="M132.289 56.748C132.289 56.748 137.127 63.2508 129.918 68.8374C129.918 68.8374 125.389 61.823 132.289 56.748Z" fill="#5CD0DF"/>
<path d="M154.724 27.2021C154.724 27.2021 155.838 36.8454 145.378 38.39C145.378 38.39 144.869 28.3984 154.724 27.2021Z" fill="#5CD0DF"/>
<path d="M139.723 17.4443C139.723 17.4443 148.184 20.9625 144.509 30.8371C144.509 30.8371 136.031 26.6246 139.723 17.4443Z" fill="#5CD0DF"/>
<path d="M134.616 31.5342C134.616 31.5342 145.82 32.806 144.831 44.9465C144.831 44.9465 133.39 42.9048 134.616 31.5342Z" fill="#5CD0DF"/>
<path d="M118.675 73.91C118.675 73.91 118.721 73.893 118.817 73.8686C118.915 73.8418 119.054 73.8053 119.235 73.7565C119.605 73.6591 120.15 73.5324 120.84 73.3058C122.223 72.8843 124.202 72.168 126.48 70.9425C128.758 69.7268 131.308 67.9579 133.787 65.6093C135.025 64.4349 136.241 63.1144 137.396 61.6623C137.672 61.292 137.954 60.9168 138.235 60.5392C138.377 60.3491 138.516 60.1591 138.658 59.969C138.795 59.7741 138.92 59.5719 139.055 59.3721C139.316 58.9726 139.581 58.5681 139.847 58.1612C140.09 57.7397 140.332 57.3158 140.577 56.8895C140.699 56.6751 140.819 56.4631 140.941 56.2511C141.049 56.0318 141.159 55.815 141.267 55.5957C141.482 55.1596 141.7 54.7308 141.905 54.2971C142.094 53.8562 142.28 53.42 142.463 52.9864C142.554 52.7695 142.651 52.5551 142.737 52.3383C142.815 52.119 142.896 51.8997 142.974 51.6805C143.131 51.2444 143.288 50.8131 143.442 50.3843C143.572 49.9482 143.699 49.517 143.826 49.0882C143.89 48.8738 143.953 48.6618 144.014 48.4498C144.078 48.2379 144.12 48.0235 144.173 47.8115C144.274 47.3876 144.374 46.9685 144.472 46.5519C145.206 43.2213 145.368 40.1344 145.304 37.5616C145.245 34.9815 144.868 32.9203 144.624 31.5023C144.472 30.7982 144.335 30.2549 144.254 29.8846C144.213 29.7018 144.181 29.563 144.159 29.4631C144.139 29.3681 144.132 29.3193 144.132 29.3193C144.132 29.3193 144.147 29.3656 144.173 29.4606C144.198 29.5605 144.235 29.6994 144.281 29.8797C144.372 30.2476 144.514 30.7909 144.675 31.495C144.934 32.913 145.326 34.9766 145.397 37.5616C145.473 40.1393 145.319 43.236 144.589 46.5787C144.492 46.9953 144.394 47.4168 144.293 47.8407C144.24 48.0527 144.2 48.2695 144.137 48.4815C144.073 48.6935 144.012 48.9079 143.948 49.1223C143.821 49.5511 143.694 49.9847 143.564 50.4233C143.41 50.8521 143.253 51.2858 143.097 51.7243C143.019 51.9436 142.94 52.1629 142.859 52.3846C142.774 52.6039 142.678 52.8183 142.585 53.0351C142.399 53.4712 142.214 53.9098 142.025 54.3507C141.82 54.7844 141.599 55.2157 141.384 55.6542C141.276 55.8735 141.166 56.0903 141.059 56.312C140.936 56.524 140.816 56.7384 140.694 56.9528C140.449 57.3816 140.205 57.8055 139.962 58.2295C139.696 58.6363 139.431 59.0432 139.167 59.4452C139.035 59.645 138.908 59.8497 138.771 60.0446C138.629 60.2346 138.487 60.4271 138.345 60.6171C138.061 60.9972 137.78 61.3724 137.501 61.7452C136.341 63.2021 135.12 64.5251 133.875 65.6994C131.384 68.0505 128.819 69.8169 126.529 71.0278C124.239 72.246 122.25 72.9525 120.862 73.3594C120.17 73.5762 119.619 73.6981 119.25 73.7858C119.066 73.8272 118.927 73.8613 118.827 73.8857C118.731 73.9076 118.682 73.9149 118.682 73.9149L118.675 73.91Z" fill="#5CD0DF"/>
<path d="M131.242 61.9912C131.242 61.9912 131.247 62.0887 131.232 62.2641C131.217 62.4395 131.193 62.6905 131.154 63.0023C131.078 63.6236 130.948 64.4788 130.765 65.4168C130.581 66.3548 130.376 67.1953 130.212 67.7995C130.129 68.1017 130.06 68.3453 130.006 68.511C129.952 68.6791 129.921 68.7692 129.911 68.7668C129.904 68.7668 129.921 68.6693 129.957 68.4988C130.004 68.3014 130.058 68.0602 130.124 67.7776C130.266 67.1685 130.454 66.328 130.64 65.3924C130.824 64.4568 130.965 63.6065 131.066 62.9901C131.112 62.7026 131.151 62.459 131.183 62.2592C131.213 62.0862 131.232 61.9912 131.242 61.9936V61.9912Z" fill="#455A64"/>
<path d="M133.622 71.6491C133.622 71.6491 133.522 71.6491 133.346 71.6247C133.143 71.5955 132.896 71.5589 132.602 71.5175C131.976 71.4249 131.107 71.3031 130.148 71.1886C129.186 71.0765 128.315 70.9961 127.684 70.9425C127.39 70.9157 127.141 70.8938 126.935 70.8768C126.759 70.8597 126.661 70.8475 126.661 70.8378C126.661 70.828 126.759 70.8256 126.938 70.828C127.116 70.828 127.373 70.8378 127.689 70.8524C128.323 70.8841 129.199 70.9499 130.163 71.0619C131.124 71.174 131.993 71.3104 132.617 71.4274C132.93 71.4859 133.182 71.537 133.353 71.576C133.527 71.615 133.622 71.6418 133.62 71.6491H133.622Z" fill="#455A64"/>
<path d="M145.411 59.8446C145.411 59.8446 145.299 59.8812 145.088 59.9226C144.853 59.9689 144.557 60.0274 144.203 60.0956C143.454 60.2418 142.424 60.4562 141.293 60.729C140.163 61.0019 139.147 61.2821 138.416 61.4916C138.068 61.5915 137.777 61.6744 137.547 61.7401C137.342 61.7986 137.227 61.8254 137.224 61.8181C137.222 61.8108 137.332 61.7645 137.532 61.6938C137.733 61.6208 138.027 61.5209 138.389 61.4064C139.116 61.1749 140.131 60.8801 141.264 60.6072C142.397 60.3343 143.434 60.1321 144.188 60.0079C144.565 59.9445 144.871 59.9007 145.083 59.8739C145.296 59.8471 145.414 59.8373 145.414 59.8446H145.411Z" fill="#455A64"/>
<path d="M136.85 50.7253C136.85 50.7253 136.929 50.8252 137.048 51.0201C137.171 51.2126 137.335 51.5025 137.523 51.8656C137.902 52.5916 138.358 53.6368 138.705 54.838C139.052 56.0415 139.224 57.1671 139.29 57.9833C139.324 58.3926 139.339 58.7215 139.339 58.9506C139.339 59.1796 139.339 59.3063 139.326 59.3063C139.317 59.3063 139.304 59.1796 139.287 58.953C139.273 58.7264 139.243 58.3975 139.199 57.9906C139.111 57.1818 138.925 56.0683 138.583 54.8721C138.235 53.6782 137.8 52.6379 137.442 51.9045C137.264 51.5367 137.115 51.2443 137.004 51.0421C136.897 50.8398 136.84 50.7278 136.848 50.7229L136.85 50.7253Z" fill="#455A64"/>
<path d="M149.843 45.1777C149.843 45.1777 149.755 45.2484 149.586 45.358C149.395 45.4823 149.155 45.6382 148.869 45.8234C148.267 46.2205 147.45 46.7955 146.591 47.485C145.735 48.1769 145.001 48.8542 144.487 49.3585C144.245 49.5997 144.041 49.7995 143.88 49.9603C143.738 50.1041 143.655 50.1796 143.647 50.1747C143.64 50.1699 143.711 50.0822 143.843 49.9287C143.975 49.7752 144.171 49.5583 144.423 49.2976C144.925 48.7738 145.651 48.0843 146.513 47.3875C147.374 46.6931 148.204 46.1279 148.823 45.7478C149.131 45.5578 149.385 45.4092 149.564 45.3142C149.743 45.2167 149.843 45.168 149.848 45.1753L149.843 45.1777Z" fill="#455A64"/>
<path d="M137.611 36.3701C137.611 36.3701 137.645 36.392 137.704 36.4408C137.772 36.5017 137.853 36.5723 137.951 36.66C138.164 36.8525 138.465 37.1376 138.832 37.4957C139.563 38.212 140.545 39.2353 141.562 40.4218C142.578 41.6108 143.437 42.7364 144.031 43.5696C144.33 43.9863 144.562 44.3273 144.719 44.5685C144.79 44.6782 144.849 44.7708 144.898 44.8463C144.937 44.9096 144.956 44.9462 144.951 44.9486C144.949 44.9511 144.922 44.9218 144.876 44.8609C144.822 44.7878 144.756 44.7025 144.677 44.5978C144.496 44.3517 144.252 44.0228 143.958 43.6257C143.346 42.807 142.478 41.6936 141.465 40.5071C140.449 39.323 139.483 38.2924 138.768 37.5615C138.421 37.2082 138.132 36.9183 137.917 36.699C137.826 36.6064 137.75 36.5285 137.687 36.4627C137.635 36.4067 137.608 36.3774 137.613 36.375L137.611 36.3701Z" fill="#455A64"/>
<path d="M151.103 30.3351C151.103 30.3351 151.022 30.4472 150.863 30.6373C150.687 30.8443 150.46 31.1123 150.183 31.4364C149.613 32.1137 148.847 33.0688 148.059 34.1651C147.271 35.2615 146.613 36.2921 146.153 37.0474C145.933 37.4128 145.752 37.7149 145.612 37.9464C145.485 38.1584 145.412 38.2753 145.404 38.2704C145.397 38.2656 145.456 38.1437 145.568 37.922C145.681 37.7003 145.852 37.386 146.075 37.0011C146.515 36.2312 147.164 35.1909 147.954 34.0896C148.744 32.9908 149.525 32.0406 150.112 31.3779C150.406 31.0466 150.65 30.781 150.822 30.6031C150.995 30.4253 151.093 30.3303 151.098 30.3351H151.103Z" fill="#455A64"/>
<path d="M140.975 21.1816C140.975 21.1816 141.046 21.3035 141.152 21.5349C141.257 21.7664 141.406 22.1026 141.582 22.5192C141.937 23.3549 142.407 24.517 142.891 25.8156C143.373 27.1142 143.777 28.3007 144.053 29.1657C144.193 29.5969 144.301 29.9477 144.369 30.1914C144.44 30.435 144.474 30.5715 144.467 30.5739C144.46 30.5763 144.408 30.4448 144.323 30.206C144.232 29.9453 144.112 29.6042 143.968 29.1925C143.669 28.3373 143.253 27.1556 142.771 25.8571C142.289 24.5609 141.834 23.3939 141.499 22.5509C141.34 22.144 141.205 21.8078 141.105 21.552C141.014 21.3156 140.966 21.1841 140.975 21.1792V21.1816Z" fill="#455A64"/>
<path d="M13 38.4655C13 38.4655 15.7576 49.707 28.0971 47.1317C28.0971 47.1317 24.5198 35.7465 13 38.4655Z" fill="#5CD0DF"/>
<path d="M18.9629 55.4909C18.9629 55.4909 24.6273 63.9013 33.9866 58.0857C33.9866 58.0857 27.6052 49.8044 18.9629 55.4909Z" fill="#5CD0DF"/>
<path d="M27.9871 68.321C27.9871 68.321 36.2525 75.3207 44.1681 66.6472C44.1681 66.6472 35.2053 59.9885 27.9871 68.321Z" fill="#5CD0DF"/>
<path d="M36.7394 41.1211C36.7394 41.1211 27.5735 45.5066 32.0219 55.5591C32.0219 55.5591 41.1633 50.45 36.7394 41.1211Z" fill="#5CD0DF"/>
<path d="M38.7285 53.2397C38.7285 53.2397 34.1578 59.3843 40.9698 64.6639C40.9698 64.6639 45.2494 58.037 38.7285 53.2397Z" fill="#5CD0DF"/>
<path d="M17.5292 25.3188C17.5292 25.3188 16.4771 34.4309 26.3624 35.8903C26.3624 35.8903 26.8444 26.4469 17.5292 25.3188Z" fill="#5CD0DF"/>
<path d="M31.7062 16.0972C31.7062 16.0972 23.7099 19.4228 27.1844 28.7517C27.1844 28.7517 35.1954 24.7707 31.7062 16.0972Z" fill="#5CD0DF"/>
<path d="M36.5313 29.4121C36.5313 29.4121 25.9438 30.6157 26.876 42.0862C26.876 42.0862 37.6862 40.1566 36.5313 29.4121Z" fill="#5CD0DF"/>
<path d="M53.9162 70.2387C53.9162 70.2387 53.8673 70.2313 53.7718 70.2119C53.674 70.1899 53.5345 70.1583 53.3534 70.1193C52.9864 70.034 52.4432 69.9195 51.7556 69.7173C50.378 69.3372 48.3985 68.6989 46.0838 67.6001C44.9216 67.0616 43.6908 66.3867 42.4135 65.5925C41.1314 64.8055 39.8297 63.8553 38.5304 62.7736C37.2336 61.6894 35.949 60.459 34.7353 59.0752C34.4417 58.7219 34.1432 58.3662 33.8447 58.0056C33.556 57.6377 33.2819 57.2552 32.9956 56.8751C32.8537 56.6851 32.7118 56.495 32.5674 56.3025C32.4353 56.1028 32.3056 55.903 32.1735 55.7008C31.9141 55.2963 31.6376 54.8968 31.3856 54.4801C30.906 53.6323 30.4044 52.8088 30.0056 51.9463C29.5627 51.1057 29.2152 50.236 28.8555 49.393C28.1949 47.6802 27.637 45.9942 27.2749 44.3448C26.5017 41.0581 26.2668 38.0053 26.3328 35.4593C26.3965 32.906 26.7415 30.8643 27.0106 29.4658C27.1574 28.769 27.3067 28.2354 27.3923 27.87C27.4388 27.6921 27.4731 27.5532 27.4975 27.4558C27.522 27.3632 27.5367 27.3169 27.5367 27.3169C27.5367 27.3169 27.5294 27.3656 27.5098 27.4606C27.4878 27.5581 27.456 27.697 27.4168 27.8773C27.3385 28.2427 27.1966 28.7787 27.0571 29.4755C26.8026 30.874 26.4748 32.9157 26.4209 35.4593C26.3671 38.0004 26.6093 41.0435 27.3874 44.318C27.752 45.9601 28.3123 47.6388 28.9706 49.3467C29.3302 50.1872 29.6777 51.0546 30.1181 51.8903C30.517 52.7479 31.0161 53.5689 31.4933 54.4143C31.7453 54.8285 32.0193 55.2257 32.2787 55.6301C32.4108 55.8299 32.5405 56.0297 32.6702 56.2295C32.8121 56.4195 32.954 56.6095 33.0959 56.7996C33.3798 57.1772 33.6538 57.5597 33.9426 57.9252C34.2411 58.2833 34.5371 58.639 34.8283 58.9899C36.0346 60.3689 37.3143 61.5968 38.6038 62.681C39.8957 63.7603 41.1926 64.7105 42.4674 65.4999C43.7397 66.2942 44.9632 66.9739 46.1181 67.5148C48.4206 68.6209 50.3927 69.2714 51.763 69.6661C52.4456 69.8756 52.9888 69.9975 53.3534 70.09C53.532 70.1363 53.6715 70.1704 53.7694 70.1948C53.8624 70.2192 53.9089 70.2362 53.9089 70.2362L53.9162 70.2387Z" fill="#5CD0DF"/>
<path d="M39.7197 58.1931C39.7197 58.1931 39.7491 58.2808 39.776 58.4441C39.8078 58.6341 39.8445 58.8656 39.8885 59.1336C39.9815 59.7159 40.1185 60.5199 40.2898 61.4043C40.4635 62.2887 40.6422 63.0829 40.7767 63.6579C40.8379 63.9235 40.8893 64.1525 40.9333 64.3401C40.97 64.5009 40.9847 64.5911 40.9774 64.5935C40.97 64.5935 40.9382 64.5107 40.8869 64.3523C40.8355 64.1939 40.7694 63.9649 40.6911 63.6798C40.5345 63.1097 40.3412 62.313 40.1675 61.4286C39.9938 60.5418 39.8714 59.7329 39.8005 59.1457C39.7637 58.8509 39.7393 58.6146 39.727 58.4489C39.7148 58.2833 39.7124 58.1931 39.7197 58.1907V58.1931Z" fill="#455A64"/>
<path d="M37.4688 67.3197C37.4688 67.3197 37.5568 67.2856 37.7208 67.249C37.8847 67.21 38.1221 67.1638 38.4181 67.1077C39.0078 66.9981 39.8275 66.869 40.7377 66.7618C41.648 66.657 42.475 66.5936 43.0745 66.5644C43.3754 66.5498 43.6177 66.5425 43.7841 66.5425C43.9529 66.5425 44.0459 66.5425 44.0459 66.5547C44.0459 66.5644 43.9553 66.5766 43.7865 66.5936C43.5908 66.6107 43.3559 66.6326 43.0794 66.657C42.4823 66.7082 41.6578 66.7837 40.75 66.8909C39.8422 66.9981 39.0225 67.1126 38.4304 67.2003C38.1563 67.2393 37.9214 67.2734 37.7281 67.3026C37.5617 67.3246 37.4688 67.3343 37.4688 67.3246V67.3197Z" fill="#455A64"/>
<path d="M26.3279 56.166C26.3279 56.166 26.4404 56.166 26.6411 56.1928C26.8417 56.2172 27.1304 56.261 27.4877 56.3195C28.1997 56.4365 29.1785 56.6265 30.2502 56.8847C31.3219 57.143 32.2786 57.4208 32.9662 57.6425C33.3087 57.7521 33.5852 57.8471 33.7761 57.9153C33.9645 57.9836 34.0697 58.0274 34.0673 58.0347C34.0648 58.042 33.9547 58.0177 33.7614 57.9616C33.5436 57.8983 33.2672 57.8203 32.9417 57.7277C32.2493 57.5304 31.2901 57.2673 30.2208 57.009C29.1515 56.7507 28.1777 56.5485 27.4706 56.4097C27.1378 56.3439 26.8564 56.2878 26.6337 56.244C26.4355 56.205 26.3279 56.1782 26.3279 56.1685V56.166Z" fill="#455A64"/>
<path d="M34.4198 47.5485C34.4198 47.5485 34.3758 47.6606 34.273 47.8506C34.1702 48.0407 34.0283 48.3184 33.8595 48.6644C33.5218 49.3563 33.1107 50.3406 32.7829 51.4686C32.4574 52.5991 32.2837 53.6492 32.1981 54.4142C32.154 54.7967 32.1271 55.1086 32.1124 55.323C32.0977 55.5374 32.0831 55.6568 32.0757 55.6568C32.0659 55.6568 32.0635 55.5374 32.0635 55.3206C32.0635 55.1037 32.0757 54.7919 32.1075 54.4045C32.1687 53.6322 32.3326 52.5699 32.6581 51.4321C32.9884 50.2943 33.4166 49.3076 33.7763 48.623C33.9549 48.2794 34.1115 48.0065 34.2265 47.8238C34.3415 47.6411 34.4076 47.5412 34.4149 47.5461L34.4198 47.5485Z" fill="#455A64"/>
<path d="M22.1413 42.3052C22.1413 42.3052 22.2416 42.3442 22.4105 42.4343C22.5793 42.5244 22.8191 42.6633 23.1103 42.8436C23.6951 43.2018 24.4781 43.7353 25.2929 44.3907C26.1077 45.0485 26.7928 45.7015 27.2675 46.1961C27.5048 46.4422 27.6908 46.6468 27.8131 46.793C27.9379 46.9392 28.004 47.022 27.9966 47.0269C27.9893 47.0318 27.911 46.9611 27.7764 46.8271C27.6223 46.6736 27.429 46.4836 27.2014 46.2594C26.7145 45.7819 26.022 45.1436 25.2121 44.4906C24.4022 43.8377 23.6314 43.2968 23.0613 42.9191C22.7922 42.7437 22.5671 42.5951 22.3836 42.4782C22.2221 42.3734 22.1364 42.3125 22.1413 42.3052Z" fill="#455A64"/>
<path d="M33.7005 33.9826C33.7005 33.9826 33.605 34.0971 33.4142 34.2896C33.2086 34.4967 32.9395 34.772 32.6116 35.1058C31.9363 35.7977 31.0236 36.7698 30.0644 37.8906C29.1077 39.0113 28.2856 40.0638 27.7081 40.8361C27.4292 41.2113 27.1992 41.5208 27.0279 41.7547C26.8664 41.9715 26.7759 42.0909 26.7685 42.086C26.7612 42.0811 26.8395 41.9544 26.9888 41.7279C27.1356 41.5013 27.3582 41.1772 27.6372 40.785C28.1975 39.998 29.0099 38.9333 29.969 37.8102C30.9306 36.687 31.858 35.7222 32.5504 35.0449C32.8955 34.7062 33.1817 34.4382 33.3824 34.2555C33.583 34.0752 33.698 33.9777 33.7029 33.9826H33.7005Z" fill="#455A64"/>
<path d="M20.9499 28.2793C20.9499 28.2793 21.0502 28.3646 21.2142 28.5327C21.3781 28.7008 21.6081 28.9493 21.8871 29.2636C22.4425 29.8897 23.1814 30.7863 23.9277 31.8267C24.674 32.867 25.2882 33.8513 25.7041 34.5773C25.9121 34.9404 26.0761 35.2376 26.1813 35.4471C26.2889 35.6567 26.3428 35.7736 26.3354 35.776C26.3281 35.7809 26.2571 35.6713 26.1372 35.4691C26.0051 35.2498 25.8338 34.9647 25.6258 34.6212C25.1903 33.9073 24.5688 32.9352 23.825 31.8973C23.0811 30.8619 22.3569 29.9604 21.8185 29.3196C21.5592 29.0151 21.3439 28.7593 21.1775 28.5644C21.0258 28.3865 20.945 28.2842 20.9499 28.2793Z" fill="#455A64"/>
<path d="M30.5218 19.6299C30.5218 19.6299 30.4851 19.759 30.3995 19.9832C30.304 20.2268 30.1792 20.546 30.0275 20.9285C29.7119 21.7252 29.2812 22.8289 28.8261 24.0544C28.371 25.2799 27.9771 26.3957 27.6957 27.2046C27.5587 27.592 27.4461 27.9136 27.3605 28.1621C27.2797 28.3887 27.2308 28.5105 27.2234 28.5081C27.2161 28.5056 27.2479 28.3765 27.314 28.1475C27.38 27.916 27.4828 27.5847 27.6125 27.1778C27.8719 26.3616 28.2536 25.2384 28.7111 24.0105C29.1662 22.785 29.6116 21.6862 29.9492 20.8968C30.1181 20.5021 30.2575 20.1854 30.3579 19.9661C30.4582 19.7493 30.5169 19.6299 30.5267 19.6323L30.5218 19.6299Z" fill="#455A64"/>
<path d="M75.3779 14.8208H76.1079C76.0933 15.0601 76.0273 15.2725 75.9102 15.458C75.7946 15.6436 75.6326 15.7884 75.4243 15.8926C75.2176 15.9967 74.9686 16.0488 74.6772 16.0488C74.4494 16.0488 74.2451 16.0098 74.0645 15.9316C73.8838 15.8519 73.7292 15.738 73.6006 15.5898C73.4736 15.4417 73.3768 15.2627 73.3101 15.0527C73.2433 14.8428 73.21 14.6076 73.21 14.3472V14.1006C73.21 13.8402 73.2441 13.605 73.3125 13.395C73.3825 13.1834 73.4818 13.0036 73.6104 12.8555C73.7406 12.7074 73.896 12.5934 74.0767 12.5137C74.2573 12.4339 74.4591 12.394 74.6821 12.394C74.9784 12.394 75.2282 12.4478 75.4316 12.5552C75.6367 12.6626 75.7954 12.8107 75.9077 12.9995C76.0216 13.1883 76.09 13.4032 76.1128 13.644H75.3804C75.3722 13.5008 75.3438 13.3796 75.2949 13.2803C75.2461 13.1794 75.172 13.1037 75.0728 13.0532C74.9751 13.0011 74.8449 12.9751 74.6821 12.9751C74.5601 12.9751 74.4535 12.9979 74.3623 13.0435C74.2712 13.089 74.1947 13.1582 74.1328 13.251C74.071 13.3438 74.0246 13.4609 73.9937 13.6025C73.9644 13.7425 73.9497 13.9069 73.9497 14.0957V14.3472C73.9497 14.5311 73.9635 14.693 73.9912 14.833C74.0189 14.9714 74.0612 15.0885 74.1182 15.1846C74.1768 15.279 74.2516 15.3506 74.3428 15.3994C74.4355 15.4466 74.547 15.4702 74.6772 15.4702C74.8302 15.4702 74.9564 15.4458 75.0557 15.397C75.1549 15.3481 75.2306 15.2757 75.2827 15.1797C75.3364 15.0837 75.3682 14.964 75.3779 14.8208ZM79.9241 15.4287V16H78.032V15.4287H79.9241ZM78.2713 12.4453V16H77.5389V12.4453H78.2713ZM79.6775 13.8931V14.4497H78.032V13.8931H79.6775ZM79.9217 12.4453V13.019H78.032V12.4453H79.9217ZM81.3014 12.4453H82.6271C82.8989 12.4453 83.1324 12.486 83.3277 12.5674C83.5247 12.6488 83.676 12.7692 83.7818 12.9287C83.8876 13.0882 83.9405 13.2843 83.9405 13.5171C83.9405 13.7075 83.908 13.8711 83.8429 14.0078C83.7794 14.1429 83.6891 14.256 83.5719 14.3472C83.4563 14.4367 83.3204 14.5083 83.1642 14.562L82.9322 14.6841H81.7799L81.775 14.1128H82.6319C82.7605 14.1128 82.8671 14.09 82.9518 14.0444C83.0364 13.9989 83.0999 13.9354 83.1422 13.854C83.1861 13.7726 83.2081 13.6782 83.2081 13.5708C83.2081 13.4569 83.1869 13.3584 83.1446 13.2754C83.1023 13.1924 83.038 13.1289 82.9518 13.085C82.8655 13.041 82.7573 13.019 82.6271 13.019H82.0338V16H81.3014V12.4453ZM83.2887 16L82.4781 14.4155L83.2521 14.4106L84.0724 15.9658V16H83.2887ZM86.8974 12.4453V16H86.1674V12.4453H86.8974ZM87.9911 12.4453V13.019H85.0907V12.4453H87.9911ZM90.1374 12.4453V16H89.4074V12.4453H90.1374ZM92.5059 12.4453V16H91.7734V12.4453H92.5059ZM93.9219 13.9639V14.5352H92.3057V13.9639H93.9219ZM94.0928 12.4453V13.019H92.3057V12.4453H94.0928ZM96.2464 12.4453V16H95.5164V12.4453H96.2464ZM100.268 15.4287V16H98.3756V15.4287H100.268ZM98.6148 12.4453V16H97.8824V12.4453H98.6148ZM100.021 13.8931V14.4497H98.3756V13.8931H100.021ZM100.265 12.4453V13.019H98.3756V12.4453H100.265ZM102.736 16H101.962L101.967 15.4287H102.736C102.928 15.4287 103.09 15.3856 103.222 15.2993C103.354 15.2114 103.453 15.0837 103.52 14.916C103.588 14.7484 103.622 14.5457 103.622 14.3081V14.1348C103.622 13.9525 103.603 13.7922 103.564 13.6538C103.526 13.5155 103.47 13.3991 103.395 13.3047C103.321 13.2103 103.229 13.1395 103.12 13.0923C103.01 13.0435 102.885 13.019 102.744 13.019H101.948V12.4453H102.744C102.981 12.4453 103.198 12.486 103.395 12.5674C103.594 12.6471 103.766 12.7619 103.911 12.9116C104.055 13.0614 104.167 13.2404 104.245 13.4487C104.325 13.6554 104.365 13.8857 104.365 14.1396V14.3081C104.365 14.5604 104.325 14.7907 104.245 14.999C104.167 15.2074 104.055 15.3864 103.911 15.5361C103.767 15.6842 103.596 15.799 103.395 15.8804C103.197 15.9601 102.977 16 102.736 16ZM102.377 12.4453V16H101.645V12.4453H102.377Z" fill="black"/>
</g>
<defs>
<clipPath id="clip0_559_16670">
<rect width="167" height="99" fill="white"/>
</clipPath>
</defs>
</svg>
