<svg width="16" height="16" viewBox="0 0 16 16" fill="none" xmlns="http://www.w3.org/2000/svg">
<g clip-path="url(#clip0_518_3499)">
<path d="M11.9719 7.97168L2.40723 8.9498V7.0498L11.9719 7.97168Z" fill="white"/>
<path opacity="0.4" d="M15.9719 7.97173C15.9719 8.37173 15.7336 8.73361 15.3654 8.8908L1.3938 14.9186C1.26686 14.9733 1.13305 14.9997 1.00036 14.9997C0.730834 14.9997 0.466302 14.8903 0.272865 14.6856C-0.0152288 14.3804 -0.08151 13.9278 0.105865 13.5522L2.40774 8.94905L11.9734 7.99998L2.40724 7.04986L0.105365 2.44673C-0.0819163 2.07173 -0.0155163 1.61892 0.272552 1.31392C0.561615 1.00873 1.0088 0.915484 1.39349 1.08102L15.3938 7.08111C15.7626 7.23736 15.9719 7.59986 15.9719 7.97173Z" fill="white"/>
</g>
<defs>
<clipPath id="clip0_518_3499">
<rect width="16" height="16" fill="white"/>
</clipPath>
</defs>
</svg>
