<svg width="14" height="14" viewBox="0 0 14 14" fill="none" xmlns="http://www.w3.org/2000/svg">
<path d="M6.98265 5C5.10658 5 3.32563 6.34957 3.54963 8.21221C3.56704 8.35692 3.58781 8.50874 3.61194 8.67024C3.68376 9.15083 4.10283 9.5 4.58875 9.5H5.1442L5.54945 12.0159C5.66401 12.7271 6.27786 13.25 6.99823 13.25C7.7186 13.25 8.33245 12.7271 8.44701 12.0159L8.85226 9.5H9.41485C9.89761 9.5 10.3155 9.15555 10.3891 8.67845C10.4126 8.52601 10.4329 8.38204 10.4498 8.24401C10.6796 6.36808 8.87259 5 6.98265 5Z" fill="white" stroke="#3052A1" stroke-linejoin="round"/>
<path d="M7 4.75C8.10457 4.75 9 3.85457 9 2.75C9 1.64543 8.10457 0.75 7 0.75C5.89543 0.75 5 1.64543 5 2.75C5 3.85457 5.89543 4.75 7 4.75Z" fill="white" stroke="#3052A1" stroke-linecap="round" stroke-linejoin="round"/>
</svg>
