<svg width="30" height="24" viewBox="0 0 30 24" fill="none" xmlns="http://www.w3.org/2000/svg">
<path d="M10.4529 13.8797C10.017 13.4813 10.017 12.7688 10.4529 12.3282L14.2029 8.57817C14.6436 8.14224 15.3561 8.14224 15.7545 8.57817L19.5045 12.3282C19.9826 12.7688 19.9826 13.4813 19.5045 13.8797C19.1061 14.3579 18.3936 14.3579 17.9529 13.8797L16.1248 12.0891V18.375C16.1248 18.9985 15.6232 19.5 14.9998 19.5C14.3764 19.5 13.8748 18.9985 13.8748 18.375V12.0891L12.0045 13.8797C11.6061 14.3579 10.8936 14.3579 10.4529 13.8797Z" fill="#2E50A3"/>
<path opacity="0.4" d="M6.75 22.5C3.02203 22.5 0 19.4766 0 15.75C0 12.8062 1.88297 10.3031 4.50937 9.37969C4.50328 9.25313 4.5 9.12656 4.5 9C4.5 4.85625 7.85625 1.5 12 1.5C14.7797 1.5 17.2031 3.01172 18.5016 5.25937C19.2141 4.73906 20.0766 4.5 21 4.5C23.4844 4.5 25.5 6.47344 25.5 9C25.5 9.57187 25.3922 10.1156 25.2 10.6219C27.9375 11.175 30 13.5984 30 16.5C30 19.8141 27.3141 22.5 24 22.5H6.75ZM10.4531 12.3281C10.0172 12.7688 10.0172 13.4813 10.4531 13.8797C10.8938 14.3578 11.6063 14.3578 12.0047 13.8797L13.875 12.0891V18.375C13.875 18.9984 14.3766 19.5 15 19.5C15.6234 19.5 16.125 18.9984 16.125 18.375V12.0891L17.9531 13.8797C18.3937 14.3578 19.1063 14.3578 19.5047 13.8797C19.9828 13.4813 19.9828 12.7688 19.5047 12.3281L15.7547 8.57812C15.3563 8.14219 14.6438 8.14219 14.2031 8.57812L10.4531 12.3281Z" fill="#2E50A3"/>
</svg>
