<svg width="12" height="16" viewBox="0 0 12 16" fill="none" xmlns="http://www.w3.org/2000/svg">
<g clip-path="url(#clip0_296_687)">
<path d="M8 0V4H12L8 0ZM6.50313 7.21875C6.21016 6.92578 5.73563 6.92578 5.4425 7.21875L2.9425 9.71875C2.64954 10.0117 2.64954 10.4862 2.9425 10.7794C3.23547 11.0725 3.71 11.0723 4.00313 10.7794L5.25 9.55937V13.25C5.25 13.6656 5.5875 14 6 14C6.4125 14 6.75 13.6641 6.75 13.25V9.55937L7.96969 10.7791C8.11563 10.9281 8.30625 11 8.5 11C8.69375 11 8.88375 10.9268 9.03032 10.7803C9.32329 10.4873 9.32329 10.0128 9.03032 9.71966L6.50313 7.21875Z" fill="white"/>
<path opacity="0.4" d="M8 4V0H1.5C0.671562 0 0 0.671562 0 1.5V14.5C0 15.3281 0.671562 16 1.5 16H10.5C11.3284 16 12 15.3284 12 14.5V4H8ZM9.00313 10.7531C8.88438 10.9281 8.69375 11 8.5 11C8.30625 11 8.11625 10.9268 7.96969 10.7803L6.75 9.55937V13.25C6.75 13.6641 6.41406 14 6 14C5.58594 14 5.25 13.6641 5.25 13.25V9.55937L4.03031 10.7791C3.73734 11.072 3.26281 11.072 2.96969 10.7791C2.67656 10.4861 2.67672 10.0116 2.96969 9.71844L5.46969 7.21844C5.76266 6.92547 6.23719 6.92547 6.53031 7.21844L9.03031 9.71844C9.32187 10.0125 9.32188 10.4875 9.00313 10.7531Z" fill="white"/>
</g>
<defs>
<clipPath id="clip0_296_687">
<rect width="12" height="16" fill="white"/>
</clipPath>
</defs>
</svg>
