<svg width="20" height="16" viewBox="0 0 20 16" fill="none" xmlns="http://www.w3.org/2000/svg">
<path d="M20 5C20 5.32437 19.7988 5.61406 19.4984 5.72156L10.6641 8.88406C10.235 9.0375 9.76719 9.0375 9.33813 8.88406L3.38125 6.75312C3.80937 6.27812 4.34688 5.92187 5.03125 5.75625L10.1219 4.48375C10.3904 4.41684 10.5525 4.14531 10.4862 3.87781C10.4198 3.60925 10.1434 3.44375 9.87969 3.51406L4.79063 4.7875C3.79375 5.0375 2.95625 5.61875 2.37719 6.39375L0.501562 5.72187C0.201187 5.6125 0 5.325 0 5C0 4.675 0.201187 4.38593 0.501562 4.27843L9.33594 1.11593C9.765 0.962495 10.2328 0.962495 10.6619 1.11593L19.4963 4.27843C19.8 4.3875 20 4.675 20 5ZM10.9719 9.825C10.6781 9.94062 10.3406 10 10 10C9.65875 10 9.32219 9.94165 9 9.8264L4.4625 8.20312L4 12.6656C4 13.9562 6.65938 15 10 15C13.2844 15 16 13.9562 16 12.6666L15.5381 8.20093L10.9719 9.825Z" fill="#1EB8D5"/>
<path opacity="0.4" d="M10.1219 4.48439L5.03123 5.75626C3.79998 6.06564 2.88748 7.03126 2.60248 8.22189C2.83842 8.37814 2.99998 8.67814 2.99998 9.00001C2.99998 9.31104 2.84955 9.57782 2.62686 9.76126L3.4028 14.4175C3.45311 14.7219 3.21873 15 2.90967 15H1.0903C0.781327 15 0.546234 14.7225 0.597171 14.4178L1.37311 9.76157C1.1503 9.57814 0.999984 9.28439 0.999984 9.00001C0.999984 8.58626 1.25145 8.23095 1.60998 8.07907C1.95436 6.49032 3.15936 5.19532 4.78811 4.78845L9.87873 3.51595C10.1424 3.44564 10.4187 3.61117 10.4853 3.8797C10.5531 4.14689 10.3906 4.41876 10.1219 4.48439Z" fill="#1EB8D5"/>
</svg>
