<svg width="14" height="16" viewBox="0 0 14 16" fill="none" xmlns="http://www.w3.org/2000/svg">
<path d="M7 7C7.82906 7 8.5 6.32906 8.5 5.5C8.5 4.67094 7.82812 4 7 4C6.17188 4 5.5 4.67188 5.5 5.5C5.5 6.32812 6.17188 7 7 7ZM8 8H6C5.17188 8 4.5 8.67188 4.5 9.5V11C4.5 11.5522 4.94781 12 5.5 12V15C5.5 15.5522 5.94781 16 6.5 16H7.5C8.05219 16 8.5 15.5522 8.5 15V12C9.05219 12 9.5 11.5522 9.5 11V9.5C9.5 8.67188 8.82812 8 8 8Z" fill="#1EB8D5"/>
<path opacity="0.4" d="M12 5H10C9.81078 5 9.63125 5.03472 9.45781 5.08381C9.48125 5.21875 9.5 5.35625 9.5 5.5C9.5 6.13469 9.26222 6.715 8.87094 7.15656C9.82187 7.50937 10.5 8.42813 10.5 9.5V11C10.5 11.7388 10.0975 12.3853 9.5 12.7316V15C9.5 15.2644 9.44575 15.5156 9.35213 15.7469C9.52812 15.9 9.72188 16 10 16H12C12.5522 16 13 15.5522 13 15V11C13.5522 11 14 10.5522 14 10V7C14 5.89687 13.1031 5 12 5ZM3 4C4.10563 4 5 3.10563 5 2C5 0.894375 4.10625 0 3 0C1.89375 0 1 0.894375 1 2C1 3.10563 1.89469 4 3 4ZM11 4C12.1056 4 13 3.10563 13 2C13 0.894375 12.1056 0 11 0C9.89437 0 9 0.894375 9 2C9 3.10563 9.89375 4 11 4ZM5.12813 7.15625C4.7375 6.71562 4.5 6.13438 4.5 5.5C4.5 5.35747 4.51908 5.21984 4.54209 5.08375C4.36875 5.03437 4.19063 5 4 5H2C0.895313 5 0 5.89687 0 7V10C0 10.5522 0.447812 11 1 11V15C1 15.5522 1.44781 16 2 16H4C4.25044 16 4.4725 15.8991 4.64781 15.747C4.55312 15.5156 4.5 15.2656 4.5 15V12.7316C3.90313 12.3844 3.5 11.7375 3.5 11V9.5C3.5 8.42813 4.17813 7.50938 5.12813 7.15625Z" fill="#1EB8D5"/>
</svg>
