<svg width="71" height="80" viewBox="0 0 71 80" fill="none" xmlns="http://www.w3.org/2000/svg">
<g clip-path="url(#clip0_1077_6524)">
<path d="M35.5018 35C39.7063 35 43.109 31.6453 43.109 27.5C43.109 23.3547 39.7016 20 35.5018 20C31.302 20 27.8947 23.3594 27.8947 27.5C27.8947 31.6406 31.302 35 35.5018 35ZM40.5732 40H30.4304C26.2306 40 22.8232 43.3594 22.8232 47.5V55C22.8232 57.7609 25.0943 60 27.8947 60V75C27.8947 77.7609 30.1657 80 32.9661 80H38.0375C40.8379 80 43.109 77.7609 43.109 75V60C45.9093 60 48.1804 57.7609 48.1804 55V47.5C48.1804 43.3594 44.773 40 40.5732 40Z" fill="url(#paint0_linear_1077_6524)"/>
<path opacity="0.4" d="M60.8571 25H50.7143C49.7547 25 48.8442 25.1736 47.9646 25.4191C48.0835 26.0938 48.1786 26.7812 48.1786 27.5C48.1786 30.6734 46.9727 33.575 44.9883 35.7828C49.8109 37.5469 53.25 42.1406 53.25 47.5V55C53.25 58.6937 51.2088 61.9266 48.1786 63.6578V75C48.1786 76.322 47.9035 77.5781 47.4286 78.7344C48.3212 79.5 49.3038 80 50.7143 80H60.8571C63.6575 80 65.9286 77.7609 65.9286 75V55C68.729 55 71 52.7609 71 50V35C71 29.4844 66.4516 25 60.8571 25ZM15.2143 20C20.8214 20 25.3571 15.5281 25.3571 10C25.3571 4.47187 20.8246 0 15.2143 0C9.60402 0 5.07143 4.47187 5.07143 10C5.07143 15.5281 9.60877 20 15.2143 20ZM55.7857 20C61.3928 20 65.9286 15.5281 65.9286 10C65.9286 4.47187 61.3928 0 55.7857 0C50.1786 0 45.6429 4.47187 45.6429 10C45.6429 15.5281 50.1754 20 55.7857 20ZM26.0069 35.7812C24.0259 33.5781 22.8214 30.6719 22.8214 27.5C22.8214 26.7873 22.9182 26.0992 23.0349 25.4187C22.1558 25.1719 21.2525 25 20.2857 25H10.1429C4.54051 25 0 29.4844 0 35V50C0 52.7609 2.27105 55 5.07143 55V75C5.07143 77.7609 7.34248 80 10.1429 80H20.2857C21.5558 80 22.682 79.4955 23.571 78.735C23.0908 77.5781 22.8214 76.3281 22.8214 75V63.6578C19.7944 61.9219 17.75 58.6875 17.75 55V47.5C17.75 42.1406 21.1891 37.5469 26.0069 35.7812Z" fill="url(#paint1_linear_1077_6524)"/>
</g>
<defs>
<linearGradient id="paint0_linear_1077_6524" x1="35.5018" y1="20" x2="35.5018" y2="80" gradientUnits="userSpaceOnUse">
<stop stop-color="#CC3FA8"/>
<stop offset="1" stop-color="#BC369A"/>
</linearGradient>
<linearGradient id="paint1_linear_1077_6524" x1="35.5" y1="0" x2="35.5" y2="80" gradientUnits="userSpaceOnUse">
<stop stop-color="#CC3FA8"/>
<stop offset="1" stop-color="#BC369A"/>
</linearGradient>
<clipPath id="clip0_1077_6524">
<rect width="71" height="80" fill="white"/>
</clipPath>
</defs>
</svg>
