<svg width="16" height="16" viewBox="0 0 16 16" fill="none" xmlns="http://www.w3.org/2000/svg">
<path d="M11.225 9.775L8 13L4.775 9.775C2.58969 10.4719 1 12.5 1 14.9156C1 15.5156 1.48531 16 2.08344 16H13.9178C14.5156 16 15 15.5156 15 14.9156C15 12.5 13.4094 10.4719 11.225 9.775ZM1.42594 2.49219L1.625 2.53906V4.36719C1.40625 4.49687 1.25 4.72813 1.25 5C1.25 5.26172 1.39453 5.48063 1.5975 5.61719L1.10938 7.5625C1.05469 7.77812 1.17594 8 1.34781 8H2.6525C2.82437 8 2.94547 7.77734 2.89078 7.59062L2.4025 5.61875C2.60562 5.48125 2.75 5.2625 2.75 5C2.75 4.72656 2.59375 4.49625 2.375 4.36719V2.72281L4 3.11344L4.00003 5H11.9719L12 3.11313L14.5703 2.49219C15.1406 2.35547 15.1406 1.64844 14.5703 1.50781L8.62031 0.0703125C8.21406 -0.0234375 7.78844 -0.0234375 7.38188 0.0703125L1.42562 1.50781C0.859375 1.64469 0.859375 2.35562 1.42594 2.49219Z" fill="#1EB8D5"/>
<path opacity="0.4" d="M12 4.97192C12 7.18286 10.2109 8.97192 8.02812 8.97192C5.84531 8.97192 4 7.20942 4 4.97192H12Z" fill="#1EB8D5"/>
</svg>
