<svg width="22" height="17" viewBox="0 0 22 17" fill="none" xmlns="http://www.w3.org/2000/svg">
<g clip-path="url(#clip0_511_9626)">
<path d="M21.2179 5.81169C21.2179 6.1405 21.0096 6.43416 20.6988 6.54313L11.5559 9.74891C11.1119 9.90445 10.6278 9.90445 10.1837 9.74891L4.01884 7.58881C4.46192 7.10731 5.01818 6.74618 5.72645 6.57829L10.9948 5.28837C11.2728 5.22055 11.4405 4.9453 11.3719 4.67414C11.3032 4.4019 11.0171 4.23414 10.7442 4.30541L5.47743 5.59628C4.44574 5.8497 3.579 6.43891 2.97972 7.22452L1.03861 6.54345C0.727743 6.43257 0.519531 6.14114 0.519531 5.81169C0.519531 5.48224 0.727743 5.18922 1.03861 5.08025L10.1814 1.87447C10.6255 1.71893 11.1096 1.71893 11.5537 1.87447L20.6965 5.08025C21.0109 5.19081 21.2179 5.48224 21.2179 5.81169ZM11.8745 10.7027C11.5705 10.8199 11.2212 10.8801 10.8687 10.8801C10.5155 10.8801 10.1672 10.821 9.83378 10.7042L5.13784 9.05866L4.6592 13.5822C4.6592 14.8905 7.41143 15.9486 10.8687 15.9486C14.2677 15.9486 17.0782 14.8905 17.0782 13.5832L16.6002 9.05644L11.8745 10.7027Z" fill="url(#paint0_linear_511_9626)"/>
<path opacity="0.4" d="M10.9953 5.28912L5.72695 6.57841C4.45271 6.89201 3.50835 7.87086 3.21339 9.07778C3.45757 9.23617 3.62477 9.54027 3.62477 9.86655C3.62477 10.1818 3.46908 10.4523 3.23862 10.6382L4.04165 15.3582C4.09372 15.6667 3.85116 15.9487 3.53131 15.9487H1.64841C1.32865 15.9487 1.08535 15.6674 1.13806 15.3585L1.94109 10.6385C1.7105 10.4526 1.55494 10.1548 1.55494 9.86655C1.55494 9.44714 1.81519 9.08696 2.18624 8.93301C2.54264 7.32252 3.78971 6.00979 5.47533 5.59735L10.7437 4.30743C11.0166 4.23615 11.3026 4.40395 11.3714 4.67616C11.4416 4.947 11.2735 5.2226 10.9953 5.28912Z" fill="url(#paint1_linear_511_9626)"/>
</g>
<defs>
<linearGradient id="paint0_linear_511_9626" x1="10.8687" y1="1.75781" x2="10.8687" y2="15.9486" gradientUnits="userSpaceOnUse">
<stop stop-color="#5CD0DF"/>
<stop offset="1" stop-color="#55BECC"/>
</linearGradient>
<linearGradient id="paint1_linear_511_9626" x1="6.25912" y1="4.29102" x2="6.25912" y2="15.9487" gradientUnits="userSpaceOnUse">
<stop stop-color="#5CD0DF"/>
<stop offset="1" stop-color="#55BECC"/>
</linearGradient>
<clipPath id="clip0_511_9626">
<rect width="20.6983" height="16.219" fill="white" transform="translate(0.519531 0.743164)"/>
</clipPath>
</defs>
</svg>
