<svg width="20" height="22" viewBox="0 0 20 22" fill="none" xmlns="http://www.w3.org/2000/svg">
<g clip-path="url(#clip0_511_9632)">
<path d="M9.95843 9.94441C11.0551 9.94441 11.9427 9.07646 11.9427 8.00394C11.9427 6.93143 11.0539 6.06348 9.95843 6.06348C8.86297 6.06348 7.97419 6.93264 7.97419 8.00394C7.97419 9.07524 8.86297 9.94441 9.95843 9.94441ZM11.2813 11.2381H8.6356C7.54014 11.2381 6.65137 12.1072 6.65137 13.1785V15.119C6.65137 15.8333 7.24374 16.4126 7.97419 16.4126V20.2936C7.97419 21.0079 8.56657 21.5872 9.29702 21.5872H10.6198C11.3503 21.5872 11.9427 21.0079 11.9427 20.2936V16.4126C12.6731 16.4126 13.2655 15.8333 13.2655 15.119V13.1785C13.2655 12.1072 12.3767 11.2381 11.2813 11.2381Z" fill="url(#paint0_linear_511_9632)"/>
<path opacity="0.4" d="M16.5721 7.3569H13.9265C13.6762 7.3569 13.4387 7.40181 13.2093 7.46532C13.2403 7.63988 13.2651 7.81776 13.2651 8.00372C13.2651 8.82478 12.9505 9.5755 12.4329 10.1467C13.6909 10.6031 14.5879 11.7917 14.5879 13.1783V15.1188C14.5879 16.0745 14.0555 16.9109 13.2651 17.3588V20.2934C13.2651 20.6354 13.1933 20.9604 13.0695 21.2595C13.3023 21.4576 13.5586 21.587 13.9265 21.587H16.5721C17.3026 21.587 17.895 21.0077 17.895 20.2934V15.1188C18.6254 15.1188 19.2178 14.5395 19.2178 13.8251V9.94419C19.2178 8.51714 18.0314 7.3569 16.5721 7.3569ZM4.66672 6.06325C6.12927 6.06325 7.31237 4.90625 7.31237 3.47596C7.31237 2.04568 6.13009 0.888672 4.66672 0.888672C3.20334 0.888672 2.02107 2.04568 2.02107 3.47596C2.02107 4.90625 3.20458 6.06325 4.66672 6.06325ZM15.2493 6.06325C16.7119 6.06325 17.895 4.90625 17.895 3.47596C17.895 2.04568 16.7119 0.888672 15.2493 0.888672C13.7868 0.888672 12.6037 2.04568 12.6037 3.47596C12.6037 4.90625 13.7859 6.06325 15.2493 6.06325ZM7.48186 10.1463C6.96513 9.57631 6.65096 8.82438 6.65096 8.00372C6.65096 7.81934 6.6762 7.6413 6.70664 7.46524C6.47733 7.40137 6.24171 7.3569 5.98954 7.3569H3.34389C1.88258 7.3569 0.698242 8.51714 0.698242 9.94419V13.8251C0.698242 14.5395 1.29062 15.1188 2.02107 15.1188V20.2934C2.02107 21.0077 2.61345 21.587 3.34389 21.587H5.98954C6.32083 21.587 6.61458 21.4565 6.84649 21.2597C6.72123 20.9604 6.65096 20.637 6.65096 20.2934V17.3588C5.86139 16.9097 5.32813 16.0728 5.32813 15.1188V13.1783C5.32813 11.7917 6.22517 10.6031 7.48186 10.1463Z" fill="url(#paint1_linear_511_9632)"/>
</g>
<defs>
<linearGradient id="paint0_linear_511_9632" x1="9.95843" y1="6.06348" x2="9.95843" y2="21.5872" gradientUnits="userSpaceOnUse">
<stop stop-color="#CC3FA8"/>
<stop offset="1" stop-color="#BC369A"/>
</linearGradient>
<linearGradient id="paint1_linear_511_9632" x1="9.95802" y1="0.888672" x2="9.95802" y2="21.587" gradientUnits="userSpaceOnUse">
<stop stop-color="#CC3FA8"/>
<stop offset="1" stop-color="#BC369A"/>
</linearGradient>
<clipPath id="clip0_511_9632">
<rect width="18.5196" height="20.6983" fill="white" transform="translate(0.698242 0.888672)"/>
</clipPath>
</defs>
</svg>
