<svg width="16" height="16" viewBox="0 0 16 16" fill="none" xmlns="http://www.w3.org/2000/svg">
<path d="M2.5575 4.75311C2.41969 4.90311 2.22531 4.99373 2.01969 4.97186C1.81406 5.00623 1.61531 4.92498 1.46969 4.75311L0.219656 3.50311C-0.0732187 3.23748 -0.0732187 2.76248 0.219656 2.46967C0.5125 2.17686 0.9875 2.17686 1.28031 2.46967L1.97125 3.15936L3.69375 1.24811C3.96875 0.940294 4.44375 0.915294 4.75313 1.19248C5.05938 1.46967 5.08437 1.94373 4.80625 2.25186L2.5575 4.75311ZM2.5575 9.75311C2.41969 9.90311 2.22531 9.99373 2.01969 9.97186C1.81406 10.0062 1.61531 9.92498 1.46969 9.75311L0.219656 8.50311C-0.0732187 8.23748 -0.0732187 7.76248 0.219656 7.46873C0.5125 7.17811 0.9875 7.17811 1.28031 7.46873L1.97125 8.15936L3.69375 6.24686C3.96875 5.94061 4.44375 5.91561 4.75313 6.19373C5.05938 6.46873 5.08437 6.94373 4.80625 7.25311L2.5575 9.75311ZM0 13C0 12.1719 0.671562 11.5 1.5 11.5C2.32844 11.5 3 12.1719 3 13C3 13.8281 2.32844 14.5 1.5 14.5C0.671562 14.5 0 13.8281 0 13Z" fill="#5CD0DF"/>
<path opacity="0.4" d="M6 12H15C15.5531 12 16 12.4469 16 13C16 13.5531 15.5531 14 15 14H6C5.44687 14 5 13.5531 5 13C5 12.4469 5.44687 12 6 12ZM8 7H15C15.5531 7 16 7.44688 16 8C16 8.55312 15.5531 9 15 9H8C7.44688 9 7 8.55312 7 8C7 7.44688 7.44688 7 8 7ZM8 4C7.44688 4 7 3.55313 7 3C7 2.44781 7.44688 2 8 2H15C15.5531 2 16 2.44781 16 3C16 3.55313 15.5531 4 15 4H8Z" fill="#5CD0DF"/>
</svg>
