<svg width="20" height="16" viewBox="0 0 20 16" fill="none" xmlns="http://www.w3.org/2000/svg">
<path d="M20 5.00012C20 5.32449 19.7988 5.61418 19.4984 5.72168L10.6641 8.88418C10.235 9.03762 9.76719 9.03762 9.33813 8.88418L3.38125 6.75324C3.80937 6.27824 4.34688 5.92199 5.03125 5.75637L10.1219 4.48387C10.3904 4.41696 10.5525 4.14543 10.4862 3.87793C10.4198 3.60937 10.1434 3.44387 9.87969 3.51418L4.79063 4.78762C3.79375 5.03762 2.95625 5.61887 2.37719 6.39387L0.501562 5.72199C0.201187 5.61262 0 5.32512 0 5.00012C0 4.67512 0.201187 4.38605 0.501562 4.27855L9.33594 1.11605C9.765 0.962617 10.2328 0.962617 10.6619 1.11605L19.4963 4.27855C19.8 4.38762 20 4.67512 20 5.00012ZM10.9719 9.82512C10.6781 9.94074 10.3406 10.0001 10 10.0001C9.65875 10.0001 9.32219 9.94177 9 9.82652L4.4625 8.20324L4 12.6657C4 13.9564 6.65938 15.0001 10 15.0001C13.2844 15.0001 16 13.9564 16 12.6667L15.5381 8.20105L10.9719 9.82512Z" fill="#2E50A3"/>
<path opacity="0.4" d="M10.122 4.48463L5.03136 5.7565C3.80011 6.06588 2.88761 7.0315 2.60261 8.22213C2.83854 8.37838 3.00011 8.67838 3.00011 9.00025C3.00011 9.31129 2.84967 9.57807 2.62698 9.7615L3.40292 14.4178C3.45323 14.7221 3.21886 15.0003 2.90979 15.0003H1.09042C0.781449 15.0003 0.546356 14.7228 0.597293 14.4181L1.37323 9.76182C1.15042 9.57838 1.00011 9.28463 1.00011 9.00025C1.00011 8.5865 1.25157 8.23119 1.61011 8.07932C1.95448 6.49057 3.15948 5.19557 4.78823 4.78869L9.87886 3.51619C10.1425 3.44588 10.4189 3.61141 10.4854 3.87994C10.5532 4.14713 10.3907 4.419 10.122 4.48463Z" fill="#2E50A3"/>
</svg>
