<svg width="18" height="16" viewBox="0 0 18 16" fill="none" xmlns="http://www.w3.org/2000/svg">
<path d="M13.8876 9.7001L11.6339 11.8273C11.5248 11.9301 11.3649 11.9583 11.2273 11.8991C11.0907 11.8407 11.0001 11.7064 11.0001 11.5564V10.427H7.00012V11.5564C7.00012 11.7062 6.91084 11.8418 6.77318 11.901C6.63549 11.9603 6.47559 11.9321 6.36662 11.8293L4.11262 9.7001C3.96246 9.55839 3.96246 9.29573 4.11262 9.15417L6.36574 7.02823C6.47512 6.9251 6.63449 6.89698 6.77199 6.95636C6.90949 7.01573 7.00012 7.15011 7.00012 7.30011V8.42479H11.0001V7.30011C11.0001 7.15032 11.0894 7.01464 11.2271 6.95542C11.3647 6.8962 11.5246 6.92435 11.6336 7.02726L13.8874 9.15445C14.0376 9.29698 14.0376 9.55948 13.8876 9.7001Z" fill="#2E50A3"/>
<path opacity="0.4" d="M3 4C4.10563 4 5 3.10563 5 2C5 0.894375 4.10625 0 3 0C1.89375 0 1 0.894375 1 2C1 3.10563 1.89469 4 3 4ZM4 5H2C0.895313 5 0 5.89687 0 7V10C0 10.5522 0.447812 11 0.971875 11L1 15C1 15.5522 1.44781 16 2 16H4C4.55219 16 5 15.5522 5 15V11.9878L3.42625 10.5025C3.12812 10.2469 3 9.88125 3 9.50313C3 9.12313 3.15534 8.75844 3.42625 8.50281L5.68031 6.37531C5.73187 6.32672 5.79822 6.30309 5.85566 6.2635C5.53437 5.525 4.84375 5 4 5ZM15 4C16.1056 4 17 3.10563 17 2C17 0.894375 16.1056 0 15 0C13.8944 0 13 0.894375 13 2C13 3.10563 13.8938 4 15 4ZM16 5H14C13.1844 5 12.4381 5.52406 12.1444 6.26312C12.2019 6.30284 12.2684 6.32647 12.3201 6.37525L14.5738 8.50212C14.8438 8.75625 15 9.12187 15 9.50313C15.0001 9.88313 14.8447 10.2478 14.5737 10.5034L13 11.9875V15C13 15.5522 13.4478 16 14 16H16C16.5522 16 17 15.5522 17 15V11C17.5522 11 18 10.5522 18 10V7C18 5.89687 17.1031 5 16 5Z" fill="#2E50A3"/>
</svg>
