<svg width="20" height="16" viewBox="0 0 20 16" fill="none" xmlns="http://www.w3.org/2000/svg">
<g clip-path="url(#clip0_226_353)">
<path d="M10.5 5H11C11.275 5 11.5 5.225 11.5 5.5C11.5 5.775 11.275 6 11 6H10C9.725 6 9.5 5.775 9.5 5.5V4.5C9.5 4.225 9.725 4 10 4C10.275 4 10.5 4.225 10.5 4.5V5ZM2.5 6.5C2.5 6.225 2.72375 6 3 6H4C4.275 6 4.5 6.225 4.5 6.5V8.5C4.5 8.775 4.275 9 4 9H3C2.72375 9 2.5 8.775 2.5 8.5V6.5ZM15.5 6.5C15.5 6.225 15.725 6 16 6H17C17.275 6 17.5 6.225 17.5 6.5V8.5C17.5 8.775 17.275 9 17 9H16C15.725 9 15.5 8.775 15.5 8.5V6.5ZM4 10C4.275 10 4.5 10.225 4.5 10.5V12.5C4.5 12.775 4.275 13 4 13H3C2.72375 13 2.5 12.775 2.5 12.5V10.5C2.5 10.225 2.72375 10 3 10H4ZM15.5 10.5C15.5 10.225 15.725 10 16 10H17C17.275 10 17.5 10.225 17.5 10.5V12.5C17.5 12.775 17.275 13 17 13H16C15.725 13 15.5 12.775 15.5 12.5V10.5Z" fill="#2E50A3"/>
<path opacity="0.4" d="M14.9 3.06437L18.825 3.90937C19.5125 4.09062 20 4.69687 20 5.39999V14.5C20 15.3281 19.3281 16 18.5 16H1.5C0.671562 16 0 15.3281 0 14.5V5.39999C0 4.69687 0.488438 4.09062 1.17469 3.90937L5.1 3.06437L9.44375 0.16793C9.75313 -0.0559766 10.2188 -0.0559766 10.5562 0.16793L14.9 3.06437ZM8 16H12V13C12 11.8969 11.1031 11 10 11C8.89688 11 8 11.8969 8 13V16ZM3 5.99999C2.72375 5.99999 2.5 6.22499 2.5 6.49999V8.49999C2.5 8.77499 2.72375 8.99999 3 8.99999H4C4.275 8.99999 4.5 8.77499 4.5 8.49999V6.49999C4.5 6.22499 4.275 5.99999 4 5.99999H3ZM15.5 8.49999C15.5 8.77499 15.725 8.99999 16 8.99999H17C17.275 8.99999 17.5 8.77499 17.5 8.49999V6.49999C17.5 6.22499 17.275 5.99999 17 5.99999H16C15.725 5.99999 15.5 6.22499 15.5 6.49999V8.49999ZM3 9.99999C2.72375 9.99999 2.5 10.225 2.5 10.5V12.5C2.5 12.775 2.72375 13 3 13H4C4.275 13 4.5 12.775 4.5 12.5V10.5C4.5 10.225 4.275 9.99999 4 9.99999H3ZM15.5 12.5C15.5 12.775 15.725 13 16 13H17C17.275 13 17.5 12.775 17.5 12.5V10.5C17.5 10.225 17.275 9.99999 17 9.99999H16C15.725 9.99999 15.5 10.225 15.5 10.5V12.5ZM10 8.24999C11.5188 8.24999 12.75 7.01874 12.75 5.49999C12.75 3.98124 11.5188 2.74999 10 2.74999C8.48125 2.74999 7.25 3.98124 7.25 5.49999C7.25 7.01874 8.48125 8.24999 10 8.24999Z" fill="#2E50A3"/>
</g>
<defs>
<clipPath id="clip0_226_353">
<rect width="20" height="16" fill="white"/>
</clipPath>
</defs>
</svg>
