<svg width="10" height="16" viewBox="0 0 10 16" fill="none" xmlns="http://www.w3.org/2000/svg">
<g clip-path="url(#clip0_277_755)">
<path d="M4.49997 12V15C4.49997 15.5531 4.05309 16 3.49996 16C2.94778 16 2.50028 15.5531 2.50028 15V8.99375L1.84653 10.0312C1.55215 10.5 0.934965 10.6406 0.467465 10.3469C1.50204e-05 10.0531 -0.140379 9.43438 0.15384 8.94063L1.39965 6.9875C2.17871 5.75 3.53747 5 4.99997 5C6.46247 5 7.82184 5.75 8.59997 6.9875L9.84684 8.94063C10.1406 9.43438 9.99996 10.0531 9.53434 10.3469C9.06559 10.6406 8.44684 10.5 8.15309 10.0312L7.49997 8.99375V15C7.49997 15.5531 7.05309 16 6.49997 16C5.94684 16 5.49997 15.5531 5.49997 15V12H4.49997Z" fill="#2E50A3"/>
<path opacity="0.4" d="M7 2C7 3.10469 6.10313 4 5 4C3.89688 4 3 3.10469 3 2C3 0.895313 3.89688 0 5 0C6.10313 0 7 0.895313 7 2Z" fill="#2E50A3"/>
</g>
<defs>
<clipPath id="clip0_277_755">
<rect width="10" height="16" fill="white"/>
</clipPath>
</defs>
</svg>
