<svg width="15" height="19" viewBox="0 0 15 19" fill="none" xmlns="http://www.w3.org/2000/svg">
<path d="M7.94116 17.9171C8.73682 17.9171 9.52469 17.7603 10.2598 17.4558C10.9949 17.1514 11.6628 16.7051 12.2254 16.1425C12.788 15.5798 13.2343 14.9119 13.5388 14.1768C13.8433 13.4417 14 12.6539 14 11.8582V7.81629C14 6.90804 13.7961 6.01916 13.4119 5.21191" stroke="#3052A1" stroke-width="2" stroke-linecap="round" stroke-linejoin="round"/>
<path d="M1.88232 8.48828V11.8583C1.88192 13.0511 2.23356 14.2174 2.89318 15.2111C3.22004 15.7036 3.61532 16.1428 4.06472 16.5169" stroke="#3052A1" stroke-width="2" stroke-linecap="round" stroke-linejoin="round"/>
<path d="M10.9707 1.8957C9.57912 1.09229 7.92538 0.874564 6.37327 1.29043C4.82116 1.7063 3.49781 2.72169 2.69434 4.11324" stroke="#3052A1" stroke-width="2" stroke-linecap="round" stroke-linejoin="round"/>
<path d="M7.30469 5.3371C7.62812 5.26995 7.96249 5.27626 8.28316 5.35555C8.60383 5.43484 8.90261 5.58509 9.15747 5.79523C9.41234 6.00536 9.61679 6.27003 9.75575 6.5697C9.89471 6.86938 9.96464 7.19642 9.96037 7.52672V8.94249" stroke="#3052A1" stroke-width="2" stroke-linecap="round" stroke-linejoin="round"/>
<path d="M9.39779 13.4825C9.09859 13.8158 8.70473 14.0497 8.26892 14.153C7.83312 14.2563 7.37616 14.2241 6.9592 14.0605C6.54224 13.897 6.18517 13.61 5.93579 13.238C5.68641 12.866 5.55661 12.4266 5.56376 11.9788V9.54688" stroke="#3052A1" stroke-width="2" stroke-linecap="round" stroke-linejoin="round"/>
</svg>
