<svg width="25" height="25" viewBox="0 0 25 25" fill="none" xmlns="http://www.w3.org/2000/svg">
<path fill-rule="evenodd" clip-rule="evenodd" d="M11.5693 23.1115L11.57 23.1105C11.5677 23.1094 11.5656 23.1082 11.5632 23.1068C11.5565 23.1024 11.549 23.0986 11.542 23.0946C10.9201 22.7518 9.88768 21.7432 9.82197 21.6932C9.82127 21.6922 9.82056 21.6915 9.81986 21.6908L9.81916 21.6913C9.77075 21.6548 9.71884 21.6223 9.65921 21.5994C9.31521 21.467 8.92491 21.6321 8.78927 21.9679C8.71444 22.1529 8.73478 22.3508 8.82412 22.5138L8.83253 22.5458C9.66388 23.6412 10.9835 24.1858 10.9835 24.1858C11.306 24.3097 11.6715 24.1549 11.7987 23.8404C11.9079 23.5703 11.8048 23.2696 11.5693 23.1115Z" fill="#E82227"/>
<path fill-rule="evenodd" clip-rule="evenodd" d="M6.37822 2.7819C10.3502 0.685878 14.3245 0.853083 18.2965 2.7826C18.7381 2.99705 19.1908 3.14578 19.4518 2.59084C19.6805 2.10466 19.3393 1.83947 18.9237 1.62924C16.8167 0.563339 14.5853 -0.00562567 12.2063 0.000454506C9.91408 -0.0182537 7.77526 0.540889 5.77465 1.62176C5.35161 1.85 4.95289 2.12548 5.27046 2.65773C5.55132 3.12847 5.97015 2.99705 6.37822 2.7819Z" fill="#1D1D1A"/>
<path fill-rule="evenodd" clip-rule="evenodd" d="M5.09061 20.2588C4.72089 20.2588 4.41992 20.5523 4.41992 20.9131C4.41992 21.2737 4.72089 21.5672 5.09061 21.5672C5.46057 21.5672 5.7613 21.2737 5.7613 20.9131C5.7613 20.5523 5.46057 20.2588 5.09061 20.2588Z" fill="#1D1D1A"/>
<path fill-rule="evenodd" clip-rule="evenodd" d="M13.8202 9.26151C13.8202 8.90091 13.5194 8.60742 13.1495 8.60742C12.7797 8.60742 12.479 8.90091 12.479 9.26151C12.479 9.62211 12.7797 9.9156 13.1495 9.9156C13.5194 9.9156 13.8202 9.62211 13.8202 9.26151Z" fill="#1D1D1A"/>
<path fill-rule="evenodd" clip-rule="evenodd" d="M21.0269 18.7666C20.6569 18.7666 20.3562 19.0601 20.3562 19.4207C20.3562 19.7813 20.6569 20.0748 21.0269 20.0748C21.3966 20.0748 21.6973 19.7813 21.6973 19.4207C21.6973 19.0601 21.3966 18.7666 21.0269 18.7666Z" fill="#1D1D1A"/>
<path fill-rule="evenodd" clip-rule="evenodd" d="M15.981 16.1113C15.611 16.1113 15.3105 16.4048 15.3105 16.7654C15.3105 17.126 15.611 17.4195 15.981 17.4195C16.3507 17.4195 16.6517 17.126 16.6517 16.7654C16.6517 16.4048 16.3507 16.1113 15.981 16.1113Z" fill="#1D1D1A"/>
<path fill-rule="evenodd" clip-rule="evenodd" d="M15.981 16.1113C15.611 16.1113 15.3105 16.4048 15.3105 16.7654C15.3105 17.126 15.611 17.4195 15.981 17.4195C16.3507 17.4195 16.6517 17.126 16.6517 16.7654C16.6517 16.4048 16.3507 16.1113 15.981 16.1113Z" fill="#1D1D1A"/>
<path fill-rule="evenodd" clip-rule="evenodd" d="M24.0618 11.8096C23.6918 11.8096 23.3911 12.1031 23.3911 12.4637C23.3911 12.8245 23.6918 13.1177 24.0618 13.1177C24.4315 13.1177 24.7325 12.8245 24.7325 12.4637C24.7325 12.1031 24.4315 11.8096 24.0618 11.8096Z" fill="#1D1D1A"/>
<path fill-rule="evenodd" clip-rule="evenodd" d="M23.7379 10.3211C23.7379 9.96048 23.4371 9.66699 23.0672 9.66699C22.6975 9.66699 22.3967 9.96048 22.3967 10.3211C22.3967 10.6819 22.6975 10.9752 23.0672 10.9752C23.4371 10.9752 23.7379 10.6819 23.7379 10.3211Z" fill="#1D1D1A"/>
<path fill-rule="evenodd" clip-rule="evenodd" d="M3.73685 4.65876C4.10657 4.65876 4.40754 4.36551 4.40754 4.00467C4.40754 3.64407 4.10657 3.35059 3.73685 3.35059C3.36713 3.35059 3.06616 3.64407 3.06616 4.00467C3.06616 4.36551 3.36713 4.65876 3.73685 4.65876Z" fill="#1D1D1A"/>
<path fill-rule="evenodd" clip-rule="evenodd" d="M1.25462 10.4082C1.00416 10.4082 0.787851 10.5445 0.672795 10.7433L0.670457 10.7421C0.667884 10.7487 0.665312 10.755 0.662739 10.7616C0.63912 10.8053 0.620178 10.8514 0.607316 10.9002C0.0357795 12.3805 0 13.9169 0 13.9169C0 14.2778 0.300735 14.571 0.670457 14.571C0.987327 14.571 1.25205 14.3549 1.32174 14.0664L1.32291 14.0661C1.32291 14.0647 1.32291 14.0636 1.32314 14.0624C1.3339 14.0156 1.34115 13.9672 1.34115 13.9169C1.34115 13.8943 1.33647 13.8725 1.33413 13.8503C1.42346 12.381 1.87082 11.32 1.87082 11.32V11.3198C1.90567 11.2407 1.92531 11.1537 1.92531 11.0623C1.92531 10.7017 1.62434 10.4082 1.25462 10.4082Z" fill="#1D1D1A"/>
<path fill-rule="evenodd" clip-rule="evenodd" d="M8.98217 6.34747C3.47166 8.49307 2.04983 13.6266 3.54719 18.6465C3.55538 18.6905 3.56801 18.7328 3.58461 18.7732C3.68446 19.0122 3.92463 19.1816 4.20549 19.1816C4.24571 19.1816 4.28477 19.1766 4.32312 19.1701C4.40426 19.1561 4.4798 19.1266 4.54808 19.0868C4.74359 18.9725 4.87595 18.7658 4.87595 18.5275C4.87595 18.4849 4.87104 18.4433 4.86308 18.4026C4.86075 18.3916 4.857 18.3815 4.8542 18.3706C4.72184 17.8968 4.59485 17.4211 4.49827 16.9403C3.42699 11.6122 7.01687 7.04201 12.2846 7.04201C17.1231 7.04201 20.3767 9.98996 20.3767 14.425C20.3767 16.1896 19.6559 17.0689 18.3772 17.0427C18.3751 17.0427 18.3732 17.042 18.3711 17.042C18.3695 17.042 18.3679 17.0425 18.366 17.0425C18.3412 17.042 18.3162 17.0434 18.2916 17.042C18.2886 17.0448 18.2867 17.0479 18.2837 17.0507C17.9556 17.093 17.7007 17.365 17.7007 17.6961C17.7007 17.9973 17.9109 18.2482 18.195 18.3243C18.2035 18.3278 18.2126 18.331 18.2285 18.3352C18.2292 18.3352 18.2315 18.3355 18.2325 18.3359C18.2378 18.3369 18.2437 18.3373 18.2491 18.3383C18.2631 18.3402 18.2799 18.3418 18.3007 18.3434C18.3241 18.3455 18.347 18.3502 18.3711 18.3502C18.3798 18.3502 18.3877 18.3481 18.3964 18.3479C18.5318 18.3518 18.6932 18.3502 18.6932 18.3502C20.7932 18.1879 21.5478 16.4813 21.5478 14.016C21.5478 7.86985 14.8362 4.0681 8.98217 6.34747Z" fill="#1D1D1A"/>
<path fill-rule="evenodd" clip-rule="evenodd" d="M9.29442 4.59393C9.32234 4.58935 9.34734 4.57893 9.37442 4.57227C9.3465 4.57935 9.31942 4.58685 9.2915 4.59435C9.29234 4.59393 9.29317 4.59393 9.29442 4.59393Z" fill="#00AEEF"/>
<path fill-rule="evenodd" clip-rule="evenodd" d="M9.82476 3.82938C9.82265 3.81863 9.81891 3.80857 9.81634 3.79805C9.74478 3.51766 9.48684 3.30859 9.17769 3.30859C9.13723 3.30859 9.09794 3.3135 9.05959 3.32029C9.00908 3.33455 8.96044 3.34999 8.91086 3.36472C7.83444 3.6858 6.94229 4.12357 6.02699 4.65933C4.76558 5.39784 3.76142 6.23129 2.70183 7.56121C2.55053 7.7511 2.28043 8.00062 2.102 8.26862C2.0122 8.36683 1.95373 8.49124 1.93783 8.62875C1.90088 8.80788 1.94321 8.98701 2.11954 9.15515C2.12585 9.1617 2.13287 9.16755 2.13941 9.17386C2.16303 9.19514 2.18852 9.21619 2.21682 9.23724C2.21986 9.23957 2.2229 9.24121 2.22594 9.24355C2.22594 9.24355 2.22617 9.24355 2.22617 9.24378C2.93919 9.75803 3.39193 8.78613 3.70974 8.38507C5.38108 6.27689 6.99607 5.17801 9.29157 4.58473C9.30724 4.58075 9.32244 4.57631 9.33834 4.57234C9.40078 4.55667 9.46065 4.53422 9.5149 4.50265C9.70737 4.39016 9.83762 4.18695 9.83762 3.95239C9.83762 3.9103 9.83271 3.86937 9.82476 3.82938Z" fill="#1D1D1A"/>
<path fill-rule="evenodd" clip-rule="evenodd" d="M22.1987 7.80498C22.1669 7.74792 22.1288 7.69484 22.0815 7.6497C19.6406 4.53595 16.379 3.02971 12.4704 2.9502C12.2971 2.95253 11.8591 2.9502 11.8081 2.9502C11.4384 2.9502 11.1375 3.24368 11.1375 3.60428C11.1375 3.96512 11.4384 4.25837 11.8081 4.25837C15.2479 4.07971 18.7129 5.46926 21.0554 8.47076L21.0559 8.47123C21.0633 8.48269 21.0727 8.49275 21.0809 8.5035C21.203 8.66229 21.3954 8.76659 21.6141 8.76659C21.9829 8.76659 22.2824 8.47404 22.2824 8.1146C22.2824 8.00212 22.2504 7.89736 22.1987 7.80498Z" fill="#1D1D1A"/>
<path fill-rule="evenodd" clip-rule="evenodd" d="M18.7904 14.427C18.7801 14.221 18.7511 14.0147 18.7132 13.8115C18.3973 12.1184 17.4198 10.5869 16.1116 9.6377C16.2234 9.72749 16.3062 9.85097 16.3422 9.99245C16.3448 10.0037 16.349 10.014 16.3513 10.0252C16.3593 10.0663 16.3642 10.1089 16.3642 10.1524C16.3642 10.3951 16.2295 10.6056 16.0305 10.7218C15.9608 10.7625 15.8838 10.7925 15.801 10.8067C15.7622 10.8135 15.7225 10.8184 15.6816 10.8184C15.5454 10.8184 15.4196 10.7787 15.3132 10.7115C16.3864 11.5979 17.2933 13.0664 17.4535 14.5456C17.5049 15.0201 17.5538 15.5048 18.1574 15.4854C18.8425 15.4637 18.8145 14.913 18.7904 14.427Z" fill="#1D1D1A"/>
<path fill-rule="evenodd" clip-rule="evenodd" d="M15.8011 10.8067C15.8839 10.7922 15.9606 10.7625 16.0303 10.7218C16.2295 10.6055 16.3642 10.3951 16.3642 10.1523C16.3642 10.1088 16.3593 10.0663 16.3511 10.0249C16.3488 10.0139 16.3448 10.0036 16.3423 9.99239C16.306 9.8509 16.2235 9.72743 16.1114 9.63763C16.1028 9.63132 16.0941 9.62477 16.0855 9.61869C15.9725 9.53614 15.8334 9.48633 15.6814 9.48633C15.3049 9.48633 14.9985 9.78496 14.9985 10.1523C14.9985 10.194 15.0034 10.2342 15.0112 10.2735C15.0196 10.3181 15.0322 10.3612 15.0493 10.4023C15.083 10.4828 15.1332 10.5546 15.1943 10.6158C15.2343 10.6467 15.2738 10.6787 15.3131 10.7115C15.4195 10.7786 15.5455 10.8184 15.6814 10.8184C15.7225 10.8184 15.7621 10.8134 15.8011 10.8067Z" fill="#1D1D1A"/>
<path fill-rule="evenodd" clip-rule="evenodd" d="M16.0854 9.61816C16.1009 9.62941 16.1163 9.64066 16.1317 9.65191C16.1167 9.63983 16.1009 9.62941 16.0854 9.61816Z" fill="#00AEEF"/>
<path fill-rule="evenodd" clip-rule="evenodd" d="M15.406 10.7866C15.3356 10.7283 15.2652 10.6712 15.1943 10.6162C15.2585 10.6804 15.3285 10.7379 15.406 10.7866Z" fill="#00AEEF"/>
<path fill-rule="evenodd" clip-rule="evenodd" d="M13.0032 11.4661C13.0011 11.4657 12.9999 11.4653 12.9978 11.4648C12.9999 11.4657 13.002 11.4661 13.0041 11.4669L13.0032 11.4661Z" fill="#1D1D1A"/>
<path fill-rule="evenodd" clip-rule="evenodd" d="M15.7028 22.1782C15.3326 22.0477 14.9474 21.9455 14.5962 21.7769C11.7631 20.4164 10.2388 18.1903 10.0927 15.1142C10.0274 13.7389 10.9392 12.7738 12.2137 12.7247L12.2322 12.7184C12.3096 12.706 12.3825 12.6805 12.449 12.6447C12.654 12.5346 12.7948 12.3243 12.7948 12.0804C12.7948 11.8382 12.6559 11.6291 12.4532 11.5182C12.3636 11.4696 12.2628 11.4397 12.1543 11.4359C12.1466 11.4357 12.1393 11.4336 12.1316 11.4336C12.1166 11.4336 12.1024 11.4371 12.0877 11.438C10.3819 11.5451 9.00827 12.7673 8.78424 14.4269C8.28006 18.1653 11.5294 22.6433 15.2877 23.3935C15.7159 23.4791 16.1031 23.4562 16.2348 22.9752C16.3506 22.5528 16.0877 22.3138 15.7028 22.1782Z" fill="#1D1D1A"/>
<path fill-rule="evenodd" clip-rule="evenodd" d="M15.7224 14.2236C15.7161 14.1724 15.703 14.1237 15.6854 14.0767C15.5613 13.599 15.3686 13.0396 15.0922 12.6605C15.0716 12.628 15.048 12.5976 15.022 12.5691C15.0176 12.5637 15.0136 12.5574 15.0091 12.5522C15.0082 12.5511 15.0066 12.5506 15.0054 12.5494C14.8833 12.425 14.7124 12.3467 14.5223 12.3467C14.1523 12.3467 13.8516 12.6402 13.8516 13.0008C13.8516 13.0695 13.8654 13.1343 13.8857 13.1965L13.8831 13.1991C13.8831 13.1991 13.8871 13.2075 13.8939 13.2227C13.9023 13.2454 13.9121 13.2671 13.9229 13.2884C13.9926 13.4498 14.1465 13.8295 14.3275 14.4167C14.3373 14.4771 14.3543 14.5348 14.3794 14.5886C14.4902 14.8281 14.7358 14.9955 15.022 14.9955C15.1452 14.9955 15.2591 14.9621 15.3599 14.9078C15.5783 14.7907 15.7282 14.5666 15.7282 14.3066C15.7282 14.2785 15.7259 14.2509 15.7224 14.2236Z" fill="#1D1D1A"/>
<path fill-rule="evenodd" clip-rule="evenodd" d="M8.51733 19.8877C8.5415 19.9281 8.564 19.9689 8.58817 20.0094C8.56692 19.9673 8.54358 19.9269 8.51733 19.8877Z" fill="#E82227"/>
<path fill-rule="evenodd" clip-rule="evenodd" d="M7.34131 20.5088C7.37256 20.5775 7.41048 20.6425 7.45464 20.7034C7.42964 20.6605 7.40506 20.6171 7.38256 20.5775C7.37923 20.5717 7.36298 20.545 7.34131 20.5088Z" fill="#E82227"/>
<path fill-rule="evenodd" clip-rule="evenodd" d="M10.7137 8.78906C10.6063 8.78906 10.4132 8.85992 10.4115 8.85992C7.64553 9.66999 5.77845 12.1626 5.80721 15.1856C5.8631 17.0766 6.69375 19.3761 7.24401 20.3377C7.2695 20.3889 7.31393 20.4637 7.34129 20.5091C7.35345 20.5294 7.36257 20.5442 7.36467 20.5474C7.37707 20.5699 7.39087 20.594 7.4049 20.6183C7.5265 20.7869 7.72715 20.8982 7.95422 20.8982C8.07138 20.8982 8.18012 20.8662 8.27623 20.8145C8.48436 20.7029 8.62701 20.4897 8.62701 20.2418C8.62701 20.1386 8.60105 20.0425 8.55709 19.9558C8.54353 19.9331 8.5309 19.9102 8.51734 19.8875C7.58263 18.3286 7.10837 16.6082 7.16871 14.7023C7.23886 12.4837 8.81971 10.6882 10.8421 10.0846C10.8823 10.0771 10.9209 10.0652 10.9583 10.0507C11.0182 10.0343 11.1954 9.92278 11.2125 9.87601C11.3182 9.76049 11.3841 9.60989 11.3841 9.44315C11.3841 9.08255 11.0834 8.78906 10.7137 8.78906Z" fill="#00AC75"/>
<path fill-rule="evenodd" clip-rule="evenodd" d="M18.8805 19.8176C18.7893 19.7678 18.6868 19.7374 18.5762 19.7339H18.576C18.5381 19.7376 18.5004 19.7399 18.4628 19.7432C15.589 19.9871 13.2542 18.1048 13.0051 15.3026C12.9621 14.8164 12.9778 14.2484 12.2942 14.298C11.664 14.344 11.6586 14.9626 11.6911 15.4523C11.9009 18.617 14.6281 21.0633 17.9343 21.0979C18.1492 21.0979 18.3669 21.0771 18.5846 21.0472C18.6274 21.0413 18.6702 21.0355 18.7133 21.0287C18.7705 21.0142 18.8253 20.9929 18.8762 20.9653C19.0853 20.8533 19.2287 20.6389 19.2287 20.3901C19.2287 20.1433 19.0872 19.9303 18.8805 19.8176Z" fill="#1D1D1A"/>
</svg>
