<svg width="20" height="20" viewBox="0 0 20 20" fill="none" xmlns="http://www.w3.org/2000/svg">
<path d="M0 4.375C0 3.33945 0.839453 2.5 1.875 2.5H12.5V8.75H1.875C0.839453 8.75 0 7.91016 0 6.875V4.375ZM0 13.125C0 12.0898 0.839453 11.25 1.875 11.25H7.5V17.5H1.875C0.839453 17.5 0 16.6602 0 15.625V13.125Z" fill="#92BE33"/>
<path opacity="0.4" d="M12.5 6.25H17.5V5H12.5V2.5H18.125C19.1602 2.5 20 3.33945 20 4.375V6.875C20 7.91016 19.1602 8.75 18.125 8.75H12.5V6.25ZM7.5 15H17.5V13.75H7.5V11.25H18.125C19.1602 11.25 20 12.0898 20 13.125V15.625C20 16.6602 19.1602 17.5 18.125 17.5H7.5V15Z" fill="#92BE33"/>
</svg>
