<svg width="16" height="16" viewBox="0 0 16 16" fill="none" xmlns="http://www.w3.org/2000/svg">
<path d="M16 5C16 6.65625 14.6562 8 13 8C11.3156 8 10 6.65625 10 5C10 3.31562 11.3156 2 13 2C14.6562 2 16 3.31562 16 5ZM13 4C12.4469 4 12 4.44688 12 5C12 5.55312 12.4469 6 13 6C13.5531 6 14 5.55312 14 5C14 4.44688 13.5531 4 13 4ZM3 8C4.65625 8 6 9.31563 6 11C6 12.6562 4.65625 14 3 14C1.34312 14 0 12.6562 0 11C0 9.31563 1.34312 8 3 8ZM2 11C2 11.5531 2.44781 12 3 12C3.55312 12 4 11.5531 4 11C4 10.4469 3.55312 10 3 10C2.44781 10 2 10.4469 2 11Z" fill="#FEBF75"/>
<path opacity="0.4" d="M10.1719 6H1C0.447812 6 0 5.55313 0 5C0 4.44687 0.447812 4 1 4H10.1719C10.0594 4.3125 10 4.65 10 5C10 5.35 10.0594 5.65937 10.1719 6ZM6 11C6 10.65 5.94063 10.3125 5.82812 10H15C15.5531 10 16 10.4469 16 11C16 11.5531 15.5531 12 15 12H5.82812C5.94063 11.6594 6 11.35 6 11Z" fill="#FEBF75"/>
</svg>
