<svg width="16" height="16" viewBox="0 0 16 16" fill="none" xmlns="http://www.w3.org/2000/svg">
<path d="M0 2.5C0 1.11937 1.11937 0 2.5 0C3.88125 0 5 1.11937 5 2.5C5 3.88125 3.88125 5 2.5 5C1.11937 5 0 3.88125 0 2.5ZM2.5 3.25C2.91406 3.25 3.25 2.91406 3.25 2.5C3.25 2.08594 2.91406 1.75 2.5 1.75C2.08594 1.75 1.75 2.08594 1.75 2.5C1.75 2.91406 2.08594 3.25 2.5 3.25ZM0 13.5C0 12.1187 1.11937 11 2.5 11C3.88125 11 5 12.1187 5 13.5C5 14.8813 3.88125 16 2.5 16C1.11937 16 0 14.8813 0 13.5ZM2.5 14.25C2.91406 14.25 3.25 13.9156 3.25 13.5C3.25 13.0844 2.91406 12.75 2.5 12.75C2.08594 12.75 1.75 13.0844 1.75 13.5C1.75 13.9156 2.08594 14.25 2.5 14.25ZM16 13.5C16 14.8813 14.8813 16 13.5 16C12.1187 16 11 14.8813 11 13.5C11 12.1187 12.1187 11 13.5 11C14.8813 11 16 12.1187 16 13.5ZM13.5 12.75C13.0844 12.75 12.75 13.0844 12.75 13.5C12.75 13.9156 13.0844 14.25 13.5 14.25C13.9156 14.25 14.25 13.9156 14.25 13.5C14.25 13.0844 13.9156 12.75 13.5 12.75Z" fill="#FEBF75"/>
<path opacity="0.4" d="M10 1.99999H10.5C12.7094 1.99999 14.5 3.79062 14.5 5.99999V11.2094C14.1938 11.075 13.8562 11 13.5 11C13.1438 11 12.8062 11.075 12.5 11.2094V5.99999C12.5 4.89686 11.6031 3.99999 10.5 3.99999H10V5.24999C10 5.54686 9.825 5.81561 9.55625 5.93436C9.28437 6.05624 8.94062 6.00624 8.74687 5.80624L6.24687 3.55624C6.09062 3.41562 6 3.21249 6 2.99999C6 2.78749 6.09062 2.58468 6.24687 2.44249L8.74687 0.192521C8.94062 -0.00560692 9.28437 -0.0556038 9.55625 0.0648962C9.825 0.185396 10 0.45374 10 0.74999V1.99999ZM1.5 4.79062C1.80625 4.92499 2.14437 4.99999 2.5 4.99999C2.85563 4.99999 3.19375 4.92499 3.5 4.79062V11.2094C3.19375 11.075 2.85563 11 2.5 11C2.14437 11 1.80625 11.075 1.5 11.2094V4.79062Z" fill="#FEBF75"/>
</svg>
