<svg width="18" height="16" viewBox="0 0 18 16" fill="none" xmlns="http://www.w3.org/2000/svg">
<path d="M15.4124 7.36563C15.8999 6.87813 16.6906 6.87813 17.1812 7.36563L17.6281 7.81563C18.1187 8.30313 18.1187 9.09375 17.6281 9.58438L16.7093 10.5031L14.4937 8.28438L15.4124 7.36563ZM16.0031 11.2094L11.9656 15.2469C11.8374 15.375 11.6749 15.4656 11.4999 15.5094L9.62181 15.9812C9.44993 16.0219 9.27181 15.9719 9.14681 15.85C9.02181 15.725 8.97181 15.5437 9.01556 15.3469L9.48431 13.4937C9.52806 13.3187 9.61868 13.1594 9.74681 13.0031L13.7843 8.99375L16.0031 11.2094Z" fill="#797979"/>
<path opacity="0.4" d="M3 1C3 0.447812 3.44688 0 4 0C4.55312 0 5 0.447812 5 1V2H9V1C9 0.447812 9.44687 0 10 0C10.5531 0 11 0.447812 11 1V2H12.5C13.3281 2 14 2.67156 14 3.5V5H0V3.5C0 2.67156 0.671562 2 1.5 2H3V1ZM14 7.3625L9.04062 12.3219C8.78437 12.5781 8.60312 12.9 8.51562 13.2531L8.04375 15.1313C7.97187 15.425 7.99062 15.725 8.0875 16H1.5C0.671562 16 0 15.3281 0 14.5V6H14V7.3625ZM3.75 10H8.25C8.66562 10 9 9.66562 9 9.25C9 8.83438 8.66562 8.5 8.25 8.5H3.75C3.33437 8.5 3 8.83438 3 9.25C3 9.66562 3.33437 10 3.75 10ZM3.75 11.5C3.33437 11.5 3 11.8344 3 12.25C3 12.6656 3.33437 13 3.75 13H6.25C6.66563 13 7 12.6656 7 12.25C7 11.8344 6.66563 11.5 6.25 11.5H3.75Z" fill="#797979"/>
</svg>
