<svg width="12" height="12" viewBox="0 0 12 12" fill="none" xmlns="http://www.w3.org/2000/svg">
<path d="M8.98615 11H3.01103C3.01103 10.9905 3.00785 10.9797 3.01103 10.9714C3.14795 10.5753 3.28095 10.1778 3.42521 9.78448C3.47851 9.63909 3.59758 9.54804 3.74991 9.51548C3.82522 9.49933 3.90468 9.49859 3.98219 9.4981C4.32009 9.49639 4.65799 9.49737 4.99956 9.49737C5.11594 9.1476 5.23037 8.80296 5.34797 8.44976C5.30469 8.43777 5.2712 8.42847 5.2377 8.41917C4.38048 8.18101 3.74404 7.66748 3.33157 6.87933C3.11372 6.46298 3.01005 6.01603 3.00369 5.54706C3.00247 5.46506 2.9719 5.44181 2.89391 5.42614C2.02128 5.25064 1.41834 4.75254 1.11932 3.90711C1.06137 3.74361 1.03888 3.56762 1 3.3975C1 2.89597 1 2.3942 1 1.89267C1.13619 1.56052 1.23545 1.49517 1.60465 1.49517C2.02764 1.49517 2.45063 1.49517 2.87362 1.49517C2.91176 1.49517 2.9499 1.49517 3.00002 1.49517V1H9.00351V1.49492C9.0551 1.49492 9.09373 1.49492 9.13237 1.49492C9.57809 1.49492 10.0238 1.49247 10.4695 1.4959C10.8165 1.49859 10.9964 1.68315 10.9972 2.03096C10.9982 2.4314 11.004 2.83209 10.9952 3.23253C10.971 4.34206 10.182 5.24844 9.08836 5.42883C9.02087 5.43985 9.00205 5.46579 8.99422 5.53335C8.96366 5.79427 8.95266 6.06229 8.88224 6.31318C8.62845 7.21711 8.06561 7.86819 7.21083 8.25884C7.03479 8.33937 6.84628 8.39224 6.65336 8.46151C6.7673 8.8037 6.88271 9.15053 6.99836 9.49737C7.37709 9.49737 7.74457 9.49615 8.11206 9.49786C8.35167 9.49884 8.51793 9.62049 8.59715 9.84739C8.68908 10.1112 8.78151 10.3751 8.87173 10.6397C8.91231 10.7589 8.94826 10.8798 8.9864 11H8.98615ZM4.49979 3.9967C4.70884 4.27573 4.89271 4.54057 5.09785 4.78754C5.21765 4.93195 5.25066 5.06364 5.191 5.24501C5.11227 5.48342 5.06533 5.73259 5.00102 5.99278C5.04601 5.96928 5.07486 5.95484 5.10298 5.93942C5.37633 5.78913 5.65042 5.64031 5.92231 5.48709C5.97634 5.45674 6.01595 5.45331 6.07243 5.48538C6.34945 5.64252 6.6294 5.79427 6.90862 5.94725C6.93259 5.96023 6.95801 5.97051 6.99542 5.98813C6.91816 5.67727 6.84628 5.3811 6.76975 5.08616C6.75361 5.02374 6.75997 4.97748 6.80007 4.92486C7.01131 4.64827 7.21865 4.3685 7.42697 4.08971C7.44555 4.06474 7.46242 4.03831 7.49103 3.9967C7.43968 3.9967 7.40521 3.9967 7.37073 3.9967C7.0942 3.9967 6.81767 3.99449 6.54114 3.99816C6.47341 3.99914 6.43723 3.97981 6.40935 3.91543C6.2893 3.63811 6.16338 3.36324 6.03918 3.08763C6.02842 3.06364 6.01399 3.04137 5.99419 3.00539C5.86876 3.28344 5.74113 3.5402 5.63746 3.80602C5.57951 3.95509 5.50592 4.01187 5.34088 4.00135C5.06948 3.98397 4.79638 3.9967 4.49955 3.9967H4.49979ZM9.00474 2.50018V4.44071C9.05608 4.42847 9.10107 4.42235 9.14263 4.40668C9.53139 4.25909 9.80108 3.98715 9.92162 3.59185C9.97834 3.40607 9.98299 3.20267 9.99668 3.00636C10.0084 2.83919 9.99912 2.67054 9.99912 2.49994H9.00474V2.50018ZM2.99073 4.43605V2.50337H1.99781C1.99781 2.71142 2.0005 2.91262 1.99732 3.11357C1.99072 3.50961 2.12935 3.84469 2.41615 4.11565C2.57826 4.26863 2.76652 4.37976 2.99073 4.43605V4.43605Z" stroke="#2E50A3" stroke-width="0.7" stroke-miterlimit="10" stroke-linejoin="round"/>
</svg>
