<svg width="18" height="16" viewBox="0 0 18 16" fill="none" xmlns="http://www.w3.org/2000/svg">
<path d="M7 5V0L12 5H7ZM17.6344 7.81563C18.1219 8.30313 18.1219 9.09688 17.6344 9.58438L16.7125 10.5031L14.4969 8.2875L15.4156 7.36562C15.9031 6.87812 16.6938 6.87812 17.1844 7.36562L17.6344 7.81563ZM9.74687 13.0344L13.7875 8.99375L16.0063 11.2125L11.9656 15.2531C11.8375 15.3813 11.6781 15.4719 11.5031 15.5156L9.62187 15.9844C9.45 16.0281 9.27188 15.9781 9.14688 15.8531C9.02188 15.7281 8.97187 15.55 9.01562 15.3781L9.48438 13.4969C9.52813 13.3219 9.61875 13.1625 9.74687 13.0344Z" fill="#797979"/>
<path opacity="0.4" d="M0 2C0 0.895313 0.895313 0 2 0H7V5H12V9.35938L9.04062 12.3219C8.78437 12.5781 8.60312 12.8969 8.51562 13.2219L8.04375 15.1281C7.97187 15.4219 7.99062 15.725 8.0875 16H2C0.895313 16 0 15.1031 0 14V2Z" fill="#797979"/>
</svg>
