<svg width="16" height="16" viewBox="0 0 16 16" fill="none" xmlns="http://www.w3.org/2000/svg">
<path d="M5.70937 14.35C5.50312 14.5563 5.24687 14.7094 4.96562 14.7907L0.961555 15.9688C0.69843 16.0469 0.413743 15.975 0.21968 15.7532C0.0256117 15.5875 -0.0469446 15.3032 0.0304929 15.0375L1.20843 11.0344C1.29124 10.7532 1.44281 10.4969 1.64999 10.2907L9.46874 2.46973L13.5031 6.50316L5.70937 14.35Z" fill="#797979"/>
<path opacity="0.4" d="M11.3344 0.603713C12.1156 -0.177475 13.3844 -0.177475 14.1656 0.603713L15.3969 1.8359C16.1781 2.61684 16.1781 3.88434 15.3969 4.66559L13.5031 6.50309L9.46875 2.46965L11.3344 0.603713Z" fill="#797979"/>
</svg>
