<svg width="11" height="11" viewBox="0 0 11 11" fill="none" xmlns="http://www.w3.org/2000/svg">
<path fill-rule="evenodd" clip-rule="evenodd" d="M4.86465 9.6539L9.32573 5.43021C10.0672 4.72815 10.0099 3.48535 9.19925 2.68842C8.40766 1.91025 7.20041 1.85678 6.50266 2.56898L2.16322 6.99826C2.16322 6.99826 3.1245 7.38071 3.80005 8.04481C4.47561 8.70891 4.86465 9.6539 4.86465 9.6539Z" fill="white"/>
<path d="M4.86465 9.6539L4.40495 9.80037C4.47128 9.96149 4.6112 10.0869 4.77714 10.134C4.94309 10.181 5.11272 10.1434 5.22838 10.0339L4.86465 9.6539ZM2.16322 6.99826L1.78812 6.62944C1.67503 6.74487 1.63534 6.91675 1.68289 7.08512C1.73044 7.2535 1.85864 7.39502 2.02277 7.46032L2.16322 6.99826ZM9.32573 5.43021L8.96199 5.05021L9.32573 5.43021ZM2.53832 7.36709L6.87777 2.9378L6.12756 2.20016L1.78812 6.62944L2.53832 7.36709ZM8.96199 5.05021L4.50091 9.2739L5.22838 10.0339L9.68946 5.81021L8.96199 5.05021ZM2.16322 6.99826C2.02277 7.46032 2.02268 7.46028 2.0226 7.46025C2.02258 7.46024 2.0225 7.46021 2.02245 7.46019C2.02236 7.46016 2.02229 7.46013 2.02223 7.4601C2.0221 7.46005 2.02204 7.46003 2.02203 7.46002C2.02201 7.46001 2.02221 7.4601 2.02264 7.46027C2.02349 7.46061 2.02523 7.46132 2.02781 7.46238C2.03297 7.4645 2.0415 7.46805 2.0531 7.47299C2.07632 7.48287 2.11173 7.4983 2.15695 7.51907C2.24762 7.56071 2.37643 7.62319 2.52473 7.70475C2.82675 7.87087 3.18503 8.1028 3.46942 8.38238L4.13069 7.70725C3.73953 7.32272 3.27939 7.03137 2.93188 6.84024C2.75542 6.74318 2.60168 6.66855 2.491 6.61772C2.43555 6.59226 2.39058 6.57262 2.35859 6.559C2.34259 6.55219 2.3298 6.54687 2.32055 6.54306C2.31593 6.54116 2.31218 6.53963 2.30936 6.53849C2.30794 6.53792 2.30676 6.53744 2.30581 6.53706C2.30534 6.53687 2.30492 6.53671 2.30456 6.53656C2.30438 6.53649 2.30422 6.53643 2.30407 6.53637C2.304 6.53634 2.3039 6.5363 2.30386 6.53628C2.30376 6.53624 2.30367 6.53621 2.16322 6.99826ZM3.46942 8.38238C3.75356 8.66169 3.98893 9.01317 4.15735 9.3091C4.24009 9.45447 4.30344 9.58069 4.34563 9.66946C4.36666 9.71374 4.38228 9.74837 4.39227 9.77103C4.39725 9.78235 4.40082 9.79066 4.40295 9.79565C4.40401 9.79815 4.40471 9.79981 4.40505 9.80062C4.40521 9.80101 4.40529 9.8012 4.40527 9.80116C4.40527 9.80114 4.40524 9.80106 4.40518 9.80093C4.40515 9.80087 4.40512 9.80079 4.40508 9.80069C4.40506 9.80065 4.40503 9.80057 4.40502 9.80054C4.40499 9.80046 4.40495 9.80037 4.86465 9.6539C5.32434 9.50743 5.32431 9.50734 5.32426 9.50724C5.32425 9.5072 5.32421 9.5071 5.32418 9.50702C5.32411 9.50687 5.32405 9.50671 5.32397 9.50653C5.32382 9.50617 5.32365 9.50575 5.32345 9.50527C5.32306 9.50432 5.32256 9.50314 5.32197 9.50173C5.32079 9.49891 5.31923 9.49519 5.31728 9.4906C5.31337 9.48143 5.30792 9.46879 5.30096 9.45297C5.28703 9.42136 5.26697 9.37698 5.24098 9.32228C5.18911 9.21312 5.11298 9.06158 5.01401 8.88769C4.81903 8.5451 4.52211 8.09203 4.13069 7.70725L3.46942 8.38238ZM9.68946 5.81021C10.625 4.92441 10.5527 3.35636 9.52988 2.35086L8.86862 3.02598C9.46712 3.61435 9.50945 4.53189 8.96199 5.05021L9.68946 5.81021ZM6.87777 2.9378C7.39291 2.412 8.2842 2.45148 8.86862 3.02598L9.52988 2.35086C8.53113 1.36903 7.00792 1.30157 6.12756 2.20016L6.87777 2.9378Z" fill="#3052A1"/>
<path d="M2.0919 10.3709L4.86188 9.65795C4.86188 9.65795 4.47371 8.71261 3.79877 8.04789C3.12383 7.38317 2.1629 6.99986 2.1629 6.99986L1.43588 9.70919C1.33465 10.0864 1.71331 10.4684 2.0919 10.3709Z" fill="white"/>
<path d="M4.86188 9.65795L5.03391 10.1431C5.16269 10.11 5.26642 10.0236 5.32084 9.90427C5.37525 9.78492 5.37557 9.64306 5.32171 9.51189L4.86188 9.65795ZM2.0919 10.3709L1.91987 9.88576L1.91987 9.88576L2.0919 10.3709ZM1.43588 9.70919L1.91987 9.88576L1.43588 9.70919ZM2.1629 6.99986L2.30378 6.53793C2.17389 6.48612 2.03409 6.48723 1.91632 6.54101C1.79856 6.59479 1.7129 6.69665 1.67891 6.8233L2.1629 6.99986ZM3.79877 8.04789L3.46783 8.38515L3.46783 8.38515L3.79877 8.04789ZM4.68985 9.17277L1.91987 9.88576L2.26393 10.8561L5.03391 10.1431L4.68985 9.17277ZM1.91987 9.88576L2.64689 7.17642L1.67891 6.8233L0.951894 9.53263L1.91987 9.88576ZM2.1629 6.99986C2.02202 7.46178 2.02194 7.46175 2.02185 7.46172C2.02183 7.46171 2.02175 7.46168 2.02171 7.46166C2.02162 7.46162 2.02154 7.46159 2.02148 7.46157C2.02136 7.46152 2.02129 7.46149 2.02128 7.46149C2.02126 7.46148 2.02147 7.46156 2.02189 7.46173C2.02274 7.46208 2.02448 7.46279 2.02706 7.46385C2.03222 7.46598 2.04074 7.46953 2.05234 7.47448C2.07555 7.48439 2.11095 7.49985 2.15615 7.52066C2.24679 7.56238 2.37553 7.62498 2.52376 7.70668C2.82563 7.87307 3.18369 8.10532 3.46783 8.38515L4.12971 7.71062C3.73891 7.32574 3.27904 7.03398 2.93171 6.84253C2.75533 6.74531 2.60166 6.67054 2.49103 6.61961C2.4356 6.5941 2.39065 6.57442 2.35867 6.56077C2.34268 6.55394 2.3299 6.54861 2.32065 6.5448C2.31603 6.54289 2.31229 6.54136 2.30946 6.54022C2.30805 6.53964 2.30686 6.53917 2.30592 6.53879C2.30544 6.5386 2.30503 6.53843 2.30467 6.53829C2.30449 6.53821 2.30433 6.53815 2.30418 6.53809C2.3041 6.53806 2.304 6.53802 2.30397 6.538C2.30387 6.53797 2.30378 6.53793 2.1629 6.99986ZM3.46783 8.38515C3.7517 8.66473 3.98675 9.01642 4.1549 9.3125C4.23751 9.45795 4.30074 9.58422 4.34284 9.67304C4.36384 9.71733 4.37943 9.75198 4.38939 9.77465C4.39437 9.78597 4.39793 9.79428 4.40005 9.79928C4.40111 9.80177 4.40181 9.80344 4.40214 9.80424C4.40231 9.80464 4.40239 9.80482 4.40237 9.80479C4.40236 9.80477 4.40233 9.80469 4.40228 9.80456C4.40225 9.8045 4.40222 9.80442 4.40218 9.80432C4.40216 9.80428 4.40213 9.80419 4.40212 9.80417C4.40208 9.80409 4.40205 9.804 4.86188 9.65795C5.32171 9.51189 5.32167 9.5118 5.32163 9.5117C5.32162 9.51166 5.32158 9.51156 5.32154 9.51148C5.32148 9.51133 5.32141 9.51117 5.32134 9.51099C5.32119 9.51063 5.32102 9.51021 5.32082 9.50973C5.32043 9.50878 5.31993 9.50759 5.31935 9.50619C5.31817 9.50337 5.31661 9.49965 5.31466 9.49506C5.31076 9.48588 5.30533 9.47323 5.29837 9.45741C5.28447 9.42578 5.26446 9.38138 5.23852 9.32666C5.18675 9.21746 5.11076 9.06585 5.01195 8.89187C4.81729 8.5491 4.52078 8.09577 4.12971 7.71062L3.46783 8.38515ZM1.91987 9.88576L1.91987 9.88576L0.951894 9.53263C0.749443 10.2871 1.50675 11.051 2.26393 10.8561L1.91987 9.88576Z" fill="#3052A1"/>
</svg>
