<svg width="18" height="16" viewBox="0 0 18 16" fill="none" xmlns="http://www.w3.org/2000/svg">
<g clip-path="url(#clip0_370_3344)">
<path d="M9 11.5C9 9.01562 11.0156 7 13.5 7C15.9844 7 18 9.01562 18 11.5C18 13.9844 15.9844 16 13.5 16C11.0156 16 9 13.9844 9 11.5ZM15.6031 10.8531C15.8 10.6594 15.8 10.3406 15.6031 10.1469C15.4094 9.95 15.0906 9.95 14.8969 10.1469L13 12.0437L12.1031 11.1469C11.9094 10.95 11.5906 10.95 11.3969 11.1469C11.2 11.3406 11.2 11.6594 11.3969 11.8531L12.6469 13.1031C12.8406 13.3 13.1594 13.3 13.3531 13.1031L15.6031 10.8531Z" fill="#797979"/>
<path opacity="0.4" d="M3.50012 1.5C3.50012 0.671562 4.172 0 5.00012 0C5.82825 0 6.50012 0.671562 6.50012 1.5C6.50012 2.32844 5.82825 3 5.00012 3C4.172 3 3.50012 2.32844 3.50012 1.5ZM3.75012 16C3.197 16 2.75012 15.5531 2.75012 15V8.02812L1.85731 9.51562C1.57293 9.9875 0.958559 10.1406 0.485121 9.85625C0.0116712 9.57187 -0.141473 8.95938 0.143027 8.48438L1.96418 5.45625C2.50637 4.55313 3.48137 4 4.5345 4H5.46575C6.51887 4 7.49387 4.55313 8.03762 5.45625L9.44075 7.79063C8.9095 8.34062 8.54387 8.99062 8.297 9.7125C8.23762 9.65312 8.1595 9.5875 8.14387 9.51562L7.25012 8.02812V15C7.25012 15.5531 6.80325 16 6.25012 16C5.697 16 5.25012 15.5531 5.25012 15V11H4.75012V15C4.75012 15.5531 4.30325 16 3.75012 16Z" fill="#797979"/>
</g>
<defs>
<clipPath id="clip0_370_3344">
<rect width="18" height="16" fill="white"/>
</clipPath>
</defs>
</svg>
