<svg width="14" height="16" viewBox="0 0 14 16" fill="none" xmlns="http://www.w3.org/2000/svg">
<g clip-path="url(#clip0_333_1996)">
<path d="M1.5503 10.3906C1.84312 10.0969 2.31812 10.0969 2.61093 10.3906C4.75937 12.5375 8.24062 12.5375 10.3906 10.3906C12.5375 8.24062 12.5375 4.75937 10.3906 2.61093C10.0969 2.31812 10.0969 1.84312 10.3906 1.5503L11.4687 0.46968C11.7625 0.176773 12.2375 0.176773 12.5031 0.46968C12.8219 0.762492 12.8219 1.23749 12.5031 1.5303L11.9531 2.10874C14.1719 4.85624 14.0031 8.89374 11.45 11.45C10.275 12.625 8.78437 13.2969 7.24999 13.4594V14.5H10.25C10.6656 14.5 11 14.8344 11 15.25C11 15.6656 10.6656 16 10.25 16H2.72187C2.33562 16 1.97187 15.6656 1.97187 15.25C1.97187 14.8344 2.33562 14.5 2.72187 14.5H5.72187V13.4594C4.44999 13.3219 3.18124 12.8187 2.10874 11.9531L1.5303 12.5031C1.23749 12.8219 0.762492 12.8219 0.46968 12.5031C0.176773 12.2375 0.176773 11.7625 0.46968 11.4687L1.5503 10.3906Z" fill="#8E94C4"/>
<path opacity="0.4" d="M11 6.5C11 8.98438 8.98438 11 6.5 11C4.01562 11 2 8.98438 2 6.5C2 4.01562 4.01562 2 6.5 2C8.98438 2 11 4.01562 11 6.5Z" fill="#8E94C4"/>
</g>
<defs>
<clipPath id="clip0_333_1996">
<rect width="14" height="16" fill="white"/>
</clipPath>
</defs>
</svg>
