<svg width="20" height="16" viewBox="0 0 20 16" fill="none" xmlns="http://www.w3.org/2000/svg">
<path d="M0 14C0 13.4469 0.447812 13 1 13H19C19.5531 13 20 13.4469 20 14C20 14.5531 19.5531 15 19 15H1C0.447812 15 0 14.5531 0 14Z" fill="#8E94C4"/>
<path opacity="0.4" d="M2.6 3C2.6 1.89531 3.49687 1 4.6 1C5.70312 1 6.6 1.89531 6.6 3C6.6 4.10313 5.70312 5 4.6 5C3.49687 5 2.6 4.10313 2.6 3ZM6 6C6.38125 6 6.74062 6.10625 7.04375 6.29375C5.88125 6.76562 4.99375 7.76875 4.675 9H2C1.44781 9 1 8.55312 1 8C1 6.89687 1.89531 6 3 6H6ZM18 9H15.425C15.1 7.74687 14.1594 6.73125 12.9969 6.26875C13.2906 6.09688 13.6344 6 14 6H17C18.1031 6 19 6.89687 19 8C19 8.55312 18.5531 9 18 9ZM14.55 10C14.55 10.5531 14.1031 11 13.55 11H6.55C5.99688 11 5.55 10.5531 5.55 10C5.55 9.65 5.60938 9.3125 5.72188 9C6.05 8.07188 6.82188 7.35 7.78438 7.09688C8.00313 7.03438 8.28438 7 8.55 7H11.55C11.7812 7 12.0094 7.025 12.225 7.075C13.2281 7.30625 14.0406 8.04063 14.3781 9C14.4906 9.3125 14.55 9.65 14.55 10ZM13.6 3C13.6 1.89531 14.4969 1 15.6 1C16.7031 1 17.6 1.89531 17.6 3C17.6 4.10313 16.7031 5 15.6 5C14.4969 5 13.6 4.10313 13.6 3ZM12.55 3.5C12.55 4.88125 11.4313 6 10.05 6C8.66875 6 7.55 4.88125 7.55 3.5C7.55 2.11937 8.66875 1 10.05 1C11.4313 1 12.55 2.11937 12.55 3.5Z" fill="#8E94C4"/>
</svg>
