<svg width="12" height="16" viewBox="0 0 12 16" fill="none" xmlns="http://www.w3.org/2000/svg">
<path d="M8 0V4H12L8 0ZM8.5 12H3.5C3.225 12 3 12.225 3 12.5C3 12.775 3.225 13 3.5 13H8.5C8.77612 13 9 12.7761 9 12.5C9 12.2239 8.775 12 8.5 12ZM8.5 10H3.5C3.225 10 3 10.225 3 10.5C3 10.775 3.225 11 3.5 11H8.5C8.77612 11 9 10.7761 9 10.5C9 10.2239 8.775 10 8.5 10ZM8.5 8H3.5C3.225 8 3 8.225 3 8.5C3 8.775 3.225 9 3.5 9H8.5C8.775 9 9 8.775 9 8.5C9 8.225 8.775 8 8.5 8Z" fill="#5CCFDD"/>
<path opacity="0.4" d="M8 4V0H1.5C0.671562 0 0 0.671562 0 1.5V14.5C0 15.3281 0.671562 16 1.5 16H10.5C11.3284 16 12 15.3284 12 14.5V4H8ZM8.5 13H3.5C3.225 13 3 12.775 3 12.5C3 12.225 3.225 12 3.5 12H8.5C8.77612 12 9 12.2239 9 12.5C9 12.7761 8.775 13 8.5 13ZM8.5 11H3.5C3.225 11 3 10.775 3 10.5C3 10.225 3.225 10 3.5 10H8.5C8.77612 10 9 10.2239 9 10.5C9 10.7761 8.775 11 8.5 11ZM8.5 9H3.5C3.225 9 3 8.775 3 8.5C3 8.225 3.225 8 3.5 8H8.5C8.775 8 9 8.225 9 8.5C9 8.775 8.775 9 8.5 9Z" fill="#5CCFDD"/>
</svg>
