<svg width="18" height="16" viewBox="0 0 18 16" fill="none" xmlns="http://www.w3.org/2000/svg">
<path d="M9 11.5C9 9.01562 11.0156 7 13.5 7C15.9844 7 18 9.01562 18 11.5C18 13.9844 15.9844 16 13.5 16C11.0156 16 9 13.9844 9 11.5ZM15.6031 10.8531C15.8 10.6594 15.8 10.3406 15.6031 10.1469C15.4094 9.95 15.0906 9.95 14.8969 10.1469L13 12.0437L12.1031 11.1469C11.9094 10.95 11.5906 10.95 11.3969 11.1469C11.2 11.3406 11.2 11.6594 11.3969 11.8531L12.6469 13.1031C12.8406 13.3 13.1594 13.3 13.3531 13.1031L15.6031 10.8531Z" fill="#5CCFDD"/>
<path opacity="0.4" d="M10 0C11.1031 0 12 0.895313 12 2V6.20625C9.69063 6.85938 8 8.98125 8 11.5C8 13.3469 8.90938 14.9781 10.3031 15.9781C10.2063 15.9906 10.1031 16 10 16H2C0.895313 16 0 15.1031 0 14V2C0 0.895313 0.895313 0 2 0H10ZM2.5 4C2.22375 4 2 4.225 2 4.5C2 4.775 2.22375 5 2.5 5H9.5C9.775 5 10 4.775 10 4.5C10 4.225 9.775 4 9.5 4H2.5ZM2.5 8H7.5C7.775 8 8 7.775 8 7.5C8 7.225 7.775 7 7.5 7H2.5C2.22375 7 2 7.225 2 7.5C2 7.775 2.22375 8 2.5 8ZM2.5 11H5.5C5.775 11 6 10.775 6 10.5C6 10.225 5.775 10 5.5 10H2.5C2.22375 10 2 10.225 2 10.5C2 10.775 2.22375 11 2.5 11Z" fill="#5CCFDD"/>
</svg>
