<svg width="211" height="354" viewBox="0 0 211 354" fill="none" xmlns="http://www.w3.org/2000/svg">
<g clip-path="url(#clip0_5_702)">
<path d="M58.0251 212.344L15.3215 236.997L-11.6245 221.32L29.911 197.352L58.0251 212.344Z" fill="#2B519E" fill-opacity="0.1"/>
<path d="M58.3984 244.135L58.0249 212.344L15.3213 236.997L15.6868 268.78L58.3984 244.135Z" fill="#1AA8DF" fill-opacity="0.1"/>
<path d="M40.9644 272.395L83.7315 296.944L83.7792 328.146L42.1801 304.273L40.9644 272.395Z" fill="#2B519E" fill-opacity="0.1"/>
<path d="M68.2044 256.072L40.9644 272.394L83.7315 296.943L110.972 280.614L68.2044 256.072Z" fill="#1AA8DF" fill-opacity="0.1"/>
<path d="M-8.89893 211.333V161.964L18.1107 146.406V194.423L-8.89893 211.333Z" fill="#2B519E" fill-opacity="0.1"/>
<path d="M-40.2236 125.27L2.48794 100.617L29.434 116.286L-12.1095 140.263L-40.2236 125.27Z" fill="#2B519E" fill-opacity="0.1"/>
<path d="M-40.5889 93.4792L-40.2233 125.27L2.48824 100.617L2.1227 68.8262L-40.5889 93.4792Z" fill="#1AA8DF" fill-opacity="0.1"/>
<path d="M131.862 262.271V212.901L158.88 197.352V245.361L131.862 262.271Z" fill="#2B519E" fill-opacity="0.1"/>
<path d="M104.177 246.713L131.862 262.271V212.901L104.177 197.352V246.713Z" fill="#1AA8DF" fill-opacity="0.1"/>
<path d="M211 275.783L168.225 251.241L168.177 220.039L209.776 243.912L211 275.783Z" fill="#2B519E" fill-opacity="0.1"/>
<path d="M183.76 292.105L211 275.784L168.225 251.242L140.985 267.564L183.76 292.105Z" fill="#1AA8DF" fill-opacity="0.1"/>
<path d="M30.2285 76.6653V27.2955L57.2381 11.7461V59.7551L30.2285 76.6653Z" fill="#2B519E" fill-opacity="0.1"/>
<path d="M2.53564 61.1079L30.2286 76.6653V27.2955L2.53564 11.7461V61.1079Z" fill="#1AA8DF" fill-opacity="0.1"/>
<path d="M109.358 90.1776L66.5832 65.6359L66.5435 34.4336L108.143 58.2989L109.358 90.1776Z" fill="#2B519E" fill-opacity="0.1"/>
<path d="M82.1184 106.5L109.358 90.1784L66.5833 65.6367L39.3433 81.958L82.1184 106.5Z" fill="#1AA8DF" fill-opacity="0.1"/>
<path d="M83.6362 169.468V120.098L110.646 104.549V152.558L83.6362 169.468Z" fill="#2B519E" fill-opacity="0.1"/>
<path d="M55.9512 153.911L83.6362 169.468V120.098L55.9512 104.549V153.911Z" fill="#1AA8DF" fill-opacity="0.1"/>
<path d="M162.766 182.98L119.999 158.439L119.951 127.236L161.55 151.102L162.766 182.98Z" fill="#2B519E" fill-opacity="0.1"/>
<path d="M135.526 199.3L162.766 182.979L119.999 158.438L92.7588 174.759L135.526 199.3Z" fill="#1AA8DF" fill-opacity="0.1"/>
<path d="M45.3744 337.678L2.60725 313.136L2.55957 281.926L44.1587 305.799L45.3744 337.678Z" fill="#2B519E" fill-opacity="0.1"/>
<path d="M18.1344 354L45.3744 337.678L2.60723 313.137L-24.6328 329.458L18.1344 354Z" fill="#1AA8DF" fill-opacity="0.1"/>
</g>
<defs>
<clipPath id="clip0_5_702">
<rect width="340" height="354" fill="white" transform="translate(-129)"/>
</clipPath>
</defs>
</svg>
