<svg width="24" height="25" viewBox="0 0 24 25" fill="none" xmlns="http://www.w3.org/2000/svg">
<path d="M11.05 14.9539L9.2 16.8039C8.81 17.1939 8.19 17.1939 7.79 16.8139C7.68 16.7039 7.57 16.6039 7.46 16.4939C6.43 15.4539 5.5 14.3639 4.67 13.2239C3.85 12.0839 3.19 10.9439 2.71 9.81391C2.24 8.67391 2 7.58391 2 6.54391C2 5.86391 2.12 5.21391 2.36 4.61391C2.6 4.00391 2.98 3.44391 3.51 2.94391C4.15 2.31391 4.85 2.00391 5.59 2.00391C5.87 2.00391 6.15 2.06391 6.4 2.18391C6.66 2.30391 6.89 2.48391 7.07 2.74391L9.39 6.01391C9.57 6.26391 9.7 6.49391 9.79 6.71391C9.88 6.92391 9.93 7.13391 9.93 7.32391C9.93 7.56391 9.86 7.80391 9.72 8.03391C9.59 8.26391 9.4 8.50391 9.16 8.74391L8.4 9.53391C8.29 9.64391 8.24 9.77391 8.24 9.93391C8.24 10.0139 8.25 10.0839 8.27 10.1639C8.3 10.2439 8.33 10.3039 8.35 10.3639C8.53 10.6939 8.84 11.1239 9.28 11.6439C9.73 12.1639 10.21 12.6939 10.73 13.2239C10.83 13.3239 10.94 13.4239 11.04 13.5239C11.44 13.9139 11.45 14.5539 11.05 14.9539Z" fill="#D36394"/>
<path d="M21.9701 18.333C21.9701 18.613 21.9201 18.903 21.8201 19.183C21.7901 19.263 21.7601 19.343 21.7201 19.423C21.5501 19.783 21.3301 20.123 21.0401 20.443C20.5501 20.983 20.0101 21.373 19.4001 21.623C19.3901 21.623 19.3801 21.633 19.3701 21.633C18.7801 21.873 18.1401 22.003 17.4501 22.003C16.4301 22.003 15.3401 21.763 14.1901 21.273C13.0401 20.783 11.8901 20.123 10.7501 19.293C10.3601 19.003 9.9701 18.713 9.6001 18.403L12.8701 15.133C13.1501 15.343 13.4001 15.503 13.6101 15.613C13.6601 15.633 13.7201 15.663 13.7901 15.693C13.8701 15.723 13.9501 15.733 14.0401 15.733C14.2101 15.733 14.3401 15.673 14.4501 15.563L15.2101 14.813C15.4601 14.563 15.7001 14.373 15.9301 14.253C16.1601 14.113 16.3901 14.043 16.6401 14.043C16.8301 14.043 17.0301 14.083 17.2501 14.173C17.4701 14.263 17.7001 14.393 17.9501 14.563L21.2601 16.913C21.5201 17.093 21.7001 17.303 21.8101 17.553C21.9101 17.803 21.9701 18.053 21.9701 18.333Z" fill="#D36394"/>
</svg>
