<svg width="24" height="24" viewBox="0 0 24 24" fill="none" xmlns="http://www.w3.org/2000/svg">
<g clip-path="url(#clip0_5_1006)">
<path d="M8.29661 24H7.68724C7.54755 23.9559 7.40739 23.9137 7.26864 23.8678C5.31911 23.2195 3.36817 22.5745 1.42052 21.9197C0.685049 21.6727 0.218643 21.1659 0.0423926 20.4028C0.0339551 20.3662 0.0142676 20.3325 -0.000732422 20.2969C-0.000732422 14.0939 -0.000732422 7.89047 -0.000732422 1.6875C0.0189551 1.63078 0.0409863 1.575 0.0573926 1.51687C0.252861 0.825469 0.686924 0.353906 1.36099 0.105469C1.46833 0.0660937 1.57849 0.0351562 1.68724 0C5.57786 0 9.46849 0 13.3591 0C13.4182 0.0159375 13.4768 0.0370312 13.5368 0.0478125C14.8371 0.276094 15.9279 1.43391 15.9766 2.71734C16.0188 3.83297 15.9925 4.95141 15.9897 6.06844C15.9888 6.35859 15.8519 6.59625 15.6274 6.77437C15.3119 7.02422 14.9571 7.07109 14.5929 6.90797C14.2188 6.74016 14.0111 6.43781 14.0079 6.02297C14.0008 5.06203 14.0055 4.10109 14.0036 3.14016C14.0022 2.40234 13.6108 2.00531 12.8815 2.00437C11.4907 2.00297 10.1004 2.00391 8.70958 2.00437C8.64208 2.00437 8.57505 2.01047 8.49911 2.01422C8.51552 2.03859 8.52067 2.05547 8.53099 2.05969C9.62552 2.52328 9.9963 3.08297 9.9963 4.27359C9.9963 9.07828 9.9963 13.883 9.9963 18.6877V18.9966C10.121 18.9966 10.2063 18.9966 10.2911 18.9966C11.1429 18.9966 11.9941 18.9966 12.8458 18.9966C13.6225 18.9961 14.0032 18.6108 14.0036 17.8256C14.0041 16.5914 14.0027 15.3567 14.0055 14.1225C14.0055 13.9908 14.0088 13.8539 14.0425 13.7283C14.1672 13.2642 14.629 12.9511 15.0888 13.0045C15.6105 13.065 15.9874 13.4512 15.9911 13.9725C16.001 15.3084 16.0029 16.6444 15.994 17.9803C15.9822 19.6983 14.6716 20.9948 12.9532 21C12.0546 21.0028 11.1565 21.0005 10.2579 21.0005H9.99161C9.99161 21.3872 10.0015 21.7378 9.98927 22.088C9.9677 22.7119 9.70755 23.2308 9.19802 23.5842C8.92989 23.7698 8.59942 23.8645 8.29708 24.0005L8.29661 24Z" fill="url(#paint0_linear_5_1006)"/>
<path d="M24.0001 10.2187C23.8182 10.4662 23.6631 10.7404 23.4498 10.957C22.2329 12.1922 21.001 13.4128 19.7762 14.6409C19.5113 14.9062 19.2057 15.0511 18.8274 14.9831C18.3306 14.8936 18.0038 14.4918 18.0015 13.9659C17.9973 13.0753 18.0001 12.1851 18.0001 11.2945C18.0001 11.2097 18.0001 11.1244 18.0001 11.0039C17.896 11.0039 17.8065 11.0039 17.7165 11.0039C16.5057 11.0039 15.2949 11.0058 14.0841 11.0029C13.5254 11.0015 13.1223 10.6908 13.0238 10.199C12.8963 9.5606 13.3595 9.00372 14.0321 9.00138C15.2584 8.99669 16.4851 8.99997 17.7113 8.99997C17.7966 8.99997 17.8815 8.99997 18.0001 8.99997C18.0001 8.90576 18.0001 8.82372 18.0001 8.74122C18.0001 7.85857 18.0038 6.97591 17.9987 6.09326C17.9959 5.62498 18.1796 5.26497 18.6156 5.08357C19.0506 4.90263 19.4368 5.02029 19.7682 5.35263C21.0643 6.65247 22.367 7.94623 23.657 9.25216C23.8041 9.40123 23.8876 9.61404 24.0006 9.79732V10.2192L24.0001 10.2187Z" fill="url(#paint1_linear_5_1006)"/>
</g>
<defs>
<linearGradient id="paint0_linear_5_1006" x1="7.99982" y1="0" x2="7.99982" y2="24.0005" gradientUnits="userSpaceOnUse">
<stop stop-color="#5CD0DF"/>
<stop offset="1" stop-color="#41AEBC"/>
</linearGradient>
<linearGradient id="paint1_linear_5_1006" x1="18.5016" y1="4.99884" x2="18.5016" y2="14.9998" gradientUnits="userSpaceOnUse">
<stop stop-color="#5CD0DF"/>
<stop offset="1" stop-color="#41AEBC"/>
</linearGradient>
<clipPath id="clip0_5_1006">
<rect width="24" height="24" fill="white"/>
</clipPath>
</defs>
</svg>
