<svg width="18" height="19" viewBox="0 0 18 19" fill="none" xmlns="http://www.w3.org/2000/svg">
<path d="M17.907 5.78482C18.12 6.27679 17.953 6.79137 17.55 7.19851L16.2718 8.31816C16.3351 8.70268 16.3697 9.09851 16.3697 9.44911C16.3697 9.90149 16.3351 10.2973 16.2718 10.6818L17.55 11.8015C17.953 12.1577 18.12 12.6723 17.907 13.2152C17.7745 13.464 17.6306 13.8089 17.4694 14.0917L17.2909 14.397C17.0663 14.6798 16.9282 14.9512 16.7266 15.217C16.3984 15.6467 15.8227 15.7881 15.3045 15.6185L13.675 15.0926C13.0589 15.5958 12.3565 15.9973 11.5907 16.2801L11.1934 17.9199C11.1301 18.4458 10.7155 18.8643 10.1743 18.9321C9.78853 18.9774 9.397 19 8.99972 19C8.60243 19 8.21091 18.9774 7.82514 18.9321C7.28391 18.8643 6.81753 18.4458 6.75419 17.9199L6.35691 16.2801C5.64294 15.9973 4.9405 15.5958 4.32154 15.0926L2.6967 15.6185C2.17907 15.7881 1.60215 15.6467 1.27395 15.217C1.07013 14.9512 0.880124 14.6741 0.705088 14.3914L0.531203 14.0917C0.370562 13.8089 0.22443 13.5149 0.0938438 13.2152C-0.119424 12.6723 0.0439816 12.1577 0.450595 11.8015L1.72767 10.6818C1.66318 10.2973 1.57796 9.90149 1.57796 9.44911C1.57796 9.09851 1.66318 8.70268 1.72767 8.31816L0.450595 7.19851C0.0439816 6.79137 -0.119424 6.27679 0.0938438 5.78482C0.22443 5.43423 0.370562 5.19051 0.530628 4.90607L0.705664 4.6092C0.880124 4.32363 1.07013 4.04768 1.27395 3.78247C1.60215 3.35554 2.17907 3.2136 2.6967 3.38098L4.32154 3.90687C4.9405 3.40699 5.64294 3.00438 6.35691 2.72277L6.75419 1.07893C6.81753 0.554167 7.28391 0.134018 7.82514 0.0696101C8.21091 0.0236369 8.60243 0 8.99972 0C9.397 0 9.78853 0.0236369 10.1743 0.0695535C10.7155 0.134018 11.1301 0.554167 11.1934 1.07893L11.5907 2.72277C12.3565 3.00438 13.0589 3.40699 13.675 3.90687L15.3045 3.38098C15.8227 3.2136 16.3984 3.35554 16.7266 3.78247C16.9282 4.04655 17.0663 4.32137 17.2909 4.60524L17.4694 4.91003C17.6306 5.19333 17.7745 5.48512 17.907 5.78482ZM8.99972 12.1634C10.5255 12.1634 11.7634 10.9985 11.7634 9.44911C11.7634 8.00149 10.5255 6.73482 8.99972 6.73482C7.47391 6.73482 6.23599 8.00149 6.23599 9.44911C6.23599 10.9985 7.47391 12.1634 8.99972 12.1634Z" fill="url(#paint0_linear_5_1003)"/>
<defs>
<linearGradient id="paint0_linear_5_1003" x1="9" y1="0" x2="9" y2="19" gradientUnits="userSpaceOnUse">
<stop stop-color="#DD7AA5"/>
<stop offset="1" stop-color="#CD578A"/>
</linearGradient>
</defs>
</svg>
